<?xml version="1.0" encoding="UTF-8"?>
<svg width="46px" height="44px" viewBox="0 0 46 44" version="1.1" xmlns="http://www.w3.org/2000/svg" xmlns:xlink="http://www.w3.org/1999/xlink">
    <!-- Generator: Sketch 63 (92445) - https://sketch.com -->
    <title>icon-马铃薯 2</title>
    <desc>Created with Sketch.</desc>
    <defs>
        <rect id="path-1" x="0" y="3" width="46" height="38"></rect>
        <filter x="-8.7%" y="-10.5%" width="117.4%" height="121.1%" filterUnits="objectBoundingBox" id="filter-2">
            <feGaussianBlur stdDeviation="4" in="SourceAlpha" result="shadowBlurInner1"></feGaussianBlur>
            <feOffset dx="0" dy="0" in="shadowBlurInner1" result="shadowOffsetInner1"></feOffset>
            <feComposite in="shadowOffsetInner1" in2="SourceAlpha" operator="arithmetic" k2="-1" k3="1" result="shadowInnerInner1"></feComposite>
            <feColorMatrix values="0 0 0 0 0.0691049408   0 0 0 0 0.28610826   0 0 0 0 0.581097147  0 0 0 0.7 0" type="matrix" in="shadowInnerInner1"></feColorMatrix>
        </filter>
        <polygon id="path-3" points="0 0 21.8475843 0 21.8475843 24.8906882 0 24.8906882"></polygon>
        <linearGradient x1="88.2823002%" y1="0.310378155%" x2="11.7526056%" y2="99.6313876%" id="linearGradient-5">
            <stop stop-color="#2BEDE8" offset="0%"></stop>
            <stop stop-color="#00BAFF" offset="99.9736064%"></stop>
        </linearGradient>
    </defs>
    <g id="页面-1" stroke="none" stroke-width="1" fill="none" fill-rule="evenodd">
        <g id="农林农况" transform="translate(-66.000000, -983.000000)">
            <g id="编组-2" transform="translate(20.000000, 90.000000)">
                <g id="编组-4" transform="translate(30.000000, 72.000000)">
                    <g id="政府项目备份" transform="translate(16.000000, 816.000000)">
                        <g id="icon-马铃薯-2" transform="translate(0.000000, 5.000000)">
                            <polygon id="矩形" fill="#417FC8" points="7.27623517e-12 0 46 0 46 1 7.27623517e-12 1"></polygon>
                            <polygon id="矩形" fill="#417FC8" points="0 43 46 43 46 44 0 44"></polygon>
                            <g id="矩形">
                                <use fill="#0D162C" fill-rule="evenodd" xlink:href="#path-1"></use>
                                <use fill="black" fill-opacity="1" filter="url(#filter-2)" xlink:href="#path-1"></use>
                            </g>
                            <g id="icon-马铃薯" transform="translate(12.000000, 10.000000)">
                                <mask id="mask-4" fill="white">
                                    <use xlink:href="#path-3"></use>
                                </mask>
                                <g id="Clip-2"></g>
                                <path d="M15.8395787,15.0592275 C15.3714607,13.4207444 13.6547472,12.4062781 12.0161236,12.8743961 C11.6260955,12.952486 11.3138764,13.4207444 11.4700562,13.8107725 C11.6260955,14.2010815 12.0161236,14.5130197 12.4064326,14.3569803 C13.2647191,14.1229916 14.1228652,14.5911096 14.2790449,15.4493961 C14.3569944,15.8395646 14.8251124,16.1516433 15.2154213,15.9956039 C15.6835393,15.917514 15.9176685,15.4493961 15.8395787,15.0592275 M18.1804494,5.69588483 C17.712191,4.05740169 15.995618,3.04307584 14.3569944,3.51119382 C13.9669663,3.58914326 13.6547472,4.05740169 13.810927,4.44757022 C13.9669663,4.83773876 14.3569944,5.14981742 14.7473034,4.99363764 C15.6054494,4.75964888 16.463736,5.22776685 16.6199157,6.08605337 C16.6978652,6.47622191 17.1659831,6.78830056 17.5562921,6.63226124 C18.0244101,6.5543118 18.2585393,6.08605337 18.1804494,5.69588483 M10.1435112,7.88071629 C8.66106742,7.02242978 6.71036517,7.56863764 5.85207865,9.05122191 C5.61794944,9.44125 5.77398876,9.90936798 6.1641573,10.1434972 C6.55432584,10.3776264 7.02244382,10.2215871 7.25657303,9.83141854 C7.72469101,9.05122191 8.66106742,8.8170927 9.36331461,9.28521067 C9.75348315,9.51933989 10.2216011,9.36330056 10.4557303,8.97313202 C10.6897191,8.58296348 10.5336798,8.11484551 10.1435112,7.88071629 M5.93002809,15.2152669 C4.29154494,14.7471489 2.57497191,15.7614747 2.10671348,17.4000983 C2.0286236,17.7901264 2.26275281,18.2583848 2.65292135,18.3364747 C3.04308989,18.4145646 3.51120787,18.1804354 3.58929775,17.7901264 C3.82328652,16.9319803 4.68171348,16.4637219 5.46191011,16.6978511 C5.85207865,16.775941 6.32019663,16.5418118 6.39828652,16.1516433 C6.55432584,15.7614747 6.32019663,15.2933567 5.93002809,15.2152669 M0.312050562,13.2647051 C1.56050562,6.71035112 6.71036517,1.56049157 13.1866292,0.312036517 C13.810927,0.0779073034 14.5131742,-4.21348315e-05 15.2154213,-4.21348315e-05 C18.8826966,-4.21348315e-05 21.8475843,2.96498596 21.8475843,6.63226124 C21.8475843,8.19279494 21.3015169,9.67537921 20.3652809,10.7677949 C19.3508146,11.9381601 18.7266573,13.4988343 18.7266573,15.1373174 L18.7266573,15.527486 C18.7266573,20.6772051 14.5131742,24.8906882 9.36331461,24.8906882 C4.21345506,24.8906882 -2.80898876e-05,20.7552949 -2.80898876e-05,15.6055758 C-2.80898876e-05,14.8252388 0.0780617978,13.9669522 0.312050562,13.2647051" id="Fill-1" fill="url(#linearGradient-5)" mask="url(#mask-4)"></path>
                            </g>
                        </g>
                    </g>
                </g>
            </g>
        </g>
    </g>
</svg>