<?xml version="1.0" encoding="UTF-8"?>
<svg width="46px" height="44px" viewBox="0 0 46 44" version="1.1" xmlns="http://www.w3.org/2000/svg" xmlns:xlink="http://www.w3.org/1999/xlink">
    <!-- Generator: Sketch 63 (92445) - https://sketch.com -->
    <title>编组 7</title>
    <desc>Created with Sketch.</desc>
    <defs>
        <rect id="path-1" x="0" y="3" width="46" height="38"></rect>
        <filter x="-8.7%" y="-10.5%" width="117.4%" height="121.1%" filterUnits="objectBoundingBox" id="filter-2">
            <feGaussianBlur stdDeviation="4" in="SourceAlpha" result="shadowBlurInner1"></feGaussianBlur>
            <feOffset dx="0" dy="0" in="shadowBlurInner1" result="shadowOffsetInner1"></feOffset>
            <feComposite in="shadowOffsetInner1" in2="SourceAlpha" operator="arithmetic" k2="-1" k3="1" result="shadowInnerInner1"></feComposite>
            <feColorMatrix values="0 0 0 0 0.0691049408   0 0 0 0 0.28610826   0 0 0 0 0.581097147  0 0 0 0.7 0" type="matrix" in="shadowInnerInner1"></feColorMatrix>
        </filter>
        <polygon id="path-3" points="0 0.000734693878 23.9005714 0.000734693878 23.9005714 24.4897959 0 24.4897959"></polygon>
        <linearGradient x1="97.3302176%" y1="0.310378155%" x2="2.71293816%" y2="99.6313876%" id="linearGradient-5">
            <stop stop-color="#2BEDE8" offset="0%"></stop>
            <stop stop-color="#00BAFF" offset="99.9736064%"></stop>
        </linearGradient>
    </defs>
    <g id="页面-1" stroke="none" stroke-width="1" fill="none" fill-rule="evenodd">
        <g id="农林农况" transform="translate(-66.000000, -835.000000)">
            <g id="编组-2" transform="translate(20.000000, 90.000000)">
                <g id="编组-4" transform="translate(30.000000, 72.000000)">
                    <g id="政府项目" transform="translate(16.000000, 668.000000)">
                        <g id="编组-7" transform="translate(0.000000, 5.000000)">
                            <polygon id="矩形" fill="#417FC8" points="7.27623517e-12 0 46 0 46 1 7.27623517e-12 1"></polygon>
                            <polygon id="矩形" fill="#417FC8" points="0 43 46 43 46 44 0 44"></polygon>
                            <g id="矩形">
                                <use fill="#0D162C" fill-rule="evenodd" xlink:href="#path-1"></use>
                                <use fill="black" fill-opacity="1" filter="url(#filter-2)" xlink:href="#path-1"></use>
                            </g>
                            <g id="icon-水稻-2" transform="translate(11.000000, 10.000000)">
                                <g id="icon-水稻">
                                    <mask id="mask-4" fill="white">
                                        <use xlink:href="#path-3"></use>
                                    </mask>
                                    <g id="Clip-30"></g>
                                    <path d="M22.906898,0.163481633 C23.1373469,-0.0590081632 23.5046939,-0.0526408163 23.7273061,0.177808163 C23.9584898,0.416706122 23.9583673,0.795930612 23.7269388,1.03458367 L23.7269388,1.03458367 L23.1554694,1.6189102 C23.1609796,2.34993061 23.0510204,4.29197143 21.8270204,5.54646122 C20.6288571,6.77413469 18.7875918,6.90821633 18.0406531,6.90821633 L18.0406531,6.90821633 L17.9936327,6.90821633 L16.8907347,8.03817551 C17.4124898,7.96519592 17.943551,7.99678776 18.4529388,8.13086939 C20.1258367,8.58993061 21.1684898,10.2156857 21.5205306,10.8515633 L21.5205306,10.8515633 L22.3013878,11.065849 C22.6193878,11.1576857 22.8050204,11.4873184 22.7186939,11.8067878 C22.6529388,12.0684612 22.4188163,12.2527469 22.1490612,12.2553184 C22.0973878,12.2551959 22.0458367,12.2482163 21.9961224,12.234502 L21.9961224,12.234502 L21.214898,12.0204612 C20.7221633,12.3165429 19.5377143,12.9352776 18.226898,12.9352776 C17.8906531,12.9366245 17.5556327,12.8929102 17.2311429,12.8048694 C15.8805306,12.4342163 14.9409796,11.3029102 14.4435918,10.5461755 L14.4435918,10.5461755 L12.650449,12.3837673 C13.1722041,12.3110327 13.7031429,12.342502 14.2124082,12.4765837 C15.8853061,12.9356449 16.9279592,14.5614 17.28,15.1972776 L17.28,15.1972776 L18.061102,15.4115633 C18.3789796,15.5031551 18.5647347,15.8324204 18.478898,16.1518898 C18.4133878,16.4139306 18.1787755,16.5987061 17.9085306,16.6010327 C17.8568571,16.6009102 17.8053061,16.5939306 17.7554694,16.5802163 L17.7554694,16.5802163 L16.9747347,16.3650735 C16.4823673,16.6616449 15.2977959,17.2802571 13.987102,17.2802571 C13.65,17.281849 13.3141224,17.2380122 12.9886531,17.149849 C11.6382857,16.7791959 10.6986122,15.6478898 10.2012245,14.8911551 L10.2012245,14.8911551 L8.40820408,16.728502 C8.92983673,16.6556449 9.46077551,16.6871143 9.97004082,16.8211959 C11.6429388,17.2802571 12.6857143,18.9060122 13.0377551,19.5417673 L13.0377551,19.5417673 L13.8202041,19.7572776 C14.1382041,19.8489918 14.3239592,20.1787469 14.2376327,20.4982163 C14.1718776,20.7600122 13.9377551,20.9441755 13.668,20.9467469 C13.6162041,20.9466245 13.5647755,20.9396449 13.5149388,20.9259306 L13.5149388,20.9259306 L12.7345714,20.7129918 C12.2418367,21.0091959 11.0572653,21.6276857 9.74657143,21.6276857 C9.41020408,21.6291551 9.07506122,21.5853184 8.75032653,21.4974 C7.40020408,21.1267469 6.46065306,19.9953184 5.96326531,19.2387061 L5.96326531,19.2387061 L3.49346939,21.7694816 L3.47926531,21.7840531 C4.46510204,22.2399306 5.49734694,22.5876857 6.55812245,22.8211959 C9.78269388,23.5300531 12.9064898,23.149849 15.8430612,21.6890327 C16.1395102,21.5408694 16.5002449,21.6552367 16.6569796,21.9472776 C16.6591837,21.9515633 16.6612653,21.9557265 16.6633469,21.9600122 C16.8042857,22.2502163 16.6833061,22.5999306 16.3929796,22.7408694 C12.3942857,24.7296857 8.66595918,24.5021755 6.24342857,23.9605837 C4.98318367,23.6815224 3.76126531,23.2511143 2.6042449,22.6787878 L2.6042449,22.6787878 L1.00763265,24.3126245 C1.00297959,24.3174 0.998204082,24.3221755 0.993428571,24.3268286 C0.762857143,24.5495633 0.395510204,24.5431959 0.172897959,24.3126245 C-0.0576734694,24.0740939 -0.0576734694,23.695849 0.172897959,23.4573184 L0.172897959,23.4573184 L1.77710204,21.8140531 C1.43681633,21.1485429 0.802163265,19.7386653 0.419020408,17.8397265 C-0.0724897959,15.4060531 -0.221142857,11.6746653 1.85020408,7.71821633 C1.85240816,7.71380816 1.85473469,7.70952245 1.85706122,7.70523673 C2.01134694,7.42176735 2.36620408,7.31707347 2.64955102,7.47135918 C2.93816327,7.63409388 3.04493878,7.9969102 2.89053061,8.29005306 C1.36922449,11.1951551 0.923632653,14.3106245 1.566,17.5494 C1.79534694,18.7094816 2.16208163,19.8382163 2.65836735,20.9117265 L2.65836735,20.9117265 L5.12804082,18.380951 C4.38930612,17.8715633 3.28714286,16.9087469 2.922,15.5248286 C2.47506122,13.8114 3.32730612,12.0731143 3.68889796,11.4427469 L3.68889796,11.4427469 L3.47889796,10.642298 C3.39281633,10.3228286 3.57857143,9.99344082 3.89632653,9.90160408 L3.89632653,9.90160408 L3.906,9.8991551 C4.22167347,9.8209102 4.54114286,10.0135224 4.61938776,10.3293184 L4.61938776,10.3293184 L4.82865306,11.1294 C5.44946939,11.4898898 7.03579592,12.5587469 7.48395918,14.2721755 C7.61485714,14.7952776 7.64546939,15.3383388 7.57444898,15.8727061 L7.57444898,15.8727061 L9.36746939,14.0356041 C8.62910204,13.5257265 7.52510204,12.5631551 7.16326531,11.1794816 C6.71620408,9.46605306 7.56857143,7.7276449 7.93016327,7.0974 L7.93016327,7.0974 L7.72089796,6.29731837 C7.63481633,5.97784898 7.82057143,5.64846122 8.13832653,5.55662449 L8.13832653,5.55662449 L8.14873469,5.55393061 C8.46428571,5.47605306 8.78338776,5.66866531 8.86138776,5.98433878 L8.86138776,5.98433878 L9.07065306,6.78442041 C9.69146939,7.1449102 11.2777959,8.21376735 11.7259592,9.92719592 C11.8567347,10.450298 11.8874694,10.9933592 11.816449,11.527849 L11.816449,11.527849 L13.6094694,9.69062449 C12.8707347,9.18074694 11.7672245,8.21817551 11.4052653,6.83437959 C10.9583265,5.12095102 11.8106939,3.38278776 12.1721633,2.75242041 L12.1721633,2.75242041 L11.962898,1.95221633 C11.8765714,1.63286939 12.0623265,1.30311429 12.3803265,1.2114 C12.3820408,1.2109102 12.3837551,1.21042041 12.3854694,1.20993061 C12.7010204,1.13058367 13.021102,1.32197143 13.100449,1.63752245 L13.100449,1.63752245 L13.3097143,2.43760408 C13.9301633,2.79809388 15.5166122,3.86695102 15.9646531,5.58037959 C16.095551,6.10348163 16.1262857,6.64654286 16.0551429,7.18103265 L16.0551429,7.18103265 L17.1576735,6.05119592 C17.1521633,5.32005306 17.2606531,3.3778898 18.4862449,2.12352245 C19.7117143,0.869155102 21.607102,0.75662449 22.3206122,0.762134694 L22.3206122,0.762134694 L22.8925714,0.177808163 C22.8972245,0.173032653 22.902,0.168257143 22.906898,0.163481633 Z" id="形状结合" fill="url(#linearGradient-5)" mask="url(#mask-4)"></path>
                                </g>
                            </g>
                        </g>
                    </g>
                </g>
            </g>
        </g>
    </g>
</svg>