<?xml version="1.0" encoding="UTF-8"?>
<svg width="21px" height="20px" viewBox="0 0 21 20" version="1.1" xmlns="http://www.w3.org/2000/svg" xmlns:xlink="http://www.w3.org/1999/xlink">
    <!-- Generator: Sketch 54.1 (76490) - https://sketchapp.com -->
    <title></title>
    <desc></desc>
    <g id="Design" stroke="none" stroke-width="1" fill="none" fill-rule="evenodd">
        <g id="11-01用户管理-2.3" transform="translate(-1119.000000, -311.000000)" fill="#A3D0FD" fill-rule="nonzero">
            <g id="新建btn" transform="translate(1100.000000, 301.000000)">
                <path d="M29.9166667,19.5 L39,19.5 C39.2761424,19.5 39.5,19.7238576 39.5,20 C39.5,20.2761424 39.2761424,20.5 39,20.5 L29.9166667,20.5 L29.9166667,29.5 C29.9166667,29.7761424 29.692809,30 29.4166667,30 C29.1405243,30 28.9166667,29.7761424 28.9166667,29.5 L28.9166667,20.5 L20,20.5 C19.7238576,20.5 19.5,20.2761424 19.5,20 C19.5,19.7238576 19.7238576,19.5 20,19.5 L28.9166667,19.5 L28.9166667,10.5 C28.9166667,10.2238576 29.1405243,10 29.4166667,10 C29.692809,10 29.9166667,10.2238576 29.9166667,10.5 L29.9166667,19.5 Z" id="新建icon"></path>
            </g>
        </g>
    </g>
</svg>