<?xml version="1.0" encoding="UTF-8"?>
<svg width="47px" height="55px" viewBox="0 0 47 55" version="1.1" xmlns="http://www.w3.org/2000/svg" xmlns:xlink="http://www.w3.org/1999/xlink">
    <!-- Generator: Sketch 63 (92445) - https://sketch.com -->
    <title></title>
    <desc></desc>
    <defs>
        <polygon id="path-1" points="0 0.183654 46.17 0.183654 46.17 54.048654 0 54.048654"></polygon>
        <linearGradient x1="50%" y1="0%" x2="50%" y2="100%" id="linearGradient-3">
            <stop stop-color="#2DDEC1" offset="0%"></stop>
            <stop stop-color="#36A0CA" offset="100%"></stop>
        </linearGradient>
        <path d="M23.2393128,-6.07514039e-15 C11.198163,-6.07514039e-15 1.437084,9.98436757 1.437084,22.3016304 C1.437084,22.6924863 1.437084,23.8245267 1.437084,24.0184586 C1.437084,37.7449241 21.5623435,53.2932075 21.5623435,53.2932075 C21.5623435,53.2932075 23.2393128,54.5797406 24.9168245,53.2932075 C26.5935227,52.0053144 45.042084,37.7449241 45.042084,24.0184586 C45.042084,23.1344771 45.042084,22.562201 45.042084,22.3016304 C45.042084,9.98436757 35.2807339,-6.07514039e-15 23.2393128,-6.07514039e-15 Z" id="path-4"></path>
        <filter x="-20.6%" y="-16.7%" width="141.3%" height="133.3%" filterUnits="objectBoundingBox" id="filter-5">
            <feMorphology radius="1.5" operator="erode" in="SourceAlpha" result="shadowSpreadOuter1"></feMorphology>
            <feOffset dx="0" dy="0" in="shadowSpreadOuter1" result="shadowOffsetOuter1"></feOffset>
            <feGaussianBlur stdDeviation="4.5" in="shadowOffsetOuter1" result="shadowBlurOuter1"></feGaussianBlur>
            <feColorMatrix values="0 0 0 0 0.154964663   0 0 0 0 0.68049306   0 0 0 0 0.999575408  0 0 0 0.5 0" type="matrix" in="shadowBlurOuter1"></feColorMatrix>
        </filter>
        <filter x="-42.1%" y="-34.8%" width="184.2%" height="169.6%" filterUnits="objectBoundingBox" id="filter-6">
            <feOffset dx="0" dy="0" in="SourceAlpha" result="shadowOffsetOuter1"></feOffset>
            <feGaussianBlur stdDeviation="2" in="shadowOffsetOuter1" result="shadowBlurOuter1"></feGaussianBlur>
            <feColorMatrix values="0 0 0 0 0.128782777   0 0 0 0 0.500079089   0 0 0 0 0.637596241  0 0 0 0.5 0" type="matrix" in="shadowBlurOuter1" result="shadowMatrixOuter1"></feColorMatrix>
            <feMerge>
                <feMergeNode in="shadowMatrixOuter1"></feMergeNode>
                <feMergeNode in="SourceGraphic"></feMergeNode>
            </feMerge>
        </filter>
        <polygon id="path-7" points="1.106028e-05 0 18.4337263 0 18.4337263 22.1204494 1.106028e-05 22.1204494"></polygon>
    </defs>
    <g id="页面-1" stroke="none" stroke-width="1" fill="none" fill-rule="evenodd">
        <g id="农田备份-2" transform="translate(-787.000000, -476.000000)">
            <g id="编组-6备份-3" transform="translate(765.000000, 436.000000)">
                <g id="编组-8" transform="translate(22.000000, 40.000000)">
                    <mask id="mask-2" fill="white">
                        <use xlink:href="#path-1"></use>
                    </mask>
                    <g id="Clip-2"></g>
                    <g id="Fill-1" mask="url(#mask-2)">
                        <use fill="black" fill-opacity="1" filter="url(#filter-5)" xlink:href="#path-4"></use>
                        <use fill="url(#linearGradient-3)" fill-rule="evenodd" xlink:href="#path-4"></use>
                    </g>
                    <g id="编组" filter="url(#filter-6)" transform="translate(14.262084, 14.535000)">
                        <g>
                            <mask id="mask-8" fill="white">
                                <use xlink:href="#path-7"></use>
                            </mask>
                            <g id="Clip-2"></g>
                            <path d="M2.76508106,21.1987963 C2.76508106,20.6896916 3.17774011,20.2771431 3.68673419,20.2771431 L14.7470142,20.2771431 C15.2561189,20.2771431 15.6686673,20.6896916 15.6686673,21.1987963 C15.6686673,21.707901 15.2561189,22.1204494 14.7470142,22.1204494 L3.68673419,22.1204494 C3.17774011,22.1204494 2.76508106,21.707901 2.76508106,21.1987963 M1.106028e-05,9.21686313 C1.106028e-05,4.12670107 4.12671213,0 9.21687419,0 C14.3075893,0 18.4337373,4.12670107 18.4337373,9.21686313 C18.4337373,14.3075782 14.3075893,18.4337263 9.21687419,18.4337263 C4.12671213,18.4337263 1.106028e-05,14.3075782 1.106028e-05,9.21686313 M9.21687419,1.84330626 C5.14492151,1.84330626 1.84342793,5.14491045 1.84342793,9.21686313 C1.84342793,13.2888158 5.14492151,16.59042 9.21687419,16.59042 C13.2888269,16.59042 16.5904311,13.2888158 16.5904311,9.21686313 C16.5904311,5.14491045 13.2888269,1.84330626 9.21687419,1.84330626" id="Fill-1" fill="#FFFFFF" mask="url(#mask-8)"></path>
                        </g>
                        <path d="M9.52406241,0.614475976 C10.0340519,0.614475976 10.4482594,1.02492297 10.4482594,1.53059897 L10.4482594,2.90517057 C10.4482594,3.41084657 10.0347155,3.82074055 9.52406241,3.82074055 C9.0140729,3.82074055 8.59997602,3.41084657 8.59997602,2.90517057 L8.59997602,1.53004595 C8.59997602,1.02436995 9.01351988,0.613812359 9.52406241,0.613812359 L9.52406241,0.614475976 Z M5.27271198,9.31891634 C5.27271198,6.99128041 7.17618617,5.10428604 9.52406241,5.10428604 C11.8720493,5.10428604 13.7755234,6.99128041 13.7755234,9.31946935 C13.7755234,11.6471053 11.8720493,13.5340996 9.52406241,13.5340996 C7.17618617,13.5340996 5.27271198,11.6471053 5.27271198,9.31891634 L5.27271198,9.31891634 Z M9.52406241,6.93730624 C8.19682881,6.93730624 7.12154839,8.00329603 7.12154839,9.31891634 C7.12154839,10.6350897 8.19682881,11.7010794 9.52406241,11.7010794 C10.851296,11.7010794 11.926687,10.6350897 11.926687,9.31891634 C11.926687,8.00395965 10.851296,6.93730624 9.52406241,6.93730624 L9.52406241,6.93730624 Z M10.9595762,16.7452307 C10.5072107,16.9674318 10.3206238,17.514252 10.5428248,17.9665069 C10.5440414,17.9690507 10.5452581,17.9717052 10.5465853,17.9741384 L12.3948687,21.638741 C12.6342131,22.0752903 13.1755032,22.244955 13.6213431,22.0234176 C14.0670724,21.8048664 14.2563138,21.2699913 14.0471639,20.8197273 L12.1988805,17.1551247 C11.9679419,16.7017638 11.4151491,16.519048 10.9595762,16.7452307 L10.9595762,16.7452307 Z M8.08865927,16.7452307 C8.54102472,16.9674318 8.72761165,17.514252 8.50541062,17.9665069 C8.50419399,17.9690507 8.50297736,17.9717052 8.50165013,17.9741384 L6.65336674,21.638741 C6.41391167,22.0752903 5.87273217,22.244955 5.42689229,22.0234176 C4.981163,21.8048664 4.79192161,21.2699913 5.00107151,20.8197273 L6.8493549,17.1551247 C7.08029354,16.7017638 7.63308634,16.519048 8.08865927,16.7452307 L8.08865927,16.7452307 Z" id="Fill-3" fill="#FFFFFF"></path>
                    </g>
                </g>
            </g>
        </g>
    </g>
</svg>