<?xml version="1.0" encoding="UTF-8"?>
<svg width="18px" height="18px" viewBox="0 0 18 18" version="1.1" xmlns="http://www.w3.org/2000/svg" xmlns:xlink="http://www.w3.org/1999/xlink">
    <!-- Generator: Sketch 53.2 (72643) - https://sketchapp.com -->
    <title></title>
    <desc></desc>
    <defs>
        <polygon id="path-1" points="0.03175875 0.0415471698 9.1125 0.0415471698 9.1125 9.17954717 0.03175875 9.17954717"></polygon>
    </defs>
    <g id="页面-1" stroke="none" stroke-width="1" fill="none" fill-rule="evenodd">
        <g id="概况备份-3" transform="translate(-1577.000000, -216.000000)">
            <g id="基础信息-icon备份" transform="translate(1577.000000, 216.000000)">
                <path d="M6.7356675,10.865966 L3.00753,10.865966 C2.63358,10.865966 2.33028,10.5608717 2.33028,10.1843434 C2.33028,9.80804151 2.63358,9.50294717 3.00753,9.50294717 L6.7356675,9.50294717 C7.10973,9.50294717 7.4129175,9.80804151 7.4129175,10.1843434 C7.4129175,10.5608717 7.10973,10.865966 6.7356675,10.865966" id="Fill-1" fill="#70CAEE"></path>
                <path d="M13.1206388,13.4758302 L3.00756375,13.4758302 C2.63361375,13.4758302 2.33031375,13.1707358 2.33031375,12.7942075 C2.33031375,12.4179057 2.63361375,12.1128113 3.00756375,12.1128113 L13.1206388,12.1128113 C13.4947013,12.1128113 13.7980013,12.4179057 13.7980013,12.7942075 C13.7980013,13.1707358 13.4947013,13.4758302 13.1206388,13.4758302" id="Fill-3" fill="#70CAEE"></path>
                <g id="分组" transform="translate(8.887500, 0.071660)">
                    <mask id="mask-2" fill="white">
                        <use xlink:href="#path-1"></use>
                    </mask>
                    <g id="Clip-6"></g>
                    <path d="M8.91419625,0.241245283 C8.64959625,-0.0250188679 8.22085875,-0.0250188679 7.95637125,0.241245283 L0.23020875,8.01611321 C-0.03439125,8.28226415 -0.03439125,8.71381132 0.23020875,8.97984906 C0.36228375,9.11298113 0.53553375,9.17954717 0.70889625,9.17954717 C0.88225875,9.17954717 1.05562125,9.11298113 1.18780875,8.97984906 L8.91419625,1.20498113 C9.17868375,0.938943396 9.17868375,0.507396226 8.91419625,0.241245283" id="Fill-5" fill="#70CAEE" mask="url(#mask-2)"></path>
                </g>
                <path d="M14.7736463,5.95742264 C14.3996962,5.95742264 14.0962837,6.26251698 14.0962837,6.63893208 C14.0962837,6.64119623 14.0963962,6.64346038 14.0963962,6.64572453 L14.0962837,6.64572453 L14.0962837,15.6670075 C14.0962837,16.1790453 13.6825088,16.5954226 13.1737838,16.5954226 L2.27714625,16.5954226 C1.76830875,16.5954226 1.35453375,16.1790453 1.35453375,15.6670075 L1.35453375,4.70172453 C1.35453375,4.18991321 1.76830875,3.77342264 2.27714625,3.77342264 L11.7099337,3.77342264 L11.7100463,3.77013962 C11.7191588,3.77047925 11.7283838,3.77070566 11.7377212,3.77070566 C12.1111087,3.77070566 12.4136213,3.46629057 12.4136213,3.09055472 C12.4136213,2.71493208 12.1111087,2.41029057 11.7377212,2.41029057 C11.7242213,2.41029057 11.7104963,2.4108566 11.6971087,2.41176226 C11.6729213,2.4108566 11.6485088,2.41029057 11.6240962,2.41029057 L2.27714625,2.41029057 C1.02153375,2.41029057 3.375e-05,3.4383283 3.375e-05,4.70172453 L3.375e-05,15.6670075 C3.375e-05,16.930517 1.02153375,17.9584415 2.27714625,17.9584415 L13.1737838,17.9584415 C14.4293962,17.9584415 15.4508963,16.930517 15.4508963,15.6670075 L15.4508963,6.62953585 L15.4506713,6.62953585 C15.4456088,6.25742264 15.1445587,5.95742264 14.7736463,5.95742264" id="Fill-7" fill="#70CAEE"></path>
            </g>
        </g>
    </g>
</svg>