<?xml version="1.0" encoding="UTF-8"?>
<svg width="16px" height="16px" viewBox="0 0 16 16" version="1.1" xmlns="http://www.w3.org/2000/svg" xmlns:xlink="http://www.w3.org/1999/xlink">
    <!-- Generator: Sketch 63 (92445) - https://sketch.com -->
    <g id="页面-1" stroke="none" stroke-width="1" fill="none" fill-rule="evenodd">
        <g id="概况备份-3" transform="translate(-1540.000000, -232.000000)" fill="#6DA3E3">
            <path d="M1552.62553,243.778707 C1552.85196,244.005146 1552.85196,244.383457 1552.62553,244.62554 C1552.38391,244.852893 1552.00561,244.852893 1551.77872,244.62554 L1548.00737,240.854527 L1544.23601,244.62554 C1543.99439,244.852893 1543.6162,244.852893 1543.38966,244.62554 C1543.14758,244.383914 1543.14758,244.005602 1543.38966,243.778707 L1547.16101,240.007694 L1543.38966,236.23668 C1543.14758,235.994597 1543.14758,235.616857 1543.38966,235.389847 C1543.6162,235.148221 1543.99439,235.148221 1544.23601,235.389847 L1548.00737,239.16086 L1551.77872,235.389847 C1552.00515,235.148221 1552.38345,235.148221 1552.62553,235.389847 C1552.85196,235.6164 1552.85196,235.994597 1552.62553,236.23668 L1548.85417,240.007694 L1552.62553,243.778707 Z M1553.65321,234.346606 C1550.53911,231.217798 1545.47505,231.217798 1542.34679,234.346606 C1539.21774,237.475871 1539.21774,242.539402 1542.34679,245.652794 C1545.47562,248.782402 1550.53911,248.782402 1553.65321,245.652794 C1556.78226,242.539402 1556.78226,237.475871 1553.65321,234.346606 L1553.65321,234.346606 Z" id="Fill-1备份-4"></path>
        </g>
    </g>
</svg>