<?xml version="1.0" encoding="UTF-8"?>
<svg width="64px" height="64px" viewBox="0 0 64 64" version="1.1" xmlns="http://www.w3.org/2000/svg" xmlns:xlink="http://www.w3.org/1999/xlink">
    <!-- Generator: Sketch 63 (92445) - https://sketch.com -->
    <title></title>
    <desc></desc>
    <defs>
        <polygon id="path-1" points="8e-05 0.00016 64 0.00016 64 64 8e-05 64"></polygon>
    </defs>
    <g id="页面-1" stroke="none" stroke-width="1" fill="none" fill-rule="evenodd">
        <g id="传感器设备-详情-趋势图为空" transform="translate(-828.000000, -726.000000)">
            <g id="编组" transform="translate(828.000000, 726.000000)">
                <mask id="mask-2" fill="white">
                    <use xlink:href="#path-1"></use>
                </mask>
                <g id="Clip-2"></g>
                <path d="M35.08008,51.76016 C34.23968,52.60016 33.12008,52.88016 32.28008,52.88016 C31.16008,52.88016 30.04008,52.60016 29.20008,51.76016 C28.36008,50.91976 27.80008,49.80016 27.80008,48.43976 C27.80008,47.31976 28.08008,46.20016 28.92008,45.36016 C29.76008,44.51976 30.88008,43.96016 32.00008,43.96016 C33.12008,43.96016 34.23968,44.51976 35.08008,45.36016 C35.92008,46.20016 36.20008,47.31976 36.20008,48.43976 C36.16008,49.80016 35.88008,50.91976 35.08008,51.76016 M28.92008,12.51976 C29.76008,11.68016 30.48008,11.11976 31.84008,11.11976 C33.36008,11.00016 34.76008,11.71976 35.32008,12.80016 C35.96008,13.56016 36.32008,15.24016 36.16008,16.24016 C36.16008,16.51976 35.96008,18.40016 35.88008,18.91976 L34.76008,33.11976 C34.76008,34.51976 34.48008,35.91976 33.92008,37.00016 C33.63968,37.83976 32.80008,38.40016 31.68008,38.40016 C30.84008,38.40016 30.00008,37.83976 29.72008,37.00016 C29.16008,35.60016 28.88008,34.48016 28.88008,33.11976 L28.12008,19.20016 C27.84008,16.68016 27.84008,17.51976 27.84008,16.11976 C27.84008,14.76016 28.12008,13.64016 28.92008,12.51976 M32.00008,0.00016 C14.20008,0.00016 8e-05,14.20016 8e-05,32.00016 C8e-05,49.80016 14.20008,64.00016 32.00008,64.00016 C49.80008,64.00016 64.00008,49.80016 64.00008,32.00016 C64.00008,14.20016 49.80008,0.00016 32.00008,0.00016" id="Fill-1" fill="#667288" mask="url(#mask-2)"></path>
            </g>
        </g>
    </g>
</svg>