<?xml version="1.0" encoding="UTF-8"?>
<svg width="18px" height="19px" viewBox="0 0 18 19" version="1.1" xmlns="http://www.w3.org/2000/svg" xmlns:xlink="http://www.w3.org/1999/xlink">
    <!-- Generator: Sketch 63 (92445) - https://sketch.com -->
    <title>成员-icon备份 2@2x</title>
    <desc>Created with Sketch.</desc>
    <defs>
        <polygon id="path-1" points="0 6.55172414e-05 17.9230471 6.55172414e-05 17.9230471 18.9870713 0 18.9870713"></polygon>
    </defs>
    <g id="页面-1" stroke="none" stroke-width="1" fill="none" fill-rule="evenodd">
        <g id="农业资产-2备份" transform="translate(-1387.000000, -142.000000)">
            <g id="编组-18备份-9" transform="translate(1344.000000, 110.000000)">
                <g id="编组-12" transform="translate(43.000000, 17.000000)">
                    <g id="成员-icon备份-2" transform="translate(0.000000, 15.000000)">
                        <mask id="mask-2" fill="white">
                            <use xlink:href="#path-1"></use>
                        </mask>
                        <g id="Clip-2"></g>
                        <path d="M4.8835949,5.31220345 C4.8835949,3.17011724 6.71317452,1.42648506 8.96214268,1.42648506 C11.2099643,1.42648506 13.0395439,3.17011724 13.0395439,5.31220345 C13.0395439,7.45308851 11.2099643,9.19551954 8.96214268,9.19551954 C6.71305987,9.19551954 4.8835949,7.45308851 4.8835949,5.31220345 M11.396614,10.0667897 C13.2492382,9.20250805 14.5384739,7.40547931 14.5384739,5.31220345 C14.5384739,2.3824908 12.0369325,6.55172414e-05 8.96214268,6.55172414e-05 C5.88609172,6.55172414e-05 3.38455032,2.3824908 3.38455032,5.31220345 C3.38455032,7.40547931 4.67378599,9.20250805 6.52767134,10.0667897 C2.76624459,11.0809966 -2.29299363e-05,14.3718184 -2.29299363e-05,18.2739161 C-2.29299363e-05,18.6676747 0.336588535,18.9870713 0.750129936,18.9870713 C1.16355669,18.9870713 1.50016815,18.6676747 1.50016815,18.2739161 C1.50016815,14.3544563 4.84702166,11.164531 8.96214268,11.164531 C13.0772637,11.164531 16.4241172,14.3544563 16.4241172,18.2739161 C16.4241172,18.6676747 16.7594675,18.9870713 17.1730089,18.9870713 C17.5876968,18.9870713 17.9230471,18.6676747 17.9230471,18.2739161 C17.9230471,14.3718184 15.1568943,11.0809966 11.396614,10.0667897" id="Fill-1" fill="#DBF1FF" mask="url(#mask-2)"></path>
                    </g>
                </g>
            </g>
        </g>
    </g>
</svg>