<?xml version="1.0" encoding="UTF-8"?>
<svg width="17px" height="17px" viewBox="0 0 17 17" version="1.1" xmlns="http://www.w3.org/2000/svg" xmlns:xlink="http://www.w3.org/1999/xlink">
    <!-- Generator: Sketch 53.2 (72643) - https://sketchapp.com -->
    <title></title>
    <desc></desc>
    <defs>
        <polygon id="path-1" points="3.72480217e-05 0.000242 16.706228 0.000242 16.706228 11.9064 3.72480217e-05 11.9064"></polygon>
    </defs>
    <g id="页面-1" stroke="none" stroke-width="1" fill="none" fill-rule="evenodd">
        <g id="概况备份-3" transform="translate(-1579.000000, -754.000000)">
            <g id="编组备份-3" transform="translate(1579.000000, 754.000000)">
                <g id="编组" transform="translate(0.000000, 4.701673)">
                    <mask id="mask-2" fill="white">
                        <use xlink:href="#path-1"></use>
                    </mask>
                    <g id="Clip-2"></g>
                    <path d="M15.4687755,8.2605732 C15.4688723,8.3190404 15.4359603,8.3726676 15.3836883,8.3989972 L10.9673819,10.6512428 C10.9223699,10.674378 10.8689363,10.6740876 10.8243115,10.6503716 L5.99650832,8.0903988 C5.59575632,7.877826 5.11678992,7.8738572 4.71255312,8.0795572 L1.23752992,9.8460604 L1.23752992,2.7444252 L2.50367392,2.1410708 C2.81227232,1.9941284 2.94333952,1.6248364 2.79630032,1.316238 C2.64945472,1.0076396 2.28006592,0.8765724 1.97146752,1.0235148 L0.44009152,1.752806 C0.17079392,1.8814532 -0.00054208,2.153558 3.872e-05,2.4519924 L3.872e-05,10.6041012 C0.00061952,11.0311828 0.34745392,11.3769524 0.77463232,11.3763716 C0.89601952,11.376178 1.01556752,11.3474284 1.12378992,11.2923492 L5.27408992,9.1832708 C5.31890832,9.1606196 5.37205152,9.1612004 5.41638592,9.1848196 L10.2449635,11.7448892 C10.6459091,11.956978 11.1249723,11.960366 11.5289187,11.754182 L15.9466771,9.5018396 C16.4127691,9.2640988 16.7060731,8.7852292 16.7062667,8.262122 L16.7062667,0.773674 C16.7062667,0.3464956 16.3599163,0.000242 15.9328347,0.000242 C15.8466827,0.000242 15.7612083,0.0145684 15.6798963,0.0427372 L14.2877187,0.5246076 C13.9660523,0.6399932 13.7987819,0.9942812 13.9140707,1.3159476 C14.0276171,1.6324836 14.3731931,1.8004316 14.6922459,1.6940484 L15.4687755,1.4248476 L15.4687755,8.2605732 Z" id="Fill-1" fill="#70CAEE" mask="url(#mask-2)"></path>
                </g>
                <path d="M8.47610808,11.4029529 C8.42422328,11.4709065 8.32722968,11.4839745 8.25927608,11.4320897 C8.24833768,11.4237649 8.23846408,11.4138913 8.23013928,11.4029529 C5.88351368,8.35094568 4.71794488,6.13896888 4.71794488,4.87205048 C4.71842888,2.86441848 6.34631448,1.23721048 8.35394648,1.23769448 C10.3609977,1.23817848 11.9878185,2.86499928 11.9883025,4.87205048 C11.9883025,6.13896888 10.8227337,8.35094568 8.47610808,11.4029529 M9.45678888,12.1578961 C11.9642961,8.89622008 13.2256969,6.50245288 13.2256969,4.87205048 C13.2254065,2.18091368 11.0436313,-0.00037752 8.35259128,9.68e-06 C5.66193848,0.00030008 3.48084088,2.18139768 3.48045368,4.87205048 C3.48045368,6.50245288 4.74195128,8.89622008 7.24945848,12.1578961 C7.71806728,12.7674457 8.59207448,12.8815729 9.20162408,12.4130609 C9.29735928,12.3393961 9.38322088,12.2535345 9.45678888,12.1578961" id="Fill-3" fill="#70CAEE"></path>
                <path d="M8.35312368,6.14356688 C7.65093648,6.14376048 7.08146208,5.57457648 7.08126848,4.87229248 C7.08117168,4.17010528 7.65035568,3.60063088 8.35254288,3.60053408 L8.35312368,3.60053408 C9.05540768,3.60063088 9.62459168,4.17010528 9.62439808,4.87229248 C9.62420448,5.57438288 9.05511728,6.14347008 8.35312368,6.14356688 M8.35312368,7.38105808 C9.73881568,7.38125168 10.8622765,6.25808128 10.8624701,4.87238928 C10.8626637,3.48669728 9.73939648,2.36313968 8.35370448,2.36304288 L8.35312368,2.36304288 C6.96743168,2.36313968 5.84426128,3.48669728 5.84435808,4.87238928 C5.84455168,6.25779088 6.96762528,7.38096128 8.35312368,7.38105808" id="Fill-5" fill="#70CAEE"></path>
            </g>
        </g>
    </g>
</svg>