<?xml version="1.0" encoding="UTF-8"?>
<svg width="24px" height="18px" viewBox="0 0 24 18" version="1.1" xmlns="http://www.w3.org/2000/svg" xmlns:xlink="http://www.w3.org/1999/xlink">
    <!-- Generator: Sketch 63 (92445) - https://sketch.com -->
    <title>农机-icon备份 2@2x</title>
    <desc>Created with Sketch.</desc>
    <defs>
        <polygon id="path-1" points="0 0.0707384615 23.0999654 0.0707384615 23.0999654 17.4871682 0 17.4871682"></polygon>
    </defs>
    <g id="页面-1" stroke="none" stroke-width="1" fill="none" fill-rule="evenodd">
        <g id="农业资产-2备份" transform="translate(-1171.000000, -143.000000)">
            <g id="编组-18备份-8" transform="translate(1128.000000, 110.000000)">
                <g id="编组-12" transform="translate(43.000000, 17.000000)">
                    <g id="农机-icon备份-2" transform="translate(0.000000, 16.000000)">
                        <g id="分组" transform="translate(0.000000, 0.042082)">
                            <mask id="mask-2" fill="white">
                                <use xlink:href="#path-1"></use>
                            </mask>
                            <g id="Clip-2"></g>
                            <path d="M17.9328418,16.1298246 C15.8500303,16.1298246 14.1552988,14.4741836 14.1552988,12.4396913 C14.1552988,10.405199 15.8500303,8.75012205 17.9328418,8.75012205 C20.0157688,8.75012205 21.7106158,10.405199 21.7106158,12.4396913 C21.7106158,14.4741836 20.0157688,16.1298246 17.9328418,16.1298246 L17.9328418,16.1298246 Z M5.90455635,13.5676708 C5.49614835,12.3980605 4.37256435,11.5490862 3.03946335,11.5490862 C2.70428235,11.5490862 2.38815885,11.6153118 2.08624185,11.7135785 L2.08624185,8.10332205 C2.08624185,7.74974256 2.36159385,7.38431692 2.82232335,7.38431692 L9.55458735,7.38431692 C9.83386635,7.38431692 10.0860028,7.22095282 10.1943418,6.9694759 L12.2643328,2.17674769 C12.6163768,1.55781436 12.7032328,1.42795795 13.4902498,1.42795795 L18.2766853,1.42795795 C18.5317093,1.42795795 18.7385698,1.63001949 18.7388009,1.87912718 C18.7388009,1.90157846 18.7400713,1.92448103 18.7422658,1.94704513 L19.3229998,7.58378359 C18.8707018,7.45832718 18.4029268,7.39413231 17.9328418,7.39289128 C15.0841498,7.39289128 12.7658338,9.65708615 12.7658338,12.4399169 C12.7658338,12.8281323 12.8152678,13.2045015 12.9001603,13.5676708 L5.90455635,13.5676708 Z M3.03946335,16.1298246 C2.12955435,16.1298246 1.38943035,15.4074349 1.38943035,14.5178451 C1.38943035,13.6299477 2.12966985,12.9062041 3.03946335,12.9062041 C3.94925685,12.9062041 4.68949635,13.6298349 4.68949635,14.5178451 C4.68949635,15.4076605 3.94925685,16.1298246 3.03946335,16.1298246 L3.03946335,16.1298246 Z M20.7873089,8.2366759 L20.1279194,1.84110667 C20.1074759,0.861598974 19.2852314,0.0707271795 18.2769164,0.0707271795 L13.4903654,0.0707271795 C11.9890964,0.0707271795 11.5242088,0.683793846 11.0317168,1.54991692 C11.0195893,1.57112718 11.0086168,1.59301436 10.9990303,1.61546564 L9.09397335,6.02708615 L5.39439285,6.02708615 L5.39439285,2.34564 C5.39439285,2.19118872 5.34080085,2.04170154 5.24170185,1.92109641 L4.27889385,0.747424615 C4.03888485,0.455332308 3.60194835,0.408398974 3.30257235,0.642388718 C3.00308085,0.876152821 2.95433985,1.30284 3.19377135,1.59527077 C3.19400235,1.59560923 3.19434885,1.59606051 3.19457985,1.59639897 L4.00481235,2.58391692 L4.00481235,6.02708615 L2.82220785,6.02708615 C1.64976735,6.02708615 0.69666135,6.95853231 0.69666135,8.10332205 L0.69666135,12.6505528 C0.26804085,13.162081 -3.465e-05,13.8069631 -3.465e-05,14.5180708 C-3.465e-05,16.1556605 1.36378935,17.4871682 3.03946335,17.4871682 C4.57272585,17.4871682 5.83202235,16.36844 6.03680385,14.9250144 L13.4407003,14.9250144 C14.3295883,16.4527169 16.0087274,17.4871682 17.9328418,17.4871682 C20.7816494,17.4871682 23.0999654,15.223199 23.0999654,12.4399169 C23.0999654,10.6877015 22.1793149,9.14183487 20.7873089,8.2366759 L20.7873089,8.2366759 Z" id="Fill-1" fill="#DBF1FF" mask="url(#mask-2)"></path>
                        </g>
                        <path d="M13.0201417,6.75403385 L14.4094912,3.36095692 C14.5519027,3.01279282 14.3785372,2.61792103 14.0222197,2.47858769 C13.6660177,2.34015692 13.2621142,2.50916205 13.1191252,2.85676205 L11.7297757,6.24983897 C11.5873642,6.59822872 11.7609607,6.99343897 12.1176247,7.13254667 C12.1995142,7.16447487 12.2867167,7.18094667 12.3749587,7.18094667 C12.6590887,7.18072103 12.9145747,7.0117159 13.0201417,6.75403385" id="Fill-3" fill="#DBF1FF"></path>
                    </g>
                </g>
            </g>
        </g>
    </g>
</svg>