<?xml version="1.0" encoding="UTF-8"?>
<svg width="15px" height="15px" viewBox="0 0 15 15" version="1.1" xmlns="http://www.w3.org/2000/svg" xmlns:xlink="http://www.w3.org/1999/xlink">
    <!-- Generator: Sketch 63 (92445) - https://sketch.com -->
    <title>icon-说明</title>
    <desc>Created with Sketch.</desc>
    <defs>
        <polygon id="path-1" points="0 0 14.9999719 0 14.9999719 15 0 15"></polygon>
    </defs>
    <g id="页面-1" stroke="none" stroke-width="1" fill="none" fill-rule="evenodd">
        <g id="农林农况" transform="translate(-1756.000000, -112.000000)">
            <g id="长春市农业增加值-(2019年)" transform="translate(1484.000000, 109.000000)">
                <g id="icon-说明" transform="translate(272.000000, 3.000000)">
                    <mask id="mask-2" fill="white">
                        <use xlink:href="#path-1"></use>
                    </mask>
                    <g id="Clip-2"></g>
                    <path d="M9.22684687,11.1834375 C8.86619063,11.3220938 8.57781562,11.4275625 8.36162812,11.499375 C8.11909688,11.5756875 7.86578438,11.6123438 7.61162813,11.608125 C7.24515938,11.6308125 6.88290938,11.5202813 6.59153438,11.296875 C6.35528438,11.103375 6.22112812,10.8119062 6.22778437,10.5065625 C6.22834687,10.3795313 6.23734688,10.2526875 6.25497188,10.1267813 C6.27681563,9.97921875 6.30625312,9.83278125 6.34309688,9.688125 L6.79506563,8.135625 C6.83528438,7.9875 6.86809688,7.845 6.89715938,7.71271875 C6.92303438,7.59328125 6.93690938,7.47140625 6.93840938,7.3490625 C6.95509688,7.19925 6.90972187,7.04915625 6.81278437,6.93375 C6.67009688,6.839625 6.49890938,6.7985625 6.32903438,6.8175 C6.20753437,6.81815625 6.08669062,6.83578125 5.96997188,6.87 C5.84500312,6.90496875 5.73972188,6.9384375 5.65403438,6.9703125 L5.77403438,6.49125 C6.06934687,6.375 6.35340938,6.2746875 6.62340938,6.19125 C6.87175312,6.11165625 7.13050313,6.06965625 7.39122188,6.0665625 C7.75234688,6.04340625 8.10953437,6.15234375 8.39631562,6.373125 C8.62881562,6.57046875 8.75865938,6.86325 8.74872188,7.168125 C8.74872188,7.2346875 8.74037813,7.355625 8.72340937,7.524375 C8.70878438,7.68346875 8.67737813,7.84059375 8.62965937,7.993125 L8.17965937,9.5390625 C8.13897187,9.67903125 8.10578438,9.82115625 8.08037812,9.9646875 C8.05609687,10.0838438 8.04156563,10.204875 8.03725313,10.3265625 C8.01812813,10.4807813 8.07025313,10.6352813 8.17872187,10.7465625 C8.32647187,10.8349688 8.49850312,10.8740625 8.67006563,10.858125 C8.79690938,10.8555 8.92290937,10.8366563 9.04506563,10.801875 C9.14734688,10.776375 9.24765937,10.7431875 9.34506563,10.7025 L9.22684687,11.1834375 Z M7.27965938,3.6834375 C7.71344063,3.30046875 8.36462812,3.30046875 8.79850312,3.6834375 C8.99931562,3.85659375 9.11415937,4.10915625 9.11247188,4.374375 C9.11490937,4.6389375 8.99987812,4.8909375 8.79850312,5.0625 C8.59112812,5.2501875 8.31953437,5.350875 8.03997187,5.34375 C7.75975312,5.3503125 7.48750312,5.24971875 7.27872188,5.0625 C7.07565938,4.891875 6.95912813,4.63959375 6.96088925,4.374375 C6.96006563,4.1083125 7.07669062,3.85546875 7.27965938,3.6834375 L7.27965938,3.6834375 Z M7.49997187,0 C3.35781563,0 -2.8125e-05,3.35784375 -2.8125e-05,7.5 C-2.8125e-05,11.6421562 3.35781563,15 7.49997187,15 C11.6421281,15 14.9999719,11.6421562 14.9999719,7.5 C14.9999719,3.35784375 11.6421281,0 7.49997187,0 L7.49997187,0 Z" id="Fill-1" fill-opacity="0.8" fill="#4289A6" mask="url(#mask-2)"></path>
                </g>
            </g>
        </g>
    </g>
</svg>