<?xml version="1.0" encoding="UTF-8"?>
<svg width="19px" height="14px" viewBox="0 0 19 14" version="1.1" xmlns="http://www.w3.org/2000/svg" xmlns:xlink="http://www.w3.org/1999/xlink">
    <!-- Generator: Sketch 63 (92445) - https://sketch.com -->
    <title>农机-icon备份 3</title>
    <desc>Created with Sketch.</desc>
    <defs>
        <polygon id="path-1" points="0 0.0565907692 18.4799723 0.0565907692 18.4799723 13.9897346 0 13.9897346"></polygon>
    </defs>
    <g id="页面-1" stroke="none" stroke-width="1" fill="none" fill-rule="evenodd">
        <g id="新首页备份" transform="translate(-420.000000, -227.000000)">
            <g id="编组-15备份-4" transform="translate(400.000000, 208.000000)">
                <g id="农机-icon备份-3" transform="translate(20.000000, 19.000000)">
                    <g id="分组" transform="translate(0.000000, 0.033666)">
                        <mask id="mask-2" fill="white">
                            <use xlink:href="#path-1"></use>
                        </mask>
                        <g id="Clip-2"></g>
                        <path d="M14.3462735,12.9038597 C12.6800243,12.9038597 11.3242391,11.5793469 11.3242391,9.95175303 C11.3242391,8.32415918 12.6800243,7.00009764 14.3462735,7.00009764 C16.0126151,7.00009764 17.3684927,8.32415918 17.3684927,9.95175303 C17.3684927,11.5793469 16.0126151,12.9038597 14.3462735,12.9038597 L14.3462735,12.9038597 Z M4.72364508,10.8541366 C4.39691868,9.91844841 3.49805148,9.23926892 2.43157068,9.23926892 C2.16342588,9.23926892 1.91052708,9.29224944 1.66899348,9.37086277 L1.66899348,6.48265764 C1.66899348,6.19979405 1.88927508,5.90745354 2.25785868,5.90745354 L7.64366988,5.90745354 C7.86709308,5.90745354 8.06880228,5.77676226 8.15547348,5.57558072 L9.81146628,1.74139815 C10.0931015,1.24625149 10.1625863,1.14236636 10.7921999,1.14236636 L14.6213483,1.14236636 C14.8253675,1.14236636 14.9908559,1.30401559 14.9910407,1.50330174 C14.9910407,1.52126277 14.9920571,1.53958482 14.9938127,1.5576361 L15.4583999,6.06702687 C15.0965615,5.96666174 14.7223415,5.91530585 14.3462735,5.91431303 C12.0673199,5.91431303 10.2126671,7.72566892 10.2126671,9.95193354 C10.2126671,10.2625058 10.2522143,10.5636012 10.3201283,10.8541366 L4.72364508,10.8541366 Z M2.43157068,12.9038597 C1.70364348,12.9038597 1.11154428,12.3259479 1.11154428,11.6142761 C1.11154428,10.9039582 1.70373588,10.3249633 2.43157068,10.3249633 C3.15940548,10.3249633 3.75159708,10.9038679 3.75159708,11.6142761 C3.75159708,12.3261284 3.15940548,12.9038597 2.43157068,12.9038597 L2.43157068,12.9038597 Z M16.6298471,6.58934072 L16.1023355,1.47288533 C16.0859807,0.689279179 15.4281851,0.0565817436 14.6215331,0.0565817436 L10.7922923,0.0565817436 C9.59127708,0.0565817436 9.21936708,0.547035077 8.82537348,1.23993354 C8.81567148,1.25690174 8.80689348,1.27441149 8.79922428,1.29237251 L7.27517868,4.82166892 L4.31551428,4.82166892 L4.31551428,1.876512 C4.31551428,1.75295097 4.27264068,1.63336123 4.19336148,1.53687713 L3.42311508,0.597939692 C3.23110788,0.364265846 2.88155868,0.326719179 2.64205788,0.513910974 C2.40246468,0.700922256 2.36347188,1.042272 2.55501708,1.27621662 C2.55520188,1.27648738 2.55547908,1.27684841 2.55566388,1.27711918 L3.20384988,2.06713354 L3.20384988,4.82166892 L2.25776628,4.82166892 C1.31981388,4.82166892 0.55732908,5.56682585 0.55732908,6.48265764 L0.55732908,10.1204423 C0.21443268,10.5296648 -2.772e-05,11.0455705 -2.772e-05,11.6144566 C-2.772e-05,12.9245284 1.09103148,13.9897346 2.43157068,13.9897346 C3.65818068,13.9897346 4.66561788,13.094752 4.82944308,11.9400115 L10.7525603,11.9400115 C11.4636707,13.1621735 12.8069819,13.9897346 14.3462735,13.9897346 C16.6253195,13.9897346 18.4799723,12.1785592 18.4799723,9.95193354 C18.4799723,8.55016123 17.7434519,7.3134679 16.6298471,6.58934072 L16.6298471,6.58934072 Z" id="Fill-1" fill="#FFFFFF" mask="url(#mask-2)"></path>
                    </g>
                    <path d="M10.4161134,5.40322708 L11.527593,2.68876554 C11.6415222,2.41023426 11.5028298,2.09433682 11.2177758,1.98287015 C10.9328142,1.87212554 10.6096914,2.00732964 10.4953002,2.28540964 L9.3838206,4.99987118 C9.2698914,5.27858297 9.4087686,5.59475118 9.6940998,5.70603733 C9.7596114,5.7315799 9.8293734,5.74475733 9.899967,5.74475733 C10.127271,5.74457682 10.3316598,5.60937272 10.4161134,5.40322708" id="Fill-3" fill="#FFFFFF"></path>
                </g>
            </g>
        </g>
    </g>
</svg>