<?xml version="1.0" encoding="UTF-8"?>
<svg width="23px" height="18px" viewBox="0 0 23 18" version="1.1" xmlns="http://www.w3.org/2000/svg" xmlns:xlink="http://www.w3.org/1999/xlink">
    <!-- Generator: Sketch 63 (92445) - https://sketch.com -->
    <title></title>
    <desc></desc>
    <g id="页面-1" stroke="none" stroke-width="1" fill="none" fill-rule="evenodd">
        <g id="首页-2切图" transform="translate(-1367.000000, -781.000000)" fill="#29E3FD" fill-rule="nonzero">
            <g id="编组-18备份-3" transform="translate(1324.000000, 749.000000)">
                <g id="编组-12" transform="translate(43.000000, 17.000000)">
                    <g id="icon_equiptment-copy" transform="translate(11.500000, 24.000000) scale(-1, 1) translate(-11.500000, -24.000000) translate(0.000000, 15.000000)">
                        <path d="M0.241577909,8.05739673 L13.238793,0.299645768 C14.2782927,-0.290169598 15.5755109,0.0135354418 16.2740478,1.01026036 L18.7913688,4.76636604 C19.1272758,5.26783101 19.2462712,5.89335579 19.1193989,6.49072606 C18.9925265,7.08809633 18.6314192,7.6025399 18.1239482,7.90887278 L15.383355,9.55913889 L15.8782908,10.2487501 C16.4410843,11.0211013 16.4312263,12.0932349 15.8543346,12.8541702 L16.5840415,13.9993549 L20.1252519,13.9993549 L20.1252519,12.4941122 C20.1253745,12.3619794 20.176047,12.2353687 20.2660125,12.1424074 C20.3559779,12.049446 20.477786,11.9978323 20.6043766,11.9990323 L22.5208753,11.9990323 C22.6474659,11.9978323 22.769274,12.049446 22.8592395,12.1424074 C22.9492049,12.2353687 23,12.3619794 23,12.4941122 L23,17.4999194 C23,17.7761063 22.7854886,18 22.5208753,18 L20.6043766,18 C20.3397634,18 20.1252519,17.7761063 20.1252519,17.4999194 L20.1252519,16.9998387 L16.5797293,16.9998387 C15.6180188,17.0010788 14.719726,16.4991446 14.1874598,15.6631232 L13.4021745,14.4324247 C13.25154,14.4713653 13.097338,14.4933278 12.9422148,14.4979353 C12.1753418,14.4957354 11.4652285,14.0757568 11.0693165,13.3902567 L10.5422793,12.4736089 L6.47019869,14.9340056 C6.35579974,15.003011 6.2191764,15.0196446 6.092632,14.9799735 C5.9660876,14.9403024 5.86085656,14.8478485 5.80181977,14.7244718 L5.44726751,13.9823521 C5.3888143,13.9868529 5.33323584,13.999855 5.27382438,13.999855 C3.42153679,13.9965469 1.92126974,12.4290952 1.91995165,10.4957899 C1.92345033,10.2756664 1.94849495,10.0564924 1.9946951,9.84168445 L0.269846265,8.9415393 C0.109965745,8.86051135 0.00619550756,8.69376749 0.000267713466,8.5083653 C-0.00566008063,8.32296311 0.0872286755,8.14936949 0.241577909,8.05739673 Z M21.0835013,17.0023391 L22.0417506,17.0023391 L22.0417506,12.9991936 L21.0835013,12.9991936 L21.0835013,16.9998387 L21.0835013,17.0023391 Z M14.9895145,15.1130345 C15.3444262,15.6700702 15.9431125,16.0044742 16.5840415,16.0036795 L20.1252519,16.0036795 L20.1252519,15.0035168 L16.5797293,15.0035168 C16.2591437,15.004175 15.9596568,14.8367988 15.7824659,14.557945 L15.1231903,13.5187774 L14.3005333,14.0338604 L14.9895145,15.1130345 Z M11.8958065,12.8821747 C12.2558342,13.470992 12.9939486,13.6635366 13.577055,13.3207455 L14.7921152,12.5596227 C15.0631534,12.3894282 15.2525392,12.107479 15.3134308,11.7835109 C15.3743225,11.4595428 15.3010337,11.1238091 15.1116913,10.8593485 L14.5472825,10.0737219 L11.3773936,11.9825297 L11.8958065,12.8821747 Z M4.96095596,12.9701889 L3.95766889,10.8733508 L2.89305386,10.3182613 C2.88778349,10.3797712 2.87724275,10.4432815 2.87724275,10.502291 C2.88118593,11.7535855 3.77207664,12.8085204 4.96095596,12.9696888 L4.96095596,12.9701889 Z M4.29832654,9.93319921 L16.2510498,2.73603864 L15.4887625,1.59735503 C15.0891386,1.00203947 14.3209678,0.822183175 13.7160012,1.1822881 L1.49640543,8.47096342 L4.29832654,9.93319921 Z" id="cam01"></path>
                    </g>
                </g>
            </g>
        </g>
    </g>
</svg>