<?xml version="1.0" encoding="UTF-8"?>
<svg width="42px" height="42px" viewBox="0 0 42 42" version="1.1" xmlns="http://www.w3.org/2000/svg" xmlns:xlink="http://www.w3.org/1999/xlink">
    <!-- Generator: Sketch 63 (92445) - https://sketch.com -->
    <title></title>
    <desc></desc>
    <defs>
        <polygon id="path-1" points="0 0.0397 16.1653623 0.0397 16.1653623 4.09576393 0 4.09576393"></polygon>
    </defs>
    <g id="页面-1" stroke="none" stroke-width="1" fill="none" fill-rule="evenodd">
        <g id="首页" transform="translate(-1630.000000, -331.000000)">
            <g id="编组-24" transform="translate(1571.000000, 259.000000)">
                <g id="编组-11" transform="translate(59.000000, 72.000000)">
                    <circle id="椭圆形备份-5" stroke="#ECC94C" cx="21" cy="21" r="20.5"></circle>
                    <g id="编组备份" transform="translate(11.000000, 12.000000)">
                        <path d="M18.29359,10.76679 C18.59459,11.33729 19.45769,10.83189 19.15709,10.26209 L18.59669,9.19949 C18.29559,8.62889 17.43249,9.13439 17.73309,9.70419 L18.29359,10.76679 Z M17.61769,13.32999 C17.27309,13.87759 18.13879,14.37889 18.48109,13.83469 L19.12079,12.81799 C19.46529,12.27039 18.59969,11.76899 18.25729,12.31329 L17.61769,13.32999 Z M15.05419,14.03099 C14.40909,14.00649 14.41129,15.00649 15.05419,15.03099 L16.25459,15.07659 C16.89969,15.10119 16.89739,14.10109 16.25459,14.07659 L15.05419,14.03099 Z M13.16699,12.15919 C12.86579,11.58869 12.00269,12.09409 12.30339,12.66389 L12.86409,13.72629 C13.16509,14.29679 14.02819,13.79139 13.72749,13.22159 L13.16699,12.15919 Z M13.84289,9.59599 C14.18729,9.04849 13.32179,8.54709 12.97929,9.09129 L12.33959,10.10809 C11.99509,10.65559 12.86069,11.15699 13.20309,10.61279 L13.84289,9.59599 Z M16.40619,8.89479 C17.05139,8.91939 17.04899,7.91929 16.40619,7.89479 L15.20599,7.84909 C14.56079,7.82449 14.56319,8.82459 15.20599,8.84909 L16.40619,8.89479 Z M15.73019,12.31749 C16.20199,12.31749 16.58469,11.93499 16.58469,11.46299 C16.58469,10.99109 16.20199,10.60849 15.73019,10.60849 C15.25819,10.60849 14.87569,10.99109 14.87569,11.46299 C14.87569,11.93499 15.25819,12.31749 15.73019,12.31749 Z M15.25179,3.01057045 L15.19539,5.67879 C15.18539,6.32399 16.18539,6.32299 16.19539,5.67879 L16.25179,2.03039 C16.25919,1.55149 15.71979,1.42599 15.39819,1.67679 L9.94499,5.93099 C9.43719,6.32739 10.14999,7.02979 10.65189,6.63819 L15.25179,3.01057045 Z M9.99259,17.89889 C9.51659,18.33559 10.22549,19.04089 10.69949,18.60599 L13.37849,16.14879 C13.85489,15.71209 13.14569,15.00679 12.67159,15.44179 L9.99259,17.89889 Z M7.26019,8.91449 C7.79559,9.06349 8.02269,8.14249 7.48739,7.99409 C6.09369,7.60709 4.69979,7.22049 3.30609,6.83339 C2.77099,6.68479 2.54389,7.60509 3.07889,7.75359 C4.47269,8.14039 5.86649,8.52739 7.26019,8.91449 Z" id="Fill-1" fill="#ECC94C"></path>
                        <path d="M16.83798,8.64711 C16.97528,8.45001 17.21918,8.66891 17.35618,8.75131 C17.51048,8.84401 17.85428,8.96301 17.73298,9.19951 C17.43928,9.77211 18.30208,10.27811 18.59658,9.70421 C18.80158,9.30481 18.79858,8.92301 18.61058,8.51881 C18.47768,8.23351 18.17608,8.07721 17.91948,7.92301 C17.65658,7.76491 17.40558,7.59401 17.08898,7.56991 C16.61918,7.53411 16.23628,7.76651 15.97448,8.14251 C15.60498,8.67311 16.47238,9.17221 16.83798,8.64711" id="Fill-3" fill="#ECC94C"></path>
                        <path d="M13.84286,9.0913 C13.74306,8.8787 14.06496,8.771 14.19936,8.6964 C14.36236,8.606 14.62686,8.3733 14.77416,8.6014 C15.12246,9.141 15.98856,8.6402 15.63756,8.0967 C15.39616,7.7227 15.06346,7.5355 14.62326,7.4967 C14.30666,7.4687 14.01876,7.6532 13.75446,7.7998 C13.48876,7.9471 13.21656,8.0781 13.03926,8.3376 C12.77076,8.7302 12.78306,9.178 12.97926,9.5959 C13.25326,10.1794 14.11516,9.6714 13.84286,9.0913" id="Fill-5" fill="#ECC94C"></path>
                        <path d="M12.73515,11.91152 C12.50055,11.88852 12.56595,11.57192 12.56875,11.41332 C12.57195,11.22802 12.50285,10.87752 12.77135,10.86052 C13.41165,10.82002 13.41555,9.81982 12.77135,9.86052 C12.31685,9.88922 11.97345,10.08312 11.72555,10.46702 C11.56115,10.72162 11.57525,11.04442 11.57005,11.33452 C11.56505,11.61772 11.54375,11.89502 11.65195,12.16422 C11.84045,12.63322 12.24975,12.86372 12.73505,12.91162 C13.37685,12.97472 13.37075,11.97402 12.73515,11.91152" id="Fill-7" fill="#ECC94C"></path>
                        <path d="M14.62245,14.27871 C14.48515,14.47581 14.24115,14.25681 14.10415,14.17451 C13.94995,14.08171 13.60615,13.96271 13.72745,13.72631 C14.02125,13.15371 13.15855,12.64781 12.86395,13.22161 C12.65895,13.62101 12.66185,14.00281 12.84985,14.40701 C12.98265,14.69231 13.28445,14.84861 13.54085,15.00281 C13.80375,15.16101 14.05485,15.33191 14.37145,15.35601 C14.84125,15.39181 15.22395,15.15921 15.48585,14.78341 C15.85565,14.25281 14.98825,13.75371 14.62245,14.27871" id="Fill-9" fill="#ECC94C"></path>
                        <path d="M17.61757,13.83466 C17.71737,14.04736 17.39527,14.15496 17.26097,14.22946 C17.09797,14.31976 16.83357,14.55246 16.68627,14.32426 C16.33817,13.78456 15.47207,14.28536 15.82287,14.82896 C16.06417,15.20296 16.39697,15.39016 16.83697,15.42896 C17.15347,15.45706 17.44147,15.27256 17.70587,15.12596 C17.97167,14.97876 18.24367,14.84806 18.42107,14.58826 C18.68957,14.19566 18.67717,13.74806 18.48107,13.32996 C18.20727,12.74646 17.34537,13.25456 17.61757,13.83466" id="Fill-11" fill="#ECC94C"></path>
                        <path d="M0.559957806,3.33733652 L0.64554,3.35151 L10.30574,5.80241 C10.450016,5.83901595 10.5468309,5.91861314 10.6027075,6.01743619 C10.6493073,6.04100963 10.67284,6.05242495 10.67284,6.05242495 C10.67284,6.05242495 10.6643325,6.07546289 10.6473175,6.12153877 C10.6641581,6.16993135 10.67284,6.2244208 10.67284,6.28451 L10.67284,6.28451 L10.67284,18.25231 C10.67284,18.55481 10.34914,18.85071 10.03994,18.73441 L10.03994,18.73441 L0.37974,15.10061 C0.16864,15.02121 0.01264,14.85641 0.01264,14.61851 L0.01264,14.61851 L0.01264,3.83361 C0.01264,3.50361 0.33124,3.27181 0.64554,3.35151 Z M1.01264,4.42543385 L1.01264,14.2747373 L1.03441818,14.2827787 C3.78158786,15.3160821 6.02884974,16.1869314 8.66473212,17.184051 L9.67314,17.5644537 L9.67264,6.67973725 L9.55464,6.63973725 L1.01264,4.42543385 Z M18.6243701,10.013314 L18.72534,10.01431 C19.21074,10.06211 19.61984,10.29261 19.80844,10.76151 C19.91674,11.03051 19.89534,11.30801 19.89024,11.59111 C19.88504,11.88131 19.89914,12.20431 19.73474,12.45911 C19.48694,12.84291 19.14354,13.03691 18.68904,13.06551 C18.04484,13.10611 18.04874,12.10581 18.68904,12.06551 C18.95744,12.04861 18.88834,11.69761 18.89164,11.51231 C18.89444,11.35371 18.95994,11.03741 18.72534,11.01441 C18.08974,10.95181 18.08354,9.95131 18.72534,10.01431 Z" id="形状结合" fill="#ECC94C"></path>
                        <g id="编组" transform="translate(0.000000, 0.060300)">
                            <mask id="mask-2" fill="white">
                                <use xlink:href="#path-1"></use>
                            </mask>
                            <g id="Clip-16"></g>
                            <path d="M7.38308692,1.01079 L15.53723,2.41829 C16.16783,2.52459 16.43793,1.56109 15.80303,1.45399 L8.42763,0.21029 L7.46233,0.04759 C7.14483,-0.00591 6.78973,0.22439 6.50633,0.35269 C4.42433,1.29609 2.34223,2.23939 0.26013,3.18259 C-0.32637,3.44849 0.18243,4.31009 0.76493,4.04609 L7.38308692,1.01079 Z" id="Fill-15" fill="#ECC94C" mask="url(#mask-2)"></path>
                        </g>
                    </g>
                </g>
            </g>
        </g>
    </g>
</svg>