<?xml version="1.0" encoding="UTF-8"?>
<svg width="42px" height="42px" viewBox="0 0 42 42" version="1.1" xmlns="http://www.w3.org/2000/svg" xmlns:xlink="http://www.w3.org/1999/xlink">
    <!-- Generator: Sketch 63 (92445) - https://sketch.com -->
    <title></title>
    <desc></desc>
    <defs>
        <polygon id="path-1" points="0 17.9609 18.3496 17.9609 18.3496 0 0 0"></polygon>
    </defs>
    <g id="页面-1" stroke="none" stroke-width="1" fill="none" fill-rule="evenodd">
        <g id="首页" transform="translate(-1628.000000, -161.000000)">
            <g id="编组-23" transform="translate(1571.000000, 89.000000)">
                <g id="编组-17" transform="translate(57.000000, 72.000000)">
                    <circle id="椭圆形备份-6" stroke="#68E0E3" cx="21" cy="21" r="20.5"></circle>
                    <g id="编组备份-2" transform="translate(12.000000, 12.000000)">
                        <path d="M4.14648,15.33395 L14.20508,15.33395 L14.20508,14.41205 C14.20508,14.08195 14.47268,13.81635 14.80078,13.81635 L15.89258,13.81635 L15.89258,4.14645 L14.80078,4.14645 C14.47068,4.14645 14.20508,3.87885 14.20508,3.55075 L14.20508,2.17965 L4.14648,2.17965 L4.14648,3.55075 C4.14648,3.88085 3.87888,4.14645 3.55078,4.14645 L2.73828,4.14645 L2.73828,13.81635 L3.55078,13.81635 C3.88088,13.81635 4.14648,14.08395 4.14648,14.41205 L4.14648,15.33395 Z M14.80078,16.52535 L3.55078,16.52535 C3.22068,16.52535 2.95508,16.25775 2.95508,15.92965 L2.95508,15.00775 L2.14258,15.00775 C1.81248,15.00775 1.54688,14.74025 1.54688,14.41205 L1.54688,3.54875 C1.54688,3.21875 1.81448,2.95305 2.14258,2.95305 L2.95508,2.95305 L2.95508,1.58195 C2.95508,1.25195 3.22268,0.98625 3.55078,0.98625 L14.80078,0.98625 C15.13088,0.98625 15.39648,1.25385 15.39648,1.58195 L15.39648,2.95305 L16.48828,2.95305 C16.81838,2.95305 17.08398,3.22065 17.08398,3.54875 L17.08398,14.41015 C17.08398,14.74025 16.81638,15.00585 16.48828,15.00585 L15.39648,15.00585 L15.39648,15.92765 C15.39848,16.25775 15.13088,16.52535 14.80078,16.52535 L14.80078,16.52535 Z" id="Fill-1" fill="#68E0E3"></path>
                        <path d="M3.55078,15.11715 C3.39848,15.11715 3.24608,15.05855 3.12888,14.94335 C2.89648,14.71095 2.89648,14.33395 3.12888,14.09955 L14.38088,2.84765 C14.61328,2.61515 14.99028,2.61515 15.22458,2.84765 C15.45708,3.08005 15.45708,3.45695 15.22458,3.69135 L3.97268,14.94335 C3.85548,15.05855 3.70308,15.11715 3.55078,15.11715" id="Fill-3" fill="#68E0E3"></path>
                        <mask id="mask-2" fill="white">
                            <use xlink:href="#path-1"></use>
                        </mask>
                        <g id="Clip-6"></g>
                        <path d="M15.3984,16.7695 L17.1601,16.7695 L17.1601,15.0078 L15.3984,15.0078 L15.3984,16.7695 Z M17.7559,17.9609 L14.8008,17.9609 C14.4707,17.9609 14.2051,17.6933 14.2051,17.3652 L14.2051,14.4101 C14.2051,14.08 14.4727,13.8144 14.8008,13.8144 L17.7539,13.8144 C18.084,13.8144 18.3496111,14.082 18.3496111,14.4101 L18.3496111,17.3632 C18.3516,17.6953 18.084,17.9609 17.7559,17.9609 L17.7559,17.9609 Z M15.3984,2.9531 L17.1601,2.9531 L17.1601,1.1914 L15.3984,1.1914 L15.3984,2.9531 Z M17.7559,4.1464 L14.8008,4.1464 C14.4707,4.1464 14.2051,3.8789 14.2051,3.5507 L14.2051,0.5957 C14.2051,0.2656 14.4727,0 14.8008,0 L17.7539,0 C18.084,0 18.3496111,0.2675 18.3496111,0.5957 L18.3496111,3.5488 C18.3516,3.8789 18.084,4.1464 17.7559,4.1464 L17.7559,4.1464 Z M1.1934,2.9531 L2.9551,2.9531 L2.9551,1.1914 L1.1934,1.1914 L1.1934,2.9531 Z M3.5508,4.1464 L0.5957,4.1464 C0.2656,4.1464 0,3.8789 0,3.5507 L0,0.5957 C0,0.2656 0.2676,0 0.5957,0 L3.5508,0 C3.8809,0 4.1465,0.2675 4.1465,0.5957 L4.1465,3.5488 C4.1465,3.8789 3.8789,4.1464 3.5508,4.1464 L3.5508,4.1464 Z M2.2051,10.1211 C2.0527,10.1211 1.9004,10.0625 1.7832,9.9472 C1.5508,9.7148 1.5508,9.3379 1.7832,9.1035 L9.2773,1.6093 C9.5098,1.3769 9.8867,1.3769 10.1211,1.6093 C10.3535,1.8418 10.3535,2.2187 10.1211,2.4531 L2.625,9.9453 C2.5098,10.0625 2.3574,10.1211 2.2051,10.1211 L2.2051,10.1211 Z M7.9102,16.5078 C7.7578,16.5078 7.6055,16.4492 7.4883,16.3339 C7.2559,16.1015 7.2559,15.7246 7.4883,15.4902 L15.8359,7.1445 C16.0684,6.9121 16.4453,6.9121 16.6797,7.1445 C16.9121,7.3769 16.9121,7.7539 16.6797,7.9882 L8.332,16.3339 C8.2148,16.4492 8.0625,16.5078 7.9102,16.5078 L7.9102,16.5078 Z M1.1934,16.7695 L2.9551,16.7695 L2.9551,15.0078 L1.1934,15.0078 L1.1934,16.7695 Z M3.5508,17.9609 L0.5957,17.9609 C0.2656,17.9609 0,17.6933 0,17.3652 L0,14.4101 C0,14.08 0.2676,13.8144 0.5957,13.8144 L3.5508,13.8144 C3.8809,13.8144 4.1465,14.082 4.1465,14.4101 L4.1465,17.3632 C4.1465,17.6953 3.8789,17.9609 3.5508,17.9609 L3.5508,17.9609 Z" id="Fill-5" fill="#68E0E3" mask="url(#mask-2)"></path>
                    </g>
                </g>
            </g>
        </g>
    </g>
</svg>