<?xml version="1.0" encoding="UTF-8"?>
<svg width="18px" height="14px" viewBox="0 0 18 14" version="1.1" xmlns="http://www.w3.org/2000/svg" xmlns:xlink="http://www.w3.org/1999/xlink">
    <!-- Generator: Sketch 63 (92445) - https://sketch.com -->
    <title>icon_equiptment copy备份</title>
    <desc>Created with Sketch.</desc>
    <g id="页面-1" stroke="none" stroke-width="1" fill="none" fill-rule="evenodd">
        <g id="新首页备份" transform="translate(-1257.000000, -797.000000)" fill="#FFFFFF" fill-rule="nonzero">
            <g id="编组-15备份-8" transform="translate(1237.000000, 778.000000)">
                <g id="icon_equiptment-copy备份" transform="translate(29.000000, 26.000000) scale(-1, 1) translate(-29.000000, -26.000000) translate(20.000000, 19.000000)">
                    <path d="M0.182338939,6.08158739 L9.99241805,0.22616758 C10.7770149,-0.219015127 11.7561334,0.0102163236 12.2833773,0.762527507 L14.1834088,3.59757284 C14.4369458,3.97607015 14.5267615,4.44820573 14.4310004,4.89909075 C14.3352392,5.34997577 14.0626815,5.73826911 13.6796509,5.96948401 L11.6110974,7.21507709 L11.9846666,7.73558401 C12.4094536,8.31854168 12.4020129,9.12777009 11.9665848,9.70211126 L12.5173553,10.5664774 L15.1902013,10.5664774 L15.1902013,9.4303455 C15.1902938,9.33061389 15.2285406,9.23505032 15.296445,9.16488466 C15.3643494,9.09471899 15.4562881,9.05576179 15.5518366,9.05666758 L16.9983775,9.05666758 C17.093926,9.05576179 17.1858647,9.09471899 17.2537691,9.16488466 C17.3216735,9.23505032 17.3600128,9.33061389 17.3600128,9.4303455 L17.3600128,13.2086445 C17.3600128,13.4171057 17.1981031,13.5860969 16.9983775,13.5860969 L15.5518366,13.5860969 C15.3521109,13.5860969 15.1902013,13.4171057 15.1902013,13.2086445 L15.1902013,12.831192 L12.5141006,12.831192 C11.7882176,12.832128 11.1102013,12.4532765 10.7084558,11.8222617 L10.1157357,10.8933512 C10.0020393,10.9227429 9.88565019,10.9393198 9.76856583,10.9427975 C9.189743,10.9411371 8.65376145,10.6241443 8.35493369,10.1067403 L7.95713493,9.41486995 L4.88359704,11.271936 C4.79725063,11.3240201 4.69412964,11.3365749 4.59861606,11.3066318 C4.50310247,11.2766887 4.42367585,11.2069061 4.37911588,11.1137834 L4.1115058,10.553644 C4.0673863,10.5570411 4.02543662,10.5668548 3.98059385,10.5668548 C2.58251836,10.5643579 1.45014205,9.38127182 1.44914718,7.92204552 C1.45178793,7.75589997 1.47069118,7.59047115 1.50556228,7.42833772 L0.203675418,6.74892332 C0.0830002929,6.68776479 0.00467626479,6.56190933 0.000202065617,6.42197087 C-0.00427213356,6.28203242 0.0658387356,6.15100688 0.182338939,6.08158739 Z M15.9134718,12.8330793 L16.6367423,12.8330793 L16.6367423,9.81157247 L15.9134718,9.81157247 L15.9134718,12.831192 L15.9134718,12.8330793 Z M11.3138332,11.407064 C11.5817145,11.8275052 12.0335929,12.0799077 12.5173553,12.0793078 L15.1902013,12.0793078 L15.1902013,11.3244019 L12.5141006,11.3244019 C12.2721279,11.3248987 12.0460802,11.1985659 11.9123395,10.9880917 L11.4147294,10.2037456 L10.7938017,10.5925216 L11.3138332,11.407064 Z M8.97875447,9.7232486 C9.25049731,10.1676779 9.80761364,10.3130074 10.2477325,10.0542744 L11.1648395,9.47979177 C11.3694146,9.35133182 11.5123598,9.1385213 11.5583198,8.89399562 C11.6042798,8.64946994 11.5489626,8.39606384 11.4060502,8.19645345 L10.9800439,7.60347566 L8.58746515,9.04421165 L8.97875447,9.7232486 Z M3.74444604,9.78968023 L2.98718185,8.20702212 L2.18362835,7.7880499 C2.17965036,7.83447655 2.17169438,7.88241301 2.17169438,7.9269524 C2.17467063,8.87140842 2.84709994,9.66765554 3.74444604,9.78930278 L3.74444604,9.78968023 Z M3.2443045,7.49741152 L12.2660188,2.0651159 L11.6906571,1.20565668 C11.3890278,0.756322524 10.8092254,0.620570018 10.3526067,0.892371149 L1.12946163,6.39374056 L3.2443045,7.49741152 Z" id="cam01"></path>
                </g>
            </g>
        </g>
    </g>
</svg>