<?xml version="1.0" encoding="UTF-8"?>
<svg width="15px" height="16px" viewBox="0 0 15 16" version="1.1" xmlns="http://www.w3.org/2000/svg" xmlns:xlink="http://www.w3.org/1999/xlink">
    <!-- Generator: Sketch 63 (92445) - https://sketch.com -->
    <title>编组</title>
    <desc>Created with Sketch.</desc>
    <g id="页面-1" stroke="none" stroke-width="1" fill="none" fill-rule="evenodd">
        <g id="新首页备份" transform="translate(-422.000000, -796.000000)" fill="#FFFFFF">
            <g id="编组-15备份-5" transform="translate(400.000000, 778.000000)">
                <g id="编组" transform="translate(22.000000, 18.000000)">
                    <path d="M10.45,8.8 C8.93376,8.8 7.7,10.03376 7.7,11.55 C7.7,13.06624 8.93376,14.3 10.45,14.3 C11.96624,14.3 13.2,13.06624 13.2,11.55 C13.2,10.03376 11.96624,8.8 10.45,8.8 M10.45,15.4 C9.421632,15.4 8.454864,14.999512 7.727632,14.272368 C7.000488,13.545136 6.6,12.578368 6.6,11.55 C6.6,10.521632 7.000488,9.554864 7.727632,8.827632 C8.454864,8.100488 9.421632,7.7 10.45,7.7 C11.478368,7.7 12.445136,8.100488 13.172368,8.827632 C13.899512,9.554864 14.3,10.521632 14.3,11.55 C14.3,12.578368 13.899512,13.545136 13.172368,14.272368 C12.445136,14.999512 11.478368,15.4 10.45,15.4" id="Fill-1"></path>
                    <path d="M13.75,8.8 C13.446312,8.8 13.2,8.553688 13.2,8.25 L13.2,2.524456 C13.2,2.345552 13.061312,2.2 12.890592,2.2 L10.037456,2.2 C9.733768,2.2 9.487456,1.953688 9.487456,1.65 C9.487456,1.346312 9.733768,1.1 10.037456,1.1 L12.890592,1.1 C13.667632,1.1 14.3,1.739056 14.3,2.524456 L14.3,8.25 C14.3,8.553688 14.053688,8.8 13.75,8.8 M7.15,15.4 L1.409408,15.4 C0.632368,15.4 0,14.760944 0,13.975544 L0,2.524456 C0,1.739056 0.632368,1.1 1.409408,1.1 L4.262456,1.1 C4.566232,1.1 4.812456,1.346312 4.812456,1.65 C4.812456,1.953688 4.566232,2.2 4.262456,2.2 L1.409408,2.2 C1.238688,2.2 1.1,2.345552 1.1,2.524456 L1.1,13.975632 C1.1,14.154624 1.238688,14.300176 1.409408,14.300176 L7.15,14.300176 C7.453688,14.300176 7.7,14.546488 7.7,14.850176 C7.7,15.153864 7.453688,15.4 7.15,15.4 M10.06896,13.060608 L10.06896,12.43616 L9.323688,12.43616 C9.162472,12.43616 9.08204,12.362592 9.08204,12.214664 C9.09524,12.09384 9.175848,12.020096 9.323688,11.99308 L10.06896,11.99308 L10.06896,11.65076 L9.323688,11.65076 C9.162472,11.65076 9.08204,11.577192 9.08204,11.429176 C9.09524,11.308352 9.175848,11.234608 9.323688,11.207592 L9.746704,11.207592 L9.102192,10.301368 C9.034784,10.247864 9.00812,10.173768 9.021584,10.079784 C9.034784,9.851512 9.162472,9.724176 9.404296,9.696984 C9.52512,9.710624 9.62588,9.764392 9.706488,9.8582 L10.45176,10.925728 L11.196944,9.8582 C11.264,9.764392 11.36476,9.710624 11.499136,9.696984 C11.727408,9.724 11.854744,9.851512 11.881848,10.079784 C11.881848,10.173768 11.85492,10.247864 11.80124,10.301368 L11.156728,11.207592 L11.579744,11.207592 C11.713768,11.234608 11.794376,11.308352 11.821392,11.429176 C11.80784,11.577192 11.727408,11.65076 11.579744,11.65076 L10.834472,11.65076 L10.834472,11.99308 L11.579744,11.99308 C11.713768,12.020096 11.794376,12.09384 11.821392,12.214664 C11.80784,12.362592 11.727408,12.43616 11.579744,12.43616 L10.834472,12.43616 L10.834472,13.060608 C10.82092,13.289056 10.693584,13.403016 10.45176,13.403016 C10.196472,13.403016 10.06896,13.289056 10.06896,13.060608" id="Fill-3"></path>
                    <path d="M8.4390592,2.2 L5.8609232,2.2 C5.4827872,2.2 5.1734672,1.890592 5.1734672,1.512544 C5.1734672,1.134408 5.4827872,0.825 5.8609232,0.825 L8.4390592,0.825 C8.8171952,0.825 9.1265152,1.134408 9.1265152,1.512544 C9.1265152,1.890592 8.8171952,2.2 8.4390592,2.2 M6.6000352,8.983392 L4.4004752,8.983392 C4.0980192,8.983392 3.8504752,8.735848 3.8504752,8.433392 C3.8504752,8.130848 4.0980192,7.883392 4.4004752,7.883392 L6.6000352,7.883392 C6.9024912,7.883392 7.1500352,8.130848 7.1500352,8.433392 C7.1500352,8.735848 6.9024912,8.983392 6.6000352,8.983392 M9.3661392,6.966608 L4.4000352,6.966608 C4.0974912,6.966608 3.8500352,6.719152 3.8500352,6.416608 C3.8500352,6.114152 4.0974912,5.866608 4.4000352,5.866608 L9.3661392,5.866608 C9.6686832,5.866608 9.9161392,6.114152 9.9161392,6.416608 C9.9161392,6.719152 9.6686832,6.966608 9.3661392,6.966608 M11.5500352,4.95 L4.4000352,4.95 C4.0974912,4.95 3.8500352,4.702456 3.8500352,4.4 C3.8500352,4.097456 4.0974912,3.85 4.4000352,3.85 L11.5500352,3.85 C11.8524912,3.85 12.1000352,4.097456 12.1000352,4.4 C12.1000352,4.702456 11.8524912,4.95 11.5500352,4.95" id="Fill-5"></path>
                    <path d="M3.1281272,8.983392 L2.3718552,8.983392 C2.2773432,8.983392 2.1999912,8.90604 2.1999912,8.811528 L2.1999912,8.055256 C2.1999912,7.960744 2.2773432,7.883392 2.3718552,7.883392 L3.1281272,7.883392 C3.2226392,7.883392 3.2999912,7.960744 3.2999912,8.055256 L3.2999912,8.811528 C3.2999912,8.90604 3.2226392,8.983392 3.1281272,8.983392 M3.1281272,6.966608 L2.3718552,6.966608 C2.2773432,6.966608 2.1999912,6.889256 2.1999912,6.794744 L2.1999912,6.038472 C2.1999912,5.94396 2.2773432,5.866608 2.3718552,5.866608 L3.1281272,5.866608 C3.2226392,5.866608 3.2999912,5.94396 3.2999912,6.038472 L3.2999912,6.794744 C3.2999912,6.889256 3.2226392,6.966608 3.1281272,6.966608 M3.1281272,4.95 L2.3718552,4.95 C2.2773432,4.95 2.1999912,4.872648 2.1999912,4.778136 L2.1999912,4.021864 C2.1999912,3.927352 2.2773432,3.85 2.3718552,3.85 L3.1281272,3.85 C3.2226392,3.85 3.2999912,3.927352 3.2999912,4.021864 L3.2999912,4.778136 C3.2999912,4.872648 3.2226392,4.95 3.1281272,4.95 M7.5625352,1.375 L6.7375352,1.375 C6.3593992,1.375 6.0499912,1.065592 6.0499912,0.687456 C6.0499912,0.309408 6.3593992,0 6.7375352,0 L7.5625352,0 C7.9406712,0 8.2499912,0.309408 8.2499912,0.687456 C8.2499912,1.065592 7.9406712,1.375 7.5625352,1.375" id="Fill-7"></path>
                </g>
            </g>
        </g>
    </g>
</svg>