<?xml version="1.0" encoding="UTF-8"?>
<svg width="17px" height="8px" viewBox="0 0 17 8" version="1.1" xmlns="http://www.w3.org/2000/svg" xmlns:xlink="http://www.w3.org/1999/xlink">
    <!-- Generator: Sketch 63 (92445) - https://sketch.com -->
    <title>Fill 1</title>
    <desc>Created with Sketch.</desc>
    <g id="页面-1" stroke="none" stroke-width="1" fill="none" fill-rule="evenodd">
        <g id="登录-输入完成" transform="translate(-319.000000, -280.000000)" fill="#717384">
            <path d="M335.894857,280.990209 C336.072357,280.712803 336.020671,280.346192 335.773415,280.129691 C335.500218,279.914268 335.134725,279.975468 334.922152,280.252091 C334.89184,280.28274 331.516812,284.310859 327.503192,284.310859 C323.611013,284.310859 320.084328,280.252091 320.053919,280.22154 C319.832505,279.974097 319.456714,279.947071 319.202656,280.16034 C318.958023,280.384968 318.931306,280.763525 319.141935,281.02076 C319.201393,281.113783 319.93131,281.943652 321.087442,282.865369 L319.536574,284.495731 C319.308846,284.731717 319.314092,285.1091 319.548233,285.338623 C319.554353,285.344596 319.560668,285.350471 319.566983,285.356151 C319.627705,285.47855 319.779459,285.541023 319.93131,285.541023 C320.091906,285.53975 320.245215,285.473067 320.356359,285.356151 L322.028571,283.60339 C322.883525,284.205693 323.813773,284.691374 324.795027,285.047802 L324.157504,287.231311 C324.061516,287.5566 324.245234,287.898732 324.567979,287.995476 C324.573225,287.997141 324.578471,287.998512 324.583718,288 L324.765881,288 C325.042284,288.002233 325.282837,287.810212 325.343947,287.538583 L325.981568,285.356151 C326.4686,285.447901 326.984681,285.510374 327.502026,285.510374 C328.019273,285.510374 328.535451,285.449174 329.022484,285.356151 L329.66127,287.508032 C329.721992,287.784655 329.995188,287.969332 330.239336,287.969332 C330.300057,287.969332 330.360778,287.969332 330.391187,287.938781 C330.71675,287.849968 330.909406,287.511949 330.82119,287.183722 C330.820025,287.17912 330.818664,287.174616 330.817401,287.170112 L330.178615,285.018426 C331.160257,284.662097 332.090506,284.176024 332.945071,283.572839 L334.586972,285.294951 C334.708414,285.417351 334.860265,285.479823 335.013283,285.479823 C335.173878,285.47855 335.32709,285.411867 335.438331,285.294951 C335.674415,285.062196 335.687822,284.683639 335.468643,284.434531 L333.917776,282.805345 C335.165037,281.882452 335.894857,280.990209 335.894857,280.990209" id="Fill-1"></path>
        </g>
    </g>
</svg>