<?xml version="1.0" encoding="UTF-8"?>
<svg width="20px" height="12px" viewBox="0 0 20 12" version="1.1" xmlns="http://www.w3.org/2000/svg" xmlns:xlink="http://www.w3.org/1999/xlink">
    <!-- Generator: Sketch 63 (92445) - https://sketch.com -->
    <title>编组</title>
    <desc>Created with Sketch.</desc>
    <defs>
        <polygon id="path-1" points="0 0.0576190476 19.9369583 0.0576190476 19.9369583 11.9047381 0 11.9047381"></polygon>
    </defs>
    <g id="页面-1" stroke="none" stroke-width="1" fill="none" fill-rule="evenodd">
        <g id="登录" transform="translate(-317.000000, -276.000000)">
            <g id="编组" transform="translate(317.000000, 276.000000)">
                <path d="M7.81101173,6.04264286 C7.81053571,7.23514286 8.77684524,8.20216667 9.96922619,8.20264296 C11.1616071,8.203 12.128631,7.23680952 12.1291074,6.04442857 L12.1291074,6.04264286 C12.1297024,4.8502619 11.1633929,3.8832381 9.9710119,3.88264276 C8.7785119,3.88228571 7.8114881,4.84847619 7.81101173,6.04085714 L7.81101173,6.04264286 Z" id="Fill-1" fill="#717384"></path>
                <g transform="translate(0.000000, 0.061476)">
                    <mask id="mask-2" fill="white">
                        <use xlink:href="#path-1"></use>
                    </mask>
                    <g id="Clip-4"></g>
                    <path d="M9.97008333,10.1331905 C7.68186905,10.1331905 5.81805952,8.2695 5.81805952,5.98116667 C5.81805952,3.69295238 7.68186905,1.82914286 9.97008333,1.82914286 C12.2584167,1.82914286 14.1221071,3.69295238 14.1221071,5.98116667 C14.1221071,8.2695 12.2584167,10.1331905 9.97008333,10.1331905 M9.97008333,0.0575952381 C5.31794048,0.0575952381 1.98544048,3.0617619 0.45222619,4.79128571 C-0.15075,5.47152381 -0.15075,6.49069048 0.45222619,7.17104762 C1.98544048,8.90057143 5.31794048,11.9047381 9.97008333,11.9047381 C14.6074643,11.9047381 17.9448452,8.90271429 19.4829405,7.17283333 C20.0882976,6.49211905 20.0882976,5.47021429 19.4829405,4.7895 C17.9448452,3.0597381 14.6074643,0.0575952381 9.97008333,0.0575952381" id="Fill-3" fill="#717384" mask="url(#mask-2)"></path>
                </g>
            </g>
        </g>
    </g>
</svg>