<?xml version="1.0" encoding="UTF-8"?>
<svg width="20px" height="20px" viewBox="0 0 20 20" version="1.1" xmlns="http://www.w3.org/2000/svg" xmlns:xlink="http://www.w3.org/1999/xlink">
    <!-- Generator: Sketch 63 (92445) - https://sketch.com -->
    <title>溯源备份</title>
    <desc>Created with Sketch.</desc>
    <defs>
        <polygon id="path-1" points="5.49771591e-05 0.0467965502 18.6048876 0.0467965502 18.6048876 18.6516854 5.49771591e-05 18.6516854"></polygon>
    </defs>
    <g id="页面-1" stroke="none" stroke-width="1" fill="none" fill-rule="evenodd">
        <g id="管理-地块-投入品" transform="translate(-107.000000, -499.000000)">
            <g id="侧边菜单" transform="translate(0.000000, 80.000000)">
                <g id="预警备份-4" transform="translate(100.000000, 418.000000)">
                    <g id="溯源备份" transform="translate(7.000000, 0.000000)">
                        <path d="M9.30713483,6.6385366 C7.04219101,6.6488764 5.2144382,8.49337079 5.22473165,10.758427 C5.23511236,13.0232584 7.07960674,14.8510112 9.34455056,14.8407178 C11.602191,14.8303371 13.4270225,12.9973034 13.4270225,10.7396629 C13.4244382,8.47213483 11.5841011,6.63595506 9.31646067,6.6385366 L9.30713483,6.6385366 Z M9.30713483,16.1141573 C6.33882022,16.1141573 3.93264045,13.7079775 3.93264045,10.7396629 C3.93264045,7.77146067 6.33882022,5.36516854 9.30713483,5.36516854 C12.2753371,5.36516854 14.6816292,7.77146067 14.6816292,10.7396629 C14.6790449,13.7068539 12.2743258,16.1116854 9.30713483,16.1141573 L9.30713483,16.1141573 Z" id="Fill-1" fill="#FFFFFF"></path>
                        <g id="编组" transform="translate(0.000000, 1.385730)">
                            <mask id="mask-2" fill="white">
                                <use xlink:href="#path-1"></use>
                            </mask>
                            <g id="Clip-4"></g>
                            <path d="M9.30713483,1.32960674 C4.87286517,1.32702247 1.27601124,4.91960674 1.27342557,9.35398876 C1.2708427,13.7882584 4.86342697,17.385 9.29780899,17.387698 C13.7320787,17.3902809 17.3288202,13.7975843 17.3315169,9.36331461 L17.3315169,9.35398876 C17.3263483,4.92353933 13.7374719,1.33264045 9.30713483,1.32488764 L9.30713483,1.32960674 Z M9.30713483,18.6517428 C4.16949438,18.6543258 0.00252808989,14.4915169 5.49771588e-05,9.35398876 C-0.00252808989,4.21634831 4.16016854,0.0493820225 9.29780899,0.0467965502 C14.4353371,0.0442134831 18.6023034,4.20691011 18.6048876,9.34455056 L18.6048876,9.35398876 C18.5971348,14.4856742 14.4389326,18.6439888 9.30713483,18.6517428 L9.30713483,18.6517428 Z" id="Fill-3" fill="#FFFFFF" mask="url(#mask-2)"></path>
                        </g>
                        <path d="M9.21348315,13.0102247 C8.05,13.0878652 7.04382022,12.2075281 6.96629213,11.0440449 C6.88865169,9.8805618 7.7688764,8.87438202 8.93247191,8.79674157 C9.02606742,8.7905618 9.11988764,8.7905618 9.21348315,8.79674157 C9.42449438,8.79741573 9.63426966,8.82898876 9.83617978,8.89033708 L13.4269663,5.29483146 L13.4269663,4.47561798 L16.2359551,0.926853933 L16.9803371,3.10853933 L19.1620225,3.85764045 L15.6132584,6.71808989 L14.7986517,6.71808989 L11.2031461,10.3088764 C11.5341573,11.4216854 10.9005618,12.5920225 9.78775281,12.9231461 C9.60134831,12.9786517 9.40797753,13.0078652 9.21348315,13.0102247" id="Fill-5" fill="#FFFFFF"></path>
                    </g>
                </g>
            </g>
        </g>
    </g>
</svg>