<?xml version="1.0" encoding="UTF-8"?>
<svg width="16px" height="19px" viewBox="0 0 16 19" version="1.1" xmlns="http://www.w3.org/2000/svg" xmlns:xlink="http://www.w3.org/1999/xlink">
    <!-- Generator: Sketch 53.2 (72643) - https://sketchapp.com -->
    <title></title>
    <desc></desc>
    <g id="页面-1" stroke="none" stroke-width="1" fill="none" fill-rule="evenodd">
        <g id="概况备份-4" transform="translate(-42.000000, -257.000000)" fill="#9FA8B8">
            <g id="侧边菜单" transform="translate(0.000000, 80.000000)">
                <g id="监控" transform="translate(34.000000, 177.000000)">
                    <path d="M15.4737161,13.1754992 L16.5263917,13.1754992 L16.5263917,12.1214247 L15.4737161,12.1214247 L15.4737161,13.1754992 Z M19.2000108,17.9438748 L12.7999892,17.9438748 L13.2253279,15.52585 C14.0884011,15.8463033 15.0231546,16.0212628 15.9978981,16.0212628 C16.9726416,16.0212628 17.9073951,15.8463033 18.7705761,15.52585 L19.2000108,17.9438748 Z M9.59787654,10.7174312 C9.23581048,9.85936319 9.05267555,8.94873179 9.05267555,8.01068538 C9.05267555,7.0704803 9.23581048,6.15974096 9.59787654,5.30383162 C9.94733119,4.47544522 10.4484461,3.73124663 11.0863464,3.09249865 C11.7242467,2.45375067 12.4673498,1.95207771 13.2947446,1.60215866 C14.151566,1.23950351 15.0610966,1.0561252 15.9978981,1.0561252 C16.9348074,1.0561252 17.846386,1.23950351 18.7010516,1.60215866 C19.5284464,1.95207771 20.2716573,2.45375067 20.9095576,3.09249865 C21.5474578,3.73124663 22.048465,4.47544522 22.3979197,5.30383162 C22.7600935,6.16189962 22.9432284,7.07253103 22.9432284,8.01068538 C22.9432284,8.95089045 22.7600935,9.86152186 22.3979197,10.7174312 C22.048465,11.5458176 21.5474578,12.2900162 20.9095576,12.9287642 C20.2716573,13.5675121 19.5284464,14.0691851 18.7010516,14.4192121 C17.8442302,14.7817593 16.9348074,14.9651376 15.9978981,14.9651376 C15.0610966,14.9651376 14.149518,14.7817593 13.2947446,14.4192121 C12.4673498,14.0691851 11.7242467,13.5675121 11.0863464,12.9287642 C10.4484461,12.2900162 9.94733119,11.5458176 9.59787654,10.7174312 L9.59787654,10.7174312 Z M24,8.01068538 C24,3.58575283 20.419006,0 16.0000539,0 C11.5811017,0 8,3.58575283 8,8.01068538 C8,11.0715596 9.71579862,13.7318942 12.2358172,15.0810577 L11.7304985,17.9459255 L10.7368917,17.9459255 L10.7368917,19 L21.263216,19 L21.263216,17.9459255 L20.2674535,17.9459255 L19.7621348,15.0810577 C22.2843092,13.7318942 24,11.0715596 24,8.01068538 L24,8.01068538 Z M14.0653341,5.64964922 C14.5831565,5.13103076 15.2694544,4.84641123 16.0000539,4.84641123 C16.7305456,4.84641123 17.4189993,5.13103076 17.9347737,5.64964922 C18.4527038,6.16815974 18.7368379,6.85536967 18.7368379,7.5869401 C18.7368379,8.31840259 18.4527038,9.00777118 17.9347737,9.52423098 C17.4168435,10.0428494 16.7305456,10.327361 16.0000539,10.327361 C15.2694544,10.327361 14.5811085,10.0428494 14.0653341,9.52423098 C13.5474039,9.00561252 13.2631621,8.31840259 13.2631621,7.5869401 C13.2631621,6.85536967 13.5474039,6.16815974 14.0653341,5.64964922 L14.0653341,5.64964922 Z M16.0000539,11.3835942 C18.0926858,11.3835942 19.7895134,9.68440367 19.7895134,7.58899083 C19.7895134,5.49357798 18.0926858,3.79449541 16.0000539,3.79449541 C13.907422,3.79449541 12.2105944,5.49357798 12.2105944,7.58899083 C12.2105944,9.68440367 13.907422,11.3835942 16.0000539,11.3835942 L16.0000539,11.3835942 Z" id="Fill-1"></path>
                </g>
            </g>
        </g>
    </g>
</svg>