<?xml version="1.0" encoding="UTF-8"?>
<svg width="20px" height="18px" viewBox="0 0 20 18" version="1.1" xmlns="http://www.w3.org/2000/svg" xmlns:xlink="http://www.w3.org/1999/xlink">
    <!-- Generator: Sketch 53.2 (72643) - https://sketchapp.com -->
    <title></title>
    <desc></desc>
    <defs>
        <polygon id="path-1" points="0 3e-05 19.99995 3e-05 19.99995 17.2917 0 17.2917"></polygon>
    </defs>
    <g id="页面-1" stroke="none" stroke-width="1" fill="none" fill-rule="evenodd">
        <g id="监控" transform="translate(-40.000000, -179.000000)">
            <g id="侧边菜单" transform="translate(0.000000, 80.000000)">
                <g id="数据" transform="translate(34.000000, 99.000000)">
                    <g id="编组" transform="translate(6.000000, 0.000000)">
                        <mask id="mask-2" fill="white">
                            <use xlink:href="#path-1"></use>
                        </mask>
                        <g id="Clip-2"></g>
                        <path d="M2.29165,9.16673 C2.29165,8.70843 2.66665,8.33343 3.12495,8.33343 L4.79165,8.33343 C5.24995,8.33343 5.62495,8.70843 5.62495,9.16673 L5.62495,16.25003 L2.29165,16.25003 L2.29165,9.16673 Z M8.54165,5.41673 C8.54165,4.95843 8.91665,4.58343 9.37495,4.58343 L11.04165,4.58343 C11.49995,4.58343 11.87495,4.95843 11.87495,5.41673 L11.87495,16.25003 L8.54165,16.25003 L8.54165,5.41673 Z M14.79165,1.66673 C14.79165,1.20843 15.16665,0.83343 15.62495,0.83343 L17.29165,0.83343 C17.74995,0.83343 18.12495,1.20843 18.12495,1.66673 L18.12495,16.25003 L14.79165,16.25003 L14.79165,1.66673 Z M19.58335,16.45833 L18.95835,16.45833 L18.95835,1.66673 C18.95835,0.75003 18.20835,3e-05 17.29165,3e-05 L15.62495,3e-05 C14.70835,3e-05 13.95835,0.75003 13.95835,1.66673 L13.95835,16.45833 L12.70835,16.45833 L12.70835,5.41673 C12.70835,4.50003 11.95835,3.75003 11.04165,3.75003 L9.37495,3.75003 C8.45835,3.75003 7.70835,4.50003 7.70835,5.41673 L7.70835,16.45833 L6.45835,16.45833 L6.45835,9.16673 C6.45835,8.25003 5.70835,7.50003 4.79165,7.50003 L3.12495,7.50003 C2.20835,7.50003 1.45835,8.25003 1.45835,9.16673 L1.45835,16.45833 L0.41665,16.45833 C0.16665,16.45833 -5e-05,16.62503 -5e-05,16.87503 C-5e-05,17.12503 0.16665,17.29173 0.41665,17.29173 L19.58335,17.29173 C19.83335,17.29173 19.99995,17.12503 19.99995,16.87503 C19.99995,16.62503 19.83335,16.45833 19.58335,16.45833 L19.58335,16.45833 Z" id="Fill-1" fill="#9FA8B8" mask="url(#mask-2)"></path>
                    </g>
                </g>
            </g>
        </g>
    </g>
</svg>