<?xml version="1.0" encoding="UTF-8"?>
<svg width="20px" height="20px" viewBox="0 0 20 20" version="1.1" xmlns="http://www.w3.org/2000/svg" xmlns:xlink="http://www.w3.org/1999/xlink">
    <!-- Generator: Sketch 63 (92445) - https://sketch.com -->
    <title>管理-选中</title>
    <desc>Created with Sketch.</desc>
    <defs>
        <polygon id="path-1" points="3.42857143e-05 0 19.2882286 0 19.2882286 20 3.42857143e-05 20"></polygon>
    </defs>
    <g id="页面-1" stroke="none" stroke-width="1" fill="none" fill-rule="evenodd">
        <g id="管理-地块-投入品" transform="translate(-41.000000, -418.000000)">
            <g id="侧边菜单" transform="translate(0.000000, 80.000000)">
                <g id="预警备份-2" transform="translate(34.000000, 338.000000)">
                    <g id="管理-选中" transform="translate(7.000000, 0.000000)">
                        <mask id="mask-2" fill="white">
                            <use xlink:href="#path-1"></use>
                        </mask>
                        <g id="Clip-2"></g>
                        <path d="M14.9888343,16.4285714 C15.8086057,16.4285714 16.4731771,15.764 16.4731771,14.9442286 C16.4731771,14.1244571 15.8086057,13.4597714 14.9888343,13.4597714 C14.1690629,13.4597714 13.5044914,14.1244571 13.5044914,14.9442286 C13.5044914,15.764 14.1690629,16.4285714 14.9888343,16.4285714 M10.66792,14.0553143 C10.7650629,13.5758857 10.9420914,13.1162286 11.1913486,12.6954286 C11.3428914,12.8010286 11.5230057,12.8574857 11.7075771,12.8571429 C12.2068914,12.8571429 12.6115771,12.4524571 12.6115771,11.9531429 C12.6115771,11.7312 12.5316914,11.528 12.39912,11.3707429 C12.8963771,11.0100571 13.4722629,10.7509714 14.0961486,10.6241143 C14.1652914,11.0547429 14.5386629,11.3838857 14.9888343,11.3838857 C15.43752,11.3838857 15.8098629,11.0571429 15.88072,10.6285714 C16.5020914,10.7582857 17.0753486,11.0190857 17.5702057,11.3809143 C17.4379771,11.5421714 17.3657486,11.7445714 17.3660914,11.9531429 C17.3660914,12.4524571 17.7707771,12.8571429 18.2700914,12.8571429 C18.4481486,12.8574857 18.6222057,12.8049143 18.77032,12.7062857 C19.0170629,13.1253714 19.1921486,13.5828571 19.2882629,14.0595429 C18.8787771,14.1457143 18.5714629,14.5090286 18.5714629,14.9442286 C18.5714629,15.3778286 18.87672,15.74 19.28392,15.8278857 C19.1764914,16.3475429 18.9752343,16.8432 18.6902057,17.2908571 C18.5606057,17.2227429 18.4163771,17.1873143 18.2700914,17.1875429 C17.7707771,17.1875429 17.3660914,17.5922286 17.3660914,18.0915429 C17.3660914,18.2564571 17.4102057,18.4112 17.4873486,18.5443429 C17.0096343,18.8769143 16.4626629,19.1172571 15.8724914,19.2393143 C15.7846057,18.832 15.4224343,18.5267429 14.9888343,18.5267429 C14.5537486,18.5267429 14.1904343,18.8341714 14.1042629,19.2436571 C13.5123771,19.1243429 12.9635771,18.8862857 12.4838057,18.5552 C12.5675771,18.4152 12.6118057,18.2547429 12.6115771,18.0915429 C12.6115771,17.5922286 12.2068914,17.1875429 11.7075771,17.1875429 C11.5548914,17.1873143 11.4046057,17.2259429 11.2710057,17.2997714 C10.9836914,16.8510857 10.7808343,16.3538286 10.6722629,15.8322286 C11.09032,15.7526857 11.4062057,15.3852571 11.4062057,14.9442286 C11.4062057,14.5016 11.0880343,14.1331429 10.66792,14.0553143 M10.1785486,9.19645714 L11.16072,9.19645714 C11.5552343,9.19645714 11.8750057,9.51622857 11.8750057,9.91074286 C11.8750057,10.3052571 11.5552343,10.6250286 11.16072,10.6250286 L10.1785486,10.6250286 C9.78403429,10.6250286 9.46426286,10.3052571 9.46426286,9.91074286 C9.46426286,9.51622857 9.78403429,9.19645714 10.1785486,9.19645714 M3.39283429,13.7946286 L8.12494857,13.7946286 C8.51946286,13.7946286 8.83923429,14.1144 8.83923429,14.5089143 C8.83923429,14.9034286 8.51946286,15.2232 8.12494857,15.2232 L3.39283429,15.2232 C2.99832,15.2232 2.67854857,14.9034286 2.67854857,14.5089143 C2.67854857,14.1144 2.99832,13.7946286 3.39283429,13.7946286 M3.39283429,9.19645714 L8.12494857,9.19645714 C8.51946286,9.19645714 8.83923429,9.51622857 8.83923429,9.91074286 C8.83923429,10.3052571 8.51946286,10.6250286 8.12494857,10.6250286 L3.39283429,10.6250286 C2.99832,10.6250286 2.67854857,10.3052571 2.67854857,9.91074286 C2.67854857,9.51622857 2.99832,9.19645714 3.39283429,9.19645714 M3.28129143,4.59817143 L13.7946629,4.59817143 C14.1891771,4.59817143 14.5089486,4.91805714 14.5089486,5.31245714 C14.5089486,5.70697143 14.1891771,6.02674286 13.7946629,6.02674286 L3.28129143,6.02674286 C2.88677714,6.02674286 2.56700571,5.70697143 2.56700571,5.31245714 C2.56700571,4.91805714 2.88677714,4.59817143 3.28129143,4.59817143 M17.0089486,9.10708571 C16.6144343,9.10708571 16.2946629,8.78731429 16.2946629,8.3928 L16.2946629,1.6072 C16.2946629,1.50857143 16.2147771,1.42857143 16.1160343,1.42857143 L1.60712,1.42857143 C1.50849143,1.42857143 1.42860571,1.50857143 1.42860571,1.6072 L1.42860571,18.3928 C1.42860571,18.4915429 1.50849143,18.5714286 1.60712,18.5714286 L8.05797714,18.5714286 C8.45249143,18.5714286 8.77226286,18.8912 8.77226286,19.2857143 C8.77226286,19.6802286 8.45249143,20 8.05797714,20 L0.71432,20 C0.319805714,20 3.42857143e-05,19.6802286 3.42857143e-05,19.2857143 L3.42857143e-05,0.714285714 C3.42857143e-05,0.319771429 0.319805714,0 0.71432,0 L17.0089486,0 C17.4034629,0 17.7232343,0.319771429 17.7232343,0.714285714 L17.7232343,8.3928 C17.7232343,8.78731429 17.4034629,9.10708571 17.0089486,9.10708571" id="Fill-1" fill="#FFFFFF" mask="url(#mask-2)"></path>
                    </g>
                </g>
            </g>
        </g>
    </g>
</svg>