<?xml version="1.0" encoding="UTF-8"?>
<svg width="20px" height="19px" viewBox="0 0 20 19" version="1.1" xmlns="http://www.w3.org/2000/svg" xmlns:xlink="http://www.w3.org/1999/xlink">
    <!-- Generator: Sketch 63 (92445) - https://sketch.com -->
    <title>销售</title>
    <desc>Created with Sketch.</desc>
    <defs>
        <polygon id="path-1" points="0 0 19.9037811 0 19.9037811 18.641194 0 18.641194"></polygon>
    </defs>
    <g id="页面-1" stroke="none" stroke-width="1" fill="none" fill-rule="evenodd">
        <g id="管理-地块-投入品" transform="translate(-40.000000, -579.000000)">
            <g id="侧边菜单" transform="translate(0.000000, 80.000000)">
                <g id="编组-9" transform="translate(34.000000, 499.000000)">
                    <g id="销售" transform="translate(6.000000, 0.000000)">
                        <mask id="mask-2" fill="white">
                            <use xlink:href="#path-1"></use>
                        </mask>
                        <g id="Clip-2"></g>
                        <path d="M17.7835821,1.32871492e-12 C18.2558209,1.32871492e-12 18.638607,0.382885572 18.638607,0.855124378 L18.638607,2.85681592 L18.6312973,2.96 L19.8726766,7.26835821 L19.8759367,7.28545327 C19.8940551,7.34386989 19.9038109,7.40599916 19.9038109,7.47044776 C19.9038109,7.58517413 19.9018209,7.68427861 19.8979403,7.77363184 C19.8960498,7.86497512 19.8921692,7.94467662 19.8940597,8.02626866 C19.9018209,8.80756219 19.6026169,9.54606965 19.0506766,10.1057711 C18.4870945,10.6751244 17.7388358,10.9860697 16.9401294,10.9860697 C15.9907342,10.9860697 15.1450188,10.5363172 14.6047519,9.83852175 C14.0642908,10.5363232 13.2183925,10.9861095 12.2700995,10.9861095 C11.471393,10.9861095 10.7231343,10.6731741 10.1615423,10.1057114 C10.0835795,10.0269364 10.0106606,9.94461931 9.94293738,9.85913977 C9.40359014,10.5447617 8.56470855,10.9861095 7.62535323,10.9861095 C6.82664677,10.9861095 6.07838806,10.6731741 5.51679602,10.1057114 C5.43549628,10.0235647 5.35968148,9.93756623 5.2895237,9.84814645 C4.75033256,10.5400224 3.90749981,10.9861095 2.96311443,10.9861095 C2.80240751,10.9861095 2.64374298,10.9734402 2.48823046,10.9485776 L2.48888557,17.3974129 L17.4142587,17.3974129 L17.4142587,11.9733333 C17.4142587,11.6293532 17.6921692,11.3514428 18.0361493,11.3514428 C18.3801294,11.3514428 18.6580398,11.6293532 18.6580398,11.9733333 L18.6580398,17.4363184 C18.6580398,18.099005 18.1178408,18.641194 17.4531642,18.641194 L2.4500796,18.641194 C1.78540299,18.641194 1.24510448,18.1008955 1.24510448,17.4363184 L1.24409537,10.4378363 C1.10642431,10.3394485 0.976117755,10.2285427 0.854557214,10.1057114 C0.302616915,9.548 0.00132338308,8.80949254 0.0110746269,8.028199 C0.0110746269,7.94660697 0.0091840796,7.86690547 0.00719402985,7.77556219 C0.00541089659,7.69719348 0.00210991885,7.6079602 0.00144275429,7.5091508 C-0.00181896558,7.42878389 0.00681112766,7.34813782 0.0266069652,7.26835821 L0.0304875622,7.25084577 L1.26536948,2.8939595 C1.26484303,2.88164394 1.26457711,2.86926096 1.26457711,2.85681592 L1.26457711,0.855124378 C1.26457711,0.382885572 1.64746269,1.32871492e-12 2.11970149,1.32871492e-12 L17.7835821,1.32871492e-12 Z M17.5600398,3.71970149 L2.32760199,3.71970149 L1.24529726,7.53 L1.24658458,7.61186816 C1.24756716,7.65608458 1.24903483,7.69884577 1.25097512,7.74063682 C1.25296517,7.83775124 1.25684577,7.93685572 1.25485572,8.0438209 C1.24898507,8.49078607 1.4220199,8.91446766 1.74072637,9.23506468 C2.06719403,9.56551244 2.50062687,9.74620896 2.96510448,9.74620896 C3.90759204,9.74620896 4.67326368,8.98053731 4.67326368,8.03795025 L4.67331343,8.02630846 C4.67719403,7.68232836 4.95898507,7.40829851 5.30107463,7.4121791 C5.53621569,7.41483184 5.73866941,7.54735049 5.84200557,7.74022171 C5.88975881,7.82883471 5.91704478,7.93014787 5.91704478,8.03795025 L5.91532338,8.06955721 L5.9213195,8.20630496 C5.95484484,8.59121517 6.12210697,8.95066169 6.40097512,9.23118408 C6.72754229,9.56163184 7.16087562,9.74232836 7.62535323,9.74232836 C8.50420543,9.74232836 9.2292583,9.0767008 9.32329188,8.22266565 C9.31860374,8.15732255 9.31724013,8.09196627 9.3180597,8.02630846 C9.3219403,7.68620896 9.59985075,7.4121791 9.93995025,7.4121791 L9.95550249,7.4121791 C10.2994826,7.4121791 10.577393,7.69008955 10.577393,8.03406965 C10.577393,8.0993752 10.5752618,8.16419019 10.5710654,8.22844893 C10.6079994,8.60504705 10.7742202,8.95607054 11.0477114,9.23118408 C11.3741791,9.56163184 11.8076119,9.74232836 12.2720896,9.74232836 C13.2145771,9.74232836 13.9802488,8.97665672 13.9802488,8.03406965 C13.9802488,7.69008955 14.2581592,7.4121791 14.6021393,7.4121791 L14.6099801,7.4121393 C14.9539602,7.4121393 15.2318706,7.69004975 15.2318706,8.03402985 C15.2318706,8.97661692 15.9975423,9.74228856 16.9401294,9.74228856 C17.404607,9.74228856 17.8379403,9.56159204 18.164408,9.23124378 C18.4812239,8.91054726 18.6541592,8.48686567 18.6502786,8.0399005 C18.6483881,7.93303483 18.6522687,7.83393035 18.6541592,7.73671642 C18.6557135,7.67143698 18.658421,7.60379039 18.6595322,7.53192786 L17.5600398,3.71970149 Z M17.3948259,1.24378109 L2.50835821,1.24378109 L2.50835821,2.4681592 L17.3948259,2.4681592 L17.3948259,1.24378109 Z" id="形状结合" fill="#9FA8B8" mask="url(#mask-2)"></path>
                    </g>
                </g>
            </g>
        </g>
    </g>
</svg>