<?xml version="1.0" encoding="UTF-8"?>
<svg width="21px" height="19px" viewBox="0 0 21 19" version="1.1" xmlns="http://www.w3.org/2000/svg" xmlns:xlink="http://www.w3.org/1999/xlink">
    <!-- Generator: Sketch 53.2 (72643) - https://sketchapp.com -->
    <title></title>
    <desc></desc>
    <defs>
        <polygon id="path-1" points="8.17142178e-06 0 20.91576 0 20.91576 18.84132 8.17142178e-06 18.84132"></polygon>
    </defs>
    <g id="页面-1" stroke="none" stroke-width="1" fill="none" fill-rule="evenodd">
        <g id="概况备份-4" transform="translate(-40.000000, -98.000000)">
            <g id="侧边菜单" transform="translate(0.000000, 80.000000)">
                <g id="概况" transform="translate(34.000000, 18.000000)">
                    <g id="编组" transform="translate(6.000000, 0.000000)">
                        <mask id="mask-2" fill="white">
                            <use xlink:href="#path-1"></use>
                        </mask>
                        <g id="Clip-2"></g>
                        <path d="M18.128388,16.749648 C18.128388,17.211888 18.000828,17.446848 17.710068,17.446848 L12.564348,17.446848 C12.564348,17.436408 12.550428,17.428008 12.550428,17.417568 L12.550428,13.581408 C12.550428,12.770448 11.896428,11.897448 10.458708,11.897448 C9.020988,11.897448 8.366868,12.770448 8.366868,13.581408 L8.366868,17.417568 C8.366868,17.428008 8.385828,17.436408 8.385828,17.446848 L3.765108,17.446848 C3.327948,17.446848 2.788908,17.068968 2.788908,16.749648 L2.788908,7.202208 L9.955908,1.545528 C10.213188,1.341888 10.677588,1.341888 10.935708,1.545528 L18.128388,7.234968 L18.128388,16.749648 Z M9.761388,17.446848 L9.761388,13.581408 C9.761388,13.388928 10.109988,13.292688 10.458588,13.292688 C10.807308,13.292688 11.155908,13.388928 11.155908,13.581408 L11.155908,17.446848 L9.761388,17.446848 Z M20.652468,7.435848 L11.815548,0.451488 C11.054748,-0.150912 9.861108,-0.150192 9.101148,0.451488 L0.264948,7.435848 C-0.036852,7.675008 -0.088572,8.113488 0.149868,8.415408 C0.388308,8.717328 0.817188,8.768928 1.119108,8.530488 L1.394388,8.304528 L1.394388,16.749648 C1.394388,17.946768 2.655828,18.841368 3.765108,18.841368 L17.710068,18.841368 C18.806028,18.841368 19.522908,18.000528 19.522908,16.749648 L19.522908,8.337288 L19.777308,8.530488 C19.905708,8.631648 20.063268,8.680368 20.214588,8.680368 C20.420268,8.680368 20.626548,8.589768 20.763948,8.415408 C21.003108,8.113488 20.955108,7.675008 20.652468,7.435848 L20.652468,7.435848 Z" id="Fill-1" fill="#FFFFFF" mask="url(#mask-2)"></path>
                    </g>
                </g>
            </g>
        </g>
    </g>
</svg>