<?xml version="1.0" encoding="UTF-8"?>
<svg width="38px" height="38px" viewBox="0 0 38 38" version="1.1" xmlns="http://www.w3.org/2000/svg" xmlns:xlink="http://www.w3.org/1999/xlink">
    <!-- Generator: Sketch 63 (92445) - https://sketch.com -->
    <title>编组 2备份</title>
    <desc>Created with Sketch.</desc>
    <defs>
        <filter x="-40.0%" y="-40.0%" width="180.0%" height="180.0%" filterUnits="objectBoundingBox" id="filter-1">
            <feOffset dx="0" dy="2" in="SourceAlpha" result="shadowOffsetOuter1"></feOffset>
            <feGaussianBlur stdDeviation="2" in="shadowOffsetOuter1" result="shadowBlurOuter1"></feGaussianBlur>
            <feColorMatrix values="0 0 0 0 0   0 0 0 0 0   0 0 0 0 0  0 0 0 0.5 0" type="matrix" in="shadowBlurOuter1" result="shadowMatrixOuter1"></feColorMatrix>
            <feMerge>
                <feMergeNode in="shadowMatrixOuter1"></feMergeNode>
                <feMergeNode in="SourceGraphic"></feMergeNode>
            </feMerge>
        </filter>
        <polygon id="path-2" points="0 3.19148936e-05 29.888266 3.19148936e-05 29.888266 29.8723404 0 29.8723404"></polygon>
    </defs>
    <g id="页面-1" stroke="none" stroke-width="1" fill="none" fill-rule="evenodd">
        <g id="销售数据-1204下拉选项" transform="translate(-37.000000, -194.000000)">
            <g id="编组-2备份" transform="translate(41.000000, 196.000000)">
                <g id="编组" filter="url(#filter-1)">
                    <mask id="mask-3" fill="white">
                        <use xlink:href="#path-2"></use>
                    </mask>
                    <g id="Clip-2"></g>
                    <path d="M19.8829468,20.9042872 C20.2182128,19.1010957 20.4414574,17.3775319 20.5212447,15.8776915 L29.888266,15.8776915 C29.7286915,18.4468404 28.9150213,20.8245 27.6223085,22.8670532 L26.3297553,22.4041277 C24.3510319,21.718117 22.1648617,21.2234362 19.8829468,20.9042872 L19.8829468,20.9042872 Z M14.9361383,20.5532234 C13.8829468,20.5532234 12.8457128,20.6010957 11.8244362,20.680883 C11.5052872,18.9893936 11.2978404,17.3457766 11.2180532,15.8776915 L18.638266,15.8776915 C18.5744362,17.3457766 18.3510319,18.9893936 18.031883,20.680883 C17.0425213,20.6010957 16.0052872,20.5532234 14.9361383,20.5532234 L14.9361383,20.5532234 Z M14.9361383,9.3351383 C15.9894894,9.3351383 17.0267234,9.28726596 18.0478404,9.20747872 C18.3669894,10.8989681 18.5744362,12.5425851 18.6542234,14.0106702 L11.2340106,14.0106702 C11.2978404,12.5425851 11.5212447,10.8989681 11.8403936,9.20747872 C12.8457128,9.28726596 13.8829468,9.3351383 14.9361383,9.3351383 L14.9361383,9.3351383 Z M26.3457128,24.6223723 C24.1435851,27.1913617 21.0958723,29.0106702 17.6169894,29.6330106 C18.2872021,27.7021596 18.9574149,25.2925851 19.4840106,22.8670532 C21.8776277,23.2979043 24.3350745,23.9521596 26.3457128,24.6223723 L26.3457128,24.6223723 Z M14.9361383,22.3883298 C15.781883,22.3883298 16.6914574,22.468117 17.6489043,22.5798191 C17.0267234,25.2764681 16.1967766,27.9094468 15.3669894,29.8564149 C15.2233723,29.8564149 15.0797553,29.8723723 14.9361383,29.8723723 C14.7925213,29.8723723 14.6489043,29.8564149 14.5052872,29.8564149 C13.6755,27.9094468 12.8457128,25.2764681 12.2233723,22.5798191 C13.1808191,22.468117 14.1063511,22.3883298 14.9361383,22.3883298 L14.9361383,22.3883298 Z M12.2552872,29.6330106 C8.77656383,29.0106702 5.72869149,27.1913617 3.52656383,24.6223723 C5.53720213,23.9521596 7.99464894,23.2979043 10.388266,22.8670532 C10.9308191,25.3085426 11.6010319,27.718117 12.2552872,29.6330106 L12.2552872,29.6330106 Z M9.36698936,15.8776915 C9.4467766,17.3775319 9.67018085,19.1170532 10.0052872,20.9042872 C7.72337234,21.2234362 5.55315957,21.718117 3.57443617,22.4041277 L2.28188298,22.8670532 C0.989329787,20.808383 0.1755,18.430883 0.0159255319,15.8776915 L9.36698936,15.8776915 Z M9.98932979,8.98407447 C9.6542234,10.787266 9.43081915,12.5106702 9.35103191,14.0106702 L-3.19148936e-05,14.0106702 C0.159542553,11.4415213 0.97337234,9.0638617 2.26592553,7.02130851 L3.55847872,7.48407447 C5.53720213,8.17024468 7.70741489,8.66492553 9.98932979,8.98407447 L9.98932979,8.98407447 Z M3.54252128,5.26598936 C5.72869149,2.69684043 8.79252128,0.877691489 12.2552872,0.255351064 C11.5850745,2.18620213 10.9148617,4.5957766 10.388266,7.02130851 C7.99464894,6.59045745 5.55315957,5.93620213 3.54252128,5.26598936 L3.54252128,5.26598936 Z M14.9361383,7.50003191 C14.0903936,7.50003191 13.1808191,7.42024468 12.2233723,7.30854255 C12.8616702,4.5957766 13.6914574,1.96279787 14.5212447,0.0159893617 C14.6648617,0.0159893617 14.8084787,3.19148936e-05 14.9520957,3.19148936e-05 C15.0957128,3.19148936e-05 15.2393298,0.0159893617 15.3829468,0.0159893617 C16.212734,1.97875532 17.0425213,4.61173404 17.6650213,7.30854255 C16.6755,7.42024468 15.7501277,7.50003191 14.9361383,7.50003191 L14.9361383,7.50003191 Z M17.6169894,0.255351064 C21.1914574,0.893648936 24.3031596,2.80854255 26.5214043,5.48939362 C24.4308191,6.0957766 21.8937447,6.68620213 19.5001277,7.06918085 C18.9733723,4.61173404 18.2872021,2.18620213 17.6169894,0.255351064 L17.6169894,0.255351064 Z M20.5212447,14.0106702 C20.4414574,12.5106702 20.2182128,10.7713085 19.8829468,8.98407447 C22.1648617,8.66492553 24.3350745,8.17024468 26.3137979,7.48407447 L27.6063511,7.02130851 C28.8989043,9.07981915 29.7128936,11.4574787 29.8724681,14.0106702 L20.5212447,14.0106702 Z" id="Fill-1" fill="#99D8FF" mask="url(#mask-3)"></path>
                </g>
            </g>
        </g>
    </g>
</svg>