<?xml version="1.0" encoding="UTF-8"?>
<svg width="15px" height="16px" viewBox="0 0 15 16" version="1.1" xmlns="http://www.w3.org/2000/svg" xmlns:xlink="http://www.w3.org/1999/xlink">
    <!-- Generator: Sketch 63 (92445) - https://sketch.com -->
    <title>Fill 1</title>
    <desc>Created with Sketch.</desc>
    <g id="页面-1" stroke="none" stroke-width="1" fill="none" fill-rule="evenodd">
        <g id="登录" transform="translate(-780.000000, -539.000000)" fill="#A8ABB3">
            <g id="编组-2备份" transform="translate(635.000000, 310.000000)">
                <g id="图片校验弹窗-copy-2">
                    <g id="编组-copy" transform="translate(125.000000, 212.000000)">
                        <g id="分组">
                            <path d="M27.5,18.1428571 C26.2703692,18.1428571 25.2566462,19.0978286 25.1951692,20.3142857 L25.1923077,20.4285714 L25.1923077,21.5714286 L29.8076923,21.5714286 L29.8076923,20.4285714 C29.8076923,19.2106514 28.8435385,18.2065829 27.6153846,18.1456914 L27.5,18.1428571 Z M27.5,25.5714286 C26.8628,25.5714286 26.3461538,26.0831543 26.3461538,26.7142857 C26.3461538,27.3454171 26.8628,27.8571429 27.5,27.8571429 C28.1372,27.8571429 28.6538462,27.3454171 28.6538462,26.7142857 C28.6538462,26.0831543 28.1372,25.5714286 27.5,25.5714286 L27.5,25.5714286 Z M27.5,24.4285702 C28.7744923,24.4272914 29.8087077,25.4496457 29.809909,26.7120914 C29.8110154,27.7560229 29.0977538,28.6680229 28.0769231,28.9280457 L28.0769231,30.1428571 L26.9230769,30.1428571 L26.9230769,28.9280457 C25.6893846,28.6087771 24.9505538,27.3593143 25.2728923,26.13728 C25.5378154,25.13312 26.4521231,24.4315886 27.5,24.4285702 L27.5,24.4285702 Z M32.6923077,22.7142857 L22.3076923,22.7142857 C21.7038154,22.7141029 21.2020308,23.1750857 21.1567077,23.7714743 L21.1538461,23.8571429 L21.1538461,30.7142857 C21.1536615,31.31232 21.6190769,31.8095086 22.2211077,31.8543086 L22.3076923,31.8571429 L32.6923077,31.8571429 C33.2960923,31.8573257 33.7980615,31.3964343 33.8432923,30.7999543 L33.8461539,30.7142857 L33.8461539,23.8571429 C33.8463385,23.2590171 33.3810154,22.7620114 32.7788923,22.71712 L32.6923077,22.7142857 Z M27.5,17 C29.4117846,17 30.9615385,18.5350857 30.9615385,20.4285714 L30.9615385,21.5714286 L32.6923077,21.5714286 C33.9668,21.5714286 35,22.5947886 35,23.8571429 L35,30.7142857 C35,31.97664 33.9668,33 32.6923077,33 L22.3076923,33 C21.0332,33 20,31.97664 20,30.7142857 L20,23.8571429 C20,22.5947886 21.0332,21.5714286 22.3076923,21.5714286 L24.0384615,21.5714286 L24.0384615,20.4285714 C24.0384615,18.5350857 25.5883077,17 27.5,17 L27.5,17 Z" id="Fill-1"></path>
                        </g>
                    </g>
                </g>
            </g>
        </g>
    </g>
</svg>