<?xml version="1.0" encoding="UTF-8"?>
<svg width="14px" height="15px" viewBox="0 0 14 15" version="1.1" xmlns="http://www.w3.org/2000/svg" xmlns:xlink="http://www.w3.org/1999/xlink">
    <!-- Generator: Sketch 63 (92445) - https://sketch.com -->
    <title>编组</title>
    <desc>Created with Sketch.</desc>
    <defs>
        <polygon id="path-1" points="0.045269 0.01337 9.382989 0.01337 9.382989 9.351111 0.045269 9.351111"></polygon>
        <polygon id="path-3" points="3.23861299e-06 0.01358 13.62823 0.01358 13.62823 5.46 3.23861299e-06 5.46"></polygon>
    </defs>
    <g id="页面-1" stroke="none" stroke-width="1" fill="none" fill-rule="evenodd">
        <g id="登录" transform="translate(-780.000000, -460.000000)">
            <g id="编组-2备份" transform="translate(635.000000, 310.000000)">
                <g id="图片校验弹窗-copy-2">
                    <g id="编组" transform="translate(125.000000, 132.000000)">
                        <g id="分组">
                            <g id="编组" transform="translate(20.000000, 18.000000)">
                                <g transform="translate(2.100000, 0.056630)">
                                    <mask id="mask-2" fill="white">
                                        <use xlink:href="#path-1"></use>
                                    </mask>
                                    <g id="Clip-2"></g>
                                    <path d="M4.714129,0.865501 C2.611049,0.865501 0.898709,2.577841 0.898709,4.682251 C0.898709,6.786591 2.611049,8.497601 4.714129,8.497601 C6.818469,8.497601 8.529549,6.785261 8.529549,4.682251 C8.529549,2.579171 6.818469,0.865501 4.714129,0.865501 M4.714129,9.351111 C4.083359,9.351111 3.472539,9.227071 2.896439,8.984381 C2.340359,8.749671 1.841539,8.412271 1.412159,7.984151 C0.982779,7.556101 0.646709,7.056021 0.411999,6.499941 C0.167909,5.923771 0.045269,5.313021 0.045269,4.682251 C0.045269,4.051481 0.169239,3.440661 0.411999,2.864561 C0.646709,2.308411 0.984109,1.809661 1.412159,1.380281 C1.840209,0.950831 2.340359,0.614761 2.896439,0.380051 C3.472539,0.136031 4.083359,0.013321 4.714129,0.013321 C5.344969,0.013321 5.955649,0.137361 6.531819,0.380051 C7.087899,0.614761 7.586649,0.952161 8.016099,1.380281 C8.445549,1.808331 8.781549,2.308411 9.016259,2.864561 C9.260279,3.440661 9.382989,4.051481 9.382989,4.682251 C9.382989,5.313021 9.259019,5.923771 9.016259,6.499941 C8.781549,7.056021 8.444149,7.554841 8.016099,7.984151 C7.588049,8.413601 7.087899,8.749671 6.531819,8.984381 C5.955649,9.227071 5.344969,9.351111 4.714129,9.351111" id="Fill-1" fill="#A8ABB3" mask="url(#mask-2)"></path>
                                </g>
                                <g transform="translate(0.000000, 8.596630)">
                                    <mask id="mask-4" fill="white">
                                        <use xlink:href="#path-3"></use>
                                    </mask>
                                    <g id="Clip-4"></g>
                                    <path d="M0.427588,5.46 C0.382228,5.46 0.336938,5.45328 0.291578,5.43732 C0.067508,5.36263 -0.052472,5.11994 0.022148,4.8972 C0.258258,4.1944 0.600978,3.53563 1.041068,2.93685 C1.475768,2.34472 1.997198,1.82462 2.590658,1.39125 C3.822868,0.48972 5.283208,0.01358 6.814108,0.01358 C8.345078,0.01358 9.805418,0.48972 11.037558,1.39125 C11.631088,1.82462 12.151118,2.34472 12.587218,2.93685 C13.027308,3.53563 13.370098,4.19573 13.606138,4.8972 C13.680758,5.12127 13.560708,5.36263 13.336708,5.43732 C13.112708,5.51201 12.871348,5.39196 12.796588,5.16796 C11.933768,2.59546 9.530668,0.86716 6.814108,0.86716 C4.098948,0.86716 1.694518,2.59546 0.831628,5.16929 C0.771638,5.34667 0.606298,5.46 0.427588,5.46" id="Fill-3" fill="#A8ABB3" mask="url(#mask-4)"></path>
                                </g>
                            </g>
                        </g>
                    </g>
                </g>
            </g>
        </g>
    </g>
</svg>