<?xml version="1.0" encoding="UTF-8"?>
<svg width="304px" height="39px" viewBox="0 0 304 39" version="1.1" xmlns="http://www.w3.org/2000/svg" xmlns:xlink="http://www.w3.org/1999/xlink">
    <!-- Generator: Sketch 63 (92445) - https://sketch.com -->
    <title></title>
    <desc></desc>
    <defs>
        <linearGradient x1="50%" y1="0%" x2="50%" y2="100%" id="linearGradient-1">
            <stop stop-color="#FFFFFF" offset="0%"></stop>
            <stop stop-color="#99D8FF" offset="100%"></stop>
        </linearGradient>
    </defs>
    <g id="页面-1" stroke="none" stroke-width="1" fill="none" fill-rule="evenodd">
        <g id="首页-2切图" transform="translate(-40.000000, -29.000000)" fill-rule="nonzero">
            <g id="logo" transform="translate(40.000000, 29.000000)">
                <g id="logo备份">
                    <path d="M9.72201671,11.6498132 L9.72201671,6.16757661 L11.1707203,6.16757661 L11.1707203,11.2523975 L18.2461566,14.8291388 L18.2461566,7.83316844 L19.6948602,7.83316844 L19.6948602,14.8291388 L26.7706966,11.2523975 L26.7706966,6.15828742 L28.2194002,6.15828742 L28.2194002,26.5718844 C32.6791577,21.2472403 33.2488498,13.6351385 29.6321618,7.69487286 C26.0154738,1.75460722 19.0293083,-1.1720924 12.3073899,0.43704264 C5.5854715,2.04617768 0.646082335,7.82769149 0.0583542389,14.7744367 C-0.529373857,21.7211818 3.36730947,28.2640946 9.72161651,31 L9.72201671,11.6498132 Z" id="路径_552" fill="#99D8FF"></path>
                    <g id="组_401" transform="translate(11.000000, 13.000000)" fill="#81A7FF">
                        <polygon id="路径_553" points="0 5.26784375 7.23897436 8.8521875 7.23897436 3.5839375 0 -0.00040625"></polygon>
                        <polygon id="路径_554" points="8.68717949 3.5839375 8.68717949 8.85178125 15.9261538 5.2674375 15.9261538 0"></polygon>
                        <polygon id="路径_555" points="0 12.0185 7.23897436 15.6028437 7.23897436 10.335 0 6.75065625"></polygon>
                        <polygon id="路径_556" points="8.68717949 15.6028437 15.9261538 12.0185 15.9261538 6.75065625 8.68717949 10.335"></polygon>
                        <polygon id="路径_557" points="0 18.7305625 7.23897436 22.3149062 7.23897436 17.0470625 0 13.4627188"></polygon>
                        <polygon id="路径_558" points="8.68717949 20.8154375 8.68717949 25.6274688 9.41128205 25.6274688 9.41128205 21.9561875 15.9265641 18.7305625 15.9265641 13.4627188 8.68758974 17.0470625"></polygon>
                    </g>
                </g>
                <path d="M60.4311649,18.9544008 L60.4311649,16.6829268 L52.8781308,16.6829268 L52.8781308,13.9660657 L61.4220877,13.9660657 L61.4220877,11.6945917 L52.8781308,11.6945917 L52.8781308,9.22269353 L50.543957,9.22269353 L50.543957,11.6945917 L42,11.6945917 L42,13.9660657 L50.543957,13.9660657 L50.543957,16.6829268 L43.0129434,16.6829268 L43.0129434,18.9544008 L60.4311649,18.9544008 Z M46.5582451,29.7995758 L46.5582451,29.0424178 L56.8858632,29.0424178 L56.8858632,29.7995758 L59.220037,29.7995758 L59.220037,20.6914104 L44.2240713,20.6914104 L44.2240713,29.7995758 L46.5582451,29.7995758 Z M56.8858632,26.8154825 L46.5582451,26.8154825 L46.5582451,22.9406151 L56.8858632,22.9406151 L56.8858632,26.8154825 Z M68.8429988,29.7995758 L68.8429988,21.1145281 C69.459573,21.6489926 70.0981678,22.2725345 70.758783,23.0074231 L72.0579929,21.0031813 C71.0890906,20.1124072 70.0541267,19.3329799 68.9310809,18.6203606 C70.0541267,17.0837752 70.890906,15.5249205 71.4414187,13.9660657 L71.4414187,12.0063627 L69.239368,12.0063627 C68.9751219,11.0933192 68.6007732,10.0911983 68.1603631,9 L65.9803328,9.62354189 C66.376702,10.3806999 66.7290301,11.1823966 67.0593377,12.0063627 L64.0645487,12.0063627 L64.0645487,14.233298 L69.1292654,14.233298 C68.1383426,16.4379639 66.2886199,18.709438 63.558077,21.0254507 L64.2847537,23.4750795 C65.0995125,22.7624602 65.8702303,22.0721103 66.5748865,21.359491 L66.5748865,29.7995758 L68.8429988,29.7995758 Z M74.7885359,22.5174973 L74.7885359,12.1177094 L80.0954782,12.1177094 L80.0954782,22.5174973 L82.429652,22.5174973 L82.429652,9.89077413 L72.4984031,9.89077413 L72.4984031,22.5174973 L74.7885359,22.5174973 Z M71.5515213,30 C73.9297361,28.9756098 75.6473357,27.5503712 76.7263406,25.6797455 C76.9685661,25.2120891 77.1887712,24.699894 77.4089763,24.1431601 L77.4089763,27.1717922 C77.4089763,28.6861082 78.091612,29.4432662 79.478904,29.4432662 L81.6809548,29.4432662 C82.4076315,29.4432662 82.9581442,29.2651113 83.3324929,28.931071 C83.684821,28.5747614 83.9490671,27.416755 84.1032106,25.5015907 L81.9672214,24.8112407 C81.9231804,26.0137858 81.8350983,26.7264051 81.7249958,26.9936373 C81.6148933,27.2163309 81.4607497,27.3276776 81.2625651,27.3276776 L80.1615398,27.3276776 C79.8092116,27.3276776 79.6550681,27.1049841 79.6550681,26.6818664 L79.6550681,22.4506893 L77.915448,22.4506893 C78.2457556,21.04772 78.4439402,19.4443266 78.5100017,17.640509 L78.5100017,13.4538706 L76.3079509,13.4538706 L76.3079509,17.640509 C76.2198689,20.2682927 75.7794587,22.4284199 74.9867205,24.0986214 C74.1719617,25.6352068 72.6085056,26.9268293 70.2963523,27.9512195 L71.5515213,30 Z M89.8725836,29.8218452 C92.8233317,29.0201485 95.3336695,28.1293743 97.4035972,27.1495228 L97.0512691,24.9671262 C95.6419566,25.6574761 94.0785006,26.2587487 92.3829215,26.7932131 L92.3829215,20.3796394 C93.5059674,18.9766702 94.4748697,17.3955461 95.311649,15.6139979 C96.4126744,21.5376458 99.3193814,26.281018 104.03177,29.7995758 L105.397042,27.5949099 C103.415196,26.2587487 101.785678,24.6776246 100.508489,22.873807 C101.961842,21.8939555 103.239032,20.7804878 104.318037,19.533404 L102.556396,17.9745493 C101.631535,19.088017 100.57455,20.0901379 99.3414019,21.0031813 C98.2844175,19.0657476 97.5577408,16.9056204 97.2054127,14.5005302 L102.248109,14.5005302 L102.248109,17.573701 L104.516221,17.573701 L104.516221,12.2958643 L96.566818,12.2958643 C96.831064,11.3828208 97.0953101,10.4252386 97.3155152,9.40084836 L95.0474029,9.11134677 C94.8271978,10.2025451 94.5409312,11.271474 94.2106236,12.2958643 L86.9878971,12.2958643 L86.9878971,17.573701 L89.2560094,17.573701 L89.2560094,14.5005302 L93.3298033,14.5005302 C91.6782653,18.1081654 89.1238864,20.9363733 85.6446462,23.0074231 L86.8117331,25.145281 C88.0008405,24.4326617 89.1018659,23.630965 90.1368297,22.7179215 L90.1368297,26.4814422 C90.1368297,27.0827147 89.8725836,27.5058324 89.3881325,27.728526 L89.8725836,29.8218452 Z M127.615734,29.0424178 L127.615734,26.7709438 L121.273828,26.7709438 L121.273828,9.3340403 L118.961674,9.3340403 L118.961674,26.7709438 L116.539418,26.7709438 L116.539418,9.3340403 L114.227265,9.3340403 L114.227265,26.7709438 L107.9294,26.7709438 L107.9294,29.0424178 L127.615734,29.0424178 Z M111.144394,24.1876988 L113.236342,23.6755037 C112.377542,19.845175 111.38662,16.4379639 110.285594,13.47614 L108.325769,14.1442206 C109.470835,17.3732768 110.395697,20.7136797 111.144394,24.1876988 Z M124.026391,24.1208908 C125.30358,21.2704136 126.360565,17.9300106 127.197344,14.1219512 L125.171457,13.542948 C124.246596,17.5068929 123.189612,20.8027572 121.956463,23.3860021 L124.026391,24.1208908 Z M145.210119,29.7104984 C147.456211,29.7104984 148.71138,28.7529162 148.975626,26.8377519 C149.195831,25.0562036 149.305934,20.290562 149.305934,12.5408271 L140.982182,12.5408271 C141.224407,11.650053 141.444613,10.7147402 141.664818,9.7126193 L139.506808,9.13361612 C138.934275,12.3849417 137.965372,14.9013786 136.600101,16.6383881 L138.273659,18.0858961 C139.000336,17.195122 139.638931,16.0816543 140.189444,14.7677625 L141.114305,14.7677625 C140.299546,18.709438 138.824172,21.5821845 136.710203,23.4082715 L138.185577,25.145281 C140.585813,22.9628844 142.237351,19.4888653 143.162212,14.7677625 L144.263238,14.7677625 C143.844848,17.8854719 143.250294,20.3796394 142.479576,22.2725345 C141.576736,24.321315 140.233485,26.1474019 138.427803,27.795334 L139.859136,29.6436903 C141.840982,27.7730647 143.360397,25.6352068 144.37334,23.2746554 C145.210119,21.1813362 145.848714,18.330859 146.311145,14.7677625 L147.103883,14.7677625 C147.059842,21.0699894 146.99378,24.7444327 146.861657,25.7910923 C146.685493,27.0159067 146.002858,27.6394486 144.835771,27.6394486 C144.307279,27.6394486 143.712725,27.5949099 143.008069,27.5281018 L143.536561,29.5991516 C144.329299,29.6659597 144.901832,29.7104984 145.210119,29.7104984 Z M135.565137,29.7995758 L135.565137,22.4506893 C136.027568,22.2279958 136.489998,22.0275716 136.974449,21.804878 L136.974449,19.6224814 C136.489998,19.845175 136.027568,20.0678685 135.565137,20.290562 L135.565137,15.8366914 L137.062532,15.8366914 L137.062532,13.6097561 L135.565137,13.6097561 L135.565137,9.22269353 L133.319045,9.22269353 L133.319045,13.6097561 L132.372163,13.6097561 C132.438225,12.7635207 132.482266,11.9172853 132.526307,11.0710498 L130.4784,10.9151644 C130.390318,13.4984093 130.06001,15.9703075 129.465456,18.3085896 L131.491343,18.8875928 C131.733569,17.9077413 131.931753,16.883351 132.107917,15.8366914 L133.319045,15.8366914 L133.319045,21.1590668 C132.129938,21.5599152 130.94083,21.8939555 129.729702,22.1389183 L130.280215,24.388123 C131.315179,24.0763521 132.328122,23.7200424 133.319045,23.3637328 L133.319045,29.7995758 L135.565137,29.7995758 Z M161.461254,29.9554613 C163.751387,28.4411453 165.336863,26.1474019 166.239704,23.0965005 C166.94436,25.3234358 168.375693,27.5726405 170.533703,29.8441145 L172.11918,28.107105 C169.696924,25.835631 168.177509,23.5864263 167.582955,21.359491 L171.766852,21.359491 L171.766852,19.1325557 L166.988401,19.1325557 C167.076483,18.2417815 167.120524,17.2841994 167.120524,16.2820785 L167.120524,15.9925769 L171.370482,15.9925769 L171.370482,13.8101803 L168.573878,13.8101803 C169.190452,12.7635207 169.807026,11.4941676 170.423601,10.0243902 L168.287611,9.20042418 C167.737099,10.8483563 167.076483,12.3849417 166.305766,13.8101803 L163.751387,13.8101803 L165.314843,12.6967126 C164.874433,11.7168611 164.235838,10.5811241 163.421079,9.28950159 L161.659439,10.4252386 C162.452177,11.650053 163.090772,12.78579 163.575223,13.8101803 L160.84468,13.8101803 L160.84468,15.9925769 L164.896453,15.9925769 L164.896453,16.8165429 C164.896453,17.6182397 164.852412,18.3753977 164.76433,19.1325557 L160.492352,19.1325557 L160.492352,21.359491 L164.434023,21.359491 C163.751387,24.4326617 162.298033,26.6818664 160.073962,28.0625663 L161.461254,29.9554613 Z M159.501429,29.8218452 L159.501429,25.6574761 C159.897798,25.5461294 160.316188,25.4347826 160.712557,25.3011665 L160.712557,23.0519618 C160.316188,23.1855779 159.919818,23.3191941 159.501429,23.4528102 L159.501429,12.028632 L160.668516,12.028632 L160.668516,9.89077413 L151.72819,9.89077413 L151.72819,12.028632 L152.829215,12.028632 L152.829215,25.0339343 L151.618087,25.2120891 L152.1686,27.416755 C153.93024,27.0604454 155.625819,26.6818664 157.277358,26.281018 L157.277358,29.8218452 L159.501429,29.8218452 Z M157.277358,14.6564157 L155.009245,14.6564157 L155.009245,12.028632 L157.277358,12.028632 L157.277358,14.6564157 Z M157.277358,19.2884411 L155.009245,19.2884411 L155.009245,16.7497349 L157.277358,16.7497349 L157.277358,19.2884411 Z M155.009245,24.6330859 L155.009245,21.3817603 L157.277358,21.3817603 L157.277358,24.0986214 C156.52866,24.2767762 155.779963,24.4549311 155.009245,24.6330859 Z M177.051773,29.8218452 L177.051773,16.4602333 C177.976635,17.5959703 178.901496,18.776246 179.782316,19.9787911 C179.121701,22.0275716 178.284922,23.8536585 177.271978,25.4125133 L178.725332,27.2386002 C179.716255,25.8133616 180.575055,24.1208908 181.301731,22.1611877 C181.830224,22.9628844 182.358716,23.7868505 182.887208,24.6330859 L184.406623,23.0965005 C183.613885,21.8494168 182.843167,20.7136797 182.09447,19.6892895 C182.600941,17.8632025 183.019331,15.8589608 183.349639,13.6320255 L181.23567,13.2534464 C181.037485,14.7232238 180.773239,16.1484624 180.464952,17.4846235 C179.716255,16.504772 179.011599,15.6585366 178.350983,14.9459173 L177.051773,16.2152704 L177.051773,12.1399788 L190.616406,12.1399788 L190.616406,23.9872747 C189.823668,22.6511135 189.05295,21.4040297 188.304253,20.2682927 C188.920827,18.3085896 189.427299,16.1039236 189.801647,13.6988335 L187.643638,13.3202545 C187.401412,14.9459173 187.093125,16.4825027 186.718776,17.9300106 C185.970079,16.8610817 185.265423,15.9703075 184.626828,15.2131495 L183.217516,16.5938494 C184.164397,17.8409332 185.089259,19.1102863 185.970079,20.4241782 C185.221382,22.5174973 184.29652,24.3435843 183.195495,25.9469777 L184.648849,27.7730647 C185.705833,26.3478261 186.630694,24.6776246 187.423433,22.7179215 C188.040007,23.6977731 188.61254,24.699894 189.185073,25.7242842 L190.616406,24.2767762 L190.616406,26.7932131 C190.616406,27.2831389 190.35216,27.5281018 189.845688,27.5281018 L187.819802,27.416755 L188.392335,29.6659597 L190.594386,29.6659597 C192.113801,29.6659597 192.884518,28.8865323 192.884518,27.3276776 L192.884518,9.91304348 L174.783661,9.91304348 L174.783661,29.8218452 L177.051773,29.8218452 Z M197.068415,29.9554613 C201.472516,27.6171792 204.423264,23.9650053 205.920659,18.9989396 C207.594218,23.5864263 210.522945,27.1717922 214.6628,29.7550371 L216.116154,27.8398727 C211.822155,25.3011665 208.893427,21.7158006 207.307951,17.0615058 L215.609682,17.0615058 L215.609682,14.7900318 L206.779459,14.7900318 C206.933602,13.4984093 207.021684,12.1177094 207.021684,10.6702015 L207.021684,9.20042418 L204.687511,9.20042418 L204.687511,11.204666 C204.66549,12.4517497 204.577408,13.6320255 204.445285,14.7900318 L196.099513,14.7900318 L196.099513,17.0615058 L204.048916,17.0615058 C202.859808,22.1611877 200.041183,25.8133616 195.593041,27.9957582 L197.068415,29.9554613 Z M236.925534,29.8441145 L238.202723,27.9512195 C236.74937,26.9490986 235.494201,25.5461294 234.437216,23.7645811 C235.604303,21.2258749 236.242898,18.1749735 236.375021,14.5896076 L237.586149,14.5896076 L237.586149,12.340403 L232.081022,12.340403 C232.235166,11.4718982 232.367289,10.5588547 232.499412,9.57900318 L230.25332,9.17815483 C229.83493,13.2757158 229.020171,16.5493107 227.809044,18.9989396 L229.240377,20.8027572 C229.592705,20.1792153 229.945033,19.4888653 230.27534,18.7539767 C230.803833,20.5800636 231.420407,22.2279958 232.125063,23.6977731 C231.178181,25.4125133 229.900992,26.7932131 228.315515,27.8621421 L229.504623,29.8218452 C231.002017,28.7306469 232.279207,27.3944857 233.31417,25.835631 C234.349134,27.4835631 235.560262,28.8197243 236.925534,29.8441145 Z M218.868717,19.845175 C220.454194,18.6871686 221.59926,17.3732768 222.347958,15.8589608 L222.347958,19.3552492 L224.461926,19.3552492 L224.461926,17.0169671 C225.078501,17.4400848 225.849218,18.019088 226.77408,18.7539767 L227.963187,16.9278897 C226.77408,16.3266172 225.606993,15.7921527 224.461926,15.3244963 L224.461926,15.2799576 L228.205413,15.2799576 L228.205413,13.2534464 L224.461926,13.2534464 L224.461926,9.22269353 L222.347958,9.22269353 L222.347958,13.2534464 L218.252143,13.2534464 L218.252143,15.2799576 L220.872584,15.2799576 C220.211968,16.2598091 219.154984,17.1505832 217.723651,17.9745493 L218.868717,19.845175 Z M226.487813,13.0084836 C227.170449,12.1177094 227.720962,11.204666 228.161372,10.2693531 L226.553875,9.48992577 C226.157505,10.3806999 225.584972,11.271474 224.880316,12.1845175 L226.487813,13.0084836 Z M219.969743,12.9194062 L221.59926,12.1845175 C221.246932,11.2269353 220.828543,10.3361612 220.366112,9.51219512 L218.582451,10.0911983 C219.066902,10.9151644 219.529333,11.8504772 219.969743,12.9194062 Z M233.182047,21.3149523 C232.455371,19.6447508 231.860817,17.7073171 231.376366,15.5026511 C231.464448,15.1908802 231.530509,14.9013786 231.618591,14.5896076 L234.305093,14.5896076 C234.217011,17.1060445 233.842663,19.3552492 233.182047,21.3149523 Z M218.736594,29.7550371 C220.916625,29.1760339 222.722306,28.4411453 224.17566,27.5058324 C225.364767,28.0625663 226.377711,28.5970308 227.21449,29.1092259 L228.447638,27.2831389 C227.632879,26.8377519 226.7961,26.4369035 225.9373,26.0583245 C226.906203,25.078473 227.566818,23.9204666 227.941167,22.6288441 L227.941167,20.7582185 L223.515045,20.7582185 C223.625147,20.4464475 223.73525,20.1124072 223.867373,19.7783669 L221.709363,19.5111347 C221.57724,19.911983 221.423096,20.3128314 221.268953,20.7582185 L218.208102,20.7582185 L218.208102,22.7401909 L220.388132,22.7401909 C219.991763,23.5641569 219.529333,24.4326617 219.00084,25.3234358 C219.969743,25.7020148 220.916625,26.0805938 221.797445,26.4591729 C220.630358,26.9936373 219.265087,27.4612937 217.67961,27.8176034 L218.736594,29.7550371 Z M223.867373,25.1898197 C223.162716,24.9003181 222.45806,24.6330859 221.753404,24.4103924 C222.061691,23.8759279 222.369978,23.3191941 222.656245,22.7401909 L225.91528,22.7401909 C225.452849,23.6532344 224.770213,24.4772004 223.867373,25.1898197 Z M242.518743,29.5991516 C243.972096,29.5991516 244.698773,28.8197243 244.698773,27.3054083 L244.698773,21.2704136 C245.271306,20.980912 245.86586,20.6914104 246.482434,20.3796394 L246.482434,18.1081654 C245.909901,18.4199364 245.315347,18.709438 244.698773,18.9989396 L244.698773,15.4581124 L246.570516,15.4581124 L246.570516,13.2089077 L244.698773,13.2089077 L244.698773,9.26723224 L242.452681,9.26723224 L242.452681,13.2089077 L240.074466,13.2089077 L240.074466,15.4581124 L242.452681,15.4581124 L242.452681,19.911983 C241.52782,20.223754 240.580938,20.4909862 239.634056,20.7136797 L240.22861,23.0074231 C240.977307,22.7624602 241.703984,22.495228 242.452681,22.2279958 L242.452681,26.7264051 C242.452681,27.2831389 242.210456,27.5726405 241.748025,27.5726405 C241.241553,27.5726405 240.713061,27.5058324 240.162548,27.416755 L240.646999,29.5991516 L242.518743,29.5991516 Z M246.988906,29.8441145 C248.376198,26.9936373 249.212977,23.7200424 249.477223,20.0010604 L253.220709,20.0010604 L253.220709,22.1389183 L249.76349,22.1389183 L249.76349,29.7995758 L251.877458,29.7995758 L251.877458,28.8865323 L256.832073,28.8865323 L256.832073,29.7995758 L258.946041,29.7995758 L258.946041,22.1389183 L255.466801,22.1389183 L255.466801,20.0010604 L259.914944,20.0010604 L259.914944,17.8854719 L255.466801,17.8854719 L255.466801,15.7921527 L259.430493,15.7921527 L259.430493,9.89077413 L247.363254,9.89077413 L247.363254,17.2841994 C247.341234,21.73807 246.614557,25.3902439 245.183224,28.2184517 L246.988906,29.8441145 Z M257.184401,13.7433722 L249.587326,13.7433722 L249.587326,12.0063627 L257.184401,12.0063627 L257.184401,13.7433722 Z M253.220709,17.8854719 L249.565305,17.8854719 C249.565305,17.6850477 249.587326,17.4846235 249.587326,17.2841994 L249.587326,15.7921527 L253.220709,15.7921527 L253.220709,17.8854719 Z M256.832073,26.8377519 L251.877458,26.8377519 L251.877458,24.1876988 L256.832073,24.1876988 L256.832073,26.8377519 Z M272.995125,29.7773065 L272.995125,22.1611877 L281.759287,22.1611877 L281.759287,19.911983 L272.995125,19.911983 L272.995125,12.2513256 L280.944528,12.2513256 L280.944528,9.97985154 L262.953774,9.97985154 L262.953774,12.2513256 L270.660951,12.2513256 L270.660951,19.911983 L262.072953,19.911983 L262.072953,22.1611877 L270.660951,22.1611877 L270.660951,29.7773065 L272.995125,29.7773065 Z M277.509329,19.0434783 C278.500252,17.4400848 279.315011,15.7698834 279.931585,14.0551432 L277.839637,13.0530223 C277.245083,14.678685 276.452345,16.3266172 275.439402,17.9745493 L277.509329,19.0434783 Z M266.322911,19.1770944 L268.480921,18.1081654 C267.732224,16.2820785 266.983527,14.6341463 266.190788,13.1420997 L264.054799,14.1887593 C264.847537,15.6585366 265.618255,17.3287381 266.322911,19.1770944 Z M301.753908,20.0010604 L304,18.8875928 C302.414523,16.1930011 300.762985,13.7433722 299.001345,11.5164369 L296.909397,12.5185578 C297.592032,13.3870626 298.274668,14.3223754 298.935283,15.3022269 C295.544125,15.6139979 292.064885,15.8589608 288.497563,16.0371156 C290.303244,14.3446448 292.042864,12.2958643 293.738443,9.93531283 L291.360229,9.08907741 C288.36544,13.5206787 286.075307,15.8589608 284.533871,16.1039236 L284.952261,18.3085896 C290.56749,18.1081654 295.676248,17.7963945 300.256514,17.3732768 C300.762985,18.2195122 301.269457,19.088017 301.753908,20.0010604 Z M288.673727,29.8441145 L288.673727,28.9978791 L299.199529,28.9978791 L299.199529,29.8441145 L301.533703,29.8441145 L301.533703,20.290562 L286.339553,20.290562 L286.339553,29.8441145 L288.673727,29.8441145 Z M299.199529,26.7709438 L288.673727,26.7709438 L288.673727,22.5174973 L299.199529,22.5174973 L299.199529,26.7709438 Z" id="吉视农业物联网大数据平台" fill="url(#linearGradient-1)"></path>
            </g>
        </g>
    </g>
</svg>