<?xml version="1.0" encoding="UTF-8"?>
<svg width="226px" height="38px" viewBox="0 0 226 38" version="1.1" xmlns="http://www.w3.org/2000/svg" xmlns:xlink="http://www.w3.org/1999/xlink">
    <!-- Generator: Sketch 63 (92445) - https://sketch.com -->
    <title>编组 2</title>
    <desc>Created with Sketch.</desc>
    <defs>
        <filter x="-40.0%" y="-40.0%" width="180.0%" height="180.0%" filterUnits="objectBoundingBox" id="filter-1">
            <feOffset dx="0" dy="2" in="SourceAlpha" result="shadowOffsetOuter1"></feOffset>
            <feGaussianBlur stdDeviation="2" in="shadowOffsetOuter1" result="shadowBlurOuter1"></feGaussianBlur>
            <feColorMatrix values="0 0 0 0 0   0 0 0 0 0   0 0 0 0 0  0 0 0 0.5 0" type="matrix" in="shadowBlurOuter1" result="shadowMatrixOuter1"></feColorMatrix>
            <feMerge>
                <feMergeNode in="shadowMatrixOuter1"></feMergeNode>
                <feMergeNode in="SourceGraphic"></feMergeNode>
            </feMerge>
        </filter>
        <polygon id="path-2" points="0 3.19148936e-05 29.888266 3.19148936e-05 29.888266 29.8723404 0 29.8723404"></polygon>
        <linearGradient x1="50%" y1="0%" x2="50%" y2="100%" id="linearGradient-4">
            <stop stop-color="#FFFFFF" offset="0%"></stop>
            <stop stop-color="#99D8FF" offset="100%"></stop>
        </linearGradient>
        <path d="M56.412,25.2 C58.656,25.2 59.91,24.254 60.174,22.362 C60.394,20.602 60.504,15.894 60.504,8.238 L52.188,8.238 C52.43,7.358 52.65,6.434 52.87,5.444 L50.714,4.872 C50.142,8.084 49.174,10.57 47.81,12.286 L49.482,13.716 C50.208,12.836 50.846,11.736 51.396,10.438 L52.32,10.438 C51.506,14.332 50.032,17.17 47.92,18.974 L49.394,20.69 C51.792,18.534 53.442,15.102 54.366,10.438 L55.466,10.438 C55.048,13.518 54.454,15.982 53.684,17.852 C52.782,19.876 51.44,21.68 49.636,23.308 L51.066,25.134 C53.046,23.286 54.564,21.174 55.576,18.842 C56.412,16.774 57.05,13.958 57.512,10.438 L58.304,10.438 C58.26,16.664 58.194,20.294 58.062,21.328 C57.886,22.538 57.204,23.154 56.038,23.154 C55.51,23.154 54.916,23.11 54.212,23.044 L54.74,25.09 C55.532,25.156 56.104,25.2 56.412,25.2 Z M46.776,25.288 L46.776,18.028 C47.238,17.808 47.7,17.61 48.184,17.39 L48.184,15.234 C47.7,15.454 47.238,15.674 46.776,15.894 L46.776,11.494 L48.272,11.494 L48.272,9.294 L46.776,9.294 L46.776,4.96 L44.532,4.96 L44.532,9.294 L43.586,9.294 C43.652,8.458 43.696,7.622 43.74,6.786 L41.694,6.632 C41.606,9.184 41.276,11.626 40.682,13.936 L42.706,14.508 C42.948,13.54 43.146,12.528 43.322,11.494 L44.532,11.494 L44.532,16.752 C43.344,17.148 42.156,17.478 40.946,17.72 L41.496,19.942 C42.53,19.634 43.542,19.282 44.532,18.93 L44.532,25.288 L46.776,25.288 Z M73.148,25.442 C75.436,23.946 77.02,21.68 77.922,18.666 C78.626,20.866 80.056,23.088 82.212,25.332 L83.796,23.616 C81.376,21.372 79.858,19.15 79.264,16.95 L83.444,16.95 L83.444,14.75 L78.67,14.75 C78.758,13.87 78.802,12.924 78.802,11.934 L78.802,11.648 L83.048,11.648 L83.048,9.492 L80.254,9.492 C80.87,8.458 81.486,7.204 82.102,5.752 L79.968,4.938 C79.418,6.566 78.758,8.084 77.988,9.492 L75.436,9.492 L76.998,8.392 C76.558,7.424 75.92,6.302 75.106,5.026 L73.346,6.148 C74.138,7.358 74.776,8.48 75.26,9.492 L72.532,9.492 L72.532,11.648 L76.58,11.648 L76.58,12.462 C76.58,13.254 76.536,14.002 76.448,14.75 L72.18,14.75 L72.18,16.95 L76.118,16.95 C75.436,19.986 73.984,22.208 71.762,23.572 L73.148,25.442 Z M71.19,25.31 L71.19,21.196 C71.586,21.086 72.004,20.976 72.4,20.844 L72.4,18.622 C72.004,18.754 71.608,18.886 71.19,19.018 L71.19,7.732 L72.356,7.732 L72.356,5.62 L63.424,5.62 L63.424,7.732 L64.524,7.732 L64.524,20.58 L63.314,20.756 L63.864,22.934 C65.624,22.582 67.318,22.208 68.968,21.812 L68.968,25.31 L71.19,25.31 Z M68.968,10.328 L66.702,10.328 L66.702,7.732 L68.968,7.732 L68.968,10.328 Z M68.968,14.904 L66.702,14.904 L66.702,12.396 L68.968,12.396 L68.968,14.904 Z M66.702,20.184 L66.702,16.972 L68.968,16.972 L68.968,19.656 C68.22,19.832 67.472,20.008 66.702,20.184 Z M89.224,25.31 L89.224,12.11 C90.148,13.232 91.072,14.398 91.952,15.586 C91.292,17.61 90.456,19.414 89.444,20.954 L90.896,22.758 C91.886,21.35 92.744,19.678 93.47,17.742 C93.998,18.534 94.526,19.348 95.054,20.184 L96.572,18.666 C95.78,17.434 95.01,16.312 94.262,15.3 C94.768,13.496 95.186,11.516 95.516,9.316 L93.404,8.942 C93.206,10.394 92.942,11.802 92.634,13.122 C91.886,12.154 91.182,11.318 90.522,10.614 L89.224,11.868 L89.224,7.842 L102.776,7.842 L102.776,19.546 C101.984,18.226 101.214,16.994 100.466,15.872 C101.082,13.936 101.588,11.758 101.962,9.382 L99.806,9.008 C99.564,10.614 99.256,12.132 98.882,13.562 C98.134,12.506 97.43,11.626 96.792,10.878 L95.384,12.242 C96.33,13.474 97.254,14.728 98.134,16.026 C97.386,18.094 96.462,19.898 95.362,21.482 L96.814,23.286 C97.87,21.878 98.794,20.228 99.586,18.292 C100.202,19.26 100.774,20.25 101.346,21.262 L102.776,19.832 L102.776,22.318 C102.776,22.802 102.512,23.044 102.006,23.044 L99.982,22.934 L100.554,25.156 L102.754,25.156 C104.272,25.156 105.042,24.386 105.042,22.846 L105.042,5.642 L86.958,5.642 L86.958,25.31 L89.224,25.31 Z M109.722,25.442 C114.122,23.132 117.07,19.524 118.566,14.618 C120.238,19.15 123.164,22.692 127.3,25.244 L128.752,23.352 C124.462,20.844 121.536,17.302 119.952,12.704 L128.246,12.704 L128.246,10.46 L119.424,10.46 C119.578,9.184 119.666,7.82 119.666,6.39 L119.666,4.938 L117.334,4.938 L117.334,6.918 C117.312,8.15 117.224,9.316 117.092,10.46 L108.754,10.46 L108.754,12.704 L116.696,12.704 C115.508,17.742 112.692,21.35 108.248,23.506 L109.722,25.442 Z M150.042,25.332 L151.318,23.462 C149.866,22.472 148.612,21.086 147.556,19.326 C148.722,16.818 149.36,13.804 149.492,10.262 L150.702,10.262 L150.702,8.04 L145.202,8.04 C145.356,7.182 145.488,6.28 145.62,5.312 L143.376,4.916 C142.958,8.964 142.144,12.198 140.934,14.618 L142.364,16.4 C142.716,15.784 143.068,15.102 143.398,14.376 C143.926,16.18 144.542,17.808 145.246,19.26 C144.3,20.954 143.024,22.318 141.44,23.374 L142.628,25.31 C144.124,24.232 145.4,22.912 146.434,21.372 C147.468,23 148.678,24.32 150.042,25.332 Z M132.002,15.454 C133.586,14.31 134.73,13.012 135.478,11.516 L135.478,14.97 L137.59,14.97 L137.59,12.66 C138.206,13.078 138.976,13.65 139.9,14.376 L141.088,12.572 C139.9,11.978 138.734,11.45 137.59,10.988 L137.59,10.944 L141.33,10.944 L141.33,8.942 L137.59,8.942 L137.59,4.96 L135.478,4.96 L135.478,8.942 L131.386,8.942 L131.386,10.944 L134.004,10.944 C133.344,11.912 132.288,12.792 130.858,13.606 L132.002,15.454 Z M139.614,8.7 C140.296,7.82 140.846,6.918 141.286,5.994 L139.68,5.224 C139.284,6.104 138.712,6.984 138.008,7.886 L139.614,8.7 Z M133.102,8.612 L134.73,7.886 C134.378,6.94 133.96,6.06 133.498,5.246 L131.716,5.818 C132.2,6.632 132.662,7.556 133.102,8.612 Z M146.302,16.906 C145.576,15.256 144.982,13.342 144.498,11.164 L144.74,10.262 L144.74,10.262 L147.424,10.262 C147.336,12.748 146.962,14.97 146.302,16.906 Z M131.87,25.244 C134.048,24.672 135.852,23.946 137.304,23.022 C138.492,23.572 139.504,24.1 140.34,24.606 L141.572,22.802 C140.758,22.362 139.922,21.966 139.064,21.592 C140.032,20.624 140.692,19.48 141.066,18.204 L141.066,16.356 L136.644,16.356 C136.754,16.048 136.864,15.718 136.996,15.388 L134.84,15.124 C134.708,15.52 134.554,15.916 134.4,16.356 L131.342,16.356 L131.342,18.314 L133.52,18.314 C133.124,19.128 132.662,19.986 132.134,20.866 C133.102,21.24 134.048,21.614 134.928,21.988 C133.762,22.516 132.398,22.978 130.814,23.33 L131.87,25.244 Z M136.996,20.734 C136.292,20.448 135.588,20.184 134.884,19.964 C135.192,19.436 135.5,18.886 135.786,18.314 L139.042,18.314 C138.58,19.216 137.898,20.03 136.996,20.734 Z M156.13,25.09 C157.582,25.09 158.308,24.32 158.308,22.824 L158.308,16.862 C158.88,16.576 159.474,16.29 160.09,15.982 L160.09,13.738 C159.518,14.046 158.924,14.332 158.308,14.618 L158.308,11.12 L160.178,11.12 L160.178,8.898 L158.308,8.898 L158.308,5.004 L156.064,5.004 L156.064,8.898 L153.688,8.898 L153.688,11.12 L156.064,11.12 L156.064,15.52 C155.14,15.828 154.194,16.092 153.248,16.312 L153.842,18.578 C154.59,18.336 155.316,18.072 156.064,17.808 L156.064,22.252 C156.064,22.802 155.822,23.088 155.36,23.088 C154.854,23.088 154.326,23.022 153.776,22.934 L154.26,25.09 L156.13,25.09 Z M160.596,25.332 C161.982,22.516 162.818,19.282 163.082,15.608 L166.822,15.608 L166.822,17.72 L163.368,17.72 L163.368,25.288 L165.48,25.288 L165.48,24.386 L170.43,24.386 L170.43,25.288 L172.542,25.288 L172.542,17.72 L169.066,17.72 L169.066,15.608 L173.51,15.608 L173.51,13.518 L169.066,13.518 L169.066,11.45 L173.026,11.45 L173.026,5.62 L160.97,5.62 L160.97,12.924 C160.948,17.324 160.222,20.932 158.792,23.726 L160.596,25.332 Z M170.782,9.426 L163.192,9.426 L163.192,7.71 L170.782,7.71 L170.782,9.426 Z M166.822,13.518 L163.17,13.518 L163.192,12.924 L163.192,12.924 L163.192,11.45 L166.822,11.45 L166.822,13.518 Z M170.43,22.362 L165.48,22.362 L165.48,19.744 L170.43,19.744 L170.43,22.362 Z M187.078,25.266 L187.078,17.742 L195.834,17.742 L195.834,15.52 L187.078,15.52 L187.078,7.952 L195.02,7.952 L195.02,5.708 L177.046,5.708 L177.046,7.952 L184.746,7.952 L184.746,15.52 L176.166,15.52 L176.166,17.742 L184.746,17.742 L184.746,25.266 L187.078,25.266 Z M191.588,14.662 C192.578,13.078 193.392,11.428 194.008,9.734 L191.918,8.744 C191.324,10.35 190.532,11.978 189.52,13.606 L191.588,14.662 Z M180.412,14.794 L182.568,13.738 C181.82,11.934 181.072,10.306 180.28,8.832 L178.146,9.866 C178.938,11.318 179.708,12.968 180.412,14.794 Z M216.31,15.608 L218.554,14.508 C216.97,11.846 215.32,9.426 213.56,7.226 L211.47,8.216 C212.152,9.074 212.834,9.998 213.494,10.966 C210.106,11.274 206.63,11.516 203.066,11.692 C204.87,10.02 206.608,7.996 208.302,5.664 L205.926,4.828 C202.934,9.206 200.646,11.516 199.106,11.758 L199.524,13.936 C205.134,13.738 210.238,13.43 214.814,13.012 C215.32,13.848 215.826,14.706 216.31,15.608 Z M203.242,25.332 L203.242,24.496 L213.758,24.496 L213.758,25.332 L216.09,25.332 L216.09,15.894 L200.91,15.894 L200.91,25.332 L203.242,25.332 Z M213.758,22.296 L203.242,22.296 L203.242,18.094 L213.758,18.094 L213.758,22.296 Z" id="path-5"></path>
        <filter x="-3.9%" y="-24.3%" width="107.9%" height="167.9%" filterUnits="objectBoundingBox" id="filter-6">
            <feOffset dx="0" dy="2" in="SourceAlpha" result="shadowOffsetOuter1"></feOffset>
            <feGaussianBlur stdDeviation="2" in="shadowOffsetOuter1" result="shadowBlurOuter1"></feGaussianBlur>
            <feColorMatrix values="0 0 0 0 0.0431372549   0 0 0 0 0.0901960784   0 0 0 0 0.176470588  0 0 0 0.8 0" type="matrix" in="shadowBlurOuter1"></feColorMatrix>
        </filter>
    </defs>
    <g id="页面-1" stroke="none" stroke-width="1" fill="none" fill-rule="evenodd">
        <g id="销售数据-1204下拉选项" transform="translate(-37.000000, -126.000000)">
            <g id="编组-2" transform="translate(41.000000, 128.000000)">
                <g id="编组" filter="url(#filter-1)">
                    <mask id="mask-3" fill="white">
                        <use xlink:href="#path-2"></use>
                    </mask>
                    <g id="Clip-2"></g>
                    <path d="M19.8829468,20.9042872 C20.2182128,19.1010957 20.4414574,17.3775319 20.5212447,15.8776915 L29.888266,15.8776915 C29.7286915,18.4468404 28.9150213,20.8245 27.6223085,22.8670532 L26.3297553,22.4041277 C24.3510319,21.718117 22.1648617,21.2234362 19.8829468,20.9042872 L19.8829468,20.9042872 Z M14.9361383,20.5532234 C13.8829468,20.5532234 12.8457128,20.6010957 11.8244362,20.680883 C11.5052872,18.9893936 11.2978404,17.3457766 11.2180532,15.8776915 L18.638266,15.8776915 C18.5744362,17.3457766 18.3510319,18.9893936 18.031883,20.680883 C17.0425213,20.6010957 16.0052872,20.5532234 14.9361383,20.5532234 L14.9361383,20.5532234 Z M14.9361383,9.3351383 C15.9894894,9.3351383 17.0267234,9.28726596 18.0478404,9.20747872 C18.3669894,10.8989681 18.5744362,12.5425851 18.6542234,14.0106702 L11.2340106,14.0106702 C11.2978404,12.5425851 11.5212447,10.8989681 11.8403936,9.20747872 C12.8457128,9.28726596 13.8829468,9.3351383 14.9361383,9.3351383 L14.9361383,9.3351383 Z M26.3457128,24.6223723 C24.1435851,27.1913617 21.0958723,29.0106702 17.6169894,29.6330106 C18.2872021,27.7021596 18.9574149,25.2925851 19.4840106,22.8670532 C21.8776277,23.2979043 24.3350745,23.9521596 26.3457128,24.6223723 L26.3457128,24.6223723 Z M14.9361383,22.3883298 C15.781883,22.3883298 16.6914574,22.468117 17.6489043,22.5798191 C17.0267234,25.2764681 16.1967766,27.9094468 15.3669894,29.8564149 C15.2233723,29.8564149 15.0797553,29.8723723 14.9361383,29.8723723 C14.7925213,29.8723723 14.6489043,29.8564149 14.5052872,29.8564149 C13.6755,27.9094468 12.8457128,25.2764681 12.2233723,22.5798191 C13.1808191,22.468117 14.1063511,22.3883298 14.9361383,22.3883298 L14.9361383,22.3883298 Z M12.2552872,29.6330106 C8.77656383,29.0106702 5.72869149,27.1913617 3.52656383,24.6223723 C5.53720213,23.9521596 7.99464894,23.2979043 10.388266,22.8670532 C10.9308191,25.3085426 11.6010319,27.718117 12.2552872,29.6330106 L12.2552872,29.6330106 Z M9.36698936,15.8776915 C9.4467766,17.3775319 9.67018085,19.1170532 10.0052872,20.9042872 C7.72337234,21.2234362 5.55315957,21.718117 3.57443617,22.4041277 L2.28188298,22.8670532 C0.989329787,20.808383 0.1755,18.430883 0.0159255319,15.8776915 L9.36698936,15.8776915 Z M9.98932979,8.98407447 C9.6542234,10.787266 9.43081915,12.5106702 9.35103191,14.0106702 L-3.19148936e-05,14.0106702 C0.159542553,11.4415213 0.97337234,9.0638617 2.26592553,7.02130851 L3.55847872,7.48407447 C5.53720213,8.17024468 7.70741489,8.66492553 9.98932979,8.98407447 L9.98932979,8.98407447 Z M3.54252128,5.26598936 C5.72869149,2.69684043 8.79252128,0.877691489 12.2552872,0.255351064 C11.5850745,2.18620213 10.9148617,4.5957766 10.388266,7.02130851 C7.99464894,6.59045745 5.55315957,5.93620213 3.54252128,5.26598936 L3.54252128,5.26598936 Z M14.9361383,7.50003191 C14.0903936,7.50003191 13.1808191,7.42024468 12.2233723,7.30854255 C12.8616702,4.5957766 13.6914574,1.96279787 14.5212447,0.0159893617 C14.6648617,0.0159893617 14.8084787,3.19148936e-05 14.9520957,3.19148936e-05 C15.0957128,3.19148936e-05 15.2393298,0.0159893617 15.3829468,0.0159893617 C16.212734,1.97875532 17.0425213,4.61173404 17.6650213,7.30854255 C16.6755,7.42024468 15.7501277,7.50003191 14.9361383,7.50003191 L14.9361383,7.50003191 Z M17.6169894,0.255351064 C21.1914574,0.893648936 24.3031596,2.80854255 26.5214043,5.48939362 C24.4308191,6.0957766 21.8937447,6.68620213 19.5001277,7.06918085 C18.9733723,4.61173404 18.2872021,2.18620213 17.6169894,0.255351064 L17.6169894,0.255351064 Z M20.5212447,14.0106702 C20.4414574,12.5106702 20.2182128,10.7713085 19.8829468,8.98407447 C22.1648617,8.66492553 24.3350745,8.17024468 26.3137979,7.48407447 L27.6063511,7.02130851 C28.8989043,9.07981915 29.7128936,11.4574787 29.8724681,14.0106702 L20.5212447,14.0106702 Z" id="Fill-1" fill="#99D8FF" mask="url(#mask-3)"></path>
                </g>
                <g id="物联网大数据平台" fill-rule="nonzero">
                    <use fill="black" fill-opacity="1" filter="url(#filter-6)" xlink:href="#path-5"></use>
                    <use fill="#99D8FF" xlink:href="#path-5"></use>
                    <use fill="url(#linearGradient-4)" xlink:href="#path-5"></use>
                </g>
            </g>
        </g>
    </g>
</svg>