<?xml version="1.0" encoding="UTF-8"?>
<svg width="14px" height="14px" viewBox="0 0 14 14" version="1.1" xmlns="http://www.w3.org/2000/svg" xmlns:xlink="http://www.w3.org/1999/xlink">
    <!-- Generator: Sketch 63 (92445) - https://sketch.com -->
    <title>编组备份 12</title>
    <desc>Created with Sketch.</desc>
    <defs>
        <polygon id="path-1" points="0 0.038178 14 0.038178 14 13.02 0 13.02"></polygon>
    </defs>
    <g id="页面-1" stroke="none" stroke-width="1" fill="none" fill-rule="evenodd">
        <g id="2期规范" transform="translate(-1098.000000, -371.000000)">
            <g id="编组-8" transform="translate(6.000000, 300.000000)">
                <g id="编组备份-12" transform="translate(1092.000000, 71.000000)">
                    <g id="编组" transform="translate(0.000000, 0.031850)">
                        <mask id="mask-2" fill="white">
                            <use xlink:href="#path-1"></use>
                        </mask>
                        <g id="Clip-2"></g>
                        <path d="M9.990925,9.901808 C9.736335,9.647288 9.736335,9.265438 9.990925,9.010848 L12.409075,6.592768 L9.545445,3.601808 L9.990925,3.156398 C10.245445,2.901808 10.627295,2.901808 10.881815,3.156398 L13.809075,6.083658 C14.063665,6.338178 14.063665,6.720028 13.809075,6.974548 L10.881815,9.901808 C10.690925,10.156398 10.245445,10.156398 9.990925,9.901808 M7.699965,13.020028 L1.272705,13.020028 C0.572705,13.020028 -3.5e-05,12.447288 -3.5e-05,11.747288 L-3.5e-05,1.310918 C-3.5e-05,0.610918 0.572705,0.038178 1.272705,0.038178 L7.699965,0.038178 C8.081815,0.038178 8.336335,0.292768 8.336335,0.674548 C8.336335,1.056398 8.081815,1.310918 7.699965,1.310918 L1.272705,1.310918 L1.272705,11.810848 L7.699965,11.810848 C8.081815,11.810848 8.336335,12.065438 8.336335,12.447288 C8.336335,12.765438 8.081815,13.020028 7.699965,13.020028" id="Fill-1" fill="#F0F0F0" mask="url(#mask-2)"></path>
                    </g>
                    <path d="M12.790925,7.197295 L5.536335,7.197295 C5.154555,7.197295 4.899965,6.942705 4.899965,6.560925 C4.899965,6.179145 5.154555,5.924555 5.536335,5.924555 L12.790925,5.924555 L12.790925,7.197295 Z" id="Fill-3" fill="#F0F0F0"></path>
                </g>
            </g>
        </g>
    </g>
</svg>