<?xml version="1.0" encoding="UTF-8"?>
<svg width="32px" height="39px" viewBox="0 0 32 39" version="1.1" xmlns="http://www.w3.org/2000/svg" xmlns:xlink="http://www.w3.org/1999/xlink">
    <!-- Generator: Sketch 63 (92445) - https://sketch.com -->
    <title></title>
    <desc></desc>
    <g id="页面-1" stroke="none" stroke-width="1" fill="none" fill-rule="evenodd">
        <g id="农业资产切图备份" transform="translate(-37.000000, -28.000000)" fill-rule="nonzero">
            <g id="编组-4" transform="translate(37.000000, 28.000000)">
                <g id="logo备份">
                    <path d="M9.72201671,11.6498132 L9.72201671,6.16757661 L11.1707203,6.16757661 L11.1707203,11.2523975 L18.2461566,14.8291388 L18.2461566,7.83316844 L19.6948602,7.83316844 L19.6948602,14.8291388 L26.7706966,11.2523975 L26.7706966,6.15828742 L28.2194002,6.15828742 L28.2194002,26.5718844 C32.6791577,21.2472403 33.2488498,13.6351385 29.6321618,7.69487286 C26.0154738,1.75460722 19.0293083,-1.1720924 12.3073899,0.43704264 C5.5854715,2.04617768 0.646082335,7.82769149 0.0583542389,14.7744367 C-0.529373857,21.7211818 3.36730947,28.2640946 9.72161651,31 L9.72201671,11.6498132 Z" id="路径_552" fill="#99D8FF"></path>
                    <g id="组_401" transform="translate(11.000000, 13.000000)" fill="#81A7FF">
                        <polygon id="路径_553" points="0 5.26784375 7.23897436 8.8521875 7.23897436 3.5839375 0 -0.00040625"></polygon>
                        <polygon id="路径_554" points="8.68717949 3.5839375 8.68717949 8.85178125 15.9261538 5.2674375 15.9261538 0"></polygon>
                        <polygon id="路径_555" points="0 12.0185 7.23897436 15.6028437 7.23897436 10.335 0 6.75065625"></polygon>
                        <polygon id="路径_556" points="8.68717949 15.6028437 15.9261538 12.0185 15.9261538 6.75065625 8.68717949 10.335"></polygon>
                        <polygon id="路径_557" points="0 18.7305625 7.23897436 22.3149062 7.23897436 17.0470625 0 13.4627188"></polygon>
                        <polygon id="路径_558" points="8.68717949 20.8154375 8.68717949 25.6274688 9.41128205 25.6274688 9.41128205 21.9561875 15.9265641 18.7305625 15.9265641 13.4627188 8.68758974 17.0470625"></polygon>
                    </g>
                </g>
            </g>
        </g>
    </g>
</svg>