<?xml version="1.0" encoding="UTF-8"?>
<svg width="286px" height="28px" viewBox="0 0 286 28" version="1.1" xmlns="http://www.w3.org/2000/svg" xmlns:xlink="http://www.w3.org/1999/xlink">
    <!-- Generator: Sketch 63 (92445) - https://sketch.com -->
    <title>吉视5G智能渔业数据管理平台</title>
    <desc>Created with Sketch.</desc>
    <defs>
        <linearGradient x1="50%" y1="0%" x2="50%" y2="100%" id="linearGradient-1">
            <stop stop-color="#FFFFFF" offset="0%"></stop>
            <stop stop-color="#99D8FF" offset="100%"></stop>
        </linearGradient>
        <path d="M80.472,210.282 L80.472,208.329 L73.227,208.329 L73.227,205.578 L81.459,205.578 L81.459,203.625 L73.227,203.625 L73.227,201.21 L71.211,201.21 L71.211,203.625 L63,203.625 L63,205.578 L71.211,205.578 L71.211,208.329 L63.966,208.329 L63.966,210.282 L80.472,210.282 Z M67.158,220.551 L67.158,219.795 L77.301,219.795 L77.301,220.551 L79.317,220.551 L79.317,212.046 L65.142,212.046 L65.142,220.551 L67.158,220.551 Z M77.301,217.884 L67.158,217.884 L67.158,213.978 L77.301,213.978 L77.301,217.884 Z M88.452,220.572 L88.452,212.172 C89.124,212.718 89.775,213.348 90.426,214.062 L91.56,212.34 C90.636,211.479 89.628,210.723 88.536,210.051 C89.628,208.581 90.447,207.111 90.951,205.62 L90.951,203.94 L88.893,203.94 C88.641,203.058 88.263,202.071 87.801,201 L85.911,201.546 C86.331,202.323 86.688,203.121 87.003,203.94 L84.021,203.94 L84.021,205.851 L88.956,205.851 C88.011,207.993 86.205,210.177 83.538,212.445 L84.168,214.545 C85.008,213.831 85.785,213.117 86.499,212.403 L86.499,220.572 L88.452,220.572 Z M94.101,213.726 L94.101,203.814 L99.414,203.814 L99.414,213.726 L101.43,213.726 L101.43,201.903 L92.127,201.903 L92.127,213.726 L94.101,213.726 Z M91.077,220.74 C93.345,219.774 94.983,218.43 96.012,216.666 C96.306,216.078 96.579,215.427 96.831,214.692 L96.831,218.178 C96.831,219.543 97.461,220.236 98.721,220.236 L100.8,220.236 C101.472,220.236 101.997,220.068 102.333,219.753 C102.669,219.396 102.921,218.325 103.068,216.54 L101.22,215.931 C101.157,217.128 101.073,217.842 100.947,218.094 C100.821,218.304 100.653,218.409 100.443,218.409 L99.309,218.409 C98.931,218.409 98.763,218.178 98.763,217.758 L98.763,213.663 L97.125,213.663 C97.44,212.361 97.629,210.828 97.692,209.106 L97.692,205.137 L95.76,205.137 L95.76,209.106 C95.676,211.647 95.256,213.705 94.5,215.301 C93.702,216.792 92.211,218.031 90.006,218.997 L91.077,220.74 Z M109.851,218.703 C111.342,218.703 112.623,218.262 113.694,217.38 C114.828,216.393 115.416,215.133 115.416,213.579 C115.416,211.962 114.954,210.702 114.072,209.778 C113.19,208.854 112.035,208.392 110.628,208.392 C109.956,208.392 109.326,208.497 108.78,208.728 C108.171,208.938 107.646,209.274 107.184,209.757 L107.121,209.757 L107.562,205.431 L114.744,205.431 L114.744,203.415 L105.714,203.415 L104.895,211.815 L107.037,211.815 C107.331,211.269 107.73,210.87 108.276,210.618 C108.78,210.366 109.347,210.261 110.019,210.261 C111.027,210.261 111.783,210.555 112.329,211.143 C112.875,211.731 113.148,212.55 113.148,213.6 C113.148,214.566 112.833,215.322 112.203,215.91 C111.573,216.477 110.796,216.771 109.872,216.771 C109.032,216.771 108.36,216.582 107.856,216.204 C107.289,215.784 106.953,215.133 106.869,214.293 L104.622,214.293 C104.727,215.679 105.315,216.792 106.386,217.59 C107.352,218.325 108.507,218.703 109.851,218.703 Z M124.572,218.703 C125.874,218.703 127.071,218.535 128.163,218.199 C129.192,217.863 130.095,217.401 130.872,216.792 L130.872,210.492 L124.446,210.492 L124.446,212.445 L128.583,212.445 L128.583,215.7 C128.079,216.015 127.533,216.267 126.903,216.435 C126.252,216.603 125.559,216.708 124.824,216.708 C122.955,216.708 121.569,216.183 120.687,215.133 C119.847,214.167 119.448,212.781 119.448,210.975 C119.448,209.127 119.889,207.678 120.813,206.628 C121.674,205.62 122.829,205.137 124.278,205.137 C125.454,205.137 126.42,205.389 127.134,205.914 C127.848,206.418 128.31,207.174 128.52,208.182 L130.83,208.182 C130.557,206.502 129.885,205.263 128.814,204.423 C127.701,203.541 126.189,203.121 124.278,203.121 C122.073,203.121 120.309,203.877 119.007,205.431 C117.768,206.88 117.159,208.728 117.159,210.975 C117.159,213.201 117.768,215.028 119.007,216.435 C120.33,217.947 122.178,218.703 124.572,218.703 Z M137.97,220.614 L137.97,219.795 L147.882,219.795 L147.882,220.614 L149.898,220.614 L149.898,211.689 L141.876,211.689 L143.115,210.429 C142.023,209.631 140.721,208.833 139.167,208.035 C139.188,207.951 139.209,207.846 139.251,207.741 L143.43,207.741 L143.43,205.914 L139.671,205.914 C139.755,205.41 139.797,204.885 139.839,204.318 L142.842,204.318 L142.842,202.554 L137.088,202.554 C137.256,202.176 137.424,201.798 137.571,201.378 L135.786,201 C135.072,202.596 134.211,203.814 133.245,204.675 L134.232,205.914 L133.287,205.914 L133.287,207.741 L137.193,207.741 L137.151,207.825 C136.479,209.211 135.072,210.366 132.888,211.332 L134.232,212.949 C134.862,212.655 135.429,212.319 135.975,211.983 L135.975,220.614 L137.97,220.614 Z M151.431,210.513 L151.431,202.575 L144.081,202.575 L144.081,210.513 L151.431,210.513 Z M137.739,205.914 L134.715,205.914 C135.198,205.473 135.66,204.948 136.101,204.318 L137.928,204.318 C137.886,204.864 137.823,205.389 137.739,205.914 Z M149.478,208.77 L146.034,208.77 L146.034,204.339 L149.478,204.339 L149.478,208.77 Z M141.519,211.689 L136.395,211.689 C137.298,211.017 138.012,210.282 138.516,209.484 C139.734,210.24 140.721,210.975 141.519,211.689 Z M147.882,214.923 L137.97,214.923 L137.97,213.453 L147.882,213.453 L147.882,214.923 Z M147.882,218.031 L137.97,218.031 L137.97,216.645 L147.882,216.645 L147.882,218.031 Z M163.149,208.161 L164.787,206.985 C164.115,205.767 163.17,204.318 161.931,202.659 L160.398,203.625 C160.818,204.234 161.217,204.822 161.595,205.41 C159.894,205.62 158.298,205.788 156.828,205.872 C157.92,204.822 158.907,203.457 159.789,201.735 L157.878,201.168 C157.206,202.596 156.219,204.024 154.938,205.452 C154.686,205.662 154.392,205.83 154.035,205.956 L154.581,207.615 C157.647,207.447 160.272,207.195 162.456,206.859 C162.708,207.3 162.939,207.741 163.149,208.161 Z M170.604,210.492 C171.36,210.492 171.927,210.324 172.305,210.009 C172.683,209.652 172.977,208.602 173.145,206.859 L171.276,206.25 C171.234,207.426 171.108,208.14 170.94,208.392 C170.793,208.602 170.562,208.707 170.226,208.707 L167.727,208.707 C167.223,208.707 166.971,208.35 166.971,207.678 L166.971,205.578 C169.218,205.242 171.192,204.864 172.914,204.465 L172.263,202.701 C170.898,203.079 169.134,203.415 166.971,203.751 L166.971,201.273 L164.997,201.273 L164.997,208.098 C164.997,209.694 165.711,210.492 167.181,210.492 L170.604,210.492 Z M157.185,220.614 L157.185,216.687 L161.511,216.687 L161.511,217.863 C161.511,218.409 161.259,218.682 160.776,218.682 L159.285,218.598 L159.768,220.467 L161.406,220.467 C162.75,220.467 163.443,219.732 163.443,218.283 L163.443,208.497 L155.253,208.497 L155.253,220.614 L157.185,220.614 Z M161.511,211.857 L157.185,211.857 L157.185,210.24 L161.511,210.24 L161.511,211.857 Z M170.625,220.257 C171.402,220.257 171.969,220.089 172.326,219.774 C172.704,219.438 172.977,218.388 173.145,216.624 L171.339,216.036 C171.276,217.212 171.15,217.926 170.982,218.178 C170.835,218.367 170.583,218.472 170.247,218.472 L167.706,218.472 C167.202,218.472 166.971,218.283 166.971,217.905 L166.971,215.343 C169.071,215.133 171.066,214.797 172.914,214.293 L172.263,212.508 C170.709,212.97 168.945,213.327 166.971,213.537 L166.971,211.227 L164.997,211.227 L164.997,218.346 C164.997,219.606 165.711,220.257 167.139,220.257 L170.625,220.257 Z M161.511,215.028 L157.185,215.028 L157.185,213.495 L161.511,213.495 L161.511,215.028 Z M192.78,215.973 L192.78,206.67 L189.525,206.67 C190.071,206.04 190.596,205.305 191.142,204.444 L191.142,203.079 L185.619,203.079 C185.913,202.617 186.186,202.113 186.459,201.609 L184.527,201.168 C183.057,203.814 181.314,205.872 179.256,207.342 L180.516,208.875 L181.713,207.867 L181.713,215.973 L192.78,215.973 Z M179.13,205.83 L180.537,204.423 C179.55,203.436 178.353,202.449 176.946,201.441 L175.539,202.806 C177.072,203.877 178.269,204.885 179.13,205.83 Z M187.362,206.67 L182.91,206.67 C183.456,206.061 184.002,205.41 184.527,204.717 L188.937,204.717 C188.391,205.452 187.866,206.103 187.362,206.67 Z M178.563,210.891 L179.949,209.505 C178.983,208.497 177.807,207.468 176.4,206.46 L174.993,207.825 C176.505,208.917 177.702,209.925 178.563,210.891 Z M186.354,210.471 L183.54,210.471 L183.54,208.392 L186.354,208.392 L186.354,210.471 Z M190.953,210.471 L188.16,210.471 L188.16,208.392 L190.953,208.392 L190.953,210.471 Z M190.953,214.23 L188.16,214.23 L188.16,212.109 L190.953,212.109 L190.953,214.23 Z M186.354,214.23 L183.54,214.23 L183.54,212.109 L186.354,212.109 L186.354,214.23 Z M177.072,220.341 C178.164,217.989 179.13,215.469 180.012,212.781 L178.248,212.109 C177.408,214.629 176.4,217.107 175.224,219.522 L177.072,220.341 Z M194.166,219.795 L194.166,217.989 L180.075,217.989 L180.075,219.795 L194.166,219.795 Z M215.019,219.816 L215.019,217.863 L208.887,217.863 L208.887,201.357 L206.892,201.357 L206.892,217.863 L204.372,217.863 L204.372,201.357 L202.377,201.357 L202.377,217.863 L196.287,217.863 L196.287,219.816 L215.019,219.816 Z M199.437,215.322 L201.264,214.86 C200.424,211.248 199.479,208.035 198.408,205.221 L196.707,205.767 C197.799,208.833 198.723,212.025 199.437,215.322 Z M211.491,215.238 C212.751,212.529 213.78,209.379 214.578,205.767 L212.814,205.263 C211.932,209.043 210.882,212.172 209.706,214.608 L211.491,215.238 Z M235.368,220.593 L236.481,218.976 C235.053,218.01 233.835,216.645 232.785,214.902 C233.919,212.487 234.549,209.568 234.675,206.145 L235.893,206.145 L235.893,204.234 L230.559,204.234 C230.727,203.373 230.853,202.47 230.979,201.504 L229.026,201.168 C228.606,205.074 227.808,208.182 226.632,210.492 L227.892,212.046 C228.27,211.416 228.606,210.702 228.942,209.946 C229.467,211.773 230.097,213.411 230.811,214.86 C229.887,216.519 228.648,217.863 227.094,218.913 L228.123,220.572 C229.593,219.522 230.832,218.22 231.819,216.687 C232.827,218.304 234.003,219.606 235.368,220.593 Z M218.001,211.143 C219.618,210.009 220.773,208.686 221.466,207.174 L221.466,210.723 L223.293,210.723 L223.293,208.371 C223.944,208.791 224.721,209.379 225.645,210.114 L226.695,208.539 C225.54,207.93 224.406,207.384 223.293,206.922 L223.293,206.817 L226.947,206.817 L226.947,205.074 L223.293,205.074 L223.293,201.21 L221.466,201.21 L221.466,205.074 L217.497,205.074 L217.497,206.817 L220.143,206.817 C219.513,207.783 218.484,208.686 217.014,209.526 L218.001,211.143 Z M225.246,204.78 C225.897,203.919 226.422,203.037 226.842,202.155 L225.435,201.483 C225.057,202.323 224.532,203.184 223.86,204.066 L225.246,204.78 Z M219.198,204.717 L220.626,204.066 C220.269,203.142 219.87,202.302 219.408,201.504 L217.833,202.029 C218.316,202.806 218.778,203.709 219.198,204.717 Z M231.714,212.823 C230.979,211.185 230.37,209.274 229.908,207.09 C229.992,206.796 230.076,206.481 230.16,206.145 L232.869,206.145 C232.785,208.665 232.407,210.891 231.714,212.823 Z M217.896,220.509 C219.975,219.963 221.718,219.249 223.104,218.346 C224.259,218.871 225.246,219.375 226.065,219.879 L227.136,218.325 C226.338,217.905 225.498,217.485 224.637,217.107 C225.603,216.141 226.275,215.028 226.653,213.768 L226.653,212.151 L222.369,212.151 C222.495,211.815 222.6,211.5 222.726,211.164 L220.857,210.933 C220.731,211.311 220.584,211.731 220.416,212.151 L217.455,212.151 L217.455,213.852 L219.66,213.852 C219.261,214.65 218.799,215.469 218.295,216.351 C219.261,216.729 220.185,217.086 221.046,217.443 C219.912,218.031 218.547,218.493 216.972,218.871 L217.896,220.509 Z M222.81,216.351 C222.117,216.057 221.403,215.805 220.668,215.553 C221.004,215.007 221.319,214.44 221.613,213.852 L224.868,213.852 C224.406,214.776 223.734,215.616 222.81,216.351 Z M240.618,220.383 C241.92,220.383 242.592,219.69 242.592,218.304 L242.592,212.487 C243.18,212.214 243.768,211.92 244.377,211.626 L244.377,209.673 C243.789,209.988 243.18,210.282 242.592,210.555 L242.592,206.964 L244.44,206.964 L244.44,205.053 L242.592,205.053 L242.592,201.252 L240.66,201.252 L240.66,205.053 L238.308,205.053 L238.308,206.964 L240.66,206.964 L240.66,211.311 C239.757,211.626 238.854,211.899 237.93,212.109 L238.434,214.083 C239.169,213.831 239.904,213.579 240.66,213.306 L240.66,217.821 C240.66,218.367 240.408,218.64 239.946,218.64 C239.442,218.64 238.938,218.577 238.413,218.493 L238.833,220.383 L240.618,220.383 Z M244.734,220.593 C246.078,217.905 246.876,214.797 247.149,211.269 L250.929,211.269 L250.929,213.432 L247.569,213.432 L247.569,220.572 L249.417,220.572 L249.417,219.669 L254.394,219.669 L254.394,220.572 L256.242,220.572 L256.242,213.432 L252.861,213.432 L252.861,211.269 L257.187,211.269 L257.187,209.442 L252.861,209.442 L252.861,207.342 L256.683,207.342 L256.683,201.903 L245.322,201.903 L245.322,208.749 C245.301,213.012 244.587,216.498 243.18,219.207 L244.734,220.593 Z M254.751,205.557 L247.254,205.557 L247.254,203.73 L254.751,203.73 L254.751,205.557 Z M250.929,209.442 L247.233,209.442 C247.233,209.211 247.254,208.98 247.254,208.749 L247.254,207.342 L250.929,207.342 L250.929,209.442 Z M254.394,217.905 L249.417,217.905 L249.417,215.196 L254.394,215.196 L254.394,217.905 Z M264.6,206.502 L266.427,205.809 C266.175,205.326 265.839,204.822 265.461,204.297 L268.611,204.297 L268.611,202.554 L263.319,202.554 C263.445,202.218 263.592,201.861 263.718,201.504 L261.807,201.084 C261.282,202.596 260.421,204.024 259.203,205.326 L260.946,206.418 C261.492,205.767 261.996,205.053 262.458,204.297 L263.382,204.297 C263.844,205.011 264.243,205.746 264.6,206.502 Z M261.576,210.828 L261.576,208.497 L275.73,208.497 L275.73,210.828 L277.683,210.828 L277.683,206.817 L269.766,206.817 C269.598,206.376 269.451,205.956 269.283,205.578 L270.291,206.229 C270.732,205.641 271.131,204.99 271.488,204.297 L272.559,204.297 C273.021,204.948 273.42,205.62 273.756,206.292 L275.52,205.641 C275.289,205.221 275.016,204.759 274.68,204.297 L278.103,204.297 L278.103,202.554 L272.265,202.554 C272.391,202.218 272.496,201.882 272.622,201.525 L270.711,201.105 C270.291,202.554 269.577,203.898 268.611,205.158 L268.968,205.389 L267.204,205.683 C267.393,206.019 267.582,206.397 267.75,206.817 L259.623,206.817 L259.623,210.828 L261.576,210.828 Z M275.772,220.572 L275.772,214.965 L264.558,214.965 L264.558,213.852 L274.785,213.852 L274.785,209.442 L262.563,209.442 L262.563,220.551 L264.558,220.551 L264.558,219.816 L273.777,219.816 L273.777,220.572 L275.772,220.572 Z M272.832,212.256 L264.558,212.256 L264.558,211.038 L272.832,211.038 L272.832,212.256 Z M273.777,218.052 L264.558,218.052 L264.558,216.54 L273.777,216.54 L273.777,218.052 Z M299.334,219.984 L299.334,218.073 L294.021,218.073 L294.021,215.889 L298.599,215.889 L298.599,214.041 L294.021,214.041 L294.021,211.941 L298.326,211.941 L298.326,201.903 L287.7,201.903 L287.7,211.941 L292.047,211.941 L292.047,214.041 L287.448,214.041 L287.448,215.889 L292.047,215.889 L292.047,218.073 L286.629,218.073 L286.629,219.984 L299.334,219.984 Z M280.434,217.989 C282.639,217.464 284.697,216.813 286.629,216.057 L286.629,214.125 C285.957,214.419 285.264,214.671 284.55,214.923 L284.55,210.723 L286.671,210.723 L286.671,208.812 L284.55,208.812 L284.55,204.318 L286.923,204.318 L286.923,202.428 L280.14,202.428 L280.14,204.318 L282.534,204.318 L282.534,208.812 L280.455,208.812 L280.455,210.723 L282.534,210.723 L282.534,215.532 C281.694,215.742 280.833,215.931 279.951,216.078 L280.434,217.989 Z M292.047,206.061 L289.611,206.061 L289.611,203.667 L292.047,203.667 L292.047,206.061 Z M296.415,206.061 L294.021,206.061 L294.021,203.667 L296.415,203.667 L296.415,206.061 Z M296.415,210.177 L294.021,210.177 L294.021,207.783 L296.415,207.783 L296.415,210.177 Z M292.047,210.177 L289.611,210.177 L289.611,207.783 L292.047,207.783 L292.047,210.177 Z M311.577,220.551 L311.577,213.285 L320.019,213.285 L320.019,211.374 L311.577,211.374 L311.577,203.94 L319.221,203.94 L319.221,201.987 L302.127,201.987 L302.127,203.94 L309.561,203.94 L309.561,211.374 L301.287,211.374 L301.287,213.285 L309.561,213.285 L309.561,220.551 L311.577,220.551 Z M315.861,210.45 C316.827,208.896 317.625,207.321 318.234,205.704 L316.407,204.843 C315.819,206.376 315.042,207.93 314.055,209.526 L315.861,210.45 Z M305.403,210.555 L307.272,209.631 C306.558,207.909 305.823,206.355 305.067,204.927 L303.198,205.83 C303.975,207.216 304.71,208.791 305.403,210.555 Z M339.234,211.311 L341.187,210.345 C339.654,207.804 338.037,205.494 336.336,203.394 L334.53,204.255 C335.223,205.137 335.916,206.061 336.588,207.069 C333.249,207.384 329.805,207.615 326.235,207.741 C327.999,206.145 329.721,204.171 331.422,201.819 L329.343,201.105 C326.529,205.221 324.324,207.468 322.728,207.825 L323.106,209.715 C328.482,209.505 333.375,209.211 337.764,208.833 C338.247,209.61 338.73,210.429 339.234,211.311 Z M326.487,220.593 L326.487,219.732 L336.819,219.732 L336.819,220.593 L338.835,220.593 L338.835,211.668 L324.471,211.668 L324.471,220.593 L326.487,220.593 Z M336.819,217.821 L326.487,217.821 L326.487,213.579 L336.819,213.579 L336.819,217.821 Z" id="path-2"></path>
        <filter x="-2.5%" y="-25.3%" width="105.0%" height="170.9%" filterUnits="objectBoundingBox" id="filter-3">
            <feOffset dx="0" dy="2" in="SourceAlpha" result="shadowOffsetOuter1"></feOffset>
            <feGaussianBlur stdDeviation="2" in="shadowOffsetOuter1" result="shadowBlurOuter1"></feGaussianBlur>
            <feColorMatrix values="0 0 0 0 0.0431372549   0 0 0 0 0.0901960784   0 0 0 0 0.176470588  0 0 0 0.8 0" type="matrix" in="shadowBlurOuter1"></feColorMatrix>
        </filter>
    </defs>
    <g id="页面-1" stroke="none" stroke-width="1" fill="none" fill-rule="evenodd">
        <g id="销售数据-1204下拉选项" transform="translate(-59.000000, -199.000000)" fill-rule="nonzero">
            <g id="吉视5G智能渔业数据管理平台">
                <use fill="black" fill-opacity="1" filter="url(#filter-3)" xlink:href="#path-2"></use>
                <use fill="url(#linearGradient-1)" xlink:href="#path-2"></use>
            </g>
        </g>
    </g>
</svg>