<?xml version="1.0" encoding="UTF-8"?>
<svg width="18px" height="20px" viewBox="0 0 18 20" version="1.1" xmlns="http://www.w3.org/2000/svg" xmlns:xlink="http://www.w3.org/1999/xlink">
    <!-- Generator: Sketch 63 (92445) - https://sketch.com -->
    <title>编组</title>
    <desc>Created with Sketch.</desc>
    <defs>
        <polygon id="path-1" points="0 0 17.9460809 0 17.9460809 19.9960281 0 19.9960281"></polygon>
        <linearGradient x1="50%" y1="0%" x2="50%" y2="100%" id="linearGradient-3">
            <stop stop-color="#FFE1A0" offset="0%"></stop>
            <stop stop-color="#A37A22" offset="100%"></stop>
        </linearGradient>
    </defs>
    <g id="页面-1" stroke="none" stroke-width="1" fill="none" fill-rule="evenodd">
        <g id="农业资产备份" transform="translate(-38.000000, -601.000000)">
            <g id="销售额排行榜" transform="translate(30.000000, 591.000000)">
                <g id="编组" transform="translate(8.000000, 10.000000)">
                    <mask id="mask-2" fill="white">
                        <use xlink:href="#path-1"></use>
                    </mask>
                    <g id="Clip-2"></g>
                    <g id="编组-5" mask="url(#mask-2)">
                        <g transform="translate(0.000020, 0.000000)">
                            <path d="M8.82616854,5.05617978e-05 C12.689191,5.05617978e-05 15.8216966,3.17826404 15.8216966,7.09811798 C15.8216966,11.0187809 12.689191,14.1961854 8.82546067,14.1961854 C4.96253933,14.1961854 1.83074157,11.0187809 1.83074157,7.09811798 C1.83074157,3.17826404 4.96253933,5.05617978e-05 8.82616854,5.05617978e-05 M2.394,12.2156798 C3.69738202,14.4435337 5.57069663,15.477118 8.01424719,15.3183539 L6.51155056,19.742309 C6.44480899,19.9381854 6.23204494,20.0427472 6.03626966,19.9760056 C5.94849438,19.946073 5.87507865,19.884691 5.8298764,19.8037921 L4.167,16.8149831 L0.419460674,18.4906011 C0.378707865,18.5088034 0.332393258,18.5102191 0.290629213,18.4943427 C0.202955056,18.4613764 0.158764045,18.3639944 2.27373675e-13,18.2037135 C0.654674157,16.4681292 1.4524382,14.4719494 2.394,12.2156798 M15.5580674,12.2637135 C16.3848539,14.2344101 17.1808989,16.2180506 17.9461011,18.2135225 C17.7775281,18.3722865 17.7363708,18.4644101 17.6531461,18.4966685 C17.6136067,18.5115337 17.569618,18.5102191 17.5309888,18.492927 L13.7766742,16.8149831 L12.1146067,19.8037921 C12.0138876,19.9845 11.7857528,20.0493202 11.6051461,19.9486011 C11.5241461,19.9035 11.4628652,19.8299831 11.4329326,19.742309 L9.93023596,15.3183539 C12.3423371,15.4696348 14.2171685,14.4517247 15.5580674,12.2637135" id="Fill-1" fill="url(#linearGradient-3)" fill-rule="evenodd"></path>
                            <text id="1" fill="none" font-family="BebasNeueBold, Bebas Neue" font-size="11" font-weight="bold">
                                <tspan x="5.99997978" y="11" fill="#172E58">1</tspan>
                            </text>
                        </g>
                    </g>
                </g>
            </g>
        </g>
    </g>
</svg>