<?xml version="1.0" encoding="UTF-8"?>
<svg width="16px" height="20px" viewBox="0 0 16 20" version="1.1" xmlns="http://www.w3.org/2000/svg" xmlns:xlink="http://www.w3.org/1999/xlink">
    <!-- Generator: Sketch 63 (92445) - https://sketch.com -->
    <title>Fill 1</title>
    <desc>Created with Sketch.</desc>
    <defs>
        <linearGradient x1="50%" y1="0%" x2="50%" y2="96.6928843%" id="linearGradient-1">
            <stop stop-color="#FFEB6E" offset="0%"></stop>
            <stop stop-color="#FFA312" offset="100%"></stop>
        </linearGradient>
    </defs>
    <g id="页面-1" stroke="none" stroke-width="1" fill="none" fill-rule="evenodd">
        <g id="新首页备份" transform="translate(-390.000000, -117.000000)" fill="url(#linearGradient-1)">
            <path d="M399.846154,135.125 C399.846154,136.1606 399.019668,137 398,137 C396.980332,137 396.153846,136.1606 396.153846,135.125 L399.846154,135.125 Z M391.846154,131.375 L391.846154,125.125 C391.846154,122.1013 393.960615,119.5794 396.769231,119 L396.769231,118.25 C396.769231,117.5594 397.320025,117 398,117 C398.679975,117 399.230769,117.5594 399.230769,118.25 L399.230769,119 C402.039385,119.5794 404.153846,122.1013 404.153846,125.125 L404.153846,131.375 L404.771102,131.375 C405.449797,131.375 406,131.93 406,132.625 C406,133.3156 405.449206,133.875 404.771102,133.875 L391.228898,133.875 C390.550105,133.875 390,133.32 390,132.625 C390,131.9344 390.550794,131.375 391.228898,131.375 L391.846154,131.375 Z" id="Fill-1"></path>
        </g>
    </g>
</svg>