<?xml version="1.0" encoding="UTF-8"?>
<svg width="16px" height="18px" viewBox="0 0 16 18" version="1.1" xmlns="http://www.w3.org/2000/svg" xmlns:xlink="http://www.w3.org/1999/xlink">
    <!-- Generator: Sketch 63 (92445) - https://sketch.com -->
    <title></title>
    <desc></desc>
    <defs>
        <polygon id="path-1" points="-1.46961036e-13 -3.08572612e-14 16 -3.08572612e-14 16 18 -1.46961036e-13 18"></polygon>
        <polygon id="path-3" points="0 18 16 18 16 -2.0664026e-14 0 -2.0664026e-14"></polygon>
        <polygon id="path-5" points="0 18 16 18 16 -2.0664026e-14 0 -2.0664026e-14"></polygon>
    </defs>
    <g id="页面-1" stroke="none" stroke-width="1" fill="none" fill-rule="evenodd">
        <g id="推广页-pc" transform="translate(-1271.000000, -2166.000000)">
            <g id="编组-3" transform="translate(1261.000000, 2155.000000)">
                <g id="分组-copy-6备份-3" transform="translate(10.000000, 11.000000)">
                    <g id="分组" transform="translate(0.000000, 0.000000)">
                        <mask id="mask-2" fill="white">
                            <use xlink:href="#path-1"></use>
                        </mask>
                        <g id="Clip-2"></g>
                        <path d="M13.8687957,1.12584443 L11.7357366,1.12584443 L11.7357366,0.56281908 C11.7357366,0.259286635 11.4896897,-2.8581304e-14 11.2018851,-2.8581304e-14 C10.902541,-2.8581304e-14 10.6681314,0.259492909 10.6681314,0.56281908 L10.6681314,1.12584443 L5.33411458,1.12584443 L5.33411458,0.56281908 C5.33411458,0.259286635 5.08806761,-2.8581304e-14 4.80026306,-2.8581304e-14 C4.50091894,-2.8581304e-14 4.26641153,0.259492909 4.26641153,0.56281908 L4.26641153,1.12584443 L2.13325466,1.12584443 C0.949471418,1.12584443 -1.46961036e-13,2.13906317 -1.46961036e-13,3.37547056 L-1.46961036e-13,15.7503739 C-1.46961036e-13,16.9988483 0.949275832,18 2.13325466,18 L13.8668398,18 C15.0411372,18 16,16.9988483 16,15.7503739 L16,3.37567684 C16.0020504,2.13926945 15.0411372,1.12584443 13.8687957,1.12584443 L13.8687957,1.12584443 Z M14.9962497,15.8455681 C14.9962497,16.4805268 14.5114695,17 13.9189166,17 L2.07733303,17 C1.4752069,17 1,16.4805268 1,15.8455681 L1,5.7891297 L14.9962497,5.7891297 L14.9962497,4.63469782 L1.00197386,4.63469782 L1.00197386,3.15443188 C1.00197386,2.51957895 1.4752069,2 2.07930689,2 L4.2319991,2 L4.2319991,2.5773217 C4.2319991,2.90104064 4.46876366,3.15443188 4.77076431,3.15443188 C5.06121787,3.15443188 5.30952952,2.90082913 5.30952952,2.5773217 L5.30952952,2 L10.692543,2 L10.692543,2.5773217 C10.692543,2.90104064 10.9293076,3.15443188 11.2311109,3.15443188 C11.5215644,3.15443188 11.7698761,2.90082913 11.7698761,2.5773217 L11.7698761,2 L13.922667,2 C14.5151212,2 15,2.51957895 15,3.15443188 L15,15.8455681 L14.9962497,15.8455681 Z" id="Fill-1" fill="#98A4AF" mask="url(#mask-2)"></path>
                    </g>
                    <mask id="mask-4" fill="white">
                        <use xlink:href="#path-3"></use>
                    </mask>
                    <g id="Clip-4"></g>
                    <mask id="mask-6" fill="white">
                        <use xlink:href="#path-5"></use>
                    </mask>
                    <g id="Clip-4-Copy"></g>
                    <path d="M3,10 L5,10 L5,8 L3,8 L3,10 Z M7,10 L9,10 L9,8 L7,8 L7,10 Z M11,10 L13,10 L13,8 L11,8 L11,10 Z M3,14 L5,14 L5,12 L3,12 L3,14 Z M7,14 L9,14 L9,12 L7,12 L7,14 Z M11,14 L13,14 L13,12 L11,12 L11,14 Z" id="Fill-3" fill="#98A4AF" mask="url(#mask-6)"></path>
                </g>
            </g>
        </g>
    </g>
</svg>