<?xml version="1.0" encoding="UTF-8"?>
<svg width="60px" height="60px" viewBox="0 0 60 60" version="1.1" xmlns="http://www.w3.org/2000/svg" xmlns:xlink="http://www.w3.org/1999/xlink">
    <!-- Generator: Sketch 63 (92445) - https://sketch.com -->
    <title>加工管理-正常icon备份</title>
    <desc>Created with Sketch.</desc>
    <defs>
        <polygon id="path-1" points="0 0 28.792098 0 28.792098 26.6954454 0 26.6954454"></polygon>
    </defs>
    <g id="页面-1" stroke="none" stroke-width="1" fill="none" fill-rule="evenodd">
        <g id="管理-地块-投入品" transform="translate(-937.000000, -558.000000)">
            <g id="加工管理-正常icon备份" transform="translate(937.000000, 558.000000)">
                <circle id="椭圆形备份-7" fill="#FFFFFF" cx="30" cy="30" r="30"></circle>
                <g id="编组" transform="translate(15.600000, 16.800000)">
                    <mask id="mask-2" fill="white">
                        <use xlink:href="#path-1"></use>
                    </mask>
                    <g id="Clip-2"></g>
                    <path d="M26.4702978,24.6370734 L16.4676078,24.6370734 L16.4676078,12.2863554 C16.4642058,11.1508974 15.5446938,10.2313854 14.4092358,10.2279834 L9.9705978,10.2279834 L14.3463798,2.2676274 C14.3724618,2.2195134 14.4019458,2.1733434 14.4348318,2.1296034 C14.4677178,2.1733434 14.4972018,2.2195134 14.5232838,2.2676274 L26.6365098,24.3550314 C26.6817078,24.4308474 26.7134598,24.5136294 26.7304698,24.5999754 C26.6465538,24.6270294 26.5585878,24.6396654 26.4702978,24.6370734 L26.4702978,24.6370734 Z M2.0585178,24.6336714 L2.0585178,21.6136674 L14.4090738,21.6136674 L14.4090738,24.6336714 L14.4055098,24.6370734 L2.0620818,24.6370734 L2.0585178,24.6336714 Z M2.0585178,19.5552954 L14.4090738,19.5552954 L14.4090738,17.4969234 L2.0585178,17.4969234 L2.0585178,19.5552954 Z M2.0620818,12.2863554 L14.4055098,12.2863554 L14.4092358,12.2899194 L14.4092358,15.4383894 L2.0585178,15.4383894 L2.0585178,12.2899194 C2.0594898,12.2886234 2.0607858,12.2874894 2.0620818,12.2863554 L2.0620818,12.2863554 Z M28.4411898,23.3648874 L16.3284498,1.2779694 C15.8826258,0.4653774 15.1929918,-4.86e-05 14.4358038,-4.86e-05 C13.6791018,-4.86e-05 12.9884958,0.4653774 12.5429958,1.2771594 L7.6227318,10.2279834 L2.0585178,10.2279834 C0.9230598,10.2312234 0.0033858,11.1508974 -1.62e-05,12.2863554 L-1.62e-05,24.6370734 C0.0033858,25.7725314 0.9230598,26.6922054 2.0585178,26.6954454 L14.4090738,26.6954454 C14.4805158,26.6954454 14.5519578,26.6917194 14.6229138,26.6842674 C14.6692458,26.6907474 14.7160638,26.6938254 14.7628818,26.6938254 L26.4702978,26.6938254 C27.3828438,26.6938254 28.1296638,26.3165274 28.5191118,25.6589694 C28.9087218,25.0010874 28.8800478,24.1651674 28.4413518,23.3648874 L28.4411898,23.3648874 Z" id="Fill-1" fill="#1478FE" mask="url(#mask-2)"></path>
                </g>
            </g>
        </g>
    </g>
</svg>