<?xml version="1.0" encoding="UTF-8"?>
<svg width="60px" height="60px" viewBox="0 0 60 60" version="1.1" xmlns="http://www.w3.org/2000/svg" xmlns:xlink="http://www.w3.org/1999/xlink">
    <!-- Generator: Sketch 63 (92445) - https://sketch.com -->
    <title>投入品-正常</title>
    <desc>Created with Sketch.</desc>
    <defs>
        <polygon id="path-1" points="2.88e-05 2.88e-05 28.8 2.88e-05 28.8 28.8 2.88e-05 28.8"></polygon>
    </defs>
    <g id="页面-1" stroke="none" stroke-width="1" fill="none" fill-rule="evenodd">
        <g id="管理-地块-作物信息" transform="translate(-535.000000, -665.000000)">
            <g id="编组-3" transform="translate(386.000000, 665.000000)">
                <g id="投入品-正常" transform="translate(149.000000, 0.000000)">
                    <circle id="椭圆形备份" fill="#1478FE" cx="30" cy="30" r="30"></circle>
                    <g id="编组" transform="translate(15.600000, 15.600000)">
                        <g>
                            <mask id="mask-2" fill="white">
                                <use xlink:href="#path-1"></use>
                            </mask>
                            <g id="Clip-2"></g>
                            <path d="M6.6348288,25.8048374 C5.8714848,25.8067008 5.1388128,25.5038688 4.5993888,24.9638688 L3.8359008,24.2002368 C2.7151488,23.0796288 2.7144288,21.2527008 3.8350368,20.1276288 L4.5885888,19.3742208 C4.8696768,19.0929888 5.3255808,19.0928448 5.6068128,19.3739328 C5.8880448,19.6550208 5.8880448,20.1109248 5.6069568,20.3921568 L4.8545568,21.1447008 C4.2942528,21.7083168 4.2942528,22.6185408 4.8545568,23.1821568 L5.6181888,23.9457888 C6.1783488,24.5062368 7.0930368,24.5062368 7.6567968,23.9446368 L8.4081888,23.1929568 C8.6892768,22.9117248 9.1451808,22.9117248 9.4264128,23.1928128 C9.7076448,23.4739008 9.7077888,23.9298048 9.4265568,24.2111808 L8.6741568,24.9638688 C8.1327168,25.5032928 7.3991808,25.8058368 6.6348288,25.8048374 M23.7019968,9.63722961 C23.3044128,9.6373728 22.9818528,9.3151008 22.9818528,8.9173728 C22.9818528,8.7262848 23.0577408,8.5428288 23.1929568,8.4077568 L23.9457888,7.6553568 C24.5063808,7.0915968 24.5063808,6.1809408 23.9457888,5.6170368 L23.1821568,4.8538368 C22.6214208,4.2929568 21.7068768,4.2936768 21.1435488,4.8545568 L20.3921568,5.6059488 C20.1109248,5.8870368 19.6550208,5.8870368 19.3739328,5.6058048 C19.0928448,5.3244288 19.0929888,4.8686688 19.3742208,4.5874368 L20.1264768,3.8350368 C21.2522688,2.7139968 23.0796288,2.7139968 24.2002368,3.8350368 L24.9638688,4.5982368 C26.0844768,5.7192768 26.0851968,7.5467808 24.9648768,8.6719968 L24.2111808,9.4255488 C24.0765408,9.5613408 23.8932288,9.6375168 23.7019968,9.63722961 M5.0976288,9.63722962 C4.9066848,9.6375168 4.7235168,9.5616288 4.5885888,9.4265568 L3.8361888,8.6741568 C2.7147168,7.5477888 2.7151488,5.7204288 3.8361888,4.5993888 L4.5996768,3.8361888 C5.7204288,2.7147168 7.5477888,2.7144288 8.6731488,3.8350368 L9.4265568,4.5885888 C9.7077888,4.8698208 9.7077888,5.3257248 9.4265568,5.6069568 C9.1453248,5.8881888 8.6894208,5.8881888 8.4081888,5.6069568 L7.6557888,4.8545568 C7.0920288,4.2942528 6.1815168,4.2942528 5.6179008,4.8545568 L4.8545568,5.6179008 C4.2941088,6.1787808 4.2943968,7.0934688 4.8557088,7.6572288 L5.6069568,8.4081888 C5.8880448,8.6894208 5.8880448,9.1453248 5.6068128,9.4264128 C5.4717408,9.5614848 5.2885728,9.63722962 5.0976288,9.63722962 M22.1645088,25.805123 C21.4008768,25.8064128 20.6679168,25.5041568 20.1271968,24.9648768 L19.3737888,24.2111808 C19.0878048,23.9348448 19.0798848,23.4790848 19.3560768,23.1929568 C19.6324128,22.9069728 20.0881728,22.8990528 20.3741568,23.1752448 C20.3802048,23.1811488 20.3861088,23.1869088 20.3918688,23.1929568 L21.1442688,23.9457888 C21.7068768,24.5056608 22.6214208,24.5069568 23.1825888,23.9457888 L23.9450688,23.1825888 C24.5058048,22.6185408 24.5056608,21.7071648 23.9443488,21.1435488 L23.1929568,20.3921568 C22.9069728,20.1159648 22.8990528,19.6600608 23.1752448,19.3740768 C23.4515808,19.0880928 23.9073408,19.0801728 24.1934688,19.3565088 C24.1995168,19.3622688 24.2054208,19.3681728 24.2111808,19.3740768 L24.9634368,20.1264768 C26.0847648,21.2527008 26.0840448,23.0796288 24.9634368,24.2002368 L24.2009568,24.9634368 C23.6611008,25.5037248 22.9281408,25.8067008 22.1645088,25.805123 M3.9420288,17.8200288 L2.8800288,17.8200288 C1.2919968,17.8200288 2.88e-05,16.5279168 2.88e-05,14.9400288 L2.88e-05,13.8600288 C2.88e-05,12.2719968 1.2919968,10.9800288 2.8800288,10.9800288 L3.9420288,10.9800288 C4.3396128,10.9800288 4.6620288,11.3024448 4.6620288,11.7000288 C4.6620288,12.0976128 4.3396128,12.4200288 3.9420288,12.4200288 L2.8800288,12.4200288 C2.0858688,12.4200288 1.4400288,13.0658688 1.4400288,13.8600288 L1.4400288,14.9400288 C1.4400288,15.7340448 2.0858688,16.3800288 2.8800288,16.3800288 L3.9420288,16.3800288 C4.3396128,16.3800288 4.6620288,16.7023008 4.6620288,17.1000288 C4.6620288,17.4977568 4.3396128,17.8200288 3.9420288,17.8200288 M25.9200288,17.8200288 L24.8580288,17.8200288 C24.4603008,17.8200288 24.1380288,17.4977568 24.1380288,17.1000288 C24.1380288,16.7023008 24.4603008,16.3800288 24.8580288,16.3800288 L25.9200288,16.3800288 C26.7140448,16.3800288 27.3600288,15.7340448 27.3600288,14.9400288 L27.3600288,13.8600288 C27.3600288,13.0658688 26.7140448,12.4200288 25.9200288,12.4200288 L24.8580288,12.4200288 C24.4603008,12.4200288 24.1380288,12.0976128 24.1380288,11.7000288 C24.1380288,11.3024448 24.4603008,10.9800288 24.8580288,10.9800288 L25.9200288,10.9800288 C27.5079168,10.9800288 28.8000288,12.2719968 28.8000288,13.8600288 L28.8000288,14.9400288 C28.8000288,16.5279168 27.5079168,17.8200288 25.9200288,17.8200288 M17.1000288,4.6620288 C16.7023008,4.6620288 16.3800288,4.3396128 16.3800288,3.9420288 L16.3800288,2.8800288 C16.3800288,2.0858688 15.7340448,1.4400288 14.9400288,1.4400288 L13.8600288,1.4400288 C13.0658688,1.4400288 12.4200288,2.0858688 12.4200288,2.8800288 L12.4200288,3.9420288 C12.4200288,4.3396128 12.0976128,4.6620288 11.7000288,4.6620288 C11.3024448,4.6620288 10.9800288,4.3396128 10.9800288,3.9420288 L10.9800288,2.8800288 C10.9800288,1.2919968 12.2719968,2.88e-05 13.8600288,2.88e-05 L14.9400288,2.88e-05 C16.5279168,2.88e-05 17.8200288,1.2919968 17.8200288,2.8800288 L17.8200288,3.9420288 C17.8200288,4.3396128 17.4977568,4.6620288 17.1000288,4.6620288 M14.9400288,28.8000288 L13.8600288,28.8000288 C12.2719968,28.8000288 10.9800288,27.5079168 10.9800288,25.9200288 L10.9800288,24.8580288 C10.9800288,24.4603008 11.3024448,24.1380288 11.7000288,24.1380288 C12.0976128,24.1380288 12.4200288,24.4603008 12.4200288,24.8580288 L12.4200288,25.9200288 C12.4200288,26.7140448 13.0658688,27.3600288 13.8600288,27.3600288 L14.9400288,27.3600288 C15.7340448,27.3600288 16.3800288,26.7140448 16.3800288,25.9200288 L16.3800288,24.8580288 C16.3800288,24.4603008 16.7023008,24.1380288 17.1000288,24.1380288 C17.4977568,24.1380288 17.8200288,24.4603008 17.8200288,24.8580288 L17.8200288,25.9200288 C17.8200288,27.5079168 16.5279168,28.8000288 14.9400288,28.8000288" id="Fill-1" fill="#FFFFFF" mask="url(#mask-2)"></path>
                        </g>
                        <path d="M14.4,11.16 C12.61368,11.16 11.16,12.61368 11.16,14.4 C11.16,16.186608 12.61368,17.64 14.4,17.64 C16.186608,17.64 17.64,16.186608 17.64,14.4 C17.64,12.61368 16.186608,11.16 14.4,11.16 M14.4,19.08 C11.81952,19.08 9.72,16.98048 9.72,14.4 C9.72,11.81952 11.81952,9.72 14.4,9.72 C16.98048,9.72 19.08,11.81952 19.08,14.4 C19.08,16.98048 16.98048,19.08 14.4,19.08 M19.882368,5.81788846 C19.753488,5.81788846 19.626768,5.783184 19.515888,5.717232 C18.7056,5.237424 17.831808,4.874544 16.92,4.639248 C16.538112,4.527792 16.318944,4.12776 16.430544,3.745872 C16.537104,3.380976 16.909056,3.161664 17.28,3.24504 C18.323136,3.514176 19.323072,3.929472 20.25,4.4784 C20.592144,4.681008 20.705328,5.122656 20.50272,5.4648 C20.372976,5.683968 20.137104,5.818176 19.882368,5.81788846 M23.70168,20.6028005 C23.304384,20.603088 22.982256,20.281392 22.981824,19.884096 C22.981824,19.75464 23.016672,19.627344 23.082912,19.515888 C23.56272,18.705744 23.925456,17.831808 24.160608,16.92 C24.260112,16.5348 24.6528,16.303248 25.038,16.402608 C25.4232,16.502112 25.654752,16.8948 25.555392,17.28 C25.286256,18.323136 24.87096,19.323072 24.321888,20.25 C24.192144,20.469024 23.956272,20.603088 23.70168,20.6028005 M11.700288,25.578 C11.63952,25.577856 11.57904,25.570224 11.52,25.555392 C10.47672,25.2864 9.476928,24.871104 8.55,24.321888 C8.21016,24.115536 8.10216,23.672592 8.308656,23.332752 C8.51184,22.99824 8.945136,22.88736 9.284112,23.0832 C10.094112,23.563008 10.968048,23.925888 11.879712,24.16104 C12.277296,24.160176 12.600288,24.482016 12.6010097,24.8796 C12.601872,25.277328 12.280032,25.600176 11.882448,25.601042 C11.82096,25.601184 11.759904,25.593408 11.700288,25.578 M3.94272,12.4200002 C3.545136,12.420288 3.222432,12.09816 3.222144,11.700576 C3.222144,11.639664 3.229776,11.57904 3.24504,11.52 C3.514176,10.476864 3.929328,9.476928 4.4784,8.55 C4.684896,8.21016 5.12784,8.10216 5.46768,8.308656 C5.802048,8.51184 5.912928,8.945136 5.717232,9.284112 C5.23728,10.094112 4.8744,10.968048 4.639248,11.879712 C4.557456,12.19752 4.270896,12.419712 3.94272,12.4200002 M5.09832,20.6028001 C4.843728,20.602944 4.608,20.469024 4.478112,20.25 C3.929328,19.323072 3.514176,18.323136 3.24504,17.28 C3.15432,16.89264 3.3948,16.504992 3.78216,16.414272 C4.15728,16.326432 4.534992,16.549344 4.63968,16.92 C4.874976,17.831808 5.237856,18.7056 5.71752,19.515888 C5.920128,19.858032 5.806944,20.299824 5.4648,20.502288 C5.35392,20.568096 5.227344,20.602656 5.09832,20.6028001 M17.099568,25.578 C16.701696,25.57656 16.380432,25.252992 16.3817241,24.85512 C16.38288,24.528384 16.60392,24.243264 16.92,24.160608 C17.831808,23.925456 18.705744,23.56272 19.515888,23.082912 C19.860336,22.883904 20.300688,23.00184 20.499408,23.346288 C20.695248,23.68512 20.584368,24.118272 20.25,24.3216 C19.323072,24.870384 18.323136,25.28568 17.28,25.55496 C17.221104,25.57008 17.16048,25.577856 17.099568,25.578 M24.857568,12.42 C24.529536,12.419712 24.242976,12.197664 24.160608,11.88 C23.9256,10.968192 23.56272,10.0944 23.082912,9.2844 C22.883904,8.940096 23.00184,8.499744 23.346288,8.30088 C23.68512,8.10504 24.118272,8.21592 24.3216,8.550288 C24.870672,9.477216 25.285968,10.477152 25.55496,11.520288 C25.653888,11.905632 25.421904,12.29832 25.03656,12.397392 C24.978096,12.412368 24.918048,12.42 24.857568,12.42 M8.91792,5.81788921 C8.520192,5.818608 8.197488,5.496768 8.19676696,5.09904 C8.196336,4.844304 8.330688,4.608144 8.55,4.4784 C9.476928,3.929328 10.47672,3.514032 11.52,3.24504 C11.90736,3.15432 12.294864,3.3948 12.385728,3.78216 C12.473568,4.15728 12.2508,4.534992 11.88,4.63968 C10.968192,4.874832 10.0944,5.237568 9.2844,5.71752 C9.1692,5.7852 9.042768,5.81788921 8.91792,5.81788921" id="Fill-3" fill="#FFFFFF"></path>
                    </g>
                </g>
            </g>
        </g>
    </g>
</svg>