<?xml version="1.0" encoding="UTF-8"?>
<svg width="60px" height="60px" viewBox="0 0 60 60" version="1.1" xmlns="http://www.w3.org/2000/svg" xmlns:xlink="http://www.w3.org/1999/xlink">
    <!-- Generator: Sketch 63 (92445) - https://sketch.com -->
    <title>作物信息-选中</title>
    <desc>Created with Sketch.</desc>
    <defs>
        <polygon id="path-1" points="0 0 28.8 0 28.8 20.4 0 20.4"></polygon>
    </defs>
    <g id="页面-1" stroke="none" stroke-width="1" fill="none" fill-rule="evenodd">
        <g id="管理-地块-投入品" transform="translate(-388.000000, -665.000000)">
            <g id="编组-10" transform="translate(386.000000, 665.000000)">
                <g id="作物信息-选中" transform="translate(2.000000, 0.000000)">
                    <circle id="椭圆形" fill="#1478FE" cx="30" cy="30" r="30"></circle>
                    <g id="编组" transform="translate(15.600000, 20.400000)">
                        <mask id="mask-2" fill="white">
                            <use xlink:href="#path-1"></use>
                        </mask>
                        <g id="Clip-2"></g>
                        <path d="M4.201824,4.241856 C4.201824,7.451856 4.951824,12.551856 7.036944,14.636976 C9.351984,16.463856 12.709824,16.068096 14.536944,13.753056 C16.067664,11.813376 16.067664,9.076656 14.536944,7.136976 C12.496944,4.976976 7.411824,4.241856 4.201824,4.241856 L4.201824,4.241856 Z M17.323824,16.126416 C19.142064,16.586016 21.067344,16.034496 22.366704,14.681856 C24.481824,12.566976 25.156704,7.511856 25.216704,4.331856 C21.483264,4.487856 19.026384,5.011536 17.421504,5.597856 C19.918944,8.676816 19.878624,13.095216 17.325264,16.127856 L17.323824,16.126416 Z M14.684037,17.7088805 C13.4894925,18.3051241 12.1618297,18.6177721 10.8130369,18.620924 C8.66623775,18.6157608 6.61311455,17.7844166 5.11993403,16.316379 C1.61283803,12.9780405 1.34871412,5.54734318 1.53935289,3.20080719 C1.56987388,2.46734709 2.19179765,1.88138353 2.9628047,1.85992949 C5.04644889,1.71891385 10.9393468,1.86551648 14.8338246,3.92711595 C17.4116739,2.64501338 21.3092038,1.96608231 26.4111386,1.90172018 C27.1936498,1.90104974 27.839286,2.4847785 27.8784937,3.22874215 C27.8784937,3.32662622 28.3332564,12.4613556 24.2540093,16.3443139 C22.7695155,17.7958141 20.7330615,18.6164312 18.6048097,18.620924 C17.2395825,18.6240295 15.8940766,18.3107111 14.684037,17.7088805 L14.684037,17.7088805 Z" id="Fill-1" fill="#FFFFFF" mask="url(#mask-2)"></path>
                    </g>
                </g>
            </g>
        </g>
    </g>
</svg>