<?xml version="1.0" encoding="UTF-8"?>
<svg width="60px" height="60px" viewBox="0 0 60 60" version="1.1" xmlns="http://www.w3.org/2000/svg" xmlns:xlink="http://www.w3.org/1999/xlink">
    <!-- Generator: Sketch 63 (92445) - https://sketch.com -->
    <title>农用机使用-正常icon</title>
    <desc>Created with Sketch.</desc>
    <defs>
        <polygon id="path-1" points="0 0 28.7999568 0 28.7999568 22.2296832 0 22.2296832"></polygon>
    </defs>
    <g id="页面-1" stroke="none" stroke-width="1" fill="none" fill-rule="evenodd">
        <g id="管理-地块-投入品" transform="translate(-1565.000000, -665.000000)">
            <g id="编组-10" transform="translate(386.000000, 665.000000)">
                <g id="农用机使用-正常icon" transform="translate(1179.000000, 0.000000)">
                    <circle id="椭圆形备份-11" fill="#1478FE" cx="30" cy="30" r="30"></circle>
                    <g id="编组" transform="translate(15.600000, 19.200000)">
                        <mask id="mask-2" fill="white">
                            <use xlink:href="#path-1"></use>
                        </mask>
                        <g id="Clip-2"></g>
                        <path d="M22.3578288,20.4972192 C19.7610768,20.4972192 17.6481648,18.3840192 17.6481648,15.7872672 C17.6481648,13.1906592 19.7610768,11.0780352 22.3578288,11.0780352 C24.9547248,11.0780352 27.0677808,13.1906592 27.0677808,15.7872672 C27.0677808,18.3840192 24.9547248,20.4972192 22.3578288,20.4972192 L22.3578288,20.4972192 Z M7.3615248,17.2271232 C6.8523408,15.7342752 5.4515088,14.6505312 3.7894608,14.6505312 C3.3715728,14.6505312 2.9774448,14.7352032 2.6010288,14.8604832 L2.6010288,10.2524832 C2.6010288,9.8011872 2.9443248,9.3347712 3.5187408,9.3347712 L11.9122128,9.3347712 C12.2604048,9.3347712 12.5747568,9.1262592 12.7098288,8.8052832 L15.2905968,2.6880192 C15.7295088,1.8980352 15.8377968,1.7322912 16.8190128,1.7322912 L22.7865168,1.7322912 C23.1044688,1.7322912 23.3623728,1.9901952 23.3626608,2.3081472 C23.3626608,2.3368032 23.3642448,2.3660352 23.3669808,2.3948352 L24.0910128,9.5893632 C23.5271088,9.4293792 22.9439088,9.3472992 22.3578288,9.3458592 C18.8062128,9.3458592 15.9158448,12.2356512 15.9158448,15.7875552 C15.9158448,16.2832032 15.9774768,16.7635872 16.0833168,17.2271232 L7.3615248,17.2271232 Z M3.7894608,20.4972192 C2.6550288,20.4972192 1.7322768,19.5751872 1.7322768,18.4398912 C1.7322768,17.3064672 2.6551728,16.3827072 3.7894608,16.3827072 C4.9237488,16.3827072 5.8466448,17.3063232 5.8466448,18.4398912 C5.8466448,19.5754752 4.9237488,20.4972192 3.7894608,20.4972192 L3.7894608,20.4972192 Z M25.9166448,10.4226912 L25.0945488,2.2596192 C25.0690608,1.0095552 24.0439248,-2.88e-05 22.7868048,-2.88e-05 L16.8191568,-2.88e-05 C14.9474448,-2.88e-05 14.3678448,0.7824672 13.7538288,1.8879552 C13.7387088,1.9150272 13.7250288,1.9429632 13.7130768,1.9716192 L11.3379408,7.6024512 L6.7254768,7.6024512 L6.7254768,2.9035872 C6.7254768,2.7064512 6.6586608,2.5156512 6.5351088,2.3618592 L5.3347248,0.8636832 C5.0354928,0.4908672 4.4907408,0.4309632 4.1174928,0.7296192 C3.7441008,1.0279872 3.6833328,1.5725952 3.9818448,1.9458432 C3.9821328,1.9462752 3.9825648,1.9468512 3.9828528,1.9472832 L4.9930128,3.2078592 L4.9930128,7.6024512 L3.5185968,7.6024512 C2.0568528,7.6024512 0.8685648,8.7913152 0.8685648,10.2524832 L0.8685648,16.0564032 C0.3341808,16.7092992 -4.32e-05,17.5324032 -4.32e-05,18.4400352 C-4.32e-05,20.5301952 1.7003088,22.2296832 3.7894608,22.2296832 C5.7010608,22.2296832 7.2710928,20.8017792 7.5264048,18.9595872 L16.7572368,18.9595872 C17.8654608,20.9093472 19.9589328,22.2296832 22.3578288,22.2296832 C25.9095888,22.2296832 28.7999568,19.3400352 28.7999568,15.7875552 C28.7999568,13.5510912 27.6521328,11.5780032 25.9166448,10.4226912 L25.9166448,10.4226912 Z" id="Fill-1" fill="#FFFFFF" mask="url(#mask-2)"></path>
                    </g>
                </g>
            </g>
        </g>
    </g>
</svg>