<?xml version="1.0" encoding="UTF-8"?>
<svg width="60px" height="60px" viewBox="0 0 60 60" version="1.1" xmlns="http://www.w3.org/2000/svg" xmlns:xlink="http://www.w3.org/1999/xlink">
    <!-- Generator: Sketch 63 (92445) - https://sketch.com -->
    <title>采收管理-正常icon备份</title>
    <desc>Created with Sketch.</desc>
    <g id="页面-1" stroke="none" stroke-width="1" fill="none" fill-rule="evenodd">
        <g id="管理-地块-投入品" transform="translate(-799.000000, -558.000000)">
            <g id="采收管理-正常icon备份" transform="translate(799.000000, 558.000000)">
                <circle id="椭圆形备份-7" fill="#FFFFFF" cx="30" cy="30" r="30"></circle>
                <g id="编组" transform="translate(18.000000, 18.000000)" fill="#1478FE">
                    <path d="M18.8416368,14.8480704 L15.8016528,17.5135104 L8.5184208,17.5135104 L5.4784368,14.8480704 L-4.32e-05,14.8480704 L-4.32e-05,24.3199584 L24.3199728,24.3199584 L24.3199728,14.8480704 L18.8416368,14.8480704 Z M16.3583568,18.9856224 L19.3983408,16.3198944 L22.8481488,16.3198944 L22.8481488,22.8479904 L1.4720688,22.8479904 L1.4720688,16.3198944 L4.9215888,16.3198944 L7.9615728,18.9856224 L16.3583568,18.9856224 Z" id="Fill-1"></path>
                    <polygon id="Fill-2" points="4.15044 5.76e-05 7.2e-05 14.9279616 1.41444 15.3439776 5.254344 1.4720256 19.065528 1.4720256 22.905576 15.3439776 24.319944 14.9279616 20.169576 5.76e-05"></polygon>
                    <path d="M13.05288,13.4208 L14.524848,13.4208 L14.524848,8.972784 L13.05288,8.972784 L13.05288,13.4208 Z M16.307136,13.420944 L17.779248,13.420944 L17.779248,6.032016 L16.307136,6.032016 L16.307136,13.420944 Z M9.795168,13.4208 L11.267136,13.4208 L11.267136,3.820752 L9.795168,3.820752 L9.795168,13.4208 Z M6.540768,13.420944 L8.01288,13.420944 L8.01288,6.732864 L6.540768,6.732864 L6.540768,13.420944 Z" id="Fill-3"></path>
                </g>
            </g>
        </g>
    </g>
</svg>