<?xml version="1.0" encoding="UTF-8"?>
<svg width="60px" height="60px" viewBox="0 0 60 60" version="1.1" xmlns="http://www.w3.org/2000/svg" xmlns:xlink="http://www.w3.org/1999/xlink">
    <!-- Generator: Sketch 63 (92445) - https://sketch.com -->
    <title>受灾信息-正常icon</title>
    <desc>Created with Sketch.</desc>
    <defs>
        <polygon id="path-1" points="0 -3.75166564e-15 25.3640112 -3.75166564e-15 25.3640112 25.569984 0 25.569984"></polygon>
    </defs>
    <g id="页面-1" stroke="none" stroke-width="1" fill="none" fill-rule="evenodd">
        <g id="管理-地块-投入品" transform="translate(-1418.000000, -665.000000)">
            <g id="编组-10" transform="translate(386.000000, 665.000000)">
                <g id="受灾信息-正常icon" transform="translate(1032.000000, 0.000000)">
                    <circle id="椭圆形备份-10" fill="#1478FE" cx="30" cy="30" r="30"></circle>
                    <g id="编组" transform="translate(19.200000, 16.800000)">
                        <mask id="mask-2" fill="white">
                            <use xlink:href="#path-1"></use>
                        </mask>
                        <g id="Clip-2"></g>
                        <path d="M14.4749352,15.93207 L14.4340152,16.005594 C14.4671472,15.945534 14.4754632,15.929562 14.4746712,15.93207 L14.4749352,15.93207 Z M8.7186792,15.93207 L8.6763072,16.005594 C8.7108912,15.945534 8.7196032,15.929562 8.7184152,15.93207 L8.7186792,15.93207 Z M2.9625552,15.93207 L2.9216352,16.005594 C2.9550312,15.945534 2.9633472,15.929562 2.9625552,15.93207 L2.9625552,15.93207 Z M24.1943592,25.568994 L1.1697312,25.568994 C1.1641872,25.569126 1.1577192,25.569126 1.1512512,25.569126 C0.5154072,25.569126 -5.28e-05,25.053798 -5.28e-05,24.417822 C-5.28e-05,23.78211 0.5154072,23.26665 1.1512512,23.26665 C1.1577192,23.26665 1.1643192,23.26665 1.1707872,23.266782 L7.5110112,23.266782 L2.8755672,17.270946 C2.5262952,16.818846 2.9571432,15.946722 2.9625552,15.93207 L7.1132952,8.45757 C7.1267592,8.433282 7.1432592,8.41335 7.1593632,8.391174 L2.9042112,1.296306 C2.8310832,1.172226 2.7879192,1.022934 2.7879192,0.863478 C2.7879192,0.386562 3.1745472,-6.6e-05 3.6514632,-6.6e-05 C3.9596832,-6.6e-05 4.2301512,0.161502 4.3830072,0.404514 L8.6530752,7.726026 C8.9579952,8.318574 8.7895632,8.527398 8.6530752,8.87733 L4.5553992,16.62045 L9.5221632,23.046078 C9.5974032,23.152602 9.6488832,23.281302 9.6663072,23.420298 L13.2668712,23.268234 L8.6314272,17.270946 C8.2818912,16.818846 8.7130032,15.946722 8.7184152,15.93207 L12.8695512,8.45757 C12.8828832,8.433282 12.8993832,8.41335 12.9156192,8.391174 L8.6604672,1.296306 C8.5920912,1.175526 8.5516992,1.030854 8.5516992,0.876942 C8.5516992,0.400026 8.9383272,0.013398 9.4152432,0.013398 C9.7179192,0.013398 9.9841632,0.169158 10.1383392,0.404778 L14.4089352,7.726026 C14.7139872,8.318442 14.5454232,8.527398 14.4089352,8.877198 L10.3115232,16.62045 L15.2796072,23.045946 C15.3541872,23.152206 15.4052712,23.280246 15.4224312,23.418846 L19.0231272,23.267574 L14.3876832,17.270946 C14.0380152,16.818846 14.4689952,15.94659 14.4746712,15.93207 L18.6259392,8.457438 C18.6870552,8.360154 18.7651992,8.27937 18.8570712,8.217198 L14.4163272,1.296306 C14.3431992,1.172226 14.3000352,1.022934 14.3000352,0.863478 C14.3000352,0.386562 14.6866632,-6.6e-05 15.1634472,-6.6e-05 C15.4716672,-6.6e-05 15.7422672,0.161502 15.8949912,0.404514 L20.1650592,7.726026 C20.4701112,8.318574 20.3016792,8.527398 20.1650592,8.87733 L16.0673832,16.62045 L21.0342792,23.046078 C21.1088592,23.152338 21.1600752,23.280642 21.1772352,23.419506 L24.1942272,23.267574 C24.1997712,23.267574 24.2062392,23.267442 24.2127072,23.267442 C24.8485512,23.267442 25.3640112,23.783034 25.3640112,24.418746 C25.3640112,25.054458 24.8485512,25.57005 24.2127072,25.57005 C24.2062392,25.57005 24.1997712,25.57005 24.1933032,25.57005 L24.1943592,25.568994 Z" id="Fill-1" fill="#FFFFFF" mask="url(#mask-2)"></path>
                    </g>
                </g>
            </g>
        </g>
    </g>
</svg>