<?xml version="1.0" encoding="UTF-8"?>
<svg width="60px" height="60px" viewBox="0 0 60 60" version="1.1" xmlns="http://www.w3.org/2000/svg" xmlns:xlink="http://www.w3.org/1999/xlink">
    <!-- Generator: Sketch 63 (92445) - https://sketch.com -->
    <title>监测信息-正常icon</title>
    <desc>Created with Sketch.</desc>
    <g id="页面-1" stroke="none" stroke-width="1" fill="none" fill-rule="evenodd">
        <g id="管理-地块-投入品" transform="translate(-1271.000000, -665.000000)">
            <g id="编组-10" transform="translate(386.000000, 665.000000)">
                <g id="监测信息-正常icon" transform="translate(885.000000, 0.000000)">
                    <circle id="椭圆形备份-9" fill="#1478FE" cx="30" cy="30" r="30"></circle>
                    <path d="M30,31.1076923 C29.3881994,31.1076923 28.8923077,30.6118006 28.8923077,30 C28.8923077,29.3881994 29.3881994,28.8923077 30,28.8923077 C30.6118006,28.8923077 31.1076923,29.3881994 31.1076923,30 C31.1076923,30.6118006 30.6118006,31.1076923 30,31.1076923 L30,31.1076923 Z M42.0782769,28.8923077 C41.5471163,23.0683274 36.9318498,18.4548332 31.1076923,17.9261538 L31.1076923,22.2461538 L28.8923077,22.2461538 L28.8923077,17.9261538 C23.0681502,18.4548332 18.4527065,23.0683274 17.9217231,28.8923077 L22.2461538,28.8923077 L22.2461538,31.1076923 L17.9217231,31.1076923 C18.4527065,36.9316726 23.0681502,41.5451668 28.8923077,42.0738462 L28.8923077,37.7538462 L31.1076923,37.7538462 L31.1076923,42.0738462 C36.9318498,41.5451668 41.5471163,36.9316726 42.0782769,31.1076923 L37.7538462,31.1076923 L37.7538462,28.8923077 L42.0782769,28.8923077 Z M44.2936615,31.1076923 C43.7504492,38.1517292 38.1519065,43.7472591 31.1076923,44.2869268 L31.1076923,44.4 L28.8923077,44.4 L28.8923077,44.2892308 C21.8468529,43.750272 16.2476012,38.1529698 15.7063385,31.1076923 L15.6,31.1076923 L15.6,28.8923077 L15.7063385,28.8923077 C16.2476012,21.8470302 21.8468529,16.249728 28.8923077,15.7107692 L28.8923077,15.6 L31.1076923,15.6 L31.1076923,15.7107692 C38.1527926,16.2506142 43.7515126,21.8473846 44.2936615,28.8923077 L44.4,28.8923077 L44.4,31.1076923 L44.2936615,31.1076923 Z" id="Fill-1" fill="#FFFFFF"></path>
                </g>
            </g>
        </g>
    </g>
</svg>