<?xml version="1.0" encoding="UTF-8"?>
<svg width="21px" height="21px" viewBox="0 0 21 21" version="1.1" xmlns="http://www.w3.org/2000/svg" xmlns:xlink="http://www.w3.org/1999/xlink">
    <!-- Generator: Sketch 63 (92445) - https://sketch.com -->
    <title>合并形状 copy 5备份 4</title>
    <desc>Created with Sketch.</desc>
    <g id="页面-1" stroke="none" stroke-width="1" fill="none" fill-rule="evenodd" fill-opacity="0.6">
        <g id="企业数据-溯源-精选集锦备份" transform="translate(-542.000000, -610.000000)" fill="#FFFFFF">
            <g id="编组-11" transform="translate(530.000000, 532.000000)">
                <g id="编组-2" transform="translate(12.000000, 78.000000)">
                    <path d="M7.24264069,2.97056275 C7.4256511,2.97056275 7.59717917,3.0197245 7.74473908,3.1055622 L20.1066017,3.10660172 C20.6588865,3.10660172 21.1066017,3.55431697 21.1066017,4.10660172 C21.1066017,4.65888647 20.6588865,5.10660172 20.1066017,5.10660172 L8.24260172,5.10660172 L8.24264069,16.9705627 C8.24264069,17.5228475 7.79492544,17.9705627 7.24264069,17.9705627 C6.69035594,17.9705627 6.24264069,17.5228475 6.24264069,16.9705627 L6.24217396,4.60968348 C6.15598221,4.46190249 6.10660172,4.29001882 6.10660172,4.10660172 C6.10660172,3.79582127 6.24837133,3.5181529 6.47076702,3.33474012 C6.65419187,3.11233236 6.93186024,2.97056275 7.24264069,2.97056275 Z" id="合并形状-copy-5备份-4" transform="translate(13.606602, 10.606602) rotate(-45.000000) translate(-13.606602, -10.606602) "></path>
                </g>
            </g>
        </g>
    </g>
</svg>