<?xml version="1.0" encoding="UTF-8"?>
<svg width="44px" height="38px" viewBox="0 0 44 38" version="1.1" xmlns="http://www.w3.org/2000/svg" xmlns:xlink="http://www.w3.org/1999/xlink">
    <!-- Generator: Sketch 63 (92445) - https://sketch.com -->
    <title></title>
    <desc></desc>
    <defs>
        <polygon id="path-1" points="0 37.7132 43.516 37.7132 43.516 0 0 0"></polygon>
    </defs>
    <g id="页面-1" stroke="none" stroke-width="1" fill="none" fill-rule="evenodd">
        <g id="提示" transform="translate(-166.000000, -255.000000)">
            <g id="编组-5" transform="translate(38.000000, 235.000000)">
                <g id="编组" transform="translate(128.000000, 20.000000)">
                    <path d="M21.758,30.34118 C33.7746,30.34118 43.516,31.99158 43.516,34.02718 C43.516,36.06278 33.7746,37.71318 21.758,37.71318 C9.7414,37.71318 0,36.06278 0,34.02718 C0,31.99158 9.7414,30.34118 21.758,30.34118" id="Fill-1" fill-opacity="0.15" fill="#6C63FF"></path>
                    <path d="M20.184,21.4972 L24.336,21.4972 L24.336,13.1952 L20.184,13.1952 L20.184,21.4972 Z M20.184,28.4152 L24.336,28.4152 L24.336,24.2652 L20.184,24.2652 L20.184,28.4152 Z M5.946,33.9512 L38.574,33.9512 C39.5836,33.9458 40.3976,33.123 40.3922267,32.1134 C40.3904,31.8144 40.3156,31.5204 40.174,31.2572 L23.868,0.9612 C23.3902,0.0732 22.2828,-0.2594 21.3948,0.2184 C21.0798,0.3878 20.8214,0.6462 20.652,0.9612 L4.338,31.2572 C3.8598,32.1462 4.1928,33.2548 5.0818,33.733 C5.3474,33.876 5.6444,33.9512 5.946,33.9512 L5.946,33.9512 Z" id="Fill-3" fill="#2787F5"></path>
                    <mask id="mask-2" fill="white">
                        <use xlink:href="#path-1"></use>
                    </mask>
                    <g id="Clip-6"></g>
                    <path d="M20.184,22.4972 L24.336,22.4972 L24.336,14.1952 L20.184,14.1952 L20.184,22.4972 Z M20.184,29.4152 L24.336,29.4152 L24.336,25.2652 L20.184,25.2652 L20.184,29.4152 Z M5.946,34.9512 L38.574,34.9512 C39.5836,34.9458 40.3976,34.123 40.3922267,33.1134 C40.3904,32.8144 40.3156,32.5204 40.174,32.2572 L23.868,1.9612 C23.3902,1.0732 22.2828,0.7406 21.3948,1.2184 C21.0798,1.3878 20.8214,1.6462 20.652,1.9612 L4.338,32.2572 C3.8598,33.1462 4.1928,34.2548 5.0818,34.733 C5.3474,34.876 5.6444,34.9512 5.946,34.9512 L5.946,34.9512 Z" id="Fill-5" fill-opacity="0.3" fill="#2787F5" mask="url(#mask-2)"></path>
                </g>
            </g>
        </g>
    </g>
</svg>