<?xml version="1.0" encoding="UTF-8"?>
<svg width="22px" height="20px" viewBox="0 0 22 20" version="1.1" xmlns="http://www.w3.org/2000/svg" xmlns:xlink="http://www.w3.org/1999/xlink">
    <!-- Generator: Sketch 63 (92445) - https://sketch.com -->
    <title></title>
    <desc></desc>
    <defs>
        <polygon id="path-1" points="0 0 21.837881 0 21.837881 20 0 20"></polygon>
    </defs>
    <g id="页面-1" stroke="none" stroke-width="1" fill="none" fill-rule="evenodd">
        <g id="概况备份-4" transform="translate(-1040.000000, -110.000000)">
            <g id="编组-3备份-2" transform="translate(120.000000, 90.000000)">
                <g id="温度备份-5" transform="translate(900.000000, 0.000000)">
                    <g id="分组-7">
                        <g id="编组" transform="translate(20.000000, 20.000000)">
                            <path d="M18.44186,12.48887 C18.82486,12.48887 19.13546,12.17837 19.13546,11.79527 C19.22816,7.30317 15.66176,3.58637 11.16956,3.49357 C6.67746,3.40087 2.96066,6.96727 2.86786,11.45937 C2.86556,11.57137 2.86556,11.68337 2.86786,11.79527 C2.86786,12.17837 3.17846,12.48887 3.56146,12.48887 C3.94446,12.48887 4.25506,12.17837 4.25506,11.79527 C4.17056,8.06927 7.12266,4.98017 10.84866,4.89567 C14.57476,4.81127 17.66386,7.76337 17.74826,11.48937 C17.75066,11.59127 17.75066,11.69337 17.74826,11.79527 C17.74826,12.17837 18.05886,12.48887 18.44186,12.48887" id="Fill-1" fill="#29E3FD"></path>
                            <g>
                                <mask id="mask-2" fill="white">
                                    <use xlink:href="#path-1"></use>
                                </mask>
                                <g id="Clip-4"></g>
                                <path d="M10.92018,-2.7533531e-13 C4.88528,0.0038 -0.00382,4.8992 -2.22136304e-05,10.934 C0.00218,14.4145 1.66228,17.6856 4.47008,19.7423 C4.77918,19.9685 5.21318,19.9012 5.43928,19.5921 C5.43988,19.5913 5.44048,19.5904 5.44098,19.5896 C5.66548,19.2803 5.59728,18.8475 5.28848,18.6222 C1.03678,15.5137 0.10998,9.547 3.21858,5.2953 C6.32708,1.0436 12.29368,0.1169 16.54538,3.2254 C20.79718,6.334 21.72378,12.3006 18.61528,16.5522 C17.99708,17.3979 17.24358,18.1359 16.38538,18.7366 C16.07138,18.9568 15.99528,19.39 16.21548,19.7041 C16.43578,20.0183 16.86888,20.0943 17.18308,19.874 C22.12428,16.4095 23.32148,9.5952 19.85678,4.6539 C17.81368,1.7398 14.47918,0.0034 10.92018,-2.7533531e-13" id="Fill-3" fill="#29E3FD" mask="url(#mask-2)"></path>
                            </g>
                            <path d="M12.06451,9.66953 C10.99671,9.20343 9.74931,9.50543 9.01281,10.40823 L6.96681,9.51693 C6.62691,9.34043 6.20821,9.47293 6.03171,9.81283 C5.85521,10.15283 5.98761,10.57153 6.32761,10.74803 C6.35601,10.76273 6.38531,10.77553 6.41551,10.78623 L8.46151,11.67743 C8.25421,13.09683 9.23691,14.41553 10.65631,14.62283 C12.07571,14.83013 13.39451,13.84743 13.60171,12.42803 C13.77131,11.26693 13.14131,10.13623 12.06451,9.66953" id="Fill-5" fill="#29E3FD"></path>
                        </g>
                    </g>
                </g>
            </g>
        </g>
    </g>
</svg>