<?xml version="1.0" encoding="UTF-8"?>
<svg width="20px" height="22px" viewBox="0 0 20 22" version="1.1" xmlns="http://www.w3.org/2000/svg" xmlns:xlink="http://www.w3.org/1999/xlink">
    <!-- Generator: Sketch 63 (92445) - https://sketch.com -->
    <title></title>
    <desc></desc>
    <g id="页面-1" stroke="none" stroke-width="1" fill="none" fill-rule="evenodd">
        <g id="概况备份-4" transform="translate(-1490.000000, -109.000000)" fill="#29E3FD">
            <g id="编组-3备份-2" transform="translate(120.000000, 90.000000)">
                <g id="温度备份-14" transform="translate(1350.000000, 0.000000)">
                    <g id="分组-7">
                        <g id="编组-7" transform="translate(20.000000, 19.000000)">
                            <path d="M10.578125,11 C10.34498,11 10.15625,11.208768 10.15625,11.4666667 L10.15625,13.3333333 L8.46875,13.3333333 L8.46875,11.4666667 C8.46875,11.208768 8.28002,11 8.046875,11 C7.81373,11 7.625,11.208768 7.625,11.4666667 L7.625,16.1333333 C7.625,16.391232 7.81373,16.6 8.046875,16.6 C8.28002,16.6 8.46875,16.391232 8.46875,16.1333333 L8.46875,14.2666667 L10.15625,14.2666667 L10.15625,16.1333333 C10.15625,16.391232 10.34498,16.6 10.578125,16.6 C10.81127,16.6 11,16.391232 11,16.1333333 L11,11.4666667 C11,11.208768 10.81127,11 10.578125,11 M6.265625,15.6666667 L5.84375,15.6666667 L5.84375,14.7333333 L6.265625,14.7333333 C6.49823,14.7333333 6.6875,14.9426987 6.6875,15.2 C6.6875,15.4573013 6.49823,15.6666667 6.265625,15.6666667 M6.265625,13.8 L5.421875,13.8 C5.18873,13.8 5,14.008768 5,14.2666667 L5,17.5333333 C5,17.791232 5.18873,18 5.421875,18 C5.65502,18 5.84375,17.791232 5.84375,17.5333333 L5.84375,16.6 L6.265625,16.6 C6.963575,16.6 7.53125,15.9720533 7.53125,15.2 C7.53125,14.4279467 6.963575,13.8 6.265625,13.8" id="Fill-3"></path>
                            <path d="M4.73783586,18.3963013 C3.08214421,16.7224521 2.18899861,14.4229005 3.26384011,12.25 L8.0011418,3.3 L12.5819358,11.9525179 C13.666509,14.1254184 12.9201394,16.732901 11.2644477,18.3963013 C9.43808869,20.2678996 6.56434017,20.2678996 4.73783586,18.3963013 Z M8.88919153,0.512201544 C8.53951805,-0.170733848 7.47041351,-0.170733848 7.12074004,0.512201544 L1.36835558,11.2974821 C-0.170327618,14.334204 0.895562966,17.7025349 3.26384011,20.0350437 C4.59268924,21.3485871 6.29129597,22 7.99994475,22 C9.70859354,22 11.4073501,21.3380271 12.7361993,20.0350437 C15.1043265,17.7025349 16.0234458,14.0367219 14.4847626,11 L8.88919153,0.512201544 Z" id="Fill-1"></path>
                            <path d="M14.9368058,2.32594644 C15.1615959,1.89135119 15.8488774,1.89135119 16.0736675,2.32594644 L16.0736675,2.32594644 L19.4525526,8.94567559 C20.4417061,10.878135 20.0691114,13.2652495 18.5467439,14.7495733 C17.6924838,15.5787445 15.6502065,15.9 14.5517894,15.9 C14.2037628,15.9 11.8538769,8.35450809 12.0050347,8.05892434 C12.6565394,6.78492925 13.6337964,4.87393662 14.9368058,2.32594644 Z M15.5027784,4.1 L13.0020444,8.94567559 C12.9118191,9.12623269 14.3640707,14.4240228 14.9135454,14.5389847 C15.8518607,14.7353003 16.8601474,14.4578845 17.6006179,13.7067372 C18.6649911,12.6482097 18.9265324,10.9345782 18.2293068,9.55182336 L18.2293068,9.55182336 L15.5027784,4.1 Z" id="形状结合"></path>
                        </g>
                    </g>
                </g>
            </g>
        </g>
    </g>
</svg>