<?xml version="1.0" encoding="UTF-8"?>
<svg width="23px" height="22px" viewBox="0 0 23 22" version="1.1" xmlns="http://www.w3.org/2000/svg" xmlns:xlink="http://www.w3.org/1999/xlink">
    <!-- Generator: Sketch 63 (92445) - https://sketch.com -->
    <title></title>
    <desc></desc>
    <g id="页面-1" stroke="none" stroke-width="1" fill="none" fill-rule="evenodd">
        <g id="概况备份-3" transform="translate(-890.000000, -109.000000)" fill="#29E3FD">
            <g id="编组-3备份-3" transform="translate(120.000000, 90.000000)">
                <g id="温度备份-7" transform="translate(750.000000, 0.000000)">
                    <g id="分组-7">
                        <g id="编组" transform="translate(20.000000, 19.000000)">
                            <path d="M21.941557,9.814057 C21.561837,9.814057 21.254057,10.121837 21.254057,10.501557 C21.248337,16.090217 16.719197,20.619247 11.130647,20.624967 C10.750927,20.624967 10.443147,20.932747 10.443147,21.312467 C10.443147,21.692187 10.750927,21.999967 11.130647,21.999967 C17.477867,21.992377 22.621467,16.848777 22.629057,10.501557 C22.629057,10.121837 22.321277,9.814057 21.941557,9.814057" id="Fill-1"></path>
                            <path d="M11.130625,17.232182 C10.750905,17.232182 10.443125,17.539962 10.443125,17.919682 C10.443125,18.299402 10.750905,18.607182 11.130625,18.607182 C15.580785,18.599592 19.185815,14.993022 19.191535,10.542752 C19.191535,10.163142 18.883755,9.855252 18.504035,9.855252 C18.124315,9.855252 17.816535,10.163142 17.816535,10.542752 C17.812795,14.234352 14.822225,17.226462 11.130625,17.232182" id="Fill-3"></path>
                            <path d="M4.599375,14.183125 L2.385625,16.355625 C2.114145,16.622375 2.110295,17.058745 2.377045,17.330115 C2.643795,17.601595 3.080055,17.605445 3.351535,17.338695 L5.561875,15.166305 C5.833355,14.900435 5.837975,14.464945 5.572215,14.193465 C5.306455,13.921985 4.870855,13.917365 4.599375,14.183125 L4.599375,14.183125 Z M10.216305,4.434375 C10.595915,4.434375 10.903805,4.126595 10.903805,3.746875 L10.903805,0.687445 C10.903805,0.307835 10.595915,5.5e-05 10.216305,5.5e-05 C9.836585,5.5e-05 9.528805,0.307835 9.528805,0.687445 L9.528805,3.746875 C9.528805,4.126595 9.836585,4.434375 10.216305,4.434375 L10.216305,4.434375 Z M5.307445,6.208125 C5.565175,6.487085 6.000115,6.504245 6.279075,6.246625 C6.557925,5.988895 6.575085,5.553955 6.317465,5.275105 C6.302395,5.258825 6.286555,5.243205 6.270055,5.228465 L4.059715,3.055965 C3.789115,2.789215 3.353625,2.792295 3.086875,3.062785 C2.820125,3.333385 2.823205,3.768875 3.093695,4.035625 L5.307445,6.208125 Z M15.042555,6.38687513 C15.222295,6.386985 15.395215,6.316695 15.523805,6.190965 L17.734035,4.014945 C18.017395,3.762385 18.042365,3.327665 17.789695,3.044305 C17.537025,2.760945 17.102415,2.735975 16.819055,2.988645 C16.802555,3.003385 16.786605,3.019005 16.771535,3.035285 L14.557785,5.211195 C14.288175,5.478605 14.286415,5.913985 14.553825,6.183485 C14.683075,6.313835 14.859075,6.386985 15.042555,6.38687513 L15.042555,6.38687513 Z M6.596535,10.333125 C6.573765,8.176575 8.303515,6.409865 10.460065,6.387095 C12.616725,6.364325 14.383325,8.094075 14.406095,10.250625 C14.428865,12.407175 12.699225,14.173885 10.542565,14.196655 C10.528925,14.196765 10.515285,14.1968999 10.501535,14.1968999 C8.357745,14.204465 6.611715,12.476805 6.596535,10.333125 L6.596535,10.333125 Z M15.781535,10.333125 C15.804305,7.417135 13.458995,5.034755 10.543005,5.011985 C7.627015,4.989215 5.244635,7.334635 5.221865,10.250625 C5.199095,13.166615 7.544515,15.548885 10.460505,15.571655 C10.474145,15.571765 10.487895,15.5718763 10.501535,15.5718763 C13.402345,15.573855 15.760745,13.233825 15.781535,10.333125 L15.781535,10.333125 Z" id="Fill-5"></path>
                            <path d="M4.46875,10.047807 C4.46875,9.668087 4.16097,9.360307 3.78125,9.360307 L0.6875,9.360307 C0.30778,9.360307 0,9.668087 0,10.047807 C0,10.427527 0.30778,10.735307 0.6875,10.735307 L3.78125,10.735307 C4.16097,10.735307 4.46875,10.427527 4.46875,10.047807" id="Fill-7"></path>
                        </g>
                    </g>
                </g>
            </g>
        </g>
    </g>
</svg>