<?xml version="1.0" encoding="UTF-8"?>
<svg width="14px" height="27px" viewBox="0 0 14 27" version="1.1" xmlns="http://www.w3.org/2000/svg" xmlns:xlink="http://www.w3.org/1999/xlink">
    <!-- Generator: Sketch 63 (92445) - https://sketch.com -->
    <title></title>
    <desc></desc>
    <defs>
        <polygon id="path-1" points="0 0.024864 13.7759328 0.024864 13.7759328 26.7118963 0 26.7118963"></polygon>
    </defs>
    <g id="页面-1" stroke="none" stroke-width="1" fill="none" fill-rule="evenodd">
        <g id="概况备份-4" transform="translate(-140.000000, -106.000000)">
            <g id="编组-3备份-2" transform="translate(120.000000, 90.000000)">
                <g id="温度">
                    <g id="分组-7">
                        <g id="编组" transform="translate(20.000000, 16.000000)">
                            <g transform="translate(0.000000, 0.143136)">
                                <mask id="mask-2" fill="white">
                                    <use xlink:href="#path-1"></use>
                                </mask>
                                <g id="Clip-2"></g>
                                <path d="M1.7330208,20.0794104 C1.8756528,18.2322504 2.9716848,16.5930744 4.6244688,15.7555944 C4.9258608,15.6121224 5.1207408,15.3112344 5.1284688,14.9775864 L5.1284688,10.6890504 L6.5431968,10.6890504 C6.9094368,10.6890504 7.2062928,10.3921944 7.2062928,10.0259544 C7.2062928,9.6597144 6.9094368,9.3628584 6.5431968,9.3628584 L5.1284688,9.3628584 L5.1284688,7.9303224 L6.5431968,7.9303224 C6.9094368,7.9303224 7.2062928,7.6334664 7.2062928,7.2672264 C7.2062928,6.9009864 6.9094368,6.6039624 6.5431968,6.6039624 L5.1284688,6.6039624 L5.1284688,5.1715944 L6.5431968,5.1715944 C6.9094368,5.1715944 7.2062928,4.8747384 7.2062928,4.5084984 C7.2062928,4.1420904 6.9094368,3.8452344 6.5431968,3.8452344 L5.1284688,3.8452344 L5.1284688,3.5623224 C5.1277968,2.5855704 5.9192448,1.7934504 6.8958288,1.79294568 C7.8725808,1.7924424 8.6647008,2.5837224 8.6652048,3.5603064 L8.6652048,14.9775864 C8.6643648,15.3014904 8.8407648,15.6001944 9.1250208,15.7555944 C10.7846928,16.5883704 11.8879488,18.2283864 12.0341088,20.0794104 C11.9973168,22.8040344 9.7587168,24.9829944 7.0340928,24.9462024 C6.9883968,24.9456984 6.9425328,24.9445224 6.8968368,24.9425064 C4.1293728,25.0219704 1.8197088,22.8465384 1.7330208,20.0794104 Z M10.4337408,3.5623224 C10.4340768,1.6089864 8.8508448,0.0252504 6.8975088,0.0247462396 C4.9441728,0.0244104 3.3604368,1.6076424 3.3599328,3.5609784 L3.3599328,14.4735864 C1.3694688,15.6591624 0.1072848,17.7648744 -6.72e-05,20.0794104 C0.0869568,23.8091784 3.1665648,26.7703464 6.8968368,26.7108744 C10.6259328,26.7750504 13.7035248,23.8085064 13.7759328,20.0794104 C13.6709328,17.7690744 12.4163088,15.6645384 10.4337408,14.4735864 L10.4337408,3.5623224 Z" id="Fill-1" fill="#29E3FD" mask="url(#mask-2)"></path>
                            </g>
                            <path d="M8.7714144,21.619668 C8.2988304,22.158444 7.6133904,22.462524 6.8968704,22.450764 C5.6561904,22.505868 4.6026624,21.551124 4.5359664,20.310948 C4.5458784,19.585188 4.9304304,18.916044 5.5528704,18.54258 C5.8629984,18.347196 5.9559024,17.937444 5.7606864,17.627316 C5.5653024,17.317356 5.1555504,17.224284 4.8454224,17.419668 C3.8355744,18.031356 3.2134704,19.121508 3.2008704,20.302044 C3.2633664,22.281588 4.9171584,23.836596 6.8968704,23.777124 C8.0018064,23.78754 9.0556704,23.312268 9.7794144,22.47714 C9.9981504,22.183476 9.9371664,21.768012 9.6433344,21.549276 C9.3763824,21.350364 9.0032544,21.380436 8.7714144,21.619668" id="Fill-3" fill="#29E3FD"></path>
                        </g>
                    </g>
                </g>
            </g>
        </g>
    </g>
</svg>