<?xml version="1.0" encoding="UTF-8"?>
<svg width="55px" height="65px" viewBox="0 0 55 65" version="1.1" xmlns="http://www.w3.org/2000/svg" xmlns:xlink="http://www.w3.org/1999/xlink">
    <!-- Generator: Sketch 63 (92445) - https://sketch.com -->
    <title></title>
    <desc></desc>
    <defs>
        <linearGradient x1="50%" y1="0%" x2="50%" y2="100%" id="linearGradient-1">
            <stop stop-color="#FFDA3C" offset="0%"></stop>
            <stop stop-color="#DE881A" offset="100%"></stop>
        </linearGradient>
        <path d="M21.8022288,-6.07514039e-15 C9.76107896,-6.07514039e-15 0,9.98436757 0,22.3016304 C0,22.6924863 0,23.8245267 0,24.0184586 C0,37.7449241 20.1252595,53.2932075 20.1252595,53.2932075 C20.1252595,53.2932075 21.8022288,54.5797406 23.4797405,53.2932075 C25.1564387,52.0053144 43.605,37.7449241 43.605,24.0184586 C43.605,23.8245267 43.605,22.6924863 43.605,22.3016304 C43.605,9.98436757 33.8436499,-6.07514039e-15 21.8022288,-6.07514039e-15 Z" id="path-2"></path>
        <filter x="-20.6%" y="-16.7%" width="141.3%" height="133.3%" filterUnits="objectBoundingBox" id="filter-3">
            <feMorphology radius="1.5" operator="erode" in="SourceAlpha" result="shadowSpreadOuter1"></feMorphology>
            <feOffset dx="0" dy="0" in="shadowSpreadOuter1" result="shadowOffsetOuter1"></feOffset>
            <feGaussianBlur stdDeviation="4.5" in="shadowOffsetOuter1" result="shadowBlurOuter1"></feGaussianBlur>
            <feColorMatrix values="0 0 0 0 0.871914629   0 0 0 0 0.549915823   0 0 0 0 0.14731835  0 0 0 1 0" type="matrix" in="shadowBlurOuter1"></feColorMatrix>
        </filter>
        <filter x="-34.8%" y="-36.4%" width="169.6%" height="172.7%" filterUnits="objectBoundingBox" id="filter-4">
            <feOffset dx="0" dy="0" in="SourceAlpha" result="shadowOffsetOuter1"></feOffset>
            <feGaussianBlur stdDeviation="2" in="shadowOffsetOuter1" result="shadowBlurOuter1"></feGaussianBlur>
            <feColorMatrix values="0 0 0 0 0.794752038   0 0 0 0 0.488590546   0 0 0 0 0.116032586  0 0 0 1 0" type="matrix" in="shadowBlurOuter1" result="shadowMatrixOuter1"></feColorMatrix>
            <feMerge>
                <feMergeNode in="shadowMatrixOuter1"></feMergeNode>
                <feMergeNode in="SourceGraphic"></feMergeNode>
            </feMerge>
        </filter>
        <polygon id="path-5" points="6.84e-05 0 22.6575 0 22.6575 21.8024145 6.84e-05 21.8024145"></polygon>
    </defs>
    <g id="页面-1" stroke="none" stroke-width="1" fill="none" fill-rule="evenodd">
        <g id="农田备份-2" transform="translate(-1049.000000, -637.000000)">
            <g id="编组-3" transform="translate(1042.000000, 603.000000)">
                <g id="编组-10" transform="translate(13.000000, 40.000000)">
                    <g id="Fill-1备份-5">
                        <use fill="black" fill-opacity="1" filter="url(#filter-3)" xlink:href="#path-2"></use>
                        <use fill="url(#linearGradient-1)" fill-rule="evenodd" xlink:href="#path-2"></use>
                    </g>
                    <g id="编组" filter="url(#filter-4)" transform="translate(10.260000, 13.680000)">
                        <mask id="mask-6" fill="white">
                            <use xlink:href="#path-5"></use>
                        </mask>
                        <g id="Clip-2"></g>
                        <path d="M6.9336054,3.2735385 C6.4183824,3.5603055 5.7684114,3.3766515 5.4795924,2.8626255 C5.1926544,2.3501385 5.3756244,1.7023905 5.8881114,1.4154525 C5.8894794,1.4147685 5.8906764,1.4140845 5.8920444,1.4134005 C9.2692944,-0.4655475 12.9799944,-0.4655475 16.9140204,1.3795425 C17.4461724,1.6281765 17.6761674,2.2612185 17.4275334,2.7933705 C17.4270204,2.7943965 17.4265074,2.7955935 17.4259944,2.7966195 C17.1734274,3.3294555 16.5376494,3.5577405 16.0037874,3.3070545 C12.6701424,1.7437725 9.6837984,1.7437725 6.9336054,3.2733675 L6.9336054,3.2735385 Z M17.6344434,12.0030885 C18.0475794,12.0030885 18.3825687,12.3380775 18.3825687,12.7512135 L18.3825687,15.9417315 C18.3829104,16.3548675 18.0480924,16.6900275 17.6349564,16.6903698 C17.2218204,16.6907115 16.8866604,16.3558935 16.8863184,15.9427575 L16.8863184,15.9417315 L16.8863184,12.7512135 C16.8863184,12.3380775 17.2213074,12.0030885 17.6344434,12.0030885 L17.6344434,12.0030885 Z M14.6419434,12.0030885 C15.0550794,12.0030885 15.3900687,12.3380775 15.3900687,12.7512135 L15.3900687,15.9417315 C15.3904104,16.3548675 15.0555924,16.6900275 14.6424564,16.6903698 C14.2293204,16.6907115 13.8941604,16.3558935 13.8938184,15.9427575 L13.8938184,15.9417315 L13.8938184,12.7512135 C13.8938184,12.3380775 14.2288074,12.0030885 14.6419434,12.0030885 L14.6419434,12.0030885 Z M6.4125684,16.6898565 C5.1139944,16.6898565 4.0613184,15.6406005 4.0613184,14.3464725 C4.0613184,13.0523445 5.1139944,12.0030885 6.4125684,12.0030885 C7.7109714,12.0030885 8.7638184,13.0523445 8.7638184,14.3464725 C8.7638184,15.6406005 7.7109714,16.6898565 6.4125684,16.6898565 L6.4125684,16.6898565 Z M2.1375684,19.6722675 L20.5200684,19.6722675 L20.5200684,9.0205065 L2.1375684,9.0205065 L2.1375684,19.6722675 Z M9.8019594,6.8903595 L10.9428714,4.5025155 C11.0446164,4.2892785 11.2997484,4.1989905 11.5129854,4.3007355 C11.6012214,4.3428015 11.6723574,4.4141085 11.7144234,4.5025155 L12.8555064,6.8903595 L21.5888184,6.8903595 C22.1791104,6.8903595 22.6575684,7.3689885 22.6575684,7.9591095 L22.6575684,20.7336645 C22.6575684,21.3241275 22.1791104,21.8024145 21.5888184,21.8024145 L1.0688184,21.8024145 C0.4785264,21.8024145 6.84e-05,21.3241275 6.84e-05,20.7336645 L6.84e-05,7.9591095 C6.84e-05,7.3689885 0.4785264,6.8903595 1.0688184,6.8903595 L9.8019594,6.8903595 Z" id="Fill-1" fill="#FFFFFF" mask="url(#mask-6)"></path>
                    </g>
                </g>
            </g>
        </g>
    </g>
</svg>