<?xml version="1.0" encoding="UTF-8"?>
<svg width="20px" height="20px" viewBox="0 0 20 20" version="1.1" xmlns="http://www.w3.org/2000/svg" xmlns:xlink="http://www.w3.org/1999/xlink">
    <!-- Generator: Sketch 63 (92445) - https://sketch.com -->
    <title></title>
    <desc></desc>
    <g id="页面-1" stroke="none" stroke-width="1" fill="none" fill-rule="evenodd">
        <g id="概况备份-4" transform="translate(-440.000000, -110.000000)" fill="#29E3FD">
            <g id="编组-3备份-2" transform="translate(120.000000, 90.000000)">
                <g id="温度备份-3" transform="translate(300.000000, 0.000000)">
                    <g id="分组-7">
                        <path d="M22,31 L22,39 C22,39.55232 21.55232,40 21,40 C20.44768,40 20,39.55232 20,39 L20,21 C20,20.44768 20.44768,20 21,20 L37,20 C38.6568,20 40,21.3432 40,23 L40,28 C40,29.6568 38.6568,31 37,31 L22,31 Z M22,29 L26,29 L26,22 L22,22 L22,29 Z M34,29 L37,29 C37.55232,29 38,28.55232 38,28 L38,23 C38,22.44768 37.55232,22 37,22 L34,22 L34,29 Z M28,29 L32,29 L32,22 L28,22 L28,29 Z" id="Fill-1"></path>
                    </g>
                </g>
            </g>
        </g>
    </g>
</svg>