<?xml version="1.0" encoding="UTF-8"?>
<svg width="20px" height="23px" viewBox="0 0 20 23" version="1.1" xmlns="http://www.w3.org/2000/svg" xmlns:xlink="http://www.w3.org/1999/xlink">
    <!-- Generator: Sketch 63 (92445) - https://sketch.com -->
    <title></title>
    <desc></desc>
    <g id="页面-1" stroke="none" stroke-width="1" fill="none" fill-rule="evenodd">
        <g id="概况备份-3" transform="translate(-740.000000, -109.000000)" fill="#29E3FD">
            <g id="编组-3备份-3" transform="translate(120.000000, 90.000000)">
                <g id="温度备份-6" transform="translate(600.000000, 0.000000)">
                    <g id="分组-7">
                        <g id="编组" transform="translate(20.000000, 19.000000)">
                            <path d="M10.5,6.625 C7.80757,6.625 5.625,8.80757 5.625,11.5 C5.625,14.1923 7.80757,16.375 10.5,16.375 C13.19243,16.375 15.375,14.1923 15.375,11.5 C15.375,8.80757 13.19243,6.625 10.5,6.625 M10.5,5 C14.08982,5 17,7.91018 17,11.5 C17,15.08982 14.08982,18 10.5,18 C6.91018,18 4,15.08982 4,11.5 C4,7.91018 6.91018,5 10.5,5" id="Fill-1"></path>
                            <path d="M10,0 L10,0 C10.66672,0 11,0.24996 11,0.75 L11,2.25 C11,2.75004 10.66672,3 10,3 C9.33328,3 9,2.75004 9,2.25 L9,0.75 C9,0.24996 9.33328,0 10,0" id="Fill-3"></path>
                            <path d="M19.8566961,5.53165499 L19.8566961,5.53165499 C20.1177462,6.0906612 20.0221239,6.53160678 19.5699545,6.85449174 L18.2133211,7.82283676 C17.7610264,8.14556678 17.4044794,8.02735122 17.1434293,7.46834501 C16.8822538,6.9093388 16.9777508,6.46823828 17.4300455,6.14550826 L18.7866789,5.17716324 C19.2388482,4.85443322 19.595646,4.97264878 19.8566961,5.53165499" id="Fill-5"></path>
                            <path d="M19.8566961,17.4682934 L19.8566961,17.4682934 C19.595646,18.0274673 19.2388482,18.1455306 18.7866789,17.8227932 L17.4300455,16.8544262 C16.9777508,16.5316888 16.8822538,16.0907331 17.1434293,15.5315592 C17.4044794,14.9725403 17.7610264,14.854477 18.2133211,15.1772144 L19.5699545,16.1455814 C20.0221239,16.4683188 20.1177462,16.9092745 19.8566961,17.4682934" id="Fill-7"></path>
                            <path d="M10,23 L10,23 C9.33328,23 9,22.75004 9,22.25 L9,20.75 C9,20.25008 9.33328,20 10,20 C10.66672,20 11,20.25008 11,20.75 L11,22.25 C11,22.75004 10.66672,23 10,23" id="Fill-9"></path>
                            <path d="M0.143332818,17.4682934 L0.143332818,17.4682934 C-0.117711729,16.9092745 -0.0222167966,16.4683188 0.430068258,16.1455814 L1.78667278,15.1772144 C2.23895783,14.854477 2.59549731,14.9725403 2.85666718,15.5315592 C3.11771173,16.0907331 3.0222168,16.5316888 2.56993174,16.8544262 L1.21332722,17.8227932 C0.761042165,18.1455306 0.404377364,18.0274673 0.143332818,17.4682934" id="Fill-11"></path>
                            <path d="M0.143332818,5.53165499 L0.143332818,5.53165499 C0.404377364,4.97264878 0.761042165,4.85443322 1.21332722,5.17716324 L2.56993174,6.14550826 C3.0222168,6.46823828 3.11771173,6.9093388 2.85666718,7.46834501 C2.59549731,8.02735122 2.23895783,8.14556678 1.78667278,7.82283676 L0.430068258,6.85449174 C-0.0222167966,6.53160678 -0.117711729,6.0906612 0.143332818,5.53165499" id="Fill-13"></path>
                        </g>
                    </g>
                </g>
            </g>
        </g>
    </g>
</svg>