<?xml version="1.0" encoding="UTF-8"?>
<svg width="22px" height="20px" viewBox="0 0 22 20" version="1.1" xmlns="http://www.w3.org/2000/svg" xmlns:xlink="http://www.w3.org/1999/xlink">
    <!-- Generator: Sketch 63 (92445) - https://sketch.com -->
    <title></title>
    <desc></desc>
    <defs>
        <polygon id="path-1" points="0 0 23 0 23 20 0 20"></polygon>
    </defs>
    <g id="页面-1" stroke="none" stroke-width="1" fill="none" fill-rule="evenodd">
        <g id="概况备份-4" transform="translate(-290.000000, -110.000000)">
            <g id="编组-3备份-2" transform="translate(120.000000, 90.000000)">
                <g id="温度备份" transform="translate(150.000000, 0.000000)">
                    <g id="编组" transform="translate(20.000000, 20.000000)">
                        <mask id="mask-2" fill="white">
                            <use xlink:href="#path-1"></use>
                        </mask>
                        <g id="Clip-2"></g>
                        <path d="M20.91133,7.96621 C20.58293,7.66411 20.45813,7.17141 20.32343,6.60321 C20.12973,5.77881 19.88993,4.75411 18.82253,4.10381 C17.50883,3.30581 16.26073,3.77541 15.15723,4.17281 C14.39203,4.45201 13.66613,4.71801 12.99943,4.55051 C10.39823,3.89361 10.56573,0.83921 10.57223,0.70451 C10.59863,0.34271 10.32663,0.02811 9.96483,0.00170999999 L9.96473,0.00170999999 C9.60293,-0.02449 9.28833,0.24751 9.26203,0.60941 C9.26193,0.61041 9.26193,0.61151 9.26183,0.61261 C9.15673,2.08721 9.73473,5.07931 12.67423,5.82151 C13.73843,6.09091 14.73353,5.72631 15.61043,5.40441 C16.70093,5.00371 17.40693,4.78041 18.13933,5.22711 C18.72073,5.58501 18.85203,6.08761 19.04913,6.89881 C19.21003,7.58851 19.39403,8.36691 20.03443,8.94501 C20.15513,9.05131 20.31043,9.10971 20.47133,9.10921318 C20.65833,9.10881 20.83623,9.02871 20.96063,8.88911 C21.20003,8.62001 21.17803,8.20831 20.91133,7.96621 L20.91133,7.96621 Z M6.24023,18.68621 C3.51033,18.67721 1.30473,16.45691 1.31370255,13.72701 C1.31370255,13.72481 1.31370255,13.72251 1.31370255,13.72041 C1.31370255,11.03381 4.18093,5.97921 6.21393,2.45511 C6.42413,2.84271 6.65083,3.24661 6.87083,3.66371 L6.89383,3.70641 C8.68053,6.92511 11.1273596,11.33261 11.1273596,13.71381 C11.13663,16.43071 8.95683,18.64841 6.24023,18.68621 L6.24023,18.68621 Z M8.03023,3.02661 C7.66233,2.36971 7.31093,1.73581 7.00223,1.15451 L6.80843,0.79651 C6.69123,0.59351 6.47473,0.46831 6.24023,0.468046535 C6.00233,0.46481 5.78113,0.59041 5.66223,0.79651 L5.25503,1.46651 C3.16943,5.09901 -1.78650225e-06,10.59041 -1.78650225e-06,13.72041 C-0.01087,17.17761 2.78293,19.98911 6.24023,20.00001 L6.24023,20.00001 C9.69653,19.98371 12.48783,17.17341 12.4804447,13.71711 C12.4804447,10.99111 10.04023,6.59991 8.08273,3.06931 L8.03023,3.02661 Z M18.22633,18.36111 C16.93613,18.35201 15.89703,17.29981 15.9042918,16.00961 C15.9042918,14.77791 17.18843,12.37701 18.20333,10.57721 L18.23293,10.63311 C19.21813,12.39021 20.5319528,14.79431 20.5319528,16.00961 C20.53753,17.29271 19.50933,18.34131 18.22633,18.36111 L18.22633,18.36111 Z M18.80443,8.92851 C18.69233,8.71791 18.47483,8.58461 18.23623,8.58041 C17.99963,8.58241 17.78093,8.70661 17.65813,8.90881 L17.56293,9.07631 C16.30833,11.24731 14.60703,14.21951 14.60703,16.00961 C14.54673,18.01841 16.12613,19.69591 18.13503,19.75621 C20.14393,19.81661 21.82143,18.23701 21.88183,16.22811 C21.88403,16.15531 21.88403,16.08241 21.88183,16.00961 C21.88183,14.45601 20.56803,12.06831 19.40873,9.99591 C19.18203,9.61821 18.98173,9.25701 18.80443,8.92851 L18.80443,8.92851 Z" id="Fill-1" fill="#29E3FD" mask="url(#mask-2)"></path>
                    </g>
                </g>
            </g>
        </g>
    </g>
</svg>