<?xml version="1.0" encoding="UTF-8"?>
<svg width="18px" height="23px" viewBox="0 0 18 23" version="1.1" xmlns="http://www.w3.org/2000/svg" xmlns:xlink="http://www.w3.org/1999/xlink">
    <!-- Generator: Sketch 63 (92445) - https://sketch.com -->
    <title></title>
    <desc></desc>
    <defs>
        <polygon id="path-1" points="0 0.000108 17.61636 0.000108 17.61636 22.382028 0 22.382028"></polygon>
    </defs>
    <g id="页面-1" stroke="none" stroke-width="1" fill="none" fill-rule="evenodd">
        <g id="概况备份-3" transform="translate(-1490.000000, -109.000000)">
            <g id="编组-3备份-3" transform="translate(120.000000, 90.000000)">
                <g id="温度备份-9" transform="translate(1350.000000, 0.000000)">
                    <g id="分组-7">
                        <g id="编组" transform="translate(20.000000, 19.000000)">
                            <mask id="mask-2" fill="white">
                                <use xlink:href="#path-1"></use>
                            </mask>
                            <g id="Clip-2"></g>
                            <path d="M14.26818,18.206028 C12.89214,19.846068 10.90818,20.782068 8.80422,20.782068 C6.70026,20.782068 4.71618,19.846068 3.34026,18.206028 C1.00434,15.414108 1.00434,11.349828 3.34026,8.558028 L8.80422,2.030028 L14.26818,8.558028 C16.6041,11.349828 16.6041,15.414108 14.26818,18.206028 M15.49218,7.534068 L9.4203,0.270108 C9.1161,-0.089892 8.50026,-0.089892 8.19618,0.270108 L2.12418,7.534068 C-0.70806,10.918308 -0.70806,15.845748 2.12418,19.229988 C3.78822,21.230028 6.22818,22.382028 8.80422,22.382028 C11.38026,22.382028 13.82022,21.230028 15.49218,19.229988 C18.32454,15.845748 18.32454,10.918308 15.49218,7.534068 M11.20422,13.582068 C11.20422,14.902068 10.12422,15.982068 8.80422,15.982068 C7.48422,15.982068 6.40422,14.902068 6.40422,13.582068 C6.40422,12.262068 7.48422,11.182068 8.80422,11.182068 C10.12422,11.182068 11.20422,12.262068 11.20422,13.582068 M4.80414,13.582068 C4.80414,15.790068 6.59622,17.582028 8.80422,17.582028 C11.01222,17.582028 12.80418,15.790068 12.80418,13.582068 C12.80418,12.678108 12.49218,11.853948 11.98026,11.182068 L12.80418,11.182068 L12.80418,9.581988 L8.80422,9.581988 C6.59622,9.581988 4.80414,11.373948 4.80414,13.582068" id="Fill-1" fill="#29E3FD" mask="url(#mask-2)"></path>
                        </g>
                    </g>
                </g>
            </g>
        </g>
    </g>
</svg>