<?xml version="1.0" encoding="UTF-8"?>
<svg width="21px" height="21px" viewBox="0 0 21 21" version="1.1" xmlns="http://www.w3.org/2000/svg" xmlns:xlink="http://www.w3.org/1999/xlink">
    <!-- Generator: Sketch 63 (92445) - https://sketch.com -->
    <title></title>
    <desc></desc>
    <defs>
        <polygon id="path-1" points="0 0 20.800908 0 20.800908 20.79996 0 20.79996"></polygon>
    </defs>
    <g id="页面-1" stroke="none" stroke-width="1" fill="none" fill-rule="evenodd">
        <g id="概况备份-4" transform="translate(-740.000000, -110.000000)">
            <g id="编组-3备份-2" transform="translate(120.000000, 90.000000)">
                <g id="温度备份-7" transform="translate(600.000000, 0.000000)">
                    <g id="分组-7">
                        <g id="编组" transform="translate(20.000000, 20.000000)">
                            <mask id="mask-2" fill="white">
                                <use xlink:href="#path-1"></use>
                            </mask>
                            <g id="Clip-2"></g>
                            <path d="M13.096908,18.119916 C11.588028,19.560036 9.213828,19.560036 7.704828,18.119916 C6.336948,16.831956 6.000948,14.767956 6.888948,13.095996 L10.400868,6.503916 L13.904868,13.095996 C14.800908,14.767956 14.464788,16.839996 13.096908,18.119916 L13.096908,18.119916 Z M11.104788,4.423956 C10.824828,3.903996 9.968868,3.903996 9.688908,4.423956 L5.472828,12.343956 C4.240908,14.655996 4.704828,17.511996 6.600948,19.287876 C7.664868,20.287956 9.024828,20.783916 10.392828,20.783916 C11.760828,20.783916 13.120908,20.279916 14.184828,19.287876 C16.080828,17.511996 16.544868,14.655996 15.312948,12.343956 L11.104788,4.423956 Z M20.800908,3.999876 L20.800908,2.399916 L19.200828,2.399916 L19.200828,-8.4e-05 L17.600868,-8.4e-05 L17.600868,20.799996 L20.800908,20.799996 L20.800908,19.199916 L19.200828,19.199916 L19.200828,15.199956 L20.800908,15.199956 L20.800908,13.599996 L19.200828,13.599996 L19.200828,9.599916 L20.800908,9.599916 L20.800908,7.999956 L19.200828,7.999956 L19.200828,3.999876 L20.800908,3.999876 Z M4.256868,8.351916 C3.656868,8.951916 2.744868,8.951916 2.136948,8.351916 C1.576908,7.791996 1.432908,6.863916 1.800948,6.135996 L3.200868,3.375996 L4.592868,6.135996 C4.960908,6.863916 4.824828,7.791996 4.256868,8.351916 L4.256868,8.351916 Z M6.024828,5.407956 L3.912828,1.239876 C3.640908,0.703956 2.760948,0.703956 2.480868,1.239876 L0.376908,5.407956 C-0.303132,6.759876 -0.047172,8.439876 1.016868,9.487956 C1.632828,10.095996 2.416908,10.399956 3.200868,10.399956 C3.984828,10.399956 4.768908,10.095996 5.384868,9.487956 C6.440868,8.439876 6.704868,6.759876 6.024828,5.407956 L6.024828,5.407956 Z" id="Fill-1" fill="#29E3FD" mask="url(#mask-2)"></path>
                        </g>
                    </g>
                </g>
            </g>
        </g>
    </g>
</svg>