<?xml version="1.0" encoding="UTF-8"?>
<svg width="22px" height="22px" viewBox="0 0 22 22" version="1.1" xmlns="http://www.w3.org/2000/svg" xmlns:xlink="http://www.w3.org/1999/xlink">
    <!-- Generator: Sketch 63 (92445) - https://sketch.com -->
    <title></title>
    <desc></desc>
    <defs>
        <polygon id="path-1" points="-2.42000006e-05 3.52000015e-05 21.9999758 3.52000015e-05 21.9999758 22.0000352 -2.42000006e-05 22.0000352"></polygon>
    </defs>
    <g id="页面-1" stroke="none" stroke-width="1" fill="none" fill-rule="evenodd">
        <g id="概况备份-4" transform="translate(-1790.000000, -109.000000)">
            <g id="编组-3备份-2" transform="translate(120.000000, 90.000000)">
                <g id="温度备份-8" transform="translate(1650.000000, 0.000000)">
                    <g id="分组-7">
                        <g id="编组" transform="translate(20.000000, 19.000000)">
                            <mask id="mask-2" fill="white">
                                <use xlink:href="#path-1"></use>
                            </mask>
                            <g id="Clip-2"></g>
                            <path d="M13.4133516,5.5000704 C13.6563636,5.5002024 13.8533076,5.6972784 13.8531757,5.9402904 C13.8530436,5.9963904 13.8423516,6.0519624 13.8214956,6.1039704 L9.8284956,16.0854144 C9.7281756,16.3358184 9.4855596,16.5000264 9.2157516,16.5000264 L8.1124956,16.5000264 C7.8694836,16.5000264 7.6725396,16.3028184 7.67267147,16.0599384 C7.67267147,16.0038384 7.6834956,15.9482664 7.7043516,15.8961264 L11.6973516,5.9148144 C11.7975396,5.6646744 12.0396276,5.5004664 12.3090396,5.5000704 L13.4133516,5.5000704 Z M13.1991149,13.2008184 C13.1987196,12.5933544 13.6908156,12.1004664 14.2982796,12.1000704 C14.9075916,12.1004664 15.3995556,12.5933544 15.3991603,13.2008184 C15.3986316,13.8077544 14.9069316,14.2997184 14.2999956,14.3001151 C13.6923996,14.3005104 13.1996436,13.8084144 13.1991149,13.2008184 Z M6.5999076,8.8000704 C6.5999076,8.1924744 7.0923996,7.7001144 7.6999956,7.7001144 C8.3075916,7.7001144 8.8000836,8.1924744 8.8000836,8.8000704 C8.8000836,9.4075344 8.3075916,9.9000264 7.6999956,9.9000264 C7.0923996,9.9000264 6.5999076,9.4075344 6.5999076,8.8000704 Z" id="Fill-1" fill="#29E3FD" mask="url(#mask-2)"></path>
                            <circle id="椭圆形" stroke="#29E3FD" stroke-width="1.65" mask="url(#mask-2)" cx="11" cy="11" r="10.175"></circle>
                        </g>
                    </g>
                </g>
            </g>
        </g>
    </g>
</svg>