<?xml version="1.0" encoding="UTF-8"?>
<svg width="44px" height="54px" viewBox="0 0 44 54" version="1.1" xmlns="http://www.w3.org/2000/svg" xmlns:xlink="http://www.w3.org/1999/xlink">
    <!-- Generator: Sketch 63 (92445) - https://sketch.com -->
    <title>编组 10备份 2</title>
    <desc>Created with Sketch.</desc>
    <defs>
        <linearGradient x1="50%" y1="0%" x2="50%" y2="100%" id="linearGradient-1">
            <stop stop-color="#FF8718" offset="0%"></stop>
            <stop stop-color="#FF522B" offset="100%"></stop>
        </linearGradient>
        <path d="M12.8749655,30.6666667 L30.1250345,30.6666667 L30.1250345,16.2222667 L12.8749655,16.2222667 L12.8749655,30.6666667 Z M21.5,17.9444 C22.2004908,17.9444 22.7973432,18.1633333 23.2894532,18.6 C23.7828051,19.0377333 24.0289981,19.5666667 24.0299641,20.1889333 L18.9700359,20.1889333 C18.9700359,19.5666667 19.2162289,19.0377333 19.7083388,18.6 C20.2016908,18.1633333 20.7985432,17.9444 21.498896,17.9444 L21.5,17.9444 Z M26.9165217,19.8744 C27.0968884,20.0228 27.1186925,20.2844 26.9650979,20.4586667 C26.9501938,20.4754667 26.9339097,20.4912 26.9165217,20.5056 L25.5479702,21.7189333 L25.5479702,23.7810667 L27.3190693,23.7810667 C27.4512738,23.7790667 27.5792003,23.8269333 27.6755247,23.9144 C27.8556154,24.0632 27.8768675,24.3248 27.7229969,24.4986667 C27.7082308,24.5156 27.6918088,24.5312 27.6744207,24.5456 C27.5783723,24.6328 27.4508598,24.6806667 27.3190693,24.6789333 L25.5479702,24.6789333 C25.5479702,25.4789333 25.3709155,26.1566667 25.0190141,26.7133333 L26.6635667,28.18 C26.8439334,28.3284 26.8655995,28.59 26.7121428,28.7641333 C26.6971008,28.7810667 26.6809547,28.7968 26.6635667,28.8110667 C26.5682083,28.9001333 26.4395918,28.9481333 26.3069732,28.9444 C26.1743547,28.9482667 26.0458762,28.9002667 25.9505178,28.8110667 L24.3865575,27.4289333 C24.3483314,27.4612 24.3084492,27.4916 24.2669111,27.52 C24.1589946,27.5910667 24.0481802,27.6577333 23.9346057,27.72 C23.3534854,28.0652 22.6880468,28.2554667 22.006048,28.2710667 L22.006048,21.9856 L20.99409,21.9856 L20.99409,28.2710667 C20.7226429,28.2710667 20.4535418,28.2389333 20.1913408,28.1766667 C19.9542558,28.1234667 19.7236569,28.046 19.503684,27.9456 C19.3253873,27.8617333 19.1512306,27.7701333 18.9814899,27.6710667 C18.8608774,27.6034667 18.745509,27.5273333 18.6364885,27.4433333 L18.5191881,27.3444 L17.0725283,28.7966667 C16.9717879,28.8932 16.8348913,28.9465333 16.6930268,28.9444 C16.5696543,28.9456 16.4495938,28.906 16.3527174,28.8321333 C16.256255,28.7544 16.1978808,28.6412 16.1916708,28.52 C16.1817347,28.3994667 16.2257569,28.2805333 16.3124212,28.1933333 L17.9108816,26.6012 C17.6049344,26.0678667 17.4509258,25.4277333 17.4509258,24.6789333 L15.6810687,24.6789333 C15.5495542,24.6804 15.4225937,24.6325333 15.3268213,24.5456 C15.1464546,24.3962667 15.1254785,24.1338667 15.2800391,23.9596 C15.2943912,23.9434667 15.3099852,23.9282667 15.3268213,23.9144 C15.4228697,23.8272 15.5503822,23.7793333 15.6821727,23.7810667 L17.4531338,23.7810667 L17.4531338,21.7189333 L16.0834783,20.5056 C15.9031116,20.3562667 15.8822735,20.0938667 16.0366961,19.9196 C16.0510482,19.9033333 16.0667803,19.8884 16.0834783,19.8744 C16.2852351,19.6958667 16.5947704,19.6958667 16.7965272,19.8744 L18.1639747,21.0877333 L24.8350593,21.0877333 L26.2034728,19.8744 C26.4050916,19.6977333 26.7126949,19.6977333 26.9143137,19.8744 L26.9165217,19.8744 Z M33,30.6666667 L33,34 L10,34 L10,30.6666667 L11.1499586,30.6666667 L11.1499586,16.2222667 L10,16.2222667 L10,14 L33,14 L33,16.2222667 L31.8500414,16.2222667 L31.8500414,30.6666667 L33,30.6666667 Z" id="path-2"></path>
        <filter x="-26.1%" y="-30.0%" width="152.2%" height="160.0%" filterUnits="objectBoundingBox" id="filter-3">
            <feOffset dx="0" dy="0" in="SourceAlpha" result="shadowOffsetOuter1"></feOffset>
            <feGaussianBlur stdDeviation="2" in="shadowOffsetOuter1" result="shadowBlurOuter1"></feGaussianBlur>
            <feColorMatrix values="0 0 0 0 0.794752038   0 0 0 0 0.315710484   0 0 0 0 0.116032586  0 0 0 1 0" type="matrix" in="shadowBlurOuter1"></feColorMatrix>
        </filter>
    </defs>
    <g id="页面-1" stroke="none" stroke-width="1" fill="none" fill-rule="evenodd">
        <g id="新增虫情图标" transform="translate(-1620.000000, -824.000000)">
            <g id="编组-3备份-2" transform="translate(1597.000000, 784.000000)">
                <g id="编组-10备份-2" transform="translate(23.000000, 40.000000)">
                    <path d="M21.8022288,0 C9.76107896,0 0,9.98436757 0,22.3016304 C0,22.6924863 0,23.8245267 0,24.0184586 C0,37.7449241 20.1252595,53.2932075 20.1252595,53.2932075 C20.1252595,53.2932075 21.8022288,54.5797406 23.4797405,53.2932075 C25.1564387,52.0053144 43.605,37.7449241 43.605,24.0184586 C43.605,23.8245267 43.605,22.6924863 43.605,22.3016304 C43.605,9.98436757 33.8436499,0 21.8022288,0 Z" id="Fill-1备份-5" fill="url(#linearGradient-1)"></path>
                    <g id="Fill-1">
                        <use fill="black" fill-opacity="1" filter="url(#filter-3)" xlink:href="#path-2"></use>
                        <use fill="#FFFFFF" fill-rule="evenodd" xlink:href="#path-2"></use>
                    </g>
                </g>
            </g>
        </g>
    </g>
</svg>