<?xml version="1.0" encoding="UTF-8"?>
<svg width="21px" height="25px" viewBox="0 0 21 25" version="1.1" xmlns="http://www.w3.org/2000/svg" xmlns:xlink="http://www.w3.org/1999/xlink">
    <!-- Generator: Sketch 63 (92445) - https://sketch.com -->
    <title></title>
    <desc></desc>
    <defs>
        <polygon id="path-1" points="0.089172 0.0195157102 13.32924 0.0195157102 13.32924 23.9999431 0.089172 23.9999431"></polygon>
    </defs>
    <g id="页面-1" stroke="none" stroke-width="1" fill="none" fill-rule="evenodd">
        <g id="概况备份-4" transform="translate(-1190.000000, -108.000000)">
            <g id="编组-3备份-2" transform="translate(120.000000, 90.000000)">
                <g id="温度备份-4" transform="translate(1050.000000, 0.000000)">
                    <g id="分组-7">
                        <g id="编组" transform="translate(20.000000, 18.000000)">
                            <g transform="translate(7.680000, 0.100560)">
                                <mask id="mask-2" fill="white">
                                    <use xlink:href="#path-1"></use>
                                </mask>
                                <g id="Clip-2"></g>
                                <path d="M6.711252,22.249908 C4.264452,22.283868 2.191452,20.455428 1.919532,18.023628 C1.716612,15.597348 3.407292,13.420428 5.808252,13.016388 L5.808252,2.623548 C5.814852,2.133948 6.217332,1.742388 6.706932,1.74890578 C6.708492,1.74890578 6.709812,1.74890578 6.711252,1.74890578 C6.948372,1.747428 7.176372,1.839588 7.345812,2.005308 C7.514292,2.167308 7.611012,2.389908 7.614252,2.623548 L7.614252,13.016388 C10.018212,13.424268 11.708652,15.606228 11.502972,18.035868 C11.223492,20.461908 9.153132,22.282548 6.711252,22.249908 M9.403932,11.731068 L9.403932,2.623548 C9.346092,1.128588 8.087172,-0.036372 6.592092,0.021588 C5.178372,0.076428 4.044732,1.209828 3.990012,2.623548 L3.990012,11.731068 C1.640532,12.731748 0.108372,15.030708 0.089172,17.584308 C0.140292,21.178308 3.095172,24.050508 6.689172,23.999268 C6.696612,23.999148 6.703812,23.999028 6.711252,23.998908 C10.305132,24.059988 13.268052,21.196068 13.328892,17.602308 L13.329252,17.584308 C13.305852,15.024828 11.763132,12.724188 9.403932,11.731068" id="Fill-1" fill="#29E3FD" mask="url(#mask-2)"></path>
                            </g>
                            <path d="M8.761692,11.449212 C8.929812,11.290692 9.025332,11.070132 9.026052,10.839132 C9.023532,10.608492 8.928252,10.388532 8.761692,10.228932 C8.592132,10.068852 8.368452,9.978732 8.135292,9.976692 L1.220292,9.976692 C0.730932,9.958572 0.319452,10.340652 0.301332,10.830012 C0.301212,10.833012 0.301092,10.836012 0.300972,10.839132 C0.301692,11.070132 0.397332,11.290692 0.565452,11.449212 C0.741972,11.616252 0.977292,11.706732 1.220292,11.701452 L8.135292,11.701452 C8.368452,11.699412 8.592132,11.609292 8.761692,11.449212 L8.761692,11.449212 Z M8.135292,4.798692 C8.372172,4.801332 8.600892,4.712412 8.773932,4.550532 C9.110892,4.230012 9.124212,3.697092 8.803812,3.360132 C8.794092,3.349932 8.784132,3.339972 8.773932,3.330252 C8.601972,3.165732 8.373252,3.073932 8.135292,3.074052 L0.903012,3.074052 C0.416412,3.064812 0.013332,3.449772 1.2e-05,3.936372 C0.001452,4.168332 0.096852,4.389972 0.264372,4.550532 C0.437292,4.712412 0.666132,4.801332 0.903012,4.798692 L8.135292,4.798692 Z M8.135292,6.527412 L2.709012,6.527412 C2.223972,6.513852 1.819812,6.896052 1.806252,7.381092 L1.806012,7.389732 C1.806732,7.620732 1.902252,7.841412 2.070372,7.999812 C2.245452,8.157012 2.473932,8.241372 2.709012,8.235852 L8.135292,8.235852 C8.372652,8.236932 8.601372,8.146692 8.773932,7.983612 C8.940372,7.824012 9.035772,7.604172 9.038292,7.373412 C9.037572,7.142412 8.941932,6.921732 8.773932,6.763332 C8.598852,6.606252 8.370372,6.521772 8.135292,6.527412 L8.135292,6.527412 Z M16.823772,17.367612 C16.434252,17.378172 16.120572,17.690172 16.107852,18.079452 C15.919212,19.026732 14.998332,19.641972 14.050812,19.453332 C13.269852,19.297812 12.692532,18.634452 12.646212,17.839452 C12.638052,16.955172 13.307532,16.211412 14.187972,16.126932 C14.471892,16.130532 14.733492,15.972972 14.863092,15.720252 C14.989452,15.468492 14.952732,15.165492 14.769492,14.951532 C14.580972,14.735172 14.288172,14.641332 14.008932,14.707332 C12.284172,14.838852 10.992492,16.343652 11.124132,18.068532 C11.252652,19.755252 12.697332,21.035052 14.387172,20.959332 C16.062852,20.982612 17.472132,19.708212 17.616852,18.038772 L17.596572,18.038772 C17.559972,17.644332 17.219292,17.348532 16.823772,17.367612 L16.823772,17.367612 Z" id="Fill-3" fill="#29E3FD"></path>
                        </g>
                    </g>
                </g>
            </g>
        </g>
    </g>
</svg>