<?xml version="1.0" encoding="UTF-8"?>
<svg width="21px" height="22px" viewBox="0 0 21 22" version="1.1" xmlns="http://www.w3.org/2000/svg" xmlns:xlink="http://www.w3.org/1999/xlink">
    <!-- Generator: Sketch 63 (92445) - https://sketch.com -->
    <title>编组</title>
    <desc>Created with Sketch.</desc>
    <defs>
        <polygon id="path-1" points="0 -4.06430445e-15 20.2614953 -4.06430445e-15 20.2614953 21.615594 0 21.615594"></polygon>
    </defs>
    <g id="页面-1" stroke="none" stroke-width="1" fill="none" fill-rule="evenodd">
        <g id="数据-设备数据备份" transform="translate(-659.000000, -211.000000)">
            <g id="编组-3" transform="translate(120.000000, 192.000000)">
                <g id="温度备份-2" transform="translate(450.000000, 0.000000)">
                    <g id="分组-7">
                        <g id="编组" transform="translate(89.000000, 19.000000)">
                            <mask id="mask-2" fill="white">
                                <use xlink:href="#path-1"></use>
                            </mask>
                            <g id="Clip-2"></g>
                            <path d="M16.4073481,10.6347098 L15.0375511,4.8771008 C16.0073771,4.7642738 16.9646191,4.5627868 17.8975511,4.2749278 L18.6953481,9.5433338 C17.9932181,10.0223838 17.2214471,10.3904658 16.4073481,10.6347098 L16.4073481,10.6347098 Z M12.5689421,10.9056948 C11.9065661,10.7927248 11.2517691,10.6497248 10.6045511,10.5143038 C9.3570191,10.2078548 8.0854631,10.0089418 6.8037541,9.9197098 L6.9769271,3.5223188 C7.6641851,3.7059308 8.3402891,3.9295828 9.0015211,4.1921308 C10.4408161,4.7475428 11.9749201,5.0159538 13.5173181,4.9824918 L14.9397391,10.9583188 C14.1535251,11.0555588 13.3575871,11.0378268 12.5765211,10.9056948 L12.5689421,10.9056948 Z M1.5053181,3.2213038 C2.8197741,2.9629028 4.1721251,2.9629028 5.4867241,3.2213038 L5.3061151,9.9949278 C3.9925171,10.1296338 2.7159561,10.5100138 1.5429271,11.1164768 L1.5429271,3.2213038 L1.5053181,3.2213038 Z M20.2533331,9.7165068 L19.2448971,3.1459428 C19.1822631,2.7351038 18.7985941,2.4525358 18.3876121,2.5150268 C18.3252641,2.5244648 18.2642031,2.5417678 18.2061451,2.5665068 C18.1611001,2.5665068 13.6903481,4.4329428 9.5583631,2.7847248 C5.6899271,1.2795068 2.9127241,1.4074918 1.5053181,1.6783338 L1.5053181,0.7526948 C1.5053181,0.3369938 1.1682671,-5.72e-05 0.7525661,-5.72e-05 C0.3370081,-5.72e-05 -4.29e-05,0.3369938 -4.29e-05,0.7526948 L-4.29e-05,20.8629278 C-4.29e-05,21.2786288 0.3370081,21.6156798 0.7525661,21.6156798 C1.1682671,21.6156798 1.5053181,21.2786288 1.5053181,20.8629278 L1.5053181,12.7797098 C2.8646761,11.9348658 4.4215171,11.4601058 6.0211151,11.4024768 L6.0663031,11.4024768 C7.4941581,11.4263578 8.9142911,11.6208378 10.2961001,11.9819128 C10.9508971,12.1249128 11.6357241,12.2753488 12.3281301,12.3883188 C15.0580001,12.8527828 17.8562241,12.1239118 20.0125211,10.3863188 C20.1998511,10.2175788 20.2903701,9.9660418 20.2533331,9.7165068 L20.2533331,9.7165068 Z" id="Fill-1" fill="#68E0E3" mask="url(#mask-2)"></path>
                        </g>
                    </g>
                </g>
            </g>
        </g>
    </g>
</svg>