<?xml version="1.0" encoding="UTF-8"?>
<svg width="23px" height="21px" viewBox="0 0 23 21" version="1.1" xmlns="http://www.w3.org/2000/svg" xmlns:xlink="http://www.w3.org/1999/xlink">
    <!-- Generator: Sketch 63 (92445) - https://sketch.com -->
    <title></title>
    <desc></desc>
    <defs>
        <polygon id="path-1" points="0 0.000172278293 22.50648 0.000172278293 22.50648 20.71134 0 20.71134"></polygon>
    </defs>
    <g id="页面-1" stroke="none" stroke-width="1" fill="none" fill-rule="evenodd">
        <g id="概况备份-4" transform="translate(-1340.000000, -110.000000)">
            <g id="编组-3备份-2" transform="translate(120.000000, 90.000000)">
                <g id="温度备份-11" transform="translate(1200.000000, 0.000000)">
                    <g id="分组-7">
                        <g id="编组" transform="translate(20.000000, 20.000000)">
                            <mask id="mask-2" fill="white">
                                <use xlink:href="#path-1"></use>
                            </mask>
                            <g id="Clip-2"></g>
                            <path d="M10.1315572,15.08634 C10.1315572,14.4648 10.6351972,13.96134 11.2565572,13.96134 C11.8779172,13.96134 12.3815572,13.4577 12.3815572,12.83634 C12.3815572,12.2148 12.8851972,11.71134 13.5065572,11.71134 C14.1279172,11.71134 14.6315572,12.2148 14.6315572,12.83634 C14.6315572,14.70024 13.1204572,16.21134 11.2565572,16.21134 C10.6351972,16.21134 10.1315572,15.7077 10.1315572,15.08634 Z M20.2565572,20.25 C19.6351972,20.25 19.1315572,19.74636 19.1315572,19.125 C19.1315572,18.50364 19.6351972,18 20.2565572,18 L21.3815572,18 C22.0029172,18 22.5065572,18.50364 22.5065572,19.125 C22.5065572,19.74636 22.0029172,20.25 21.3815572,20.25 L20.2565572,20.25 Z M20.5827172,15.42384 C20.4833572,15.3144 20.4036172,15.18894 20.3465572,15.0525 C20.2831972,14.91912 20.2522372,14.7726 20.2565572,14.625 C20.2565572,14.00364 20.7601972,13.5 21.3815572,13.5 C22.0029172,13.5 22.5065572,14.00364 22.5065572,14.625 C22.5047572,14.77188 22.4741572,14.91732 22.4165572,15.0525 C22.3594972,15.18894 22.2797572,15.3144 22.1802172,15.42384 C21.9647572,15.62922 21.6794572,15.74586 21.3815572,15.75 C21.0836572,15.74586 20.7983572,15.62922 20.5827172,15.42384 Z M19.1315572,2.25 C18.5101972,2.25 18.0065572,1.74636 18.0065572,1.125 C18.0065572,0.50364 18.5101972,-1.81721305e-12 19.1315572,-1.81721305e-12 L21.3815572,-1.81721305e-12 C22.0029172,-1.81721305e-12 22.5065572,0.50364 22.5065572,1.125 C22.5065572,1.74636 22.0029172,2.25 21.3815572,2.25 L19.1315572,2.25 Z M20.2565572,6.75 C19.6351972,6.75 19.1315572,6.24636 19.1315572,5.625 C19.1315572,5.00364 19.6351972,4.5 20.2565572,4.5 L21.3815572,4.5 C22.0029172,4.5 22.5065572,5.00364 22.5065572,5.625 C22.5065572,6.24636 22.0029172,6.75 21.3815572,6.75 L20.2565572,6.75 Z M21.3815572,11.25 L21.1565572,11.25 L20.9540572,11.1825 C20.8824172,11.15784 20.8141972,11.12382 20.7515572,11.08134 L20.5827172,10.94634 C20.1451372,10.50498 20.1481972,9.79272 20.5893772,9.35532 C21.0303772,8.91774 21.7426372,8.92062 22.1802172,9.3618 C22.6152772,9.80046 22.6152772,10.50768 22.1802172,10.94634 L22.0115572,11.08134 C21.9489172,11.12382 21.8806972,11.15784 21.8090572,11.1825 C21.7417372,11.21634 21.6697372,11.23902 21.5952172,11.25 L21.3815572,11.25 Z M1.13155721,20.25 C0.510197211,20.25 0.00655721145,19.74636 0.00655721145,19.125 C0.00655721145,18.50364 0.510197211,18 1.13155721,18 L2.25655721,18 C2.87791721,18 3.38155721,18.50364 3.38155721,19.125 C3.38155721,19.74636 2.87791721,20.25 2.25655721,20.25 L1.13155721,20.25 Z M0.704057211,15.66 C0.565997211,15.60636 0.439817211,15.52626 0.332717211,15.42384 C-0.104682789,14.98248 -0.101802789,14.27022 0.339377211,13.83282 C0.780377211,13.39524 1.49281721,13.3983 1.93021721,13.8393 C2.36527721,14.27778 2.36527721,14.98518 1.93021721,15.42384 C1.82077721,15.52266 1.69513721,15.60276 1.55905721,15.66 C1.42387721,15.7176 1.27843721,15.7482 1.13155721,15.75 C0.984497211,15.7482 0.839237211,15.7176 0.704057211,15.66 Z M1.13155721,2.25 C0.510197211,2.25 0.00655721145,1.74636 0.00655721145,1.125 C0.00655721145,0.50364 0.510197211,-1.81721305e-12 1.13155721,-1.81721305e-12 L3.38155721,-1.81721305e-12 C4.00291721,-1.81721305e-12 4.50655721,0.50364 4.50655721,1.125 C4.50655721,1.74636 4.00291721,2.25 3.38155721,2.25 L1.13155721,2.25 Z M1.13155721,6.75 C0.510197211,6.75 0.00655721145,6.24636 0.00655721145,5.625 C0.00655721145,5.00364 0.510197211,4.5 1.13155721,4.5 L2.25655721,4.5 C2.87791721,4.5 3.38155721,5.00364 3.38155721,5.625 C3.38155721,6.24636 2.87791721,6.75 2.25655721,6.75 L1.13155721,6.75 Z M0.704057211,11.16 C0.565997211,11.10636 0.439817211,11.02626 0.332717211,10.92384 C-0.108282789,10.48626 -0.111342789,9.77382 0.326237211,9.33282 C0.328397211,9.33048 0.330557211,9.3285 0.332717211,9.32634 C0.439817211,9.22392 0.565997211,9.14346 0.704057211,9.09 C0.975677211,8.9667 1.28743721,8.9667 1.55905721,9.09 C1.69405721,9.14634 1.82005721,9.22734 1.93021721,9.32634 C2.37139721,9.76374 2.37427721,10.476 1.93687721,10.91718 C1.93453721,10.91934 1.93255721,10.92168 1.93021721,10.92384 C1.82077721,11.02266 1.69513721,11.10276 1.55905721,11.16 C1.42549721,11.223 1.27915721,11.25378 1.13155721,11.25 C0.983957211,11.25378 0.837617211,11.223 0.704057211,11.16 Z" id="Fill-1" fill="#29E3FD" mask="url(#mask-2)"></path>
                            <path d="M8.47084759,16.7239103 C6.93341962,15.2022292 6.55577261,12.7636831 7.55383971,10.7883191 L11.5010602,3 L15.4393791,10.7883191 C16.4464828,12.7636831 16.0687009,15.2117282 14.5312729,16.7239103 C12.8353681,18.4253632 10.1668873,18.4253632 8.47084759,16.7239103 Z M12.3256778,0.465637767 C12.000981,-0.155212589 11.0082411,-0.155212589 10.6835443,0.465637767 L5.79374693,9.92239371 C4.36496968,12.68305 4.90302275,16.0932135 7.10213724,18.2136761 C8.33606858,19.4078065 9.91334626,20 11.4999487,20 C13.0865511,20 14.663968,19.3982064 15.8978993,18.2136761 C18.0968746,16.0932135 18.6350669,12.68305 17.2062896,9.92239371 L12.3256778,0.465637767 Z" id="Fill-1" fill="#29E3FD" mask="url(#mask-2)"></path>
                        </g>
                    </g>
                </g>
            </g>
        </g>
    </g>
</svg>