<?xml version="1.0" encoding="UTF-8"?>
<svg width="42px" height="52px" viewBox="0 0 42 52" version="1.1" xmlns="http://www.w3.org/2000/svg" xmlns:xlink="http://www.w3.org/1999/xlink">
    <!-- Generator: Sketch 63 (92445) - https://sketch.com -->
    <title>logo copy 6备份</title>
    <desc>Created with Sketch.</desc>
    <g id="页面-1" stroke="none" stroke-width="1" fill="none" fill-rule="evenodd">
        <g id="登录" transform="translate(-764.000000, -350.000000)" fill-rule="nonzero">
            <g id="编组-2备份" transform="translate(635.000000, 310.000000)">
                <g id="图片校验弹窗-copy-2">
                    <g id="分组-2" transform="translate(129.000000, 40.000000)">
                        <g id="logo-copy-6备份">
                            <path d="M12.7601469,15.5330842 L12.7601469,8.22343548 L14.6615704,8.22343548 L14.6615704,15.0031966 L23.9480805,19.7721851 L23.9480805,10.4442246 L25.8495039,10.4442246 L25.8495039,19.7721851 L35.1365393,15.0031966 L35.1365393,8.21104989 L37.0379628,8.21104989 L37.0379628,35.4291791 C42.8913944,28.3296537 43.6391154,18.1801847 38.8922124,10.2598305 C34.1453094,2.33947629 24.9759671,-1.56278987 16.1534492,0.58272352 C7.33093135,2.72823691 0.847983064,10.436922 0.0765899385,19.6992489 C-0.694803187,28.9615758 4.41959368,37.6854595 12.7596217,41.3333333 L12.7601469,15.5330842 Z" id="路径_552" fill="#99D8FF"></path>
                            <g id="组_401" transform="translate(14.437500, 17.333333)" fill="#81A7FF">
                                <polygon id="路径_553" points="0 7.02379167 9.50115385 11.8029167 9.50115385 4.77858333 0 -0.000541666667"></polygon>
                                <polygon id="路径_554" points="11.4019231 4.77858333 11.4019231 11.802375 20.9030769 7.02325 20.9030769 0"></polygon>
                                <polygon id="路径_555" points="0 16.0246667 9.50115385 20.8037917 9.50115385 13.78 0 9.000875"></polygon>
                                <polygon id="路径_556" points="11.4019231 20.8037917 20.9030769 16.0246667 20.9030769 9.000875 11.4019231 13.78"></polygon>
                                <polygon id="路径_557" points="0 24.9740833 9.50115385 29.7532083 9.50115385 22.7294167 0 17.9502917"></polygon>
                                <polygon id="路径_558" points="11.4019231 27.7539167 11.4019231 34.1699583 12.3523077 34.1699583 12.3523077 29.2749167 20.9036154 24.9740833 20.9036154 17.9502917 11.4024615 22.7294167"></polygon>
                            </g>
                        </g>
                    </g>
                </g>
            </g>
        </g>
    </g>
</svg>