<?xml version="1.0" encoding="UTF-8"?>
<svg width="51px" height="44px" viewBox="0 0 51 44" version="1.1" xmlns="http://www.w3.org/2000/svg" xmlns:xlink="http://www.w3.org/1999/xlink">
    <!-- Generator: Sketch 63 (92445) - https://sketch.com -->
    <title></title>
    <desc></desc>
    <defs>
        <polygon id="path-1" points="0 43.598016 50.349348 43.598016 50.349348 0 0 0"></polygon>
    </defs>
    <g id="页面-1" stroke="none" stroke-width="1" fill="none" fill-rule="evenodd" opacity="0.8">
        <g id="溯源首页备份" transform="translate(-294.000000, -191.000000)">
            <g id="编组" transform="translate(294.000000, 191.000000)">
                <path d="M13.3284312,23.3248176 C13.3284312,32.0661936 20.4159312,39.1536936 29.1573072,39.1536936 C37.8984312,39.1536936 44.9859312,32.0661936 44.9859312,23.3248176 C44.9859312,14.5834416 37.8984312,7.4959416 29.1573072,7.4959416 C20.4159312,7.4959416 13.3284312,14.5834416 13.3284312,23.3248176" id="Fill-1" fill="#E9EAEB"></path>
                <mask id="mask-2" fill="white">
                    <use xlink:href="#path-1"></use>
                </mask>
                <g id="Clip-4"></g>
                <polygon id="Fill-3" fill="#FFFFFF" mask="url(#mask-2)" points="0.83664 27.488664 34.989444 27.488664 34.989444 0.831852 0.83664 0.831852"></polygon>
                <polygon id="Fill-5" fill="#2787F5" mask="url(#mask-2)" points="19.1608704 28.320516 5.04e-05 28.320516 5.04e-05 7.16227078e-15 35.8213464 7.16227078e-15 35.8213464 12.49668 34.1578944 12.49668 34.1578944 1.668492 1.6685424 1.668492 1.6685424 26.656812 19.1608704 26.656812"></polygon>
                <polygon id="Fill-6" fill="#A3D4FF" mask="url(#mask-2)" points="13.328532 5.8275 22.493016 5.8275 22.493016 0.831852 13.328532 0.831852"></polygon>
                <path d="M34.9502328,29.4525504 L36.0920448,28.2416904 L41.3338968,33.1881984 L40.1920848,34.3990584 L34.9502328,29.4525504 Z M9.9964368,24.9886224 L11.6601408,24.9886224 L11.6601408,23.3249184 L9.9964368,23.3249184 L9.9964368,24.9886224 Z M6.6642408,24.9886224 L8.3279448,24.9886224 L8.3279448,23.3249184 L6.6642408,23.3249184 L6.6642408,24.9886224 Z M3.3320448,24.9886224 L4.9957488,24.9886224 L4.9957488,23.3249184 L3.3320448,23.3249184 L3.3320448,24.9886224 Z M14.1652728,4.9956984 L21.6710928,4.9956984 L21.6710928,1.6635024 L14.1652728,1.6635024 L14.1652728,4.9956984 Z M12.5063568,6.6641904 L23.3247168,6.6641904 L23.3247168,5.04e-05 L12.5063568,5.04e-05 L12.5063568,6.6641904 Z" id="Fill-7" fill="#2787F5" mask="url(#mask-2)"></path>
                <path d="M19.9926468,22.4782488 C19.9926468,27.5429448 24.1025148,31.6525608 29.1719988,31.6525608 C34.2414828,31.6525608 38.3513508,27.5477328 38.3513508,22.4782488 C38.3513508,17.4135528 34.2414828,13.3039368 29.1719988,13.3039368 C24.1025148,13.3039368 19.9926468,17.4135528 19.9926468,22.4782488" id="Fill-8" fill="#FFFFFF" mask="url(#mask-2)"></path>
                <path d="M29.1719484,14.1356628 C24.5651364,14.1356628 20.8342764,17.8713108 20.8342764,22.4781228 C20.8342764,27.0851868 24.5699244,30.8157948 29.1769884,30.8157948 C33.7838004,30.8157948 37.5144084,27.0801468 37.5144084,22.4733348 C37.5096204,17.8763508 33.7739724,14.1454908 29.1719484,14.1356628 M29.1719484,32.4845388 C23.6445804,32.4845388 19.1657844,28.0007028 19.1705686,22.4733348 C19.1705686,16.9459668 23.6544084,12.4671708 29.1769884,12.4671708 C34.7041044,12.4671708 39.1831524,16.9459668 39.1831524,22.4733348 C39.1781124,28.0054908 34.6993164,32.4794988 29.1719484,32.4845388" id="Fill-9" fill="#2787F5" mask="url(#mask-2)"></path>
                <path d="M44.1098532,36.8402832 C43.2288612,37.7212752 41.8015332,37.7212752 40.9205412,36.8402832 L37.1601972,33.3803232 C36.7368372,32.9569632 36.4956732,32.3811432 36.4956732,31.7806272 C36.4956732,31.1801112 36.7320492,30.6042912 37.1601972,30.1809312 C38.0411892,29.2999392 39.4685172,29.2999392 40.3495092,30.1809312 L44.1098532,33.6411432 C44.5332132,34.0642512 44.7743772,34.6403232 44.7743772,35.2405872 C44.7693372,35.8411032 44.5332132,36.4169232 44.1098532,36.8402832" id="Fill-10" fill="#A3D4FF" mask="url(#mask-2)"></path>
                <path d="M32.489352,25.820172 L34.157844,25.820172 L34.157844,19.156032 L32.489352,19.156032 L32.489352,25.820172 Z M29.989008,19.156032 L31.6575,19.156032 L31.6575,25.820172 L29.993796,25.820172 L29.993796,19.156032 L29.989008,19.156032 Z M26.656812,25.820172 L28.320516,25.820172 L28.320516,19.156032 L26.656812,19.156032 L26.656812,25.820172 Z M24.161508,25.820172 L25.825212,25.820172 L25.825212,19.156032 L24.161508,19.156032 L24.161508,25.820172 Z M43.51914,36.234828 L44.10504,36.820476 L43.51914,36.234828 C44.065476,35.673876 44.065476,34.778016 43.51914,34.216812 L39.783492,30.776508 C39.227328,30.210516 38.316852,30.200688 37.74582,30.756852 C37.47996,31.022712 37.3275,31.386852 37.3275,31.76586 C37.3275,32.144868 37.47996,32.50422 37.74582,32.774868 L41.481468,36.215172 C42.037632,36.781164 42.953148,36.790992 43.51914,36.234828 L43.51914,36.234828 Z M42.515172,38.316852 C41.698188,38.316852 40.910688,37.996812 40.329828,37.416204 L36.59418,33.975648 C35.723016,33.222672 35.344008,32.046336 35.609868,30.92922 C35.875476,29.806812 36.741852,28.93086 37.858968,28.645344 C38.976336,28.359828 40.15746,28.72422 40.920516,29.580516 L44.656164,33.02082 C45.552024,33.901812 45.82746,35.235648 45.35496,36.397368 C44.88246,37.558836 43.750476,38.316852 42.495516,38.316852 L42.515172,38.316852 Z" id="Fill-11" fill="#2787F5" mask="url(#mask-2)"></path>
                <path d="M29.1867156,43.598016 C21.2527476,43.568532 13.9928796,39.11922 10.3754196,32.056164 L11.8566756,31.29336 C16.5816756,40.506984 27.6905916,44.42004 37.1504196,40.201812 L37.8295596,41.722884 C35.1077076,42.953148 32.1643476,43.588188 29.1867156,43.598016 M48.4853796,31.165344 L46.9693476,30.476376 C51.1381836,21.198492 47.5108956,10.276812 38.6218476,5.340384 L39.4242156,3.898188 C49.0611996,9.257976 52.9986996,21.100212 48.4853796,31.165344" id="Fill-12" fill="#DCDDDE" mask="url(#mask-2)"></path>
            </g>
        </g>
    </g>
</svg>