<?xml version="1.0" encoding="UTF-8"?>
<svg width="22px" height="16px" viewBox="0 0 22 16" version="1.1" xmlns="http://www.w3.org/2000/svg" xmlns:xlink="http://www.w3.org/1999/xlink">
    <!-- Generator: Sketch 63 (92445) - https://sketch.com -->
    <title>icon-视频选中</title>
    <desc>Created with Sketch.</desc>
    <defs>
        <polygon id="path-1" points="0 2.78514064e-05 21.7480492 2.78514064e-05 21.7480492 15.125124 0 15.125124"></polygon>
    </defs>
    <g id="页面-1" stroke="none" stroke-width="1" fill="none" fill-rule="evenodd">
        <g id="企业数据-溯源-可视溯源" transform="translate(-727.000000, -965.000000)">
            <g id="icon-视频选中" transform="translate(727.000000, 965.000000)">
                <mask id="mask-2" fill="white">
                    <use xlink:href="#path-1"></use>
                </mask>
                <g id="Clip-2"></g>
                <path d="M6.19313621,12.0951974 L6.19313621,3.008119 L13.5939512,7.55026562 L6.19313621,12.0951974 Z M21.3753556,1.54216022 C20.8695741,1.22395791 17.075377,3.008119 17.075377,3.008119 L17.075377,2.82040052 C17.075377,1.26197508 15.7698423,2.78514064e-05 14.1569674,2.78514064e-05 L2.91836784,2.78514064e-05 C1.3054929,0.00267373502 -4.17771096e-05,1.26476022 -4.17771096e-05,2.82318566 L-4.17771096e-05,12.3046399 C-4.17771096e-05,13.8630654 1.3054929,15.1251519 2.91836784,15.1251519 L14.1596132,15.1251519 C15.7724882,15.1251519 17.0780229,13.8630654 17.0780229,12.3046399 L17.0780229,12.0734733 C17.0780229,12.0734733 20.8939441,13.8441264 21.3781408,13.5394321 C21.8595523,13.2348769 21.8840616,1.86036254 21.3753556,1.54216022 L21.3753556,1.54216022 Z" id="Fill-1" fill="#FFFFFF" mask="url(#mask-2)"></path>
            </g>
        </g>
    </g>
</svg>