<?xml version="1.0" encoding="UTF-8"?>
<svg width="40px" height="24px" viewBox="0 0 40 24" version="1.1" xmlns="http://www.w3.org/2000/svg" xmlns:xlink="http://www.w3.org/1999/xlink">
    <!-- Generator: Sketch 63 (92445) - https://sketch.com -->
    <title>编组</title>
    <desc>Created with Sketch.</desc>
    <defs>
        <polygon id="path-1" points="0 0 39.970242 0 39.970242 23.9191515 0 23.9191515"></polygon>
    </defs>
    <g id="页面-1" stroke="none" stroke-width="1" fill="none" fill-rule="evenodd">
        <g id="监控" transform="translate(-1094.000000, -231.000000)">
            <g id="编组" transform="translate(1094.000000, 231.000000)">
                <mask id="mask-2" fill="white">
                    <use xlink:href="#path-1"></use>
                </mask>
                <g id="Clip-2"></g>
                <path d="M29.1272606,1.36356364 L24.1270182,1.36356364 L24.1270182,1.86865455 L29.1270182,1.86865455 L29.1270182,1.36356364 L29.1272606,1.36356364 Z M29.1272606,2.87871515 L24.1270182,2.87871515 L24.1270182,3.38380606 L29.1270182,3.38380606 L29.1270182,2.87895758 L29.1272606,2.87871515 Z M13.722897,2.22210909 C13.1505333,3.0302303 12.3930788,3.82150303 11.4504121,4.59592727 L15.995503,4.59592727 C15.1219273,3.92441212 14.355503,3.12404848 13.7226545,2.22210909 L13.722897,2.22210909 Z M30.7431394,0.35350303 L30.7431394,4.39386667 L27.510897,4.39386667 L27.5352606,4.44598788 C27.5906545,4.57107879 27.6329576,4.72210909 27.6622909,4.89895758 L32.3593818,4.89895758 L32.3593818,6.11107879 L20.8442303,6.11107879 L20.8442303,4.89895758 L25.7432606,4.89895758 L25.7170788,4.82465455 C25.6546545,4.65544242 25.5791394,4.51180606 25.490897,4.39386667 L22.6117455,4.39386667 L22.6117455,0.35350303 L30.7433818,0.35350303 L30.7431394,0.35350303 Z M24.4299273,8.08077576 L28.975503,8.08077576 L28.975503,7.47471515 L24.4299273,7.47471515 L24.4299273,8.08077576 Z M12.8139273,-7.27272727e-05 C14.2615636,0.336533333 14.9856848,0.538593939 14.9856848,0.605987879 C14.9856848,0.67350303 14.9350182,0.740654545 14.8341697,0.808048485 C14.7667758,0.875442424 14.7163515,0.942593939 14.6827758,1.00998788 C15.7599879,2.69362424 17.443503,3.87204848 19.7332,4.54550303 C19.3963515,4.98307879 19.0597455,5.53871515 18.7231394,6.21204848 C18.6220485,6.17835152 18.4873818,6.11107879 18.3191394,6.00998788 C17.8476242,5.80804848 17.5110182,5.63968485 17.3089576,5.50501818 L17.3089576,6.00998788 L14.6321091,6.00998788 L14.6321091,7.27265455 L17.9150182,7.27265455 L17.9150182,8.63629091 L14.6321091,8.63629091 L14.6321091,10.100897 L18.9252,10.100897 L18.9252,11.4142303 L8.52095758,11.4142303 L8.52095758,10.100897 L12.8139273,10.100897 L12.8139273,8.63629091 L9.58168485,8.63629091 L9.58168485,7.27265455 L12.8139273,7.27265455 L12.8139273,6.00998788 L10.1372,6.00998788 L10.1372,5.45447273 L10.0013212,5.5542303 C9.62835152,5.82126061 9.23453333,6.05810909 8.82386667,6.26259394 C8.45380606,5.79107879 8.08326061,5.38707879 7.71295758,5.05047273 C10.4739273,3.60283636 12.1744121,1.91907879 12.8139273,-7.27272727e-05 L12.8139273,-7.27272727e-05 Z M28.8241091,9.14138182 L28.9621697,9.19338182 C30.238897,9.67665455 31.1861697,10.0967758 31.8038667,10.4544727 L30.8443515,11.7171394 C30.2382909,11.3468364 29.3964727,10.9427152 28.318897,10.5050182 L27.9654424,10.4039273 L28.8241091,9.14138182 Z M30.6420485,6.46453333 L30.6420485,9.09083636 L27.6119879,9.09083636 L27.6119879,10.9090182 L27.6165939,10.9464727 C27.6849576,11.6275636 26.9089576,11.9345939 25.2885939,11.8686545 C25.1877455,11.2961697 25.0359879,10.8250182 24.8340485,10.4544727 C25.6757455,10.4881697 26.0461697,10.353503 25.9452,10.0504727 L25.9452,9.09083636 L24.6825333,9.09083636 L25.3898061,9.94950303 L25.0963515,10.1222303 C24.1196242,10.6924121 23.1569576,11.2073212 22.2079879,11.6667152 L21.2987758,10.5555636 L21.4470182,10.5061091 C22.3335636,10.2023515 23.159503,9.74744242 23.9250788,9.14138182 L22.8643515,9.14138182 L22.8643515,6.46453333 L30.6422909,6.46453333 L30.6420485,6.46453333 Z M34.5346545,7.21035152 C36.5021697,7.86174545 38.2013212,9.14089697 39.3716242,10.8513212 C40.2370788,12.0678061 40.1569576,13.7187152 39.1776848,14.8456242 C38.2751394,15.8902303 37.2176848,16.7903515 36.0424121,17.5144727 C32.5099273,19.3308364 28.6350182,20.3841697 24.6692,20.6059879 C24.4278667,20.6112 24.1865333,20.6012606 23.9465333,20.5760485 L23.9350182,20.5760485 C23.8791394,20.4267152 23.838897,20.2719273 23.814897,20.1142303 C23.5678667,17.9601697 23.7156242,17.9324121 25.8397455,17.5353212 C28.634897,17.0194424 31.4002303,16.3536242 34.1237455,15.5405333 C35.3144121,15.1144727 36.4067758,14.4525333 37.3352606,13.5941091 C38.5365939,12.7754424 38.8466545,11.1383515 38.0279879,9.93701818 C37.8481091,9.6721697 37.6202303,9.44356364 37.3561091,9.26283636 C36.5087152,8.48247273 35.4604727,7.91677576 34.5346545,7.21035152 L34.5346545,7.21035152 Z M6.00944242,7.04186667 C4.97453333,7.59968485 3.97235152,8.21641212 3.00798788,8.88877576 C0.971624242,10.4565333 0.967018182,12.4028364 2.98035152,13.9844121 C5.56386667,16.0161697 8.6922303,16.7156848 11.8368364,17.2651394 C13.6330788,17.581503 15.4639879,17.7107152 17.3779273,17.9324121 C17.4449576,16.9027152 17.4911394,16.0853818 17.5534424,15.0072 C19.2965939,16.5286545 20.8780485,17.9139879 22.6073818,19.4122909 C20.8780485,20.9268364 19.3242303,22.2868364 17.4681091,23.9192 C17.4310182,23.3292606 17.4357455,22.737503 17.4819273,22.1482909 L17.4957455,22.1367758 C17.6642303,21.0354424 17.1540485,20.7514424 16.1358667,20.6891394 C12.1670182,20.5592 8.26701818,19.6162909 4.67732121,17.9185939 C3.36883636,17.2560485 2.17538182,16.3876848 1.14241212,15.3464727 C-0.317466667,13.9730182 -0.387527273,11.6760485 0.985927273,10.2161697 C0.987381818,10.2147152 0.988715152,10.2132606 0.990169697,10.2118061 L1.05707879,10.1470788 C2.38059394,8.6641697 4.09804848,7.58732121 6.00944242,7.04186667 L6.00944242,7.04186667 Z" id="Fill-1" fill="#FFFFFF" mask="url(#mask-2)"></path>
            </g>
        </g>
    </g>
</svg>