<?xml version="1.0" encoding="UTF-8"?>
<svg width="20px" height="19px" viewBox="0 0 20 19" version="1.1" xmlns="http://www.w3.org/2000/svg" xmlns:xlink="http://www.w3.org/1999/xlink">
    <!-- Generator: Sketch 63 (92445) - https://sketch.com -->
    <title></title>
    <desc></desc>
    <g id="页面-1" stroke="none" stroke-width="1" fill="none" fill-rule="evenodd">
        <g id="推广页-移动" transform="translate(-330.000000, -831.000000)" fill="#98A4AF">
            <g id="编组备份-18" transform="translate(330.000000, 831.000000)">
                <path d="M18.7600312,8.39101874 C18.4353706,8.39101874 18.1722187,8.65417064 18.1722187,8.97883124 C18.1673281,13.7571355 14.2949134,17.6294562 9.51670318,17.6343468 C9.19204258,17.6343468 8.92889068,17.8974987 8.92889068,18.2221593 C8.92889068,18.5468199 9.19204258,18.8099718 9.51670318,18.8099718 C14.9435763,18.8034823 19.3413543,14.4057043 19.3478437,8.97883124 C19.3478437,8.65417064 19.0846918,8.39101874 18.7600312,8.39101874" id="Fill-1"></path>
                <path d="M9.51668438,14.7335156 C9.19202378,14.7335156 8.92887188,14.9966675 8.92887188,15.3213281 C8.92887188,15.6459887 9.19202378,15.9091406 9.51668438,15.9091406 C13.3215712,15.9026512 16.4038718,12.8190338 16.4087624,9.01405296 C16.4087624,8.68948641 16.1456105,8.42624046 15.8209499,8.42624046 C15.4962893,8.42624046 15.2331374,8.68948641 15.2331374,9.01405296 C15.2299397,12.170371 12.6730024,14.728625 9.51668438,14.7335156" id="Fill-3"></path>
                <path d="M3.93246563,12.1265719 L2.03970938,13.9840594 C1.80759398,14.2121306 1.80430223,14.585227 2.03237348,14.8172483 C2.26044473,15.0493637 2.63344703,15.0526555 2.86556243,14.8245842 L4.75540313,12.9671908 C4.98751853,12.7398719 4.99146863,12.367528 4.76424383,12.1354126 C4.53701903,11.9032972 4.16458103,11.8993471 3.93246563,12.1265719 L3.93246563,12.1265719 Z M8.73494078,3.79139063 C9.05950733,3.79139063 9.32275328,3.52823873 9.32275328,3.20357812 L9.32275328,0.587765475 C9.32275328,0.263198925 9.05950733,4.7025e-05 8.73494078,4.7025e-05 C8.41028018,4.7025e-05 8.14712828,0.263198925 8.14712828,0.587765475 L8.14712828,3.20357812 C8.14712828,3.52823873 8.41028018,3.79139063 8.73494078,3.79139063 L8.73494078,3.79139063 Z M4.53786548,5.30794688 C4.75822463,5.54645768 5.13009833,5.56112948 5.36860913,5.34086438 C5.60702588,5.12050523 5.62169768,4.74863153 5.40143258,4.51021478 C5.38854773,4.49629538 5.37500453,4.48294028 5.36089703,4.47033758 L3.47105633,2.61285008 C3.23969333,2.38477882 2.86734938,2.38741223 2.63927813,2.61868118 C2.41120688,2.85004417 2.41384028,3.22238813 2.64510923,3.45045938 L4.53786548,5.30794688 Z M12.8613845,5.46077824 C13.0150622,5.46087218 13.1629088,5.40077423 13.2728533,5.29327508 L15.1625999,3.43277798 C15.4048727,3.21683917 15.4262221,2.84515357 15.2101892,2.60288078 C14.9941564,2.36060797 14.6225648,2.33925863 14.380292,2.55529148 C14.3661845,2.56789417 14.3525473,2.58124927 14.3396624,2.59516868 L12.4469062,4.45557173 C12.2163896,4.68420728 12.2148848,5.05645718 12.4435204,5.28687968 C12.5540291,5.39832893 12.7045091,5.46087218 12.8613845,5.46077824 L12.8613845,5.46077824 Z M5.64003743,8.83482188 C5.62056908,6.99097163 7.09950533,5.48043458 8.94335558,5.46096623 C10.7872999,5.44149788 12.2977429,6.92043413 12.3172112,8.76428438 C12.3366796,10.6081346 10.8578374,12.1186717 9.01389307,12.13814 C9.00223088,12.1382341 8.99056868,12.1383494 8.97881243,12.1383494 C7.14587198,12.1448176 5.65301633,10.6676683 5.64003743,8.83482188 L5.64003743,8.83482188 Z M13.4932124,8.83482188 C13.5126808,6.34165042 11.5074407,4.30471553 9.01426928,4.28524718 C6.52109783,4.26577882 4.48416293,6.27111292 4.46469458,8.76428438 C4.44522623,11.2574558 6.45056033,13.2942967 8.94373178,13.313765 C8.95539398,13.3138591 8.96715023,13.3139542 8.97881243,13.3139542 C11.459005,13.315646 13.475437,11.3149204 13.4932124,8.83482188 L13.4932124,8.83482188 Z" id="Fill-5"></path>
                <path d="M3.82078125,8.59087499 C3.82078125,8.26621439 3.55762935,8.00306249 3.23296875,8.00306249 L0.5878125,8.00306249 C0.2631519,8.00306249 0,8.26621439 0,8.59087499 C0,8.91553559 0.2631519,9.17868749 0.5878125,9.17868749 L3.23296875,9.17868749 C3.55762935,9.17868749 3.82078125,8.91553559 3.82078125,8.59087499" id="Fill-7"></path>
            </g>
        </g>
    </g>
</svg>