<?xml version="1.0" encoding="UTF-8"?>
<svg width="18px" height="17px" viewBox="0 0 18 17" version="1.1" xmlns="http://www.w3.org/2000/svg" xmlns:xlink="http://www.w3.org/1999/xlink">
    <!-- Generator: Sketch 63 (92445) - https://sketch.com -->
    <title></title>
    <desc></desc>
    <defs>
        <polygon id="path-1" points="0 0 18.63 0 18.63 16.2 0 16.2"></polygon>
    </defs>
    <g id="页面-1" stroke="none" stroke-width="1" fill="none" fill-rule="evenodd">
        <g id="推广页-移动" transform="translate(-214.000000, -765.000000)">
            <g id="编组备份-20" transform="translate(214.000000, 765.000000)">
                <mask id="mask-2" fill="white">
                    <use xlink:href="#path-1"></use>
                </mask>
                <g id="Clip-2"></g>
                <path d="M16.9381773,6.4526301 C16.6721733,6.2079291 16.5710853,5.8088421 16.4619783,5.3486001 C16.3050813,4.6808361 16.1108433,3.8508291 15.2462493,3.3240861 C14.1821523,2.6777061 13.1711913,3.0580821 12.2773563,3.3799761 C11.6575443,3.6061281 11.0695653,3.8215881 10.5295383,3.6859131 C8.4225663,3.1538241 8.5582413,0.6797601 8.5635063,0.5706531 C8.5848903,0.2775951 8.3645703,0.0227691 8.0715123,0.00138509999 L8.0714313,0.00138509999 C7.7783733,-0.0198369 7.5235473,0.2004831 7.5022443,0.4936221 C7.5021633,0.4944321 7.5021633,0.4953231 7.5020823,0.4962141 C7.4169513,1.6906401 7.8851313,4.1142411 10.2661263,4.7154231 C11.1281283,4.9336371 11.9341593,4.6383111 12.6444483,4.3775721 C13.5277533,4.0530051 14.0996133,3.8721321 14.6928573,4.2339591 C15.1637913,4.5238581 15.2701443,4.9309641 15.4297953,5.5880361 C15.5601243,6.1466931 15.7091643,6.7771971 16.2278883,7.2454581 C16.3256553,7.3315611 16.4514483,7.3788651 16.5817773,7.37846268 C16.7332473,7.3781361 16.8773463,7.3132551 16.9781103,7.2001791 C17.1720243,6.9822081 17.1542043,6.6487311 16.9381773,6.4526301 L16.9381773,6.4526301 Z M5.0545863,15.1358301 C2.8433673,15.1285401 1.0568313,13.3300971 1.06409907,11.1188781 C1.06409907,11.1170961 1.06409907,11.1152331 1.06409907,11.1135321 C1.06409907,8.9373861 3.3865533,4.8431601 5.0332833,1.9886391 C5.2035453,2.3025951 5.3871723,2.6297541 5.5653723,2.9676051 L5.5840023,3.0021921 C7.0312293,5.6093391 9.01316131,9.1794141 9.01316131,11.1081861 C9.0206703,13.3088751 7.2550323,15.1052121 5.0545863,15.1358301 L5.0545863,15.1358301 Z M6.5044863,2.4515541 C6.2064873,1.9194651 5.9218533,1.4060061 5.6718063,0.9351531 L5.5148283,0.6451731 C5.4198963,0.4807431 5.2445313,0.3793311 5.0545863,0.379117693 C4.8618873,0.3764961 4.6827153,0.4782321 4.5864063,0.6451731 L4.2565743,1.1878731 C2.5672383,4.1301981 -1.44706629e-06,8.5782321 -1.44706629e-06,11.1135321 C-0.0088047,13.9138641 2.2541733,16.1911791 5.0545863,16.2000081 L5.0545863,16.2000081 C7.8541893,16.1868051 10.1151423,13.9104621 10.1091602,11.1108591 C10.1091602,8.9027991 8.1325863,5.3459271 6.5470113,2.4861411 L6.5044863,2.4515541 Z M14.7633273,14.8724991 C13.7182653,14.8651281 12.8765943,14.0128461 12.8824763,12.9677841 C12.8824763,11.9701071 13.9226283,10.0253781 14.7446973,8.5675401 L14.7686733,8.6128191 C15.5666853,10.0360701 16.6308817,11.9833911 16.6308817,12.9677841 C16.6353993,14.0070951 15.8025573,14.8564611 14.7633273,14.8724991 L14.7633273,14.8724991 Z M15.2315883,7.2320931 C15.1407873,7.0615071 14.9646123,6.9535341 14.7713463,6.9501321 C14.5797003,6.9517521 14.4025533,7.0523541 14.3030853,7.2161361 L14.2259733,7.3518111 C13.2097473,9.1103211 11.8316943,11.5178031 11.8316943,12.9677841 C11.7828513,14.5949121 13.0621653,15.9536871 14.6893743,16.0025301 C16.3165833,16.0514541 17.6753583,14.7719781 17.7242823,13.1447691 C17.7260643,13.0858011 17.7260643,13.0267521 17.7242823,12.9677841 C17.7242823,11.7093681 16.6601043,9.7753311 15.7210713,8.0966871 C15.5374443,7.7907501 15.3752013,7.4981781 15.2315883,7.2320931 L15.2315883,7.2320931 Z" id="Fill-1" fill="#98A4AF" mask="url(#mask-2)"></path>
            </g>
        </g>
    </g>
</svg>