<?xml version="1.0" encoding="UTF-8"?>
<svg width="17px" height="17px" viewBox="0 0 17 17" version="1.1" xmlns="http://www.w3.org/2000/svg" xmlns:xlink="http://www.w3.org/1999/xlink">
    <!-- Generator: Sketch 63 (92445) - https://sketch.com -->
    <title></title>
    <desc></desc>
    <defs>
        <polygon id="path-1" points="0 0 16.8487355 0 16.8487355 16.8479676 0 16.8479676"></polygon>
    </defs>
    <g id="页面-1" stroke="none" stroke-width="1" fill="none" fill-rule="evenodd">
        <g id="推广页-移动" transform="translate(-99.000000, -831.000000)">
            <g id="编组备份-12" transform="translate(99.000000, 831.000000)">
                <mask id="mask-2" fill="white">
                    <use xlink:href="#path-1"></use>
                </mask>
                <g id="Clip-2"></g>
                <path d="M10.6084955,14.677132 C9.38630268,15.8436292 7.46320068,15.8436292 6.24091068,14.677132 C5.13292788,13.6338844 4.86076788,11.9620444 5.58004788,10.6077568 L8.42470308,5.26817196 L11.2629431,10.6077568 C11.9887355,11.9620444 11.7164783,13.6403968 10.6084955,14.677132 L10.6084955,14.677132 Z M8.99487828,3.58340436 C8.76811068,3.16223676 8.07478308,3.16223676 7.84801548,3.58340436 L4.43299068,9.99860436 C3.43513548,11.8713568 3.81091068,14.1847168 5.34676788,15.6231796 C6.20854308,16.4332444 7.31011068,16.834972 8.41819068,16.834972 C9.52627068,16.834972 10.6279355,16.426732 11.4897107,15.6231796 C13.0254707,14.1847168 13.4013431,11.8713568 12.4034879,9.99860436 L8.99487828,3.58340436 Z M16.8487355,3.23989956 L16.8487355,1.94393196 L15.5526707,1.94393196 L15.5526707,-6.804e-05 L14.2567031,-6.804e-05 L14.2567031,16.8479968 L16.8487355,16.8479968 L16.8487355,15.551932 L15.5526707,15.551932 L15.5526707,12.3119644 L16.8487355,12.3119644 L16.8487355,11.0159968 L15.5526707,11.0159968 L15.5526707,7.77593196 L16.8487355,7.77593196 L16.8487355,6.47996436 L15.5526707,6.47996436 L15.5526707,3.23989956 L16.8487355,3.23989956 Z M3.44806308,6.76505196 C2.96206308,7.25105196 2.22334308,7.25105196 1.73092788,6.76505196 C1.27729548,6.31151676 1.16065548,5.55977196 1.45876788,4.97015676 L2.59270308,2.73455676 L3.72022308,4.97015676 C4.01833548,5.55977196 3.90811068,6.31151676 3.44806308,6.76505196 L3.44806308,6.76505196 Z M4.88011068,4.38044436 L3.16939068,1.00429956 C2.94913548,0.57020436 2.23636788,0.57020436 2.00950308,1.00429956 L0.30529548,4.38044436 C-0.24553692,5.47549956 -0.03820932,6.83629956 0.82366308,7.68524436 C1.32259068,8.17775676 1.95769548,8.42396436 2.59270308,8.42396436 C3.22771068,8.42396436 3.86281548,8.17775676 4.36174308,7.68524436 C5.21710308,6.83629956 5.43094308,5.47549956 4.88011068,4.38044436 L4.88011068,4.38044436 Z" id="Fill-1" fill="#98A4AF" mask="url(#mask-2)"></path>
            </g>
        </g>
    </g>
</svg>