<?xml version="1.0" encoding="UTF-8"?>
<svg width="12px" height="11px" viewBox="0 0 12 11" version="1.1" xmlns="http://www.w3.org/2000/svg" xmlns:xlink="http://www.w3.org/1999/xlink">
    <!-- Generator: Sketch 63 (92445) - https://sketch.com -->
    <title></title>
    <desc></desc>
    <defs>
        <polygon id="path-1" points="0 3.31081401e-06 11.1295842 3.31081401e-06 11.1295842 10.1576073 0 10.1576073"></polygon>
    </defs>
    <g id="页面-1" stroke="none" stroke-width="1" fill="none" fill-rule="evenodd">
        <g id="企业信息1" transform="translate(-333.000000, -1238.000000)">
            <g id="编组" transform="translate(333.000000, 1238.000000)">
                <mask id="mask-2" fill="white">
                    <use xlink:href="#path-1"></use>
                </mask>
                <g id="Clip-2"></g>
                <path d="M9.654316,3.3762064 C9.459268,2.9111824 9.186884,2.4825584 8.848868,2.1083664 C8.072596,1.2599104 6.998684,0.7439264 5.851188,0.6681024 C5.4313,0.6417264 5.009844,0.6759424 4.599756,0.7695744 C4.128628,0.8772624 3.678108,1.0605504 3.265612,1.3123264 C2.447508,1.8157104 1.815492,2.5717664 1.465156,3.4661424 C1.430492,3.5553504 1.40154,3.6467424 1.367044,3.7353904 L1.352484,3.7646784 C1.324316,3.8112144 1.286012,3.8507504 1.240428,3.8803744 C1.083068,3.9761904 0.877884,3.9262944 0.782124,3.7689344 C0.7777,3.7617104 0.773556,3.7542624 0.769748,3.7467024 C0.737492,3.6778784 0.728364,3.6004864 0.743652,3.5260624 C0.759108,3.4695024 0.779604,3.4154064 0.798756,3.3601344 C1.014188,2.7691104 1.3349,2.2220464 1.745324,1.7453184 C2.08362,1.3553344 2.479708,1.0195024 2.919812,0.7495264 C3.847788,0.1828624 4.932172,-0.0733936 6.01566,0.0181664 C6.606348,0.0716464 7.183428,0.2265424 7.721476,0.4760784 C7.776356,0.5013904 7.8309,0.5284384 7.885556,0.5554864 C8.713908,0.9775584 9.410492,1.6190384 9.89926,2.4098704 C10.04066,2.6404784 10.163524,2.8819504 10.266788,3.1319904 C10.344068,2.9663424 10.427844,2.8037184 10.517724,2.6445104 C10.602116,2.5069744 10.772636,2.4492384 10.923164,2.5072544 L10.959284,2.5245584 C11.108692,2.6084464 11.170236,2.7918464 11.101636,2.9489264 C10.905692,3.3661824 10.717476,3.7879184 10.487652,4.1883184 C10.469396,4.2185584 10.446548,4.2456624 10.420004,4.2688464 C10.32626,4.3480304 10.196788,4.3695904 10.082436,4.3250704 C9.652916,4.1437984 9.235324,3.9369344 8.830836,3.7050944 C8.67538,3.6070944 8.628788,3.4016304 8.726732,3.2461184 C8.78486,3.1538864 8.884428,3.0960384 8.993348,3.0911104 C9.042348,3.0902704 9.090956,3.1001824 9.1357,3.1201744 L9.147572,3.1253824 L9.654204,3.3763744 L9.654316,3.3762064 Z M1.510516,6.8049744 C1.711724,7.2772224 1.9929,7.7112784 2.341668,8.0880464 C3.05242,8.8465104 4.005596,9.3331504 5.036836,9.4640784 C5.450732,9.5155424 5.86978,9.5078144 6.281492,9.4410624 C7.27314,9.2822464 8.180564,8.7889984 8.853124,8.0433024 C9.25722,7.5923344 9.566564,7.0647584 9.762732,6.4918784 L9.774492,6.4618624 C9.845892,6.3075264 10.022684,6.2325984 10.183292,6.2885424 C10.213084,6.3008064 10.213084,6.3008064 10.241644,6.3155344 C10.36714,6.3891744 10.42986,6.5362304 10.395924,6.6777424 C10.379236,6.7330704 10.358796,6.7870544 10.33998,6.8413744 C9.889852,8.0560704 8.99318,9.0533744 7.833028,9.6297264 C7.338604,9.8737744 6.80806,10.0362864 6.261836,10.1110464 C5.787572,10.1758384 5.306532,10.1729824 4.833052,10.1026464 C3.610124,9.9173424 2.495444,9.2962464 1.694252,8.3538784 C1.353548,7.9484384 1.078196,7.4923744 0.878164,7.0020384 C0.795004,7.1774864 0.709884,7.3517584 0.613228,7.5204864 C0.575708,7.5809664 0.520324,7.6283424 0.454748,7.6559504 C0.282436,7.7228704 0.088564,7.6374704 0.021644,7.4651584 C0.011508,7.4391184 0.004676,7.4118464 0.001316,7.3840704 C-0.003724,7.3265584 0.005684,7.2686544 0.028756,7.2157344 C0.225204,6.7987024 0.414148,6.3766864 0.643244,5.9765104 C0.661668,5.9459904 0.684516,5.9184384 0.711396,5.8950304 C0.805364,5.8164624 0.9345,5.7951264 1.04874,5.8392544 C1.473276,6.0192944 1.879724,6.2395424 2.288692,6.4522864 C2.448516,6.5433424 2.504292,6.7467344 2.413236,6.9065584 C2.377116,6.9700064 2.321172,7.0197344 2.254028,7.0482944 C2.166556,7.0831824 2.068444,7.0798224 1.983548,7.0389424 L1.510684,6.8046944 L1.510516,6.8049744 Z" id="Fill-1" fill="#2787F5" mask="url(#mask-2)"></path>
            </g>
        </g>
    </g>
</svg>