<?xml version="1.0" encoding="UTF-8"?>
<svg width="12px" height="22px" viewBox="0 0 12 22" version="1.1" xmlns="http://www.w3.org/2000/svg" xmlns:xlink="http://www.w3.org/1999/xlink">
    <!-- Generator: Sketch 63 (92445) - https://sketch.com -->
    <title></title>
    <desc></desc>
    <defs>
        <polygon id="path-1" points="0 0.02013984 11.1585056 0.02013984 11.1585056 21.636636 0 21.636636"></polygon>
    </defs>
    <g id="页面-1" stroke="none" stroke-width="1" fill="none" fill-rule="evenodd">
        <g id="推广页-移动" transform="translate(-104.000000, -765.000000)">
            <g id="分组-7备份-4" transform="translate(25.000000, 765.000000)">
                <g id="编组备份-21" transform="translate(79.000000, 0.000000)">
                    <g id="编组" transform="translate(0.000000, 0.115940)">
                        <mask id="mask-2" fill="white">
                            <use xlink:href="#path-1"></use>
                        </mask>
                        <g id="Clip-2"></g>
                        <path d="M1.40374685,16.2643224 C1.51927877,14.7681228 2.40706469,13.4403903 3.74581973,12.7620315 C3.98994725,12.6458191 4.14780005,12.4020999 4.15405973,12.131845 L4.15405973,8.65813082 L5.29998941,8.65813082 C5.59664381,8.65813082 5.83709717,8.41767746 5.83709717,8.12102306 C5.83709717,7.82436866 5.59664381,7.5839153 5.29998941,7.5839153 L4.15405973,7.5839153 L4.15405973,6.42356114 L5.29998941,6.42356114 C5.59664381,6.42356114 5.83709717,6.18310778 5.83709717,5.88645338 C5.83709717,5.58979898 5.59664381,5.34920954 5.29998941,5.34920954 L4.15405973,5.34920954 L4.15405973,4.18899146 L5.29998941,4.18899146 C5.59664381,4.18899146 5.83709717,3.9485381 5.83709717,3.6518837 C5.83709717,3.35509322 5.59664381,3.11463986 5.29998941,3.11463986 L4.15405973,3.11463986 L4.15405973,2.88548114 C4.15351541,2.09431202 4.79458829,1.45269482 5.58562133,1.452286 C6.37679045,1.45187834 7.01840765,2.09281514 7.01881589,2.88384818 L7.01881589,12.131845 C7.01813549,12.3942072 7.16101949,12.6361575 7.39126685,12.7620315 C8.73560117,13.43658 9.62923853,14.764993 9.74762813,16.2643224 C9.71782661,18.4712679 7.90456061,20.2362255 5.69761517,20.2064239 C5.66060141,20.2060157 5.62345157,20.2050631 5.58643781,20.2034302 C3.34479197,20.267796 1.47396413,18.5056961 1.40374685,16.2643224 Z M8.45133005,2.88548114 C8.45160221,1.30327898 7.16918429,0.020452824 5.58698213,0.0200444541 C4.00477997,0.019772424 2.72195381,1.30219034 2.72154557,2.8843925 L2.72154557,11.723605 C1.10926973,12.6839215 0.086900688,14.3895483 -5.4432e-05,16.2643224 C0.070435008,19.2854345 2.56491749,21.6839806 5.58643781,21.6358083 C8.60700557,21.6877908 11.0998551,19.2848902 11.1585056,16.2643224 C11.0734556,14.3929503 10.0572101,12.6882761 8.45133005,11.723605 L8.45133005,2.88548114 Z" id="Fill-1" fill="#98A4AF" mask="url(#mask-2)"></path>
                    </g>
                    <path d="M7.10484566,17.5119311 C6.72205262,17.9483396 6.16684622,18.1946444 5.58646502,18.1851188 C4.58151422,18.2297531 3.72815654,17.4564104 3.67413278,16.4518679 C3.6821615,15.8640023 3.99364862,15.3219956 4.49782502,15.0194898 C4.7490287,14.8612288 4.82428094,14.5293296 4.66615598,14.278126 C4.50789494,14.0270584 4.17599582,13.95167 3.92479214,14.1099311 C3.10681526,14.6053984 2.60291102,15.4884215 2.59270502,16.4446556 C2.64332678,18.0480863 3.9828983,19.3076428 5.58646502,19.2594704 C6.48146318,19.2679074 7.33509302,18.8829371 7.92132566,18.2064834 C8.09850182,17.9686156 8.04910478,17.6320897 7.81110086,17.4549136 C7.59486974,17.2937948 7.29263606,17.3181532 7.10484566,17.5119311" id="Fill-3" fill="#98A4AF"></path>
                </g>
            </g>
        </g>
    </g>
</svg>