<?xml version="1.0" encoding="UTF-8"?>
<svg width="19px" height="17px" viewBox="0 0 19 17" version="1.1" xmlns="http://www.w3.org/2000/svg" xmlns:xlink="http://www.w3.org/1999/xlink">
    <!-- Generator: Sketch 63 (92445) - https://sketch.com -->
    <title></title>
    <desc></desc>
    <defs>
        <polygon id="path-1" points="0 0.000139545417 18.2302488 0.000139545417 18.2302488 16.7761854 0 16.7761854"></polygon>
    </defs>
    <g id="页面-1" stroke="none" stroke-width="1" fill="none" fill-rule="evenodd">
        <g id="推广页-移动" transform="translate(-331.000000, -897.000000)">
            <g id="编组备份-14" transform="translate(331.000000, 897.000000)">
                <mask id="mask-2" fill="white">
                    <use xlink:href="#path-1"></use>
                </mask>
                <g id="Clip-2"></g>
                <path d="M8.20656134,12.2199354 C8.20656134,11.716488 8.61450974,11.3086854 9.11781134,11.3086854 C9.62111294,11.3086854 10.0290613,10.900737 10.0290613,10.3974354 C10.0290613,9.893988 10.4370097,9.4861854 10.9403113,9.4861854 C11.4436129,9.4861854 11.8515613,9.893988 11.8515613,10.3974354 C11.8515613,11.9071944 10.6275703,13.1311854 9.11781134,13.1311854 C8.61450974,13.1311854 8.20656134,12.723237 8.20656134,12.2199354 Z M16.4078113,16.4025 C15.9045097,16.4025 15.4965613,15.9945516 15.4965613,15.49125 C15.4965613,14.9879484 15.9045097,14.58 16.4078113,14.58 L17.3190613,14.58 C17.8223629,14.58 18.2303113,14.9879484 18.2303113,15.49125 C18.2303113,15.9945516 17.8223629,16.4025 17.3190613,16.4025 L16.4078113,16.4025 Z M16.6720009,12.4933104 C16.5915193,12.404664 16.5269299,12.3030414 16.4807113,12.192525 C16.4293897,12.0844872 16.4043121,11.965806 16.4078113,11.84625 C16.4078113,11.3429484 16.8157597,10.935 17.3190613,10.935 C17.8223629,10.935 18.2303113,11.3429484 18.2303113,11.84625 C18.2288533,11.9652228 18.2040673,12.0830292 18.1574113,12.192525 C18.1111927,12.3030414 18.0466033,12.404664 17.9659759,12.4933104 C17.7914533,12.6596682 17.5603603,12.7541466 17.3190613,12.7575 C17.0777623,12.7541466 16.8466693,12.6596682 16.6720009,12.4933104 Z M15.4965613,1.8225 C14.9932597,1.8225 14.5853113,1.4145516 14.5853113,0.91125 C14.5853113,0.4079484 14.9932597,-4.41873649e-12 15.4965613,-4.41873649e-12 L17.3190613,-4.41873649e-12 C17.8223629,-4.41873649e-12 18.2303113,0.4079484 18.2303113,0.91125 C18.2303113,1.4145516 17.8223629,1.8225 17.3190613,1.8225 L15.4965613,1.8225 Z M16.4078113,5.4675 C15.9045097,5.4675 15.4965613,5.0595516 15.4965613,4.55625 C15.4965613,4.0529484 15.9045097,3.645 16.4078113,3.645 L17.3190613,3.645 C17.8223629,3.645 18.2303113,4.0529484 18.2303113,4.55625 C18.2303113,5.0595516 17.8223629,5.4675 17.3190613,5.4675 L16.4078113,5.4675 Z M17.3190613,9.1125 L17.1368113,9.1125 L16.9727863,9.057825 C16.9147579,9.0378504 16.8594997,9.0102942 16.8087613,8.9758854 L16.6720009,8.8665354 C16.3175611,8.5090338 16.3200397,7.9321032 16.6773955,7.5778092 C17.0346055,7.2233694 17.6115361,7.2257022 17.9659759,7.583058 C18.3183745,7.9383726 18.3183745,8.5112208 17.9659759,8.8665354 L17.8293613,8.9758854 C17.7786229,9.0102942 17.7233647,9.0378504 17.6653363,9.057825 C17.6108071,9.0852354 17.5524871,9.1036062 17.4921259,9.1125 L17.3190613,9.1125 Z M0.916561341,16.4025 C0.413259741,16.4025 0.00531134128,15.9945516 0.00531134128,15.49125 C0.00531134128,14.9879484 0.413259741,14.58 0.916561341,14.58 L1.82781134,14.58 C2.33111294,14.58 2.73906134,14.9879484 2.73906134,15.49125 C2.73906134,15.9945516 2.33111294,16.4025 1.82781134,16.4025 L0.916561341,16.4025 Z M0.570286341,12.6846 C0.458457741,12.6411516 0.356251941,12.5762706 0.269500941,12.4933104 C-0.0847930587,12.1358088 -0.0824602587,11.5588782 0.274895541,11.2045842 C0.632105541,10.8501444 1.20918194,10.852623 1.56347594,11.209833 C1.91587454,11.5650018 1.91587454,12.1379958 1.56347594,12.4933104 C1.47482954,12.5733546 1.37306114,12.6382356 1.26283634,12.6846 C1.15334054,12.731256 1.03553414,12.756042 0.916561341,12.7575 C0.797442741,12.756042 0.679782141,12.731256 0.570286341,12.6846 Z M0.916561341,1.8225 C0.413259741,1.8225 0.00531134128,1.4145516 0.00531134128,0.91125 C0.00531134128,0.4079484 0.413259741,-4.41873649e-12 0.916561341,-4.41873649e-12 L2.73906134,-4.41873649e-12 C3.24236294,-4.41873649e-12 3.65031134,0.4079484 3.65031134,0.91125 C3.65031134,1.4145516 3.24236294,1.8225 2.73906134,1.8225 L0.916561341,1.8225 Z M0.916561341,5.4675 C0.413259741,5.4675 0.00531134128,5.0595516 0.00531134128,4.55625 C0.00531134128,4.0529484 0.413259741,3.645 0.916561341,3.645 L1.82781134,3.645 C2.33111294,3.645 2.73906134,4.0529484 2.73906134,4.55625 C2.73906134,5.0595516 2.33111294,5.4675 1.82781134,5.4675 L0.916561341,5.4675 Z M0.570286341,9.0396 C0.458457741,8.9961516 0.356251941,8.9312706 0.269500941,8.8483104 C-0.0877090587,8.4938706 -0.0901876587,7.9167942 0.264252141,7.5595842 C0.266001741,7.5576888 0.267751341,7.556085 0.269500941,7.5543354 C0.356251941,7.4713752 0.458457741,7.4062026 0.570286341,7.3629 C0.790298541,7.263027 1.04282414,7.263027 1.26283634,7.3629 C1.37218634,7.4085354 1.47424634,7.4741454 1.56347594,7.5543354 C1.92083174,7.9086294 1.92316454,8.48556 1.56887054,8.8429158 C1.56697514,8.8446654 1.56537134,8.8465608 1.56347594,8.8483104 C1.47482954,8.9283546 1.37306114,8.9932356 1.26283634,9.0396 C1.15465274,9.09063 1.03611734,9.1155618 0.916561341,9.1125 C0.797005341,9.1155618 0.678469941,9.09063 0.570286341,9.0396 Z" id="Fill-1" fill="#98A4AF" mask="url(#mask-2)"></path>
                <path d="M6.86138654,13.5463673 C5.61606989,12.3138056 5.31017581,10.3385834 6.11861017,8.73853846 L9.3158588,2.43 L12.5058971,8.73853846 C13.321651,10.3385834 13.0156477,12.3214998 11.7703311,13.5463673 C10.3966481,14.9245442 8.23517871,14.9245442 6.86138654,13.5463673 Z M9.98379906,0.377166591 C9.72079465,-0.125722197 8.9166753,-0.125722197 8.6536709,0.377166591 L4.69293502,8.0371389 C3.53562544,10.2732705 3.97144843,13.035503 5.75273117,14.7530777 C6.75221555,15.7203232 8.02981047,16.2 9.31495845,16.2 C10.6001064,16.2 11.8778141,15.7125472 12.8772985,14.7530777 C14.6584685,13.035503 15.0944042,10.2732705 13.9370946,8.0371389 L9.98379906,0.377166591 Z" id="Fill-1" fill="#98A4AF" mask="url(#mask-2)"></path>
            </g>
        </g>
    </g>
</svg>