<?xml version="1.0" encoding="UTF-8"?>
<svg width="16px" height="16px" viewBox="0 0 16 16" version="1.1" xmlns="http://www.w3.org/2000/svg" xmlns:xlink="http://www.w3.org/1999/xlink">
    <!-- Generator: Sketch 63 (92445) - https://sketch.com -->
    <title></title>
    <desc></desc>
    <defs>
        <polygon id="path-1" points="0 0.08325 15.84675 0.08325 15.84675 15.929982 0 15.929982"></polygon>
    </defs>
    <g id="页面-1" stroke="none" stroke-width="1" fill="none" fill-rule="evenodd">
        <g id="溯源首页" transform="translate(-30.000000, -479.000000)">
            <g id="编组-2" transform="translate(30.000000, 479.000000)">
                <g id="编组">
                    <mask id="mask-2" fill="white">
                        <use xlink:href="#path-1"></use>
                    </mask>
                    <g id="Clip-2"></g>
                    <path d="M12.271536,15.929982 L3.575286,15.929982 C1.602036,15.929982 -5.4e-05,14.330322 -5.4e-05,12.354732 L-5.4e-05,3.658482 C-5.4e-05,1.682982 1.602036,0.083232 3.575286,0.083232 L12.271536,0.083232 C14.246946,0.083232 15.846786,1.682982 15.846786,3.658482 L15.846786,12.354732 C15.846786,14.327982 14.246946,15.929982 12.271536,15.929982" id="Fill-1" fill="#FFA031" mask="url(#mask-2)"></path>
                </g>
                <path d="M8.948214,12.392991 L6.898554,12.392991 C6.747714,12.392991 6.626214,12.271491 6.626214,12.120741 C6.626214,11.969991 6.747714,11.848491 6.898554,11.848491 L8.948214,11.848491 C9.099054,11.848491 9.220464,11.969991 9.220464,12.120741 C9.220464,12.271491 9.099054,12.392991 8.948214,12.392991 M11.823714,5.789241 C11.823714,3.705741 10.077804,2.018241 7.924464,2.018241 C5.771214,2.018241 4.025214,3.705741 4.025214,5.789241 C4.025214,7.010991 4.626054,8.095491 5.557464,8.783991 C6.311214,9.341991 6.749964,10.226241 6.749964,11.162241 C6.749964,11.375991 6.923214,11.549241 7.136964,11.549241 L8.711964,11.549241 C8.925714,11.549241 9.099054,11.375991 9.099054,11.162241 C9.099054,10.226241 9.537804,9.339741 10.291554,8.783991 C11.222964,8.095491 11.823714,7.010991 11.823714,5.789241" id="Fill-3" fill="#FFFFFF"></path>
                <path d="M9.47925,6.576741 L6.36975,6.576741 C6.219,6.576741 6.0975,6.698241 6.0975,6.848991 C6.0975,6.999741 6.219,7.121241 6.36975,7.121241 L7.65225,7.121241 L7.65225,10.502991 C7.65225,10.653741 7.77375,10.775241 7.9245,10.775241 C8.07525,10.775241 8.19675,10.653741 8.19675,10.502991 L8.19675,7.121241 L9.47925,7.121241 C9.63,7.121241 9.7515,6.999741 9.7515,6.848991 C9.7515,6.698241 9.63,6.576741 9.47925,6.576741" id="Fill-5" fill="#FFBC31"></path>
                <path d="M8.383518,13.994982 L7.465518,13.994982 C7.314768,13.994982 7.193268,13.873482 7.193268,13.722822 C7.193268,13.571982 7.314768,13.450482 7.465518,13.450482 L8.383518,13.450482 C8.534268,13.450482 8.655678,13.571982 8.655678,13.722822 C8.655678,13.871232 8.534268,13.994982 8.383518,13.994982 M8.698518,13.236732 L7.148268,13.236732 C6.997518,13.236732 6.876018,13.115322 6.876018,12.964482 C6.876018,12.813732 6.997518,12.692232 7.148268,12.692232 L8.698518,12.692232 C8.849268,12.692232 8.970678,12.813732 8.970678,12.964482 C8.970678,13.115322 8.849268,13.236732 8.698518,13.236732" id="Fill-7" fill="#FFFFFF"></path>
            </g>
        </g>
    </g>
</svg>