<?xml version="1.0" encoding="UTF-8"?>
<svg width="18px" height="19px" viewBox="0 0 18 19" version="1.1" xmlns="http://www.w3.org/2000/svg" xmlns:xlink="http://www.w3.org/1999/xlink">
    <!-- Generator: Sketch 63 (92445) - https://sketch.com -->
    <title></title>
    <desc></desc>
    <g id="页面-1" stroke="none" stroke-width="1" fill="none" fill-rule="evenodd">
        <g id="推广页-移动" transform="translate(-215.000000, -963.000000)" fill="#98A4AF">
            <g id="编组-7备份-2" transform="translate(215.000000, 963.000000)">
                <path d="M9.04429688,9.405 C8.8449579,9.405 8.68359375,9.58349664 8.68359375,9.804 L8.68359375,11.4 L7.24078125,11.4 L7.24078125,9.804 C7.24078125,9.58349664 7.0794171,9.405 6.88007813,9.405 C6.68073915,9.405 6.519375,9.58349664 6.519375,9.804 L6.519375,13.794 C6.519375,14.0145034 6.68073915,14.193 6.88007813,14.193 C7.0794171,14.193 7.24078125,14.0145034 7.24078125,13.794 L7.24078125,12.198 L8.68359375,12.198 L8.68359375,13.794 C8.68359375,14.0145034 8.8449579,14.193 9.04429688,14.193 C9.24363585,14.193 9.405,14.0145034 9.405,13.794 L9.405,9.804 C9.405,9.58349664 9.24363585,9.405 9.04429688,9.405 M5.35710938,13.395 L4.99640625,13.395 L4.99640625,12.597 L5.35710938,12.597 C5.55598665,12.597 5.7178125,12.7760074 5.7178125,12.996 C5.7178125,13.2159926 5.55598665,13.395 5.35710938,13.395 M5.35710938,11.799 L4.63570313,11.799 C4.43636415,11.799 4.275,11.9774966 4.275,12.198 L4.275,14.991 C4.275,15.2115034 4.43636415,15.39 4.63570313,15.39 C4.8350421,15.39 4.99640625,15.2115034 4.99640625,14.991 L4.99640625,14.193 L5.35710938,14.193 C5.95385663,14.193 6.43921875,13.6561056 6.43921875,12.996 C6.43921875,12.3358944 5.95385663,11.799 5.35710938,11.799" id="Fill-3"></path>
                <path d="M3.66397144,15.7288376 C2.23903014,14.3214331 1.52681904,12.0772327 2.44580853,10.2194028 L6.84,2.2064388 L11.1133095,10.2194028 C12.0406195,12.0772327 11.4215475,14.4931309 10.0059311,15.9153382 C8.23964966,17.7574019 5.7178125,17.7574019 3.66397144,15.7288376 Z M7.60025876,0.43793232 C7.30128793,-0.14597744 6.38720355,-0.14597744 6.08823273,0.43793232 L1.16994402,9.65934718 C-0.145630113,12.2557444 0.765706336,15.1356673 2.79058329,17.1299624 C3.9267493,18.253042 5.37905805,18.81 6.83995276,18.81 C8.30084747,18.81 9.75328437,18.2440132 10.8894504,17.1299624 C12.9141992,15.1356673 13.7000461,12.0013973 12.384472,9.405 L7.60025876,0.43793232 Z" id="Fill-1"></path>
                <path d="M12.770969,1.9886842 C12.9631645,1.61710527 13.5507902,1.61710527 13.7429857,1.9886842 L13.7429857,1.9886842 L16.6319325,7.64855263 C17.4776587,9.30080544 17.1590903,11.3417883 15.857466,12.6108852 C15.1270736,13.3198266 13.3809265,13.5945 12.4417799,13.5945 C12.1442172,13.5945 10.1350648,7.14310442 10.2643046,6.89038031 C10.8213412,5.80111451 11.6568959,4.16721581 12.770969,1.9886842 Z M13.2548755,3.5055 L11.1167479,7.64855263 C11.0396053,7.80292895 12.2812804,12.3325395 12.7510813,12.4308319 C13.5533409,12.5986818 14.415426,12.3614912 15.0485283,11.7192603 C15.9585674,10.8142193 16.1821852,9.34906437 15.5860573,8.16680897 L15.5860573,8.16680897 L13.2548755,3.5055 Z" id="形状结合"></path>
            </g>
        </g>
    </g>
</svg>