<?xml version="1.0" encoding="UTF-8"?>
<svg width="13px" height="16px" viewBox="0 0 13 16" version="1.1" xmlns="http://www.w3.org/2000/svg" xmlns:xlink="http://www.w3.org/1999/xlink">
    <!-- Generator: Sketch 63 (92445) - https://sketch.com -->
    <title></title>
    <desc></desc>
    <defs>
        <polygon id="path-1" points="0 0.07504 12.57496 0.07504 12.57496 15.999984 0 15.999984"></polygon>
    </defs>
    <g id="页面-1" stroke="none" stroke-width="1" fill="none" fill-rule="evenodd">
        <g id="商品信息" transform="translate(-30.000000, -261.000000)">
            <g id="编组" transform="translate(30.000000, 261.000000)">
                <g transform="translate(0.000000, 0.005040)">
                    <mask id="mask-2" fill="white">
                        <use xlink:href="#path-1"></use>
                    </mask>
                    <g id="Clip-2"></g>
                    <path d="M11.537496,9.662464 C11.537496,11.574944 9.775016,13.324944 6.299976,14.849984 C2.812456,13.149984 1.049976,11.399984 1.049976,9.662464 L1.049976,3.349984 C2.762456,3.237504 4.512456,2.587504 6.262456,1.399984 C7.525016,2.362464 9.287496,2.999984 11.512536,3.299984 L11.512536,9.662464 L11.537496,9.662464 Z M12.112456,2.325024 C9.662536,2.049984 7.812456,1.387504 6.625016,0.349984 L6.312456,0.075024 L5.975016,0.312464 C4.125016,1.649984 2.287496,2.325024 0.525016,2.325024 L-2.4e-05,2.325024 L-2.4e-05,9.662464 C-2.4e-05,11.912464 1.987496,13.949984 6.062456,15.899984 L6.275016,15.999984 L6.487496,15.899984 C10.525016,14.162464 12.575016,12.062464 12.575016,9.649984 L12.575016,2.375024 L12.112456,2.325024 Z" id="Fill-1" fill="#000000" mask="url(#mask-2)"></path>
                </g>
                <path d="M3.8,7.38004 C3.61248,7.16756 3.27504,7.14252 3.06248,7.33004 C2.85,7.51756 2.82496,7.855 3.01248,8.06748 L5.01248,10.33004 C5.22496,10.56748 5.51248,10.68004 5.8,10.68004 C6.11248,10.68004 6.41248,10.54252 6.61248,10.29252 L9.85,6.31756 C10.03752,6.09252 10,5.76756 9.77504,5.58004 C9.55,5.39252 9.22504,5.43004 9.03752,5.65508 L5.78752,9.64252 L3.8,7.38004 Z" id="Fill-3" fill="#000000"></path>
            </g>
        </g>
    </g>
</svg>