<?xml version="1.0" encoding="UTF-8"?>
<svg width="18px" height="18px" viewBox="0 0 18 18" version="1.1" xmlns="http://www.w3.org/2000/svg" xmlns:xlink="http://www.w3.org/1999/xlink">
    <!-- Generator: Sketch 63 (92445) - https://sketch.com -->
    <title></title>
    <desc></desc>
    <defs>
        <polygon id="path-1" points="-1.96020002e-05 2.85120015e-05 17.8199804 2.85120015e-05 17.8199804 17.8200285 -1.96020002e-05 17.8200285"></polygon>
    </defs>
    <g id="页面-1" stroke="none" stroke-width="1" fill="none" fill-rule="evenodd">
        <g id="推广页-移动" transform="translate(-332.000000, -963.000000)">
            <g id="编组备份-16" transform="translate(332.000000, 963.000000)">
                <mask id="mask-2" fill="white">
                    <use xlink:href="#path-1"></use>
                </mask>
                <g id="Clip-2"></g>
                <path d="M10.8648148,4.45505702 C11.0616545,4.45516394 11.2211792,4.6147955 11.2210723,4.81163522 C11.2209653,4.85707622 11.2123048,4.90208954 11.1954114,4.94421602 L7.96108144,13.0291857 C7.87982224,13.2320129 7.68330328,13.3650214 7.4647588,13.3650214 L6.57112144,13.3650214 C6.37428172,13.3650214 6.21475708,13.2052829 6.21486389,13.0085501 C6.21486389,12.9631091 6.22363144,12.9180958 6.2405248,12.8758624 L9.4748548,4.79099966 C9.55600708,4.58838626 9.75209836,4.45537778 9.97032208,4.45505702 L10.8648148,4.45505702 Z M10.6912831,10.6926629 C10.6909629,10.2006171 11.0895606,9.80137778 11.5816065,9.80105702 C12.0751492,9.80137778 12.47364,10.2006171 12.4733199,10.6926629 C12.4728916,11.1842811 12.0746146,11.5827719 11.5829964,11.5830932 C11.0908437,11.5834134 10.6917113,11.1848157 10.6912831,10.6926629 Z M5.34592516,7.12805702 C5.34592516,6.63590426 5.74484368,6.23709266 6.23699644,6.23709266 C6.7291492,6.23709266 7.12806772,6.63590426 7.12806772,7.12805702 C7.12806772,7.62010286 6.7291492,8.01902138 6.23699644,8.01902138 C5.74484368,8.01902138 5.34592516,7.62010286 5.34592516,7.12805702 Z" id="Fill-1" fill="#98A4AF" mask="url(#mask-2)"></path>
                <circle id="椭圆形" stroke="#98A4AF" stroke-width="1.3365" mask="url(#mask-2)" cx="8.91" cy="8.91" r="8.24175"></circle>
            </g>
        </g>
    </g>
</svg>