<?xml version="1.0" encoding="UTF-8"?>
<svg width="40px" height="44px" viewBox="0 0 40 44" version="1.1" xmlns="http://www.w3.org/2000/svg" xmlns:xlink="http://www.w3.org/1999/xlink">
    <!-- Generator: Sketch 63 (92445) - https://sketch.com -->
    <title></title>
    <desc></desc>
    <g id="页面-1" stroke="none" stroke-width="1" fill="none" fill-rule="evenodd">
        <g id="首次溯源码结果查询" transform="translate(-290.000000, -52.000000)" fill="#F64242">
            <g id="编组-5" transform="translate(290.000000, 52.000000)">
                <path d="M37.3967747,19.8786042 L37.3879785,19.8786042 C37.3879785,25.7594485 34.5362543,31.3391912 29.7601439,34.819592 L20.4528971,41.5995565 C20.0663046,41.8790722 19.520721,41.8834775 19.1343484,41.5995565 L9.82688168,34.8151867 C5.05099124,31.3391912 2.19904708,25.7508582 2.19904708,19.8786042 L2.19904708,11.3045846 L37.3923766,11.3045846 L37.3967747,19.8786042 Z M2.97641022,7.47154019 L19.1171959,2.29179802 C19.336221,2.21867018 19.5680005,2.1843089 19.8043981,2.1843089 C20.0361777,2.1843089 20.263779,2.21867018 20.4828041,2.29179802 L36.627768,7.47154019 C37.0873688,7.61779588 37.4009529,8.03938231 37.4009529,8.51691595 L37.4009529,9.1019387 L2.20758208,9.1019387 L2.20758208,8.51691595 C2.20344517,8.03079199 2.51680938,7.61339059 2.97641022,7.47154019 L2.97641022,7.47154019 Z M37.3022157,5.38937899 L21.1528538,0.209636826 C20.2723553,-0.0698789421 19.3146703,-0.0698789421 18.4341719,0.209636826 L2.28920801,5.38937899 C0.919201679,5.82814606 0,7.08431503 0,8.51691595 L0,19.8827892 C0,26.4477754 3.18685903,32.694259 8.52548562,36.5832506 L17.8371306,43.35903 C18.4126212,43.7764314 19.0912471,44 19.8,44 C20.5129311,44 21.191557,43.7806165 21.7628694,43.3634353 L31.0745144,36.5790656 C36.413141,32.6856687 39.6,26.4433701 39.6,19.8786042 L39.6,8.51251065 C39.5914237,7.08431503 38.672222,5.82814606 37.3022157,5.38937899 L37.3022157,5.38937899 Z" id="Fill-1备份-2"></path>
                <text id="真" font-family="PingFangSC-Regular, PingFang SC" font-size="17.6" font-weight="normal">
                    <tspan x="11" y="28.9">真</tspan>
                </text>
            </g>
        </g>
    </g>
</svg>