<?xml version="1.0" encoding="UTF-8"?>
<svg width="16px" height="20px" viewBox="0 0 16 20" version="1.1" xmlns="http://www.w3.org/2000/svg" xmlns:xlink="http://www.w3.org/1999/xlink">
    <!-- Generator: Sketch 63 (92445) - https://sketch.com -->
    <title></title>
    <desc></desc>
    <defs>
        <polygon id="path-1" points="0 9.234e-05 15.0619878 9.234e-05 15.0619878 19.1366339 0 19.1366339"></polygon>
    </defs>
    <g id="页面-1" stroke="none" stroke-width="1" fill="none" fill-rule="evenodd">
        <g id="推广页-移动" transform="translate(-100.000000, -963.000000)">
            <g id="编组备份-13" transform="translate(100.000000, 963.000000)">
                <mask id="mask-2" fill="white">
                    <use xlink:href="#path-1"></use>
                </mask>
                <g id="Clip-2"></g>
                <path d="M12.1992939,15.5661539 C11.0227797,16.9683881 9.3264939,17.7686681 7.5276081,17.7686681 C5.7287223,17.7686681 4.0323339,16.9683881 2.8559223,15.5661539 C0.8587107,13.1790623 0.8587107,9.70410294 2.8559223,7.31711394 L7.5276081,1.73567394 L12.1992939,7.31711394 C14.1965055,9.70410294 14.1965055,13.1790623 12.1992939,15.5661539 M13.2458139,6.44162814 L8.0543565,0.23094234 C7.7942655,-0.07685766 7.2677223,-0.07685766 7.0077339,0.23094234 L1.8161739,6.44162814 C-0.6053913,9.33515334 -0.6053913,13.5481145 1.8161739,16.4416397 C3.2389281,18.1516739 5.3250939,19.1366339 7.5276081,19.1366339 C9.7301223,19.1366339 11.8162881,18.1516739 13.2458139,16.4416397 C15.6674817,13.5481145 15.6674817,9.33515334 13.2458139,6.44162814 M9.5796081,11.6126681 C9.5796081,12.7412681 8.6562081,13.6646681 7.5276081,13.6646681 C6.3990081,13.6646681 5.4756081,12.7412681 5.4756081,11.6126681 C5.4756081,10.4840681 6.3990081,9.56066814 7.5276081,9.56066814 C8.6562081,9.56066814 9.5796081,10.4840681 9.5796081,11.6126681 M4.1075397,11.6126681 C4.1075397,13.5005081 5.6397681,15.0326339 7.5276081,15.0326339 C9.4154481,15.0326339 10.9475739,13.5005081 10.9475739,11.6126681 C10.9475739,10.8397823 10.6808139,10.1351255 10.2431223,9.56066814 L10.9475739,9.56066814 L10.9475739,8.19259974 L7.5276081,8.19259974 C5.6397681,8.19259974 4.1075397,9.72472554 4.1075397,11.6126681" id="Fill-1" fill="#98A4AF" mask="url(#mask-2)"></path>
            </g>
        </g>
    </g>
</svg>