<?xml version="1.0" encoding="UTF-8"?>
<svg width="18px" height="17px" viewBox="0 0 18 17" version="1.1" xmlns="http://www.w3.org/2000/svg" xmlns:xlink="http://www.w3.org/1999/xlink">
    <!-- Generator: Sketch 63 (92445) - https://sketch.com -->
    <title></title>
    <desc></desc>
    <defs>
        <polygon id="path-1" points="0 0 17.6886836 0 17.6886836 16.2 0 16.2"></polygon>
    </defs>
    <g id="页面-1" stroke="none" stroke-width="1" fill="none" fill-rule="evenodd">
        <g id="推广页-移动" transform="translate(-98.000000, -897.000000)">
            <g id="编组备份-17" transform="translate(98.000000, 897.000000)">
                <path d="M14.9379066,10.1159847 C15.2481366,10.1159847 15.4997226,9.8644797 15.4997226,9.5541687 C15.5748096,5.9155677 12.6860256,2.9049597 9.0473436,2.8297917 C5.4087426,2.7547047 2.3981346,5.6434887 2.3229666,9.2820897 C2.3211036,9.3728097 2.3211036,9.4635297 2.3229666,9.5541687 C2.3229666,9.8644797 2.5745526,10.1159847 2.8847826,10.1159847 C3.1950126,10.1159847 3.4465986,9.8644797 3.4465986,9.5541687 C3.3781536,6.5361087 5.7693546,4.0339377 8.7874146,3.9654927 C11.8055556,3.8971287 14.3077266,6.2883297 14.3760906,9.3063897 C14.3780346,9.3889287 14.3780346,9.4716297 14.3760906,9.5541687 C14.3760906,9.8644797 14.6276766,10.1159847 14.9379066,10.1159847" id="Fill-1" fill="#98A4AF"></path>
                <g id="编组">
                    <mask id="mask-2" fill="white">
                        <use xlink:href="#path-1"></use>
                    </mask>
                    <g id="Clip-4"></g>
                    <path d="M8.8453458,-2.23021601e-13 C3.9570768,0.003078 -0.0030942,3.968352 -1.79930407e-05,8.85654 C0.0017658,11.675745 1.3464468,14.325336 3.6207648,15.991263 C3.8711358,16.174485 4.2226758,16.119972 4.4058168,15.869601 C4.4063028,15.868953 4.4067888,15.868224 4.4071938,15.867576 C4.5890388,15.617043 4.5337968,15.266475 4.2836688,15.083982 C0.8397918,12.566097 0.0890838,7.73307 2.6070498,4.289193 C5.1249348,0.845316 9.9578808,0.094689 13.4017578,2.612574 C16.8457158,5.13054 17.5962618,9.963486 15.0783768,13.407282 C14.5776348,14.092299 13.9672998,14.690079 13.2721578,15.176646 C13.0178178,15.355008 12.9561768,15.7059 13.1345388,15.960321 C13.3129818,16.214823 13.6637928,16.276383 13.9182948,16.09794 C17.9206668,13.291695 18.8903988,7.772112 16.0839918,3.769659 C14.4290808,1.409238 11.7281358,0.002754 8.8453458,-2.23021601e-13" id="Fill-3" fill="#98A4AF" mask="url(#mask-2)"></path>
                </g>
                <path d="M9.7722531,7.8323193 C8.9073351,7.4547783 7.8969411,7.6993983 7.3003761,8.4306663 L5.6431161,7.7087133 C5.3677971,7.5657483 5.0286501,7.6730733 4.8856851,7.9483923 C4.7427201,8.2237923 4.8499641,8.5629393 5.1253641,8.7059043 C5.1483681,8.7178113 5.1721011,8.7281793 5.1965631,8.7368463 L6.8538231,9.4587183 C6.6859101,10.6084323 7.4818971,11.6765793 8.6316111,11.8444923 C9.7813251,12.0124053 10.8495531,11.2164183 11.0173851,10.0667043 C11.1547611,9.1262133 10.6444611,8.2103463 9.7722531,7.8323193" id="Fill-5" fill="#98A4AF"></path>
            </g>
        </g>
    </g>
</svg>