<?xml version="1.0" encoding="UTF-8"?>
<svg width="13px" height="13px" viewBox="0 0 13 13" version="1.1" xmlns="http://www.w3.org/2000/svg" xmlns:xlink="http://www.w3.org/1999/xlink">
    <!-- Generator: Sketch 63 (92445) - https://sketch.com -->
    <title></title>
    <desc></desc>
    <g id="页面-1" stroke="none" stroke-width="1" fill="none" fill-rule="evenodd">
        <g id="查看证书" transform="translate(-347.000000, -30.000000)" fill="#FFFFFF">
            <path d="M348.666883,30.2859918 L353.5,35.119 L358.333117,30.2859918 C358.71444,29.9046694 359.332686,29.9046694 359.714008,30.2859918 C360.095331,30.6673143 360.095331,31.2855601 359.714008,31.6668825 L354.881,36.5 L359.714008,41.3331175 C360.095331,41.7144399 360.095331,42.3326857 359.714008,42.7140082 C359.332686,43.0953306 358.71444,43.0953306 358.333117,42.7140082 L353.5,37.881 L348.666883,42.7140082 C348.28556,43.0953306 347.667314,43.0953306 347.285992,42.7140082 C346.904669,42.3326857 346.904669,41.7144399 347.285992,41.3331175 L352.119,36.5 L347.285992,31.6668825 C346.904669,31.2855601 346.904669,30.6673143 347.285992,30.2859918 C347.667314,29.9046694 348.28556,29.9046694 348.666883,30.2859918 Z" id="形状结合"></path>
        </g>
    </g>
</svg>