<?xml version="1.0" encoding="UTF-8"?>
<svg width="17px" height="20px" viewBox="0 0 17 20" version="1.1" xmlns="http://www.w3.org/2000/svg" xmlns:xlink="http://www.w3.org/1999/xlink">
    <!-- Generator: Sketch 63 (92445) - https://sketch.com -->
    <title></title>
    <desc></desc>
    <defs>
        <polygon id="path-1" points="0.07222932 0.0158077253 10.7966844 0.0158077253 10.7966844 19.4399539 0.07222932 19.4399539"></polygon>
    </defs>
    <g id="页面-1" stroke="none" stroke-width="1" fill="none" fill-rule="evenodd">
        <g id="推广页-移动" transform="translate(-215.000000, -897.000000)">
            <g id="编组备份-15" transform="translate(215.000000, 897.000000)">
                <g id="编组" transform="translate(6.220800, 0.081454)">
                    <mask id="mask-2" fill="white">
                        <use xlink:href="#path-1"></use>
                    </mask>
                    <g id="Clip-2"></g>
                    <path d="M5.43611412,18.0224255 C3.45420612,18.0499331 1.77507612,16.5688967 1.55482092,14.5991387 C1.39045572,12.6338519 2.75990652,10.8705467 4.70468412,10.5432743 L4.70468412,2.12507388 C4.71003012,1.72849788 5.03603892,1.41133428 5.43261492,1.41661368 C5.43387852,1.41661368 5.43494772,1.41661368 5.43611412,1.41661368 C5.62818132,1.41541668 5.81286132,1.49006628 5.95010772,1.62429948 C6.08657652,1.75551948 6.16491972,1.93582548 6.16754412,2.12507388 L6.16754412,10.5432743 C8.11475172,10.8736571 9.48400812,12.6410447 9.31740732,14.6090531 C9.09102852,16.5741455 7.41403692,18.0488639 5.43611412,18.0224255 M7.61718492,9.50216508 L7.61718492,2.12507388 C7.57033452,0.91415628 6.55060932,-0.02946132 5.33959452,0.01748628 C4.19448132,0.06190668 3.27623292,0.97996068 3.23190972,2.12507388 L3.23190972,9.50216508 C1.32883092,10.3127159 0.08778132,12.1748735 0.07222932,14.2432895 C0.11363652,17.1544295 2.50708932,19.4809115 5.41822932,19.4394071 C5.42425572,19.4393099 5.43008772,19.4392127 5.43611412,19.4391155 C8.34715692,19.4885903 10.7471221,17.1688151 10.7964025,14.2578695 L10.7966941,14.2432895 C10.7777401,12.1701107 9.52813692,10.3065923 7.61718492,9.50216508" id="Fill-1" fill="#98A4AF" mask="url(#mask-2)"></path>
                </g>
                <path d="M7.09697052,9.27386172 C7.23314772,9.14546052 7.31051892,8.96680692 7.31110212,8.77969692 C7.30906092,8.59287852 7.23188412,8.41471092 7.09697052,8.28543492 C6.95962692,8.15577012 6.77844612,8.08277292 6.58958652,8.08112052 L0.98843652,8.08112052 C0.59205492,8.06644332 0.25875612,8.37592812 0.24407892,8.77230972 C0.24398172,8.77473972 0.24388452,8.77716972 0.24378732,8.77969692 C0.24437052,8.96680692 0.32183892,9.14546052 0.45801612,9.27386172 C0.60099732,9.40916412 0.79160652,9.48245292 0.98843652,9.47817612 L6.58958652,9.47817612 C6.77844612,9.47652372 6.95962692,9.40352652 7.09697052,9.27386172 L7.09697052,9.27386172 Z M6.58958652,3.88694052 C6.78145932,3.88907892 6.96672252,3.81705372 7.10688492,3.68593092 C7.37982252,3.42630972 7.39061172,2.99464452 7.13108772,2.72170692 C7.12321452,2.71344492 7.11514692,2.70537732 7.10688492,2.69750412 C6.96759732,2.56424292 6.78233412,2.48988492 6.58958652,2.48998212 L0.73143972,2.48998212 C0.33729372,2.48249772 0.01079892,2.79431532 9.72e-06,3.18846132 C0.00117612,3.37634892 0.07845012,3.55587732 0.21414132,3.68593092 C0.35420652,3.81705372 0.53956692,3.88907892 0.73143972,3.88694052 L6.58958652,3.88694052 Z M6.58958652,5.28720372 L2.19429972,5.28720372 C1.80141732,5.27622012 1.47404772,5.58580212 1.46306412,5.97868452 L1.46286972,5.98568292 C1.46345292,6.17279292 1.54082412,6.35154372 1.67700132,6.47984772 C1.81881612,6.60717972 2.00388492,6.67551132 2.19429972,6.67104012 L6.58958652,6.67104012 C6.78184812,6.67191492 6.96711132,6.59882052 7.10688492,6.46672572 C7.24170132,6.33744972 7.31897532,6.15937932 7.32101652,5.97246372 C7.32043332,5.78535372 7.24296492,5.60660292 7.10688492,5.47829892 C6.96507012,5.35106412 6.78000132,5.28263532 6.58958652,5.28720372 L6.58958652,5.28720372 Z M13.6272553,14.0677657 C13.3117441,14.0763193 13.0576633,14.3290393 13.0473601,14.6443561 C12.8945617,15.4116529 12.1486489,15.9099973 11.3811577,15.7571989 C10.7485801,15.6312277 10.2809509,15.0939061 10.2434317,14.4499561 C10.2368221,13.7336893 10.7791009,13.1312437 11.4922573,13.0628149 C11.7222325,13.0657309 11.9341285,12.9381073 12.0391045,12.7334041 C12.1414561,12.5294785 12.1117129,12.2840485 11.9632885,12.1107409 C11.8105873,11.9354893 11.5734193,11.8594789 11.3472349,11.9129389 C9.95017932,12.0194701 8.90391852,13.2383581 9.01054692,14.6355109 C9.11464812,16.0017541 10.2848389,17.0383921 11.6536093,16.9770589 C13.0109101,16.9959157 14.1524269,15.9636517 14.2696501,14.6114053 L14.2532233,14.6114053 C14.2235773,14.2919089 13.9476265,14.0523109 13.6272553,14.0677657 L13.6272553,14.0677657 Z" id="Fill-3" fill="#98A4AF"></path>
            </g>
        </g>
    </g>
</svg>