<?xml version="1.0" encoding="UTF-8"?>
<svg width="18px" height="20px" viewBox="0 0 18 20" version="1.1" xmlns="http://www.w3.org/2000/svg" xmlns:xlink="http://www.w3.org/1999/xlink">
    <!-- Generator: Sketch 63 (92445) - https://sketch.com -->
    <title></title>
    <desc></desc>
    <g id="页面-1" stroke="none" stroke-width="1" fill="none" fill-rule="evenodd">
        <g id="推广页-移动" transform="translate(-215.000000, -831.000000)" fill="#98A4AF">
            <g id="编组备份-19" transform="translate(215.000000, 831.000000)">
                <path d="M8.9775,5.664375 C6.67547235,5.664375 4.809375,7.53047235 4.809375,9.8325 C4.809375,12.1344165 6.67547235,14.000625 8.9775,14.000625 C11.2795276,14.000625 13.145625,12.1344165 13.145625,9.8325 C13.145625,7.53047235 11.2795276,5.664375 8.9775,5.664375 M8.9775,4.275 C12.0467961,4.275 14.535,6.7632039 14.535,9.8325 C14.535,12.9017961 12.0467961,15.39 8.9775,15.39 C5.9082039,15.39 3.42,12.9017961 3.42,9.8325 C3.42,6.7632039 5.9082039,4.275 8.9775,4.275" id="Fill-1"></path>
                <path d="M8.55,0 L8.55,0 C9.1200456,0 9.405,0.2137158 9.405,0.64125 L9.405,1.92375 C9.405,2.3512842 9.1200456,2.565 8.55,2.565 C7.9799544,2.565 7.695,2.3512842 7.695,1.92375 L7.695,0.64125 C7.695,0.2137158 7.9799544,0 8.55,0" id="Fill-3"></path>
                <path d="M16.9774751,4.72956501 L16.9774751,4.72956501 C17.200673,5.20751532 17.1189159,5.5845238 16.7323111,5.86059044 L15.5723896,6.68852543 C15.1856776,6.9644596 14.8808299,6.86338529 14.657632,6.38543499 C14.434327,5.90748468 14.5159769,5.53034373 14.9026889,5.25440956 L16.0626104,4.42647457 C16.4492152,4.1505404 16.7542773,4.25161471 16.9774751,4.72956501" id="Fill-5"></path>
                <path d="M16.9774751,14.9353909 L16.9774751,14.9353909 C16.7542773,15.4134845 16.4492152,15.5144287 16.0626104,15.2384882 L14.9026889,14.4105344 C14.5159769,14.1345939 14.434327,13.7575768 14.657632,13.2794832 C14.8808299,12.8015219 15.1856776,12.7005778 15.5723896,12.9765183 L16.7323111,13.8044721 C17.1189159,14.0804126 17.200673,14.4574297 16.9774751,14.9353909" id="Fill-7"></path>
                <path d="M8.55,19.665 L8.55,19.665 C7.9799544,19.665 7.695,19.4512842 7.695,19.02375 L7.695,17.74125 C7.695,17.3138184 7.9799544,17.1 8.55,17.1 C9.1200456,17.1 9.405,17.3138184 9.405,17.74125 L9.405,19.02375 C9.405,19.4512842 9.1200456,19.665 8.55,19.665" id="Fill-9"></path>
                <path d="M0.122549559,14.9353909 L0.122549559,14.9353909 C-0.100643528,14.4574297 -0.0189953611,14.0804126 0.367708361,13.8044721 L1.52760523,12.9765183 C1.91430895,12.7005778 2.2191502,12.8015219 2.44245044,13.2794832 C2.66564353,13.7575768 2.58399536,14.1345939 2.19729164,14.4105344 L1.03739477,15.2384882 C0.650691051,15.5144287 0.345742647,15.4134845 0.122549559,14.9353909" id="Fill-11"></path>
                <path d="M0.122549559,4.72956501 L0.122549559,4.72956501 C0.345742647,4.25161471 0.650691051,4.1505404 1.03739477,4.42647457 L2.19729164,5.25440956 C2.58399536,5.53034373 2.66564353,5.90748468 2.44245044,6.38543499 C2.2191502,6.86338529 1.91430895,6.9644596 1.52760523,6.68852543 L0.367708361,5.86059044 C-0.0189953611,5.5845238 -0.100643528,5.20751532 0.122549559,4.72956501" id="Fill-13"></path>
            </g>
        </g>
    </g>
</svg>