<?xml version="1.0" encoding="UTF-8"?>
<svg width="40px" height="44px" viewBox="0 0 40 44" version="1.1" xmlns="http://www.w3.org/2000/svg" xmlns:xlink="http://www.w3.org/1999/xlink">
    <!-- Generator: Sketch 63 (92445) - https://sketch.com -->
    <title></title>
    <desc></desc>
    <defs>
        <polygon id="path-1" points="0 2.1296e-05 17.4228653 2.1296e-05 17.4228653 17.4214271 0 17.4214271"></polygon>
    </defs>
    <g id="页面-1" stroke="none" stroke-width="1" fill="none" fill-rule="evenodd">
        <g id="商品信息" transform="translate(-290.000000, -279.000000)">
            <g id="编组-10" transform="translate(290.000000, 279.000000)">
                <path d="M37.3967747,19.8786042 L37.3879785,19.8786042 C37.3879785,25.7594485 34.5362543,31.3391912 29.7601439,34.819592 L20.4528971,41.5995565 C20.0663046,41.8790722 19.520721,41.8834775 19.1343484,41.5995565 L9.82688168,34.8151867 C5.05099124,31.3391912 2.19904708,25.7508582 2.19904708,19.8786042 L2.19904708,11.3045846 L37.3923766,11.3045846 L37.3967747,19.8786042 Z M2.97641022,7.47154019 L19.1171959,2.29179802 C19.336221,2.21867018 19.5680005,2.1843089 19.8043981,2.1843089 C20.0361777,2.1843089 20.263779,2.21867018 20.4828041,2.29179802 L36.627768,7.47154019 C37.0873688,7.61779588 37.4009529,8.03938231 37.4009529,8.51691595 L37.4009529,9.1019387 L2.20758208,9.1019387 L2.20758208,8.51691595 C2.20344517,8.03079199 2.51680938,7.61339059 2.97641022,7.47154019 L2.97641022,7.47154019 Z M37.3022157,5.38937899 L21.1528538,0.209636826 C20.2723553,-0.0698789421 19.3146703,-0.0698789421 18.4341719,0.209636826 L2.28920801,5.38937899 C0.919201679,5.82814606 0,7.08431503 0,8.51691595 L0,19.8827892 C0,26.4477754 3.18685903,32.694259 8.52548562,36.5832506 L17.8371306,43.35903 C18.4126212,43.7764314 19.0912471,44 19.8,44 C20.5129311,44 21.191557,43.7806165 21.7628694,43.3634353 L31.0745144,36.5790656 C36.413141,32.6856687 39.6,26.4433701 39.6,19.8786042 L39.6,8.51251065 C39.5914237,7.08431503 38.672222,5.82814606 37.3022157,5.38937899 L37.3022157,5.38937899 Z" id="Fill-1备份" fill="#2787F5"></path>
                <g id="编组备份-2" transform="translate(11.000000, 14.300000)">
                    <mask id="mask-2" fill="white">
                        <use xlink:href="#path-1"></use>
                    </mask>
                    <g id="Clip-2"></g>
                    <path d="M1.50985446,7.54924034 C1.50985446,4.21961074 4.21966398,1.50980122 7.54929358,1.50980122 C10.8788167,1.50980122 13.5887327,4.21961074 13.5887327,7.54924034 C13.5887327,10.8787635 10.8788167,13.588573 7.54929358,13.588573 C4.21966398,13.588573 1.50985446,10.8787635 1.50985446,7.54924034 M17.2010667,16.1341903 L13.3911058,12.324123 C14.4580354,11.0222985 15.0985126,9.36057162 15.0985126,7.54924034 C15.0985126,3.38778898 11.7127681,2.1296e-05 7.54929358,2.1296e-05 C3.38784222,2.1296e-05 -3.1944e-05,3.38565938 -3.1944e-05,7.54924034 C-3.1944e-05,11.7127148 3.38571262,15.0984594 7.54929358,15.0984594 C9.35860174,15.0984594 11.0223517,14.4578757 12.3242827,13.3910526 L16.1342436,17.2010135 C16.2818249,17.3487012 16.475299,17.4214271 16.6686667,17.4214271 C16.8621409,17.4214271 17.0555085,17.3487012 17.2031963,17.2010135 C17.4964422,16.9057444 17.4964422,16.4273298 17.2010667,16.1341903" id="Fill-1" fill="#2787F5" mask="url(#mask-2)"></path>
                </g>
            </g>
        </g>
    </g>
</svg>