<?xml version="1.0" encoding="UTF-8"?>
<svg width="16px" height="16px" viewBox="0 0 16 16" version="1.1" xmlns="http://www.w3.org/2000/svg" xmlns:xlink="http://www.w3.org/1999/xlink">
    <!-- Generator: Sketch 63 (92445) - https://sketch.com -->
    <title></title>
    <desc></desc>
    <g id="页面-1" stroke="none" stroke-width="1" fill="none" fill-rule="evenodd">
        <g id="推广页-移动" transform="translate(-334.000000, -765.000000)" fill="#98A4AF">
            <g id="分组-7备份-3" transform="translate(259.000000, 765.000000)">
                <path d="M76.6,8.8 L76.6,15.2 C76.6,15.641856 76.241856,16 75.8,16 C75.358144,16 75,15.641856 75,15.2 L75,0.8 C75,0.358144 75.358144,0 75.8,0 L88.6,0 C89.92544,0 91,1.07456 91,2.4 L91,6.4 C91,7.72544 89.92544,8.8 88.6,8.8 L76.6,8.8 Z M76.6,7.2 L79.8,7.2 L79.8,1.6 L76.6,1.6 L76.6,7.2 Z M86.2,7.2 L88.6,7.2 C89.041856,7.2 89.4,6.841856 89.4,6.4 L89.4,2.4 C89.4,1.958144 89.041856,1.6 88.6,1.6 L86.2,1.6 L86.2,7.2 Z M81.4,7.2 L84.6,7.2 L84.6,1.6 L81.4,1.6 L81.4,7.2 Z" id="Fill-1备份-2"></path>
            </g>
        </g>
    </g>
</svg>